<svg id="圖層_1" data-name="圖層 1" xmlns="http://www.w3.org/2000/svg" xmlns:xlink="http://www.w3.org/1999/xlink" viewBox="0 0 500 500"><defs><style>.cls-1{fill:none;}.cls-2{fill:#f18f01;}.cls-3{fill:#9dcb3b;}.cls-4{clip-path:url(#clip-path);}.cls-5{fill:#468943;}.cls-6{fill:#5b9b40;}.cls-7{fill:#c1c0bd;}.cls-8{fill:#7b231c;}.cls-9{fill:#a93226;}.cls-10{fill:#961b20;}.cls-11{fill:#915628;}.cls-12{fill:#7a4922;}.cls-13{fill:#dcdbd6;}.cls-14{fill:#eae9e4;}.cls-15{fill:#cdccc8;}.cls-16{fill:#922b21;}.cls-17{fill:#eef0eb;}.cls-18{fill:#f2f2f2;}.cls-19{fill:#70ae3e;}.cls-20{fill:#1d8449;}.cls-21{fill:#754c24;}.cls-22{fill:#a3612d;}.cls-23{fill:#bbbab6;}.cls-24{fill:#92d1f7;}.cls-25{fill:#a6deff;}.cls-26{fill:#e67e21;}.cls-27{fill:#af6019;}.cls-28{fill:#6a6c65;}.cls-29{fill:#e6e5e0;}</style><clipPath id="clip-path"><circle class="cls-1" cx="352.85" cy="266.21" r="119.09"/></clipPath></defs><circle class="cls-2" cx="274.58" cy="133.94" r="77.04"/><circle class="cls-3" cx="153.59" cy="259.18" r="134.01"/><g class="cls-4"><circle class="cls-5" cx="352.85" cy="266.21" r="119.09"/><circle class="cls-6" cx="340.25" cy="270.26" r="119.09"/><circle class="cls-5" cx="325.69" cy="274.14" r="119.09"/><circle class="cls-6" cx="311.13" cy="278.02" r="119.09"/><circle class="cls-5" cx="296.57" cy="281.9" r="119.09"/><circle class="cls-6" cx="282.01" cy="285.78" r="119.09"/><circle class="cls-5" cx="267.45" cy="289.66" r="119.09"/><circle class="cls-6" cx="252.89" cy="293.55" r="119.09"/><circle class="cls-5" cx="238.33" cy="297.43" r="119.09"/><circle class="cls-6" cx="223.77" cy="301.31" r="119.09"/><circle class="cls-5" cx="209.21" cy="305.19" r="119.09"/><circle class="cls-6" cx="194.65" cy="309.07" r="119.09"/><circle class="cls-5" cx="180.09" cy="312.95" r="119.09"/><circle class="cls-6" cx="165.53" cy="316.83" r="119.09"/><circle class="cls-5" cx="150.97" cy="320.71" r="119.09"/><circle class="cls-6" cx="136.41" cy="324.59" r="119.09"/><circle class="cls-5" cx="121.85" cy="328.47" r="119.09"/><circle class="cls-6" cx="107.29" cy="332.35" r="119.09"/><circle class="cls-6" cx="92.73" cy="336.23" r="119.09"/></g><path class="cls-7" d="M112.45,136.84h-5.87a4.2,4.2,0,0,1-3.57-6.43l12.8-20.48,39.53-23.06a1.65,1.65,0,0,1,1.69,0l39.53,23.06,12.8,20.48a4.2,4.2,0,0,1-3.56,6.43Z"/><path class="cls-8" d="M199.93,190.68H112.45V136.84l13.12-20.18,30.62-16.83,30.62,16.83,13.12,20.18Z"/><path class="cls-9" d="M199.93,190.68H112.45V143.57L128.09,120l28.1-15.56L184.28,120l15.65,23.55Z"/><path class="cls-10" d="M149.46,123.39h13.46v13.45H149.46Z"/><path class="cls-11" d="M112.45,170.49h87.48v20.19H112.45Z"/><path class="cls-12" d="M112.45,184h87.48v6.73H112.45Z"/><path class="cls-13" d="M112.45,170.49h87.48V173H112.45Z"/><path class="cls-10" d="M144.41,150.3H168a3.37,3.37,0,0,1,3.37,3.37v37H141.05v-37A3.36,3.36,0,0,1,144.41,150.3Z"/><path class="cls-14" d="M162.92,140.21H149.46a3.37,3.37,0,0,1-3.37-3.37V123.39a3.37,3.37,0,0,1,3.37-3.37h13.46a3.37,3.37,0,0,1,3.36,3.37v13.45A3.37,3.37,0,0,1,162.92,140.21Zm-10.1-6.73h6.73v-6.73h-6.73Z"/><path class="cls-15" d="M199.93,146.94l20.18,6.73v4.2l-20.18-6.73Z"/><path class="cls-16" d="M199.93,151.14l20.18,6.73v32.81H199.93Z"/><path class="cls-14" d="M139.36,152v38.69H173V152a1.69,1.69,0,0,0-1.68-1.69H141.05A1.69,1.69,0,0,0,139.36,152ZM163,157l-6.83,8.2-6.84-8.2Zm-16.93,6.61,5.72,6.85-5.72,6.86ZM149.35,184l6.84-8.2L163,184Zm16.93-6.6-5.71-6.86,5.71-6.85Z"/><path class="cls-8" d="M199.93,151.14l20.18,6.73v4.21l-20.18-6.73Z"/><path class="cls-15" d="M139.36,184H173v3.36H139.36Z"/><polygon class="cls-17" points="67.74 174.46 64.41 180.22 64.39 210.89 71.1 210.89 71.06 180.22 67.74 174.46"/><polygon class="cls-17" points="84.55 174.46 81.23 180.22 81.2 210.89 87.91 210.89 87.88 180.22 84.55 174.46"/><polygon class="cls-17" points="101.36 174.46 98.04 180.22 98.01 210.89 104.72 210.89 104.69 180.22 101.36 174.46"/><polygon class="cls-17" points="118.18 174.46 114.85 180.22 114.82 210.89 121.53 210.89 121.5 180.22 118.18 174.46"/><rect class="cls-18" x="58.88" y="186.99" width="68.51" height="3.33"/><rect class="cls-17" x="58.88" y="199.13" width="68.51" height="3.33"/><path class="cls-19" d="M242,367.24a121.89,121.89,0,0,1-1.73,20.53H1.74A121,121,0,1,1,242,367.24Z"/><path class="cls-20" d="M500,443.11H70.32c.27-5.55.77-11,1.46-16.46C85.32,320.87,175.69,239.1,285.16,239.1S485,320.87,498.54,426.65Q499.58,434.79,500,443.11Z"/><path class="cls-21" d="M423.93,443.11H374.44A215.26,215.26,0,0,0,194.38,259a213.9,213.9,0,0,1,36-12.94C333.76,256,415.77,339.18,423.93,443.11Z"/><path class="cls-20" d="M359.76,104.68h0a17.37,17.37,0,0,1,17.36,17.37v17.36a17.36,17.36,0,0,1-17.36,17.36h0a17.36,17.36,0,0,1-17.36-17.36V122.05A17.37,17.37,0,0,1,359.76,104.68Z"/><path class="cls-22" d="M359.76,181.59c-2.4,0-4.34-1.2-4.34-2.67V142.08c0-1.47,1.94-2.67,4.34-2.67s4.34,1.2,4.34,2.67v36.84C364.1,180.39,362.16,181.59,359.76,181.59Z"/><path class="cls-20" d="M58.64,243h0A17.36,17.36,0,0,1,76,260.4v17.36a17.37,17.37,0,0,1-17.36,17.37h0a17.37,17.37,0,0,1-17.37-17.37V260.4A17.37,17.37,0,0,1,58.64,243Z"/><path class="cls-22" d="M58.64,320c-2.4,0-4.34-1.2-4.34-2.68V280.44c0-1.48,1.94-2.68,4.34-2.68S63,279,63,280.44v36.83C63,318.75,61,320,58.64,320Z"/><path class="cls-3" d="M415.1,125.3h0a17.37,17.37,0,0,1,17.37,17.36V160a17.37,17.37,0,0,1-17.37,17.36h0A17.36,17.36,0,0,1,397.74,160V142.66A17.37,17.37,0,0,1,415.1,125.3Z"/><path class="cls-22" d="M415.1,204.38c-2.39,0-4.34-1.26-4.34-2.81V162.84c0-1.56,1.95-2.81,4.34-2.81s4.34,1.25,4.34,2.81v38.73C419.44,203.12,417.5,204.38,415.1,204.38Z"/><path class="cls-3" d="M225.2,246.16h0a20.61,20.61,0,0,1,20.61,20.61v20.6A20.61,20.61,0,0,1,225.2,308h0a20.6,20.6,0,0,1-20.61-20.61v-20.6A20.6,20.6,0,0,1,225.2,246.16Z"/><path class="cls-22" d="M225.2,340c-2.85,0-5.16-1.49-5.16-3.34v-46c0-1.84,2.31-3.34,5.16-3.34s5.15,1.5,5.15,3.34v46C230.35,338.53,228,340,225.2,340Z"/><path class="cls-23" d="M355.88,338.26a5.76,5.76,0,0,1-5.77-5.76V315.2a5.77,5.77,0,1,1,11.53,0v17.3A5.76,5.76,0,0,1,355.88,338.26Z"/><path class="cls-24" d="M419.3,332.5V309.43a5.76,5.76,0,0,0-5.77-5.76h-24.1a5.76,5.76,0,0,0-5.65,4.63l-4.84,24.2Z"/><path class="cls-25" d="M419.3,332.5V309.43a5.76,5.76,0,0,0-5.77-5.76H395.2a5.77,5.77,0,0,0-5.66,4.63l-4.84,24.2Z"/><path class="cls-26" d="M344.34,338.26v17.3h75V332.5H350.11A5.77,5.77,0,0,0,344.34,338.26Z"/><path class="cls-27" d="M344.34,347.79h75.51v7.55H344.34Z"/><circle class="cls-14" cx="350.11" cy="361.33" r="11.53"/><circle class="cls-14" cx="407.77" cy="357.72" r="15.14"/><path class="cls-28" d="M350.11,378.62a17.3,17.3,0,1,1,17.3-17.29A17.3,17.3,0,0,1,350.11,378.62Zm0-23.06a5.77,5.77,0,1,0,5.77,5.77A5.77,5.77,0,0,0,350.11,355.56Z"/><path class="cls-28" d="M407.77,378.62a20.9,20.9,0,1,1,20.9-20.9h0A20.92,20.92,0,0,1,407.77,378.62Zm0-30.27a9.37,9.37,0,1,0,9.37,9.37h0A9.39,9.39,0,0,0,407.77,348.35Z"/><path class="cls-15" d="M86.49,250.27a17.79,17.79,0,0,1,17.77-17.77,5.93,5.93,0,0,1,0,11.85,5.93,5.93,0,0,0-5.93,5.92,5.92,5.92,0,1,1-11.84,0Z"/><path class="cls-29" d="M151.64,246.11a11.9,11.9,0,0,1-3,7.86l-.74,20h-6.66l-3-19.25-.81.22a33.7,33.7,0,0,1-19.19-.22L113.88,274H108.7l-1.51-15-2.93-3.56v-14a14.87,14.87,0,0,1,14.87-14.87H145l6.66-5.92,1.48,7.4,4.74,5,1.5.05a5,5,0,0,1,4.87,5v1.12a4.63,4.63,0,0,1-4.36,4.62l-8.23-.25Z"/><path class="cls-28" d="M104.26,241.45h0a14.86,14.86,0,0,1,14.87-14.86h4v6.24h0a9,9,0,0,1-9,9.06h-.43l-9.35-.43Z"/><path class="cls-28" d="M133.87,226.58l.27,4.94a1.93,1.93,0,0,0,1.92,1.82h.47a1.92,1.92,0,0,1,1.92,1.92,1.94,1.94,0,0,0,1.93,1.92h2.67a1.92,1.92,0,0,0,1.93-1.92v-8.68Z"/><path class="cls-28" d="M134,242.87h0a3.84,3.84,0,0,0-3.84,3.84v.6H129a3.84,3.84,0,0,0-3.79,3.23,3.29,3.29,0,0,0,3.28,3h11.21a2.41,2.41,0,0,0,2.41-2.41h0a3.84,3.84,0,0,0-3.84-3.84h-.41v-.6h0a3.84,3.84,0,0,0-3.84-3.84Z"/><path class="cls-28" d="M112.19,252.11a4.8,4.8,0,0,0-4.8-4.8h-3.13v8.15l8.5.51a1.92,1.92,0,0,0-.05-3.83h-.52v0Z"/><circle class="cls-28" cx="151.16" cy="233.24" r="2.15"/></svg>