<svg id="圖層_1" data-name="圖層 1" xmlns="http://www.w3.org/2000/svg" viewBox="0 0 500 500"><defs><style>.cls-1{fill:#3bbc56;}.cls-2{fill:#30aa44;}.cls-3{fill:#93603e;}.cls-4{fill:#7f573c;}.cls-5{fill:#269e35;}.cls-6{fill:#bad362;}.cls-7{fill:#9ab748;}.cls-8{fill:#6d4a31;}</style></defs><path class="cls-1" d="M336.27,90.56c-3.52-13.28-22.81-71.39-92.3-76.65a5.23,5.23,0,0,0-5.6,5.87c2.56,20.43,17,83.85,97.43,73.62C336,92.44,336.11,91.5,336.27,90.56Z"/><path class="cls-2" d="M258.49,19.78a5.14,5.14,0,0,1,.94-3.7A118,118,0,0,0,244,13.91a5.23,5.23,0,0,0-5.6,5.87c2.49,19.88,16.27,80.42,91,74.28C272.19,88.81,260.74,37.72,258.49,19.78Z"/><path class="cls-3" d="M342.92,118C351.6,90.47,370,53.72,400.75,28.62a6.74,6.74,0,0,0-.13-10.52L380,2.05a9.64,9.64,0,0,0-14.41,3c-9.76,17.9-30.9,61.87-34.36,112.91A78.12,78.12,0,0,1,342.92,118Z"/><path class="cls-4" d="M380.39,10.69a9.56,9.56,0,0,1,5.08-4.41L380,2.05a9.64,9.64,0,0,0-14.41,3c-9.75,17.9-30.9,61.87-34.36,112.91a76.79,76.79,0,0,1,11.65.11c1.53-4.87,3.37-10,5.52-15.35C355.18,60.8,372,26.08,380.39,10.69Z"/><path class="cls-2" d="M486.67,374.09s0-.22,0-.61q0-4.73-.45-9.36c-2.27-33-15.79-141.81-96-228.25-26.16-28.18-76.24-28.18-102.39,0-80.25,86.44-93.78,195.21-96,228.25-.31,3.37-.46,6.93-.46,10h0C191.27,443.63,257.4,500,339,500s147.7-56.37,147.7-125.91Z"/><path class="cls-5" d="M328.39,364.12c-2-28.8-12.51-115.13-68.33-194.07C204.25,249,193.71,335.32,191.73,364.12c-.31,3.37-.46,6.93-.46,10,0,44.8,27.45,84.13,68.79,106.45,41.34-22.32,68.79-61.65,68.79-106.45h0s0-.22,0-.61Q328.83,368.76,328.39,364.12Z"/><path class="cls-6" d="M308.73,374.09s0-.22,0-.61q0-4.73-.45-9.36c-2.27-33-15.79-141.81-96-228.25-26.16-28.18-76.24-28.18-102.4,0-80.24,86.44-93.77,195.21-96,228.25-.29,3.07-.46,6.61-.46,10h0C13.33,443.63,79.46,500,161,500s147.7-56.37,147.7-125.91Z"/><path class="cls-7" d="M33.45,374.09c0-3.36.18-6.9.46-10,2.27-33,15.8-141.81,96.05-228.25,10.76-11.6,25.59-18.42,41.13-20.46-22.2-2.93-45.87,3.88-61.26,20.46-80.24,86.44-93.77,195.21-96,228.25-.29,3.07-.46,6.61-.46,10C13.33,443.63,79.46,500,161,500c3.38,0,6.73-.11,10.06-.3C94.21,495.29,33.45,440.74,33.45,374.09Z"/><circle class="cls-3" cx="161.03" cy="364.13" r="75.49"/><path class="cls-4" d="M105.67,364.13a75.49,75.49,0,0,1,65.42-74.8,77.61,77.61,0,0,0-10.06-.68,75.48,75.48,0,0,0,0,151,77.61,77.61,0,0,0,10.06-.68A75.49,75.49,0,0,1,105.67,364.13Z"/><path class="cls-8" d="M188,352.26a7.56,7.56,0,0,0,5.33-2.21,6.46,6.46,0,0,0,.73-.84,7.26,7.26,0,0,0,1-1.9,8.45,8.45,0,0,0,.32-1.12,7.33,7.33,0,0,0,0-2.95,9.05,9.05,0,0,0-.32-1.13,7.36,7.36,0,0,0-1-1.89,6.46,6.46,0,0,0-.73-.84,7.53,7.53,0,0,0-10.66,0,6.46,6.46,0,0,0-.73.84,7.84,7.84,0,0,0-1,1.91,7.29,7.29,0,0,0-.3,1.11,6.88,6.88,0,0,0,0,2.95,7.29,7.29,0,0,0,.3,1.11,7.84,7.84,0,0,0,1,1.91,6.46,6.46,0,0,0,.73.84A7.56,7.56,0,0,0,188,352.26Z"/><path class="cls-8" d="M188,391.67a7.57,7.57,0,0,0,5.33-2.22,5.87,5.87,0,0,0,.73-.84,7,7,0,0,0,1-1.89,9.42,9.42,0,0,0,.32-1.12,7.43,7.43,0,0,0,.15-1.48,7.51,7.51,0,0,0-.15-1.48,9.42,9.42,0,0,0-.32-1.12,7.2,7.2,0,0,0-1-1.89,6.46,6.46,0,0,0-.73-.84,7.53,7.53,0,0,0-10.66,0,6.46,6.46,0,0,0-.73.84,7.66,7.66,0,0,0-1,1.91,8.3,8.3,0,0,0-.46,2.58,7.37,7.37,0,0,0,.16,1.48,7.17,7.17,0,0,0,.3,1.1,7.49,7.49,0,0,0,1,1.91,6.55,6.55,0,0,0,.73.85A7.61,7.61,0,0,0,188,391.67Z"/><path class="cls-8" d="M210.3,372a7.65,7.65,0,0,0,5.23-2.46,7.36,7.36,0,0,0,.68-.88,7.67,7.67,0,0,0,.94-1.93,9.36,9.36,0,0,0,.26-1.14,8.21,8.21,0,0,0,.08-1.48,8,8,0,0,0-.22-1.47,7.23,7.23,0,0,0-.37-1.11,6.89,6.89,0,0,0-1.11-1.84,7.28,7.28,0,0,0-.76-.81,7.53,7.53,0,0,0-10.65.5,6.43,6.43,0,0,0-.69.87,7.32,7.32,0,0,0-1.19,3.08,7.36,7.36,0,0,0-.09,1.48,8.29,8.29,0,0,0,.22,1.47,7.46,7.46,0,0,0,1.48,2.95,6.41,6.41,0,0,0,.76.8A7.57,7.57,0,0,0,210.3,372Z"/></svg>