<svg id="圖層_1" data-name="圖層 1" xmlns="http://www.w3.org/2000/svg" viewBox="0 0 500 500"><defs><style>.cls-1{fill:#30aa44;}.cls-2{fill:#269e35;}.cls-3{fill:#3bbc56;}.cls-4{fill:#ffa92c;}.cls-5{fill:#f7991e;}.cls-6{fill:#fcb960;}</style></defs><path class="cls-1" d="M327.9,120.53c10.17-9.8,31.19-36,7-67.09a17.61,17.61,0,0,1-3.68-9.91c-2.58-47.15-60.61-59.9-85.94-18.76A56.93,56.93,0,0,1,250,75.65a12.18,12.18,0,0,0,3.14,13.4c10.35,9.24,25.15,30.41,8.07,68.32-1.25,2.78-2.13,5.09-3.12,7.82,16.65,0,30.81-1.12,50.79,8.88,11.66-11.48,25.87-29.59,17.8-43.75A8,8,0,0,1,327.9,120.53Z"/><path class="cls-2" d="M278.35,158.37c17.08-37.91,2.27-59.07-8.07-68.31a12.2,12.2,0,0,1-3.14-13.41A56.9,56.9,0,0,0,265.24,31a10.45,10.45,0,0,1,1.22-11c8.77-11,20.23-17,31.79-18.54-18.33-4.68-40,2.23-53,23.37A57,57,0,0,1,250,75.65a12.18,12.18,0,0,0,3.14,13.41c10.34,9.23,25.14,30.4,8.06,68.31-1.25,2.78-2.13,5.09-3.12,7.82,6,0,11.69-.14,17.44.14C276.41,163,277.23,160.85,278.35,158.37Z"/><path class="cls-3" d="M253.82,88.3A11.17,11.17,0,0,1,251,76C266.49,35.48,233.77-6.72,196.51.93c-30.75,6.31-35.43,31.89-36,42.6a17.62,17.62,0,0,1-3.69,9.91c-24.21,31.13-3.19,57.29,7,67.09h0a8,8,0,0,1,1.22,9.79c-9,15.86,9.54,36.56,23.15,48.74,24.08-15.93,42.6-13.87,71-13.87C263,154.7,284.54,115.74,253.82,88.3Z"/><path class="cls-1" d="M185.1,130.32a8,8,0,0,0-1.22-9.79h0c-10.16-9.8-31.18-36-7-67.09a17.62,17.62,0,0,0,3.69-9.91C181.18,33,185.75,8,215.38,1.21A43.25,43.25,0,0,0,196.51.93c-30.75,6.31-35.42,31.89-36,42.6a17.62,17.62,0,0,1-3.69,9.91c-24.21,31.13-3.19,57.29,7,67.09h0a8,8,0,0,1,1.22,9.79c-9,15.86,9.55,36.56,23.15,48.74A85.89,85.89,0,0,1,200.89,172C189,159.83,177.63,143.43,185.1,130.32Z"/><path class="cls-1" d="M255.76,165.18h3.39a.25.25,0,0,1,0-.07Z"/><path class="cls-1" d="M234.23,194.65a7.55,7.55,0,0,1-6.68-4c-31.63-60.2-33.22-132-33.28-135a7.54,7.54,0,0,1,15.08-.26c0,.87,1.66,71.4,31.55,128.28a7.55,7.55,0,0,1-6.67,11.05Z"/><path class="cls-2" d="M262.48,194.65a7.55,7.55,0,0,1-6.67-11.05c30-57,31.54-127.58,31.55-128.28a7.54,7.54,0,0,1,7.54-7.41H295a7.55,7.55,0,0,1,7.41,7.67c-.06,3-1.65,74.85-33.28,135A7.55,7.55,0,0,1,262.48,194.65Z"/><path class="cls-4" d="M271.72,164.69H233.85c-50.3,0-89.12,44.6-81.8,94.37,10.28,69.85,34.79,165,93.11,237.31a9.82,9.82,0,0,0,15.25,0c58.32-72.28,82.83-167.46,93.1-237.31C360.84,209.29,322,164.69,271.72,164.69Z"/><path class="cls-5" d="M173.12,259.06c-7.32-49.78,31.49-94.37,81.8-94.37H233.85c-50.31,0-89.12,44.59-81.8,94.37,10.28,69.85,34.79,165,93.11,237.31a9.82,9.82,0,0,0,15.25,0c1-1.22,1.94-2.47,2.91-3.71C207.11,420.86,183.23,327.73,173.12,259.06Z"/><path class="cls-6" d="M350.3,221.44h-29a7.54,7.54,0,1,0,0,15.08h31.05a7.31,7.31,0,0,0,1.33-.13A81.34,81.34,0,0,0,350.3,221.44Z"/><path class="cls-6" d="M269.33,288.57h-31a7.54,7.54,0,1,1,0-15.08h31a7.54,7.54,0,1,1,0,15.08Z"/><path class="cls-6" d="M201.06,349.16a7.54,7.54,0,0,0,0-15.08H167.42q2,7.5,4.23,15.08Z"/><path class="cls-6" d="M287.25,383.29H256.2a7.54,7.54,0,1,1,0-15.07h31.05a7.54,7.54,0,1,1,0,15.07Z"/><path class="cls-6" d="M182.62,236.52a7.54,7.54,0,1,0,0-15.08H155.27a80.81,80.81,0,0,0-3.43,15.07Z"/></svg>