<?xml version="1.0" encoding="utf-8"?>
<!-- Generator: Adobe Illustrator 25.2.3, SVG Export Plug-In . SVG Version: 6.00 Build 0)  -->
<svg version="1.1" id="Bold" xmlns="http://www.w3.org/2000/svg" xmlns:xlink="http://www.w3.org/1999/xlink" x="0px" y="0px"
	 viewBox="0 0 50 50" style="enable-background:new 0 0 50 50;" xml:space="preserve">
<g>
	<path d="M39.8,35.4H21c-2.7,0-5.1-1.8-5.8-4.3L8.9,9.6C8.6,8.9,7.9,8.3,7,8.3h-5C0.9,8.3,0,7.4,0,6.3s0.9-2.1,2.1-2.1h5
		c2.7,0,5.1,1.8,5.8,4.3l1.2,4h31.9c1.3,0,2.5,0.6,3.3,1.7c0.8,1,1,2.3,0.6,3.5l-4.3,13.6C44.7,33.8,42.4,35.4,39.8,35.4L39.8,35.4z
		 M45.9,16.7L45.9,16.7L45.9,16.7z"/>
	<path d="M22.9,45.8c-2.3,0-4.2-1.9-4.2-4.2c0-2.3,1.9-4.2,4.2-4.2s4.2,1.9,4.2,4.2C27.1,44,25.2,45.8,22.9,45.8z M22.9,41.7
		L22.9,41.7L22.9,41.7z"/>
	<path d="M37.5,45.8c-2.3,0-4.2-1.9-4.2-4.2c0-2.3,1.9-4.2,4.2-4.2s4.2,1.9,4.2,4.2C41.7,44,39.8,45.8,37.5,45.8z M37.5,41.7
		L37.5,41.7L37.5,41.7z"/>
</g>
</svg>
