<svg id="圖層_1" data-name="圖層 1" xmlns="http://www.w3.org/2000/svg" viewBox="0 0 500 500"><defs><style>.cls-1{fill:#e5dfdc;}.cls-2{fill:#83cc8e;}.cls-3{fill:#78c181;}.cls-4{fill:#30aa44;}.cls-5{fill:#269e35;}.cls-6{fill:#3bbc56;}.cls-7{fill:#ffa92c;}.cls-8{fill:#f7991e;}.cls-9{fill:#fcb960;}.cls-10{fill:#ea473b;}.cls-11{fill:#dd332f;}.cls-12{fill:#eab14d;}.cls-13{fill:#e49542;}.cls-14{fill:#ecbe6b;}</style></defs><circle class="cls-1" cx="250" cy="250" r="250"/><path class="cls-2" d="M195.73,240.83a13.75,13.75,0,0,1,2.06-5.94l-5.55-19.59a35.41,35.41,0,0,1-6.31-4.87,24.24,24.24,0,0,1-11.3,8.21l4.94,17.43a1.23,1.23,0,0,1-1.75,1.43,96.22,96.22,0,0,0-14-5.8A30.67,30.67,0,0,1,152.15,247a9.68,9.68,0,0,0,1.33.38c.25,0,25.77,5.7,35.84,23.5.06.1.12.18.17.28L199.1,305c.76,3.48,1.65,7.08,2.7,10.8a9.08,9.08,0,0,0,11.27,6.28,8.93,8.93,0,0,0,6-11c-5.26-18.57-7-36.39-4.83-51A17.67,17.67,0,0,1,195.73,240.83Z"/><path class="cls-3" d="M208.93,314c-1.05-3.72-1.93-7.32-2.69-10.81l-10.68-37.7c-.06-.09-.12-.18-.17-.27-10.18-17.77-36.17-23.29-36.43-23.34s-.58-.14-.87-.22a30.36,30.36,0,0,1-5.94,5.29,9.68,9.68,0,0,0,1.33.38c.25,0,25.77,5.7,35.84,23.5.06.1.12.18.17.28L199.1,305c.76,3.48,1.65,7.08,2.7,10.8a9.08,9.08,0,0,0,11.27,6.28,8.89,8.89,0,0,0,3.05-1.64A9.19,9.19,0,0,1,208.93,314Z"/><path class="cls-2" d="M255.27,259.86a42.43,42.43,0,0,0-10.21,9l1.73-17.06a21.06,21.06,0,0,1-2.45-4.11,14.65,14.65,0,0,1-8.12,2.09L235,261.9a53.84,53.84,0,0,0-7.44-7.4,18.44,18.44,0,0,1-9.91,5.93c1.43,1.27,13,8.37,15.32,21.49-2.45,24.33-3,27.8-3,27.8a5.36,5.36,0,0,0,10.66,1.08c1.49-14.78,5.86-26.91,12.64-35.06a30.21,30.21,0,0,1,8.43-7.23A13.46,13.46,0,0,1,255.27,259.86Z"/><path class="cls-3" d="M236.05,309.48s.22-6,2.68-30.3c-2.22-12.54-12.86-19.57-15.06-21.29a18.16,18.16,0,0,1-6,2.54c1.43,1.27,13,8.37,15.32,21.49-2.45,24.33-3,27.8-3,27.8a5.35,5.35,0,0,0,8.55,4.81A5.35,5.35,0,0,1,236.05,309.48Z"/><path class="cls-4" d="M209.91,222.34a21.24,21.24,0,0,0,1.37,2,18.09,18.09,0,0,1,4.23-.06h0a11.48,11.48,0,0,1,12.54-10h0a5.85,5.85,0,0,0,4.2-1.23,17.06,17.06,0,0,1,19-1.43,22.32,22.32,0,0,0-5.2-15.39,4.6,4.6,0,0,1-1-3.81,34.84,34.84,0,0,0-.71-16A35.13,35.13,0,0,0,192.27,156a4.65,4.65,0,0,1-5.1-.11,28.43,28.43,0,0,0-41,9,9.61,9.61,0,0,1-5.72,4.42h0c-10,2.83-16.13,12.61-13.57,22.62v0h0a.55.55,0,0,1-.36.68A30.57,30.57,0,1,0,166,223.28a2.75,2.75,0,0,1,2.54-2.62,24.37,24.37,0,0,0,15.71-7.35,3,3,0,0,1,4.05-.27,35.2,35.2,0,0,0,19.31,7.9A3,3,0,0,1,209.91,222.34Z"/><path class="cls-5" d="M114.62,234a30.57,30.57,0,0,1,19.71-39.91.56.56,0,0,0,.36-.68h0v0c-2.56-10,3.56-19.79,13.57-22.62l0,0a9.54,9.54,0,0,0,5.72-4.42,28.51,28.51,0,0,1,25.58-14.17,28.45,28.45,0,0,0-33.39,12.8,9.61,9.61,0,0,1-5.72,4.42h0c-10,2.83-16.13,12.61-13.57,22.62v0h0a.55.55,0,0,1-.36.68A30.58,30.58,0,0,0,134,252.46,30.36,30.36,0,0,1,114.62,234Z"/><path class="cls-4" d="M266.26,218a21.3,21.3,0,0,0-6.33.14,2.63,2.63,0,0,1-2.66-1.1,17.27,17.27,0,0,0-25.12-4.07,5.57,5.57,0,0,1-4.07,1.17,11.58,11.58,0,0,0-12.39,8.41,2,2,0,0,1-2,1.47,18.53,18.53,0,1,0,17.06,25.68.92.92,0,0,1,1.15-.52,14.94,14.94,0,0,0,3.37.75,14.75,14.75,0,0,0,7.63-1.26,1.59,1.59,0,0,1,2,.67,21.24,21.24,0,0,0,8.86,8.63,2.22,2.22,0,0,1,1.19,1.54,13.6,13.6,0,1,0,26.28-6.85,2.67,2.67,0,0,1,.26-2.26A21.25,21.25,0,0,0,266.26,218Z"/><path class="cls-5" d="M203.29,243.57a18.52,18.52,0,0,1,18.52-17.42,2.06,2.06,0,0,0,2-1.47,11.58,11.58,0,0,1,12.39-8.42,5.57,5.57,0,0,0,4.07-1.16,17.17,17.17,0,0,1,10.94-3.71,17.29,17.29,0,0,0-19.06,1.55,5.57,5.57,0,0,1-4.07,1.17,11.58,11.58,0,0,0-12.39,8.41,2,2,0,0,1-2,1.47,18.53,18.53,0,0,0-2.65,36.87,18.06,18.06,0,0,0,2.06.17A18.64,18.64,0,0,1,203.29,243.57Z"/><path class="cls-4" d="M328,197c4.61-2.15,14.84-8.6,10.24-22a6.35,6.35,0,0,1-.1-3.81c4.65-16.37-13.63-27.51-27.08-16.46a20.49,20.49,0,0,1-4.34,17.89,4.4,4.4,0,0,0-.5,4.94c2.45,4.36,5,13.3-5.25,24.22-.75.8-1.32,1.48-2,2.3,5.68,1.95,10.63,3.22,16.27,9,5.32-2.54,12.28-7.05,11.18-12.82A2.89,2.89,0,0,1,328,197Z"/><path class="cls-5" d="M306.68,204.05c10.26-10.92,7.69-19.86,5.25-24.22a4.4,4.4,0,0,1,.5-4.94,20.46,20.46,0,0,0,4.7-15.78,3.79,3.79,0,0,1,1.71-3.62,17.5,17.5,0,0,1,13-2.59c-5.69-3.74-13.88-3.93-20.79,1.75a20.52,20.52,0,0,1-4.34,17.9,4.38,4.38,0,0,0-.5,4.93c2.45,4.36,5,13.3-5.25,24.22-.75.8-1.32,1.49-2,2.3,2,.7,4,1.32,5.93,2.09C305.48,205.39,306,204.76,306.68,204.05Z"/><path class="cls-6" d="M306.53,177.3a4,4,0,0,1,.46-4.52c10-12,3.84-30.2-9.75-32-11.22-1.45-15.81,6.72-17.26,10.3a6.4,6.4,0,0,1-2.42,2.94c-11.9,7.77-7.8,19.15-5.48,23.68h0a2.9,2.9,0,0,1-.74,3.48c-4.93,4.34-1,13.57,2.19,19.31,10.06-2.61,16.13.27,25.81,3.59C301.87,201,313.78,190.25,306.53,177.3Z"/><path class="cls-4" d="M278.19,183.57a2.91,2.91,0,0,0,.74-3.48h0c-2.32-4.53-6.42-15.9,5.48-23.67a6.37,6.37,0,0,0,2.42-2.95c1.43-3.53,5.92-11.51,16.8-10.34a15.61,15.61,0,0,0-6.39-2.31c-11.22-1.45-15.81,6.72-17.26,10.3a6.4,6.4,0,0,1-2.42,2.94c-11.9,7.77-7.8,19.15-5.48,23.68h0a2.91,2.91,0,0,1-.73,3.48c-4.94,4.34-1,13.57,2.18,19.31a30.86,30.86,0,0,1,5.16-.91C276.08,194.08,274.11,187.16,278.19,183.57Z"/><path class="cls-4" d="M298.19,203.72l1.15.4v0Z"/><path class="cls-4" d="M287.4,211.24a2.72,2.72,0,0,1-1.8-2.16c-3.73-24.21,4.14-48.86,4.47-49.9a2.72,2.72,0,1,1,5.17,1.68c-.1.3-7.8,24.52-4.28,47.4a2.71,2.71,0,0,1-2.27,3.1A2.78,2.78,0,0,1,287.4,211.24Z"/><path class="cls-5" d="M297,214.55a2.72,2.72,0,0,1-1-4.54c16.89-15.93,25.68-39.78,25.77-40a2.72,2.72,0,0,1,3.43-1.64l.05,0a2.71,2.71,0,0,1,1.62,3.48c-.37,1-9.32,25.3-27.15,42.11A2.72,2.72,0,0,1,297,214.55Z"/><path class="cls-7" d="M303.68,205.42,290.78,201a29.74,29.74,0,0,0-38.92,22.57c-4.68,25-7.48,60.3,3.93,91.76A3.53,3.53,0,0,0,261,317.1c28.34-17.79,47.84-47.35,59.52-70A29.74,29.74,0,0,0,303.68,205.42Z"/><path class="cls-8" d="M259,226A29.73,29.73,0,0,1,298,203.46L290.78,201a29.74,29.74,0,0,0-38.92,22.57c-4.68,25-7.48,60.3,3.93,91.76A3.53,3.53,0,0,0,261,317.1l1.43-.92C251.67,285.14,254.44,250.61,259,226Z"/><path class="cls-9" d="M323.81,234l-9.87-3.39a2.72,2.72,0,0,0-1.77,5.14l10.58,3.63a3,3,0,0,0,.47.12A29.37,29.37,0,0,0,323.81,234Z"/><path class="cls-9" d="M288.36,247.35l-10.58-3.64a2.71,2.71,0,1,1,1.77-5.13l10.57,3.63a2.72,2.72,0,0,1-1.76,5.14Z"/><path class="cls-9" d="M258,260a2.72,2.72,0,1,0,1.77-5.14l-11.46-3.94c-.13,1.86-.24,3.74-.33,5.63Z"/><path class="cls-9" d="M283.37,281.72l-10.58-3.64a2.71,2.71,0,1,1,1.77-5.13l10.58,3.63a2.72,2.72,0,0,1-1.77,5.14Z"/><path class="cls-9" d="M264.91,219.46a2.72,2.72,0,0,0,1.77-5.14l-9.32-3.2a29,29,0,0,0-2.93,4.73Z"/><path class="cls-6" d="M348.07,244.34h0Z"/><path class="cls-6" d="M373.92,231.39a28.93,28.93,0,0,0-24.87,9.2,33.14,33.14,0,0,1,.45,3.62,37.29,37.29,0,0,1,7.24.16c4.79-7.2,12.18-10.05,17.28-11.18A.91.91,0,0,0,373.92,231.39Z"/><path class="cls-4" d="M369.4,231.23a28.76,28.76,0,0,0-20.35,9.36,33.14,33.14,0,0,1,.45,3.62c.62-.05,1.23-.08,1.84-.1A28.69,28.69,0,0,1,369.4,231.23Z"/><path class="cls-6" d="M339,244.2c.1-1.23.17-2.54.2-3.93a28.92,28.92,0,0,0-24.57-8.88.91.91,0,0,0-.1,1.8c5.1,1.13,12.49,4,17.28,11.18a37.1,37.1,0,0,1,7.2-.17Z"/><path class="cls-6" d="M340.47,244.34h0Z"/><path class="cls-4" d="M320.6,231.61a.86.86,0,0,1-.47-.33,32,32,0,0,0-5.5.11.91.91,0,0,0-.1,1.8c5.1,1.13,12.49,4,17.28,11.18a35.64,35.64,0,0,1,5-.26C332.65,236.6,325.57,233.16,320.6,231.61Z"/><path class="cls-6" d="M338.8,244.2c3.16.24,4.68.85,8,.33.94-.14,1.9-.25,2.86-.32-.9-12.78-9.19-23.69-14.16-29.14a.67.67,0,0,0-1.11.74C339.1,225.37,339.4,236.48,338.8,244.2Z"/><path class="cls-4" d="M342.76,244.65c.44-6.59.24-15.37-2.41-23.67a69.07,69.07,0,0,0-4.81-5.91.67.67,0,0,0-1.11.74c4.67,9.56,5,20.67,4.37,28.39C340.39,244.32,341.56,244.53,342.76,244.65Z"/><path class="cls-10" d="M346.84,244.33c-4.15.64-5.3-.43-10.79-.43-19.88,0-36,15.66-36,35s16.12,35,36,35a37.6,37.6,0,0,0,5.66-.43,17,17,0,0,1,5.13,0,37.6,37.6,0,0,0,5.66.43c19.88,0,36-15.66,36-35C388.5,257.4,368.74,241,346.84,244.33Z"/><path class="cls-11" d="M304,278.89c0-18.68,15.07-33.94,34-34.94-.6,0-1.27,0-2,0-19.88,0-36,15.66-36,35s16.12,35,36,35c.68,0,1.34,0,2-.05C319.09,312.81,304,297.56,304,278.89Z"/><path class="cls-12" d="M100,297.28H400v31H100Z"/><path class="cls-13" d="M131,318H120.69a5.18,5.18,0,0,1,0-10.35H131A5.18,5.18,0,1,1,131,318Z"/><path class="cls-13" d="M379.31,318H369a5.18,5.18,0,1,1,0-10.35h10.34a5.18,5.18,0,0,1,0,10.35Z"/><path class="cls-14" d="M100,328.31H400v31H100Z"/><path class="cls-13" d="M131,349H120.69a5.17,5.17,0,0,1,0-10.34H131A5.17,5.17,0,1,1,131,349Z"/><path class="cls-13" d="M255.17,318H244.83a5.18,5.18,0,0,1,0-10.35h10.34a5.18,5.18,0,0,1,0,10.35Z"/><path class="cls-13" d="M255.17,349H244.83a5.17,5.17,0,1,1,0-10.34h10.34a5.17,5.17,0,0,1,0,10.34Z"/><path class="cls-13" d="M379.31,349H369a5.17,5.17,0,1,1,0-10.34h10.34a5.17,5.17,0,1,1,0,10.34Z"/><path class="cls-14" d="M100,266.25H400v31H100Z"/><path class="cls-13" d="M131,286.94H120.69a5.18,5.18,0,0,1,0-10.35H131a5.18,5.18,0,1,1,0,10.35Z"/><path class="cls-13" d="M379.31,286.94H369a5.18,5.18,0,1,1,0-10.35h10.34a5.18,5.18,0,0,1,0,10.35Z"/><path class="cls-13" d="M255.17,286.94H244.83a5.18,5.18,0,0,1,0-10.35h10.34a5.18,5.18,0,0,1,0,10.35Z"/></svg>