<svg id="圖層_1" data-name="圖層 1" xmlns="http://www.w3.org/2000/svg" viewBox="0 0 500 500"><defs><style>.cls-1{fill:#e5dfdc;}.cls-2{fill:#cd6155;}.cls-3{fill:#84dbff;}.cls-4{fill:#cdd6e0;}.cls-5{fill:#f2f2f2;}.cls-6{fill:#eab14d;}.cls-7{fill:#334a5e;}.cls-8{fill:#40596b;}.cls-9{fill:#acb3ba;}.cls-10{fill:#5d6d7e;}</style></defs><circle class="cls-1" cx="250" cy="250" r="250"/><path class="cls-2" d="M355.7,196.55H293.76V308.83H395.25V258.29l-11.84-40.91a28.84,28.84,0,0,0-27.71-20.83"/><path class="cls-3" d="M380.43,257.77l-10.55-36.46a14.85,14.85,0,0,0-14.18-10.66H307.86v47.12Z"/><polygon class="cls-4" points="380.44 257.76 307.83 257.76 307.83 210.63 380.44 257.76"/><path class="cls-5" d="M380.43,257.77l-10.55-36.46a14.85,14.85,0,0,0-14.18-10.66H307.86Z"/><path class="cls-6" d="M118.75,140.19H275a18.75,18.75,0,0,1,18.75,18.75V308.82H100V158.94a18.74,18.74,0,0,1,18.75-18.75"/><path class="cls-7" d="M400,308.81V330H100V308.81h31.31a43,43,0,0,1,75,0H307.07a42.91,42.91,0,0,1,74.93,0Z"/><path class="cls-8" d="M374.44,329.87a29.94,29.94,0,1,1-29.94-29.94,29.95,29.95,0,0,1,29.94,29.94"/><path class="cls-9" d="M356.53,329.87a12,12,0,1,1-12-12,12,12,0,0,1,12,12"/><path class="cls-8" d="M198.75,329.87a29.94,29.94,0,1,1-29.94-29.94,29.95,29.95,0,0,1,29.94,29.94"/><path class="cls-9" d="M180.83,329.87a12,12,0,1,1-12-12,12,12,0,0,1,12,12"/><path class="cls-10" d="M206.87,166.06h-20c-2.62,0-4.75-1.21-4.75-2.7V140.19h29.47v23.17c0,1.49-2.12,2.7-4.74,2.7Z"/></svg>