<svg id="圖層_1" data-name="圖層 1" xmlns="http://www.w3.org/2000/svg" viewBox="0 0 500 500"><defs><style>.cls-1{fill:#e5dfdc;}.cls-2{fill:#eab14d;}.cls-3{fill:#e49542;}.cls-4{fill:#f1cb86;}.cls-5{fill:#ecbe6b;}.cls-6{fill:#365e7d;}.cls-7{fill:#cd6155;}</style></defs><circle class="cls-1" cx="250" cy="250" r="250"/><path class="cls-2" d="M395.71,364.05H262.29V277.18H396.64a3.36,3.36,0,0,1,3.36,3.36v79.21A4.3,4.3,0,0,1,395.71,364.05Z"/><path class="cls-3" d="M389.61,277.18v86.87h6.1a4.3,4.3,0,0,0,4.29-4.3V280.54a3.36,3.36,0,0,0-3.36-3.36Z"/><path class="cls-4" d="M350,277.18H212.31v-136a5.24,5.24,0,0,1,5.23-5.25H346.66a3.36,3.36,0,0,1,3.35,3.36Z"/><path class="cls-5" d="M339.62,136V277.18H350V139.31a3.36,3.36,0,0,0-3.35-3.36Z"/><path class="cls-6" d="M286.84,161.83H275.48a2.7,2.7,0,0,1-2.7-2.71V136h16.76v23.17A2.7,2.7,0,0,1,286.84,161.83Z"/><path class="cls-2" d="M262.29,364.05h-158a4.3,4.3,0,0,1-4.29-4.3V256.38a3.35,3.35,0,0,1,3.36-3.36H258.73a3.56,3.56,0,0,1,3.56,3.57Z"/><path class="cls-3" d="M251.9,253v111h10.39V256.59a3.56,3.56,0,0,0-3.56-3.57Z"/><path class="cls-6" d="M186.83,278.89H175.47a2.7,2.7,0,0,1-2.71-2.7V253h16.77v23.17a2.7,2.7,0,0,1-2.7,2.7Z"/><path class="cls-7" d="M336.83,303.06H325.47a2.71,2.71,0,0,1-2.71-2.71V277.18h16.77v23.17A2.7,2.7,0,0,1,336.83,303.06Z"/><path class="cls-4" d="M212.31,253H122.45V181.6a3.35,3.35,0,0,1,3.35-3.36h86.51Z"/><path class="cls-5" d="M201.92,178.24h10.39V253H201.92Z"/><path class="cls-7" d="M173.06,204.11H161.7a2.7,2.7,0,0,1-2.71-2.7V178.24h16.77v23.17a2.7,2.7,0,0,1-2.7,2.7Z"/></svg>