<svg id="圖層_1" data-name="圖層 1" xmlns="http://www.w3.org/2000/svg" xmlns:xlink="http://www.w3.org/1999/xlink" viewBox="0 0 500 500"><defs><style>.cls-1{fill:none;}.cls-2{clip-path:url(#clip-path);}.cls-3{fill:#5b9b40;}.cls-4{fill:#e0b377;}.cls-5{fill:#cc9a5e;}.cls-6{fill:#a06e4b;}.cls-7{fill:#93603e;}.cls-8{fill:#7f573c;}</style><clipPath id="clip-path"><path class="cls-1" d="M-19.8-270c0,.24-3.13.47-3.13.71s1.9.49,1.9.73,2.23.49,2.23.73-3.95.44-4,.68,3.61.53,3.61.77-1.17.46-1.17.7-1.06.46-1.06.7-.65.47-.66.71,2.78.54,2.78.78-1.7.44-1.7.68-2.14.41-2.14.65,4.14.62,4.13.86-.22.47-.23.71,1.17.53,1.16.77-.94.45-.95.69-2.16.39-2.18.63,3.37.64,3.36.88-.71.45-.72.69-2.46.36-2.47.6,3.37.67,3.35.91-5,.19-5,.43,1.21.55,1.19.79,2.53.65,2.51.89-1,.41-1,.65-3.47.24-3.49.48,3.91.76,3.89,1,.12.5.11.74-3.42.21-3.44.45.84.55.82.79,3,.73,3,1-3.54.18-3.57.42-.78.4-.8.64,0,.48-.05.72,1.64.63,1.62.87,2.65.75,2.63,1-4.08.07-4.11.31.49.52.46.76,2,.7,2,.94-2.85.17-2.88.41,1.78.68,1.75.92,2.42.76,2.39,1,.46.55.43.79-4.22,0-4.25.21,2.16.75,2.13,1,.65.57.62.81-.5.42-.53.66-3.94-.05-4,.19.62.57.59.8,1.75.73,1.72,1-2.15.17-2.18.41,3.85,1,3.82,1.28-.84.37-.88.61,2.13.81,2.09,1.05-3.85-.11-3.89.13-1.36.27-1.4.5,3.07,1,3,1.22-1.87.18-1.91.42,2.74.94,2.7,1.18-2.93,0-3,.23-1.23.27-1.27.51,3.44,1.09,3.4,1.33.46.57.42.81.34.55.29.79-4.1-.27-4.15,0,2,.86,2,1.1.86.66.82.89-3.12-.11-3.17.13-.57.37-.62.6,1.61.81,1.57,1-1.33.22-1.38.45,1.45.79,1.4,1-2.59,0-2.64.19,3.71,1.27,3.66,1.5.32.57.27.8.12.53.07.76-4.56-.51-4.61-.28,1.55.84,1.5,1.07-1.26.21-1.31.44,1,.72,1,1,.07.51,0,.74-.67.33-.73.56,2.85,1.18,2.8,1.41-4.49-.59-4.54-.35.73.66.67.9-.93.25-1,.49.25.55.19.78-.25.43-.31.66,4.77,1.72,4.71,2-4.39-.64-4.45-.41,2.12,1,2.06,1.29,0,.5-.05.73-.73.3-.8.53,2,1.06,2,1.29-3-.32-3-.09-.16.45-.23.68-.8.27-.86.5.22.56.16.79,2.2,1.14,2.13,1.37-1.11.18-1.18.41-1.93-.07-2,.16,1.79,1,1.72,1.26-.09.48-.16.71,2,1.1,1.89,1.33-2.65-.3-2.72-.07-2.1-.16-2.18.07,3.95,1.74,3.88,2-.49.36-.56.59-4.72-1-4.79-.78.15.55.08.77,4.38,1.94,4.31,2.17-.48.35-.56.58.39.64.32.87-1.21.11-1.29.34.38.64.3.86.74.77.66,1-2.18-.24-2.26,0-1.78-.12-1.86.11,1.89,1.17,1.81,1.4-1.33,0-1.41.27,1.61,1.09,1.53,1.31-2.67-.45-2.75-.23,3.31,1.73,3.23,2-5.46-1.5-5.55-1.28,1.52,1.07,1.43,1.29-.13.47-.21.69-.69.25-.78.48.85.83.77,1.06-.36.37-.44.6,2.7,1.57,2.61,1.79-1.09.09-1.18.32-1.74-.17-1.83,0-2.56-.51-2.65-.29,1.12,1,1,1.19,1.19,1,1.1,1.22.14.58.05.8-2.92-.69-3-.47,4.28,2.3,4.19,2.52-3.31-.86-3.4-.64-.43.34-.52.56,2.79,1.71,2.69,1.93-.7.23-.8.45,1.11,1,1,1.23,0,.53-.1.75-3.55-1-3.64-.81,1.87,1.36,1.78,1.58-3.39-1-3.48-.77.11.57,0,.79-.23.42-.33.64-.88.12-1,.34,3.58,2.17,3.48,2.39-.84.15-.94.37-.86.13-1,.35-.9.11-1,.32-1.42-.14-1.52.07-.14.47-.24.68-.27.4-.38.62-.65.21-.76.42,4.22,2.6,4.11,2.81-2.86-.87-3-.65,1.6,1.33,1.49,1.54-.28.41-.39.62-2.08-.51-2.19-.29,1.19,1.14,1.08,1.35-.81.13-.92.34-.95.06-1.06.27.44.77.33,1-3.25-1.16-3.36-.95-.13.46-.24.68,1.56,1.36,1.45,1.57-.1.49-.21.71-.68.17-.8.38-.66.19-.77.4.8,1,.69,1.19-1,0-1.16.18-1.38-.21-1.5,0,1.71,1.49,1.59,1.7-1.27-.17-1.39,0-.92,0-1,.24,2.32,1.86,2.2,2.07.8,1,.68,1.22.61.91.49,1.12-.94,0-1.06.23-1.37-.25-1.5,0-1.1-.09-1.22.12,1.8,1.62,1.68,1.83-1.09-.08-1.21.13.53.87.4,1.08-3.78-1.72-3.91-1.51,1.76,1.62,1.64,1.83.5.87.37,1.07-1.67-.47-1.8-.26.44.83.31,1-2.13-.76-2.26-.56,1.92,1.76,1.79,2,2,1.81,1.86,2-3.67-1.75-3.8-1.55-.33.35-.46.56,3,2.47,2.83,2.67-3-1.37-3.15-1.17.15.67,0,.87,1.57,1.61,1.44,1.81-2-.76-2.16-.56-2.68-1.2-2.82-1,1.57,1.61,1.44,1.81.46.89.32,1.08-1.72-.58-1.85-.38,1.56,1.64,1.42,1.84-.93-.06-1.07.14.56,1,.43,1.17.73,1.1.6,1.29-.88,0-1,.18-2.05-.85-2.19-.65,1.07,1.34.93,1.54,0,.61-.11.8-.82,0-1,.2-1-.12-1.15.07.59,1,.45,1.21.5,1,.35,1.15-2.17-1-2.31-.79-.33.35-.47.54,2.56,2.5,2.42,2.69-4.32-2.61-4.46-2.42,1.85,2,1.71,2.18-.86,0-1,.14,1.94,2.08,1.79,2.27-4.54-2.86-4.69-2.67.26.79.11,1-.51.21-.65.4.79,1.22.64,1.41.45,1,.3,1.14-.46.25-.61.44,0,.62-.13.81-.84-.06-1,.13-1-.19-1.15,0,1.28,1.65,1.13,1.84,1.09,1.49.94,1.68-1-.17-1.14,0-3.6-2.33-3.75-2.14,3.66,3.63,3.51,3.81.08.71-.07.89-2.88-1.77-3-1.58,2.29,2.54,2.13,2.72-2.52-1.49-2.67-1.3,0,.61-.18.79-1.32-.5-1.48-.31-1-.27-1.21-.09,1.91,2.27,1.75,2.45-.38.31-.54.49.36,1,.2,1.13-2.7-1.72-2.86-1.54,1.52,2,1.36,2.16.22.84.06,1-2.31-1.41-2.47-1.23,2,2.44,1.84,2.62-4-2.94-4.14-2.76,1.77,2.24,1.61,2.42,1.39,1.93,1.22,2.1-.24.44-.4.62-.26.42-.42.6-3.81-2.88-4-2.7.12.76,0,.94,1.52,2.09,1.36,2.26-1.69-.93-1.86-.75-1.61-.88-1.78-.71,3,3.49,2.8,3.67-2.29-1.54-2.46-1.36-1-.35-1.21-.18,1.79,2.41,1.62,2.58-3.33-2.58-3.49-2.41,1.5,2.14,1.33,2.31.44,1.11.27,1.28-2-1.31-2.17-1.14,1.59,2.27,1.42,2.44-2.65-2-2.82-1.82,2.12,2.83,2,3-2-1.37-2.19-1.2.15.83,0,1,.19.88,0,1.05-1.46-.82-1.63-.65,2.38,3.17,2.2,3.34-4-3.52-4.19-3.35,3.27,4.14,3.1,4.31-2.68-2.14-2.86-2,.36,1.08.18,1.24.46,1.19.28,1.36.64,1.4.46,1.57-3.2-2.76-3.37-2.6.32,1.06.15,1.23.33,1.07.15,1.24-.92-.3-1.1-.14-1.34-.77-1.52-.61-.72-.1-.9.06-.41.25-.59.41,1.87,2.84,1.69,3,.49,1.28.31,1.44-3.88-3.7-4.06-3.54,2.51,3.61,2.33,3.77-.25.46-.43.61-3-2.72-3.16-2.57.09.83-.1,1,.94,1.84.76,2,1,1.87.76,2-3.62-3.56-3.8-3.4,1.14,2.11,1,2.26-.68-.06-.86.09-1.28-.8-1.46-.64.07.84-.11,1-1.3-.83-1.48-.68,1.94,3.15,1.75,3.3.52,1.41.33,1.56-1.67-1.31-1.85-1.16-1.62-1.26-1.81-1.11,2.4,3.8,2.22,4-.93-.38-1.12-.23-2.4-2.29-2.59-2.14-.39.26-.58.41.74,1.74.55,1.88-1.34-1-1.54-.81-.18.55-.37.7,1.87,3.24,1.68,3.39-2.34-2.29-2.53-2.14-1.46-1.15-1.65-1,2.54,4.19,2.34,4.33-3.11-3.37-3.3-3.23.11,1-.08,1.09-.16.6-.35.74-.35.33-.55.47-1.2-.85-1.39-.71,1.07,2.3.87,2.44-.5.12-.7.26-.28.43-.48.57-1.45-1.22-1.65-1.08,2,3.62,1.77,3.76-1.74-1.64-1.94-1.51-2.21-2.34-2.4-2.2,2.22,4.06,2,4.19-2.37-2.6-2.57-2.46,2.14,4,1.94,4.12-.27.47-.47.6-2.39-2.68-2.59-2.55,1.12,2.54.92,2.67-.9-.48-1.1-.34.12,1.06-.08,1.2-3.07-3.8-3.27-3.67,1.59,3.3,1.39,3.43.44,1.58.24,1.71-3.32-4.27-3.53-4.14,2.22,4.34,2,4.47-1.89-2.07-2.09-1.94-1.13-.88-1.33-.75,1.4,3.12,1.2,3.25-.91-.55-1.12-.42-1.09-.85-1.29-.72-.43.21-.63.34,1.31,3.06,1.1,3.19-1.13-.93-1.33-.8-1.38-1.34-1.58-1.22-1-.77-1.22-.65.87,2.4.67,2.52-1.81-2.1-2-2,.51,1.81.3,1.93.8,2.31.59,2.43-.39.3-.6.42,0,1-.2,1.1-.6-.06-.81.06-2.78-3.92-3-3.8,1.59,3.79,1.39,3.91-2.08-2.71-2.28-2.59.79,2.4.58,2.51-.28.51-.49.62,0,1-.2,1.13-1-.8-1.2-.68-1.24-1.27-1.45-1.15-.34.36-.56.47-.34.37-.55.48-1-1-1.26-.84-.1.84-.31,1,.48,1.94.26,2-.7-.31-.92-.2.16,1.34-.06,1.45-1.95-2.76-2.17-2.65,1,3,.76,3.06-.89-.68-1.1-.57.19,1.46,0,1.57-1.68-2.29-1.9-2.18,1.06,3.21.85,3.32-2.56-4.11-2.78-4,.74,2.58.52,2.69-1.34-1.69-1.56-1.58-.37.32-.59.42,1.27,3.77,1.05,3.87-1.27-1.56-1.49-1.45-1-1.09-1.25-1,1.45,4.24,1.23,4.34-2.4-4-2.62-3.94,1.42,4.25,1.21,4.35-1.47-2-1.68-1.94.7,2.72.48,2.82-2.35-4.05-2.57-4,.75,2.87.53,3,.14,1.5-.08,1.6-1.22-1.57-1.44-1.48-.18.82-.4.92-1.44-2.14-1.66-2,.37,2.08.14,2.18,0,1.25-.21,1.35-.65-.31-.87-.21-1.94-3.39-2.16-3.3.9,3.42.68,3.51-1.25-1.78-1.48-1.68.08,1.46-.14,1.55-.06,1.14-.28,1.23-1.73-3-2-2.93.6,2.78.38,2.87-1-1.32-1.27-1.23.77,3.28.55,3.37-.49.08-.71.17-1.33-2.1-1.55-2-.74-.58-1-.49.75,3.35.53,3.44-.68-.41-.9-.33-1.83-3.54-2.06-3.46,1.25,4.78,1,4.87-.93-1.13-1.16-1-.38.35-.61.44-.87-1-1.1-.93-1.47-2.72-1.7-2.64-.14,1-.37,1.1-.49,0-.72.11-.26.69-.49.77.35,2.5.12,2.58-1.66-3.41-1.89-3.34-.25.73-.48.81-.42.24-.65.31.45,2.9.22,3-1-1.4-1.19-1.32-.18,1-.41,1.08-.16,1.08-.39,1.15S-195.32-34-195.55-34s-.07,1.39-.29,1.46-.13,1.22-.36,1.29-.08,1.36-.31,1.43-1.57-3.51-1.8-3.44-.38.37-.61.44.86,4.59.63,4.66-1.22-2.45-1.45-2.39-.45.19-.68.26-.53-.11-.76-.05,0,1.77-.23,1.83-1-1.74-1.22-1.68.4,3.25.17,3.31-.72-.8-.95-.74-.17,1.22-.41,1.28-.85-1.28-1.08-1.22-.66-.61-.89-.55-.74-.92-1-.86-.11,1.48-.34,1.54-.9-1.55-1.13-1.49.3,3.15.07,3.21-1.33-3.32-1.56-3.26,0,2-.22,2.1-.19,1.24-.43,1.3-1.26-3.18-1.49-3.12-.57-.35-.81-.3-.33.64-.57.7-.69-.91-.93-.86.44,4,.2,4.1-.95-2-1.18-2-.68-.86-.91-.81-.32.79-.55.84-.81-1.49-1-1.44-.4.36-.64.41-.48,0-.72,0,0,2.3-.24,2.35,0,2.66-.18,2.71-1-2.62-1.26-2.57-.87-1.94-1.11-1.89-.42.29-.66.33-.13,1.81-.37,1.85-.52-.17-.76-.13,0,2.76-.21,2.81-.74-1.4-1-1.36-.4.52-.63.56-.14,2-.38,2-1.34-4.89-1.58-4.85.18,3.85-.06,3.89-.81-1.93-1.05-1.89-.29,1.18-.53,1.22-.13,2.16-.37,2.2-.44.36-.68.4-.58-.58-.82-.54-.55-.39-.79-.36-.7-1.42-.94-1.38-.28,1.39-.52,1.43-1-3.78-1.27-3.74-.18,2.09-.42,2.12-.34,1.05-.58,1.08-.28,1.52-.52,1.55-.49,0-.73,0-.44.38-.68.41-.51-.13-.75-.1-.76-2.26-1-2.23-.23,2.13-.47,2.16-.56-.64-.8-.61-.55-.6-.79-.57-.58-.78-.81-.75-.18,2.82-.42,2.85-.63-1.37-.87-1.35-.42.67-.66.7-.74-2.53-1-2.51-.43.5-.67.53-.23,2.69-.46,2.71-.82-3.59-1.06-3.57-.4.87-.64.89-.38,1.25-.61,1.27-.75-3.21-1-3.2-.33,1.91-.57,1.93-.6-1.58-.84-1.57-.07,5.42-.31,5.44-.66-2.32-.9-2.3-.37,1.56-.61,1.57-.6-1.69-.84-1.67-.46.33-.7.34-.67-3.13-.91-3.12-.41,1.27-.65,1.29-.46.15-.7.16-.45.61-.69.63-.42,1.3-.66,1.31-.44,1-.68,1-.54-1.3-.78-1.29-.58-2.47-.82-2.46-.45.67-.69.68-.48-.06-.72-.05-.37,3.5-.61,3.51-.59-3.86-.83-3.85-.45,1-.7,1-.51-1.65-.75-1.65-.38,4.67-.62,4.67-.56-4-.8-4-.46,1.08-.7,1.08-.48.23-.72.23-.47,1.09-.71,1.09-.49-1.57-.73-1.57-.48-1.86-.72-1.86-.48,5.22-.72,5.22-.48-2.75-.72-2.75-.5,3.21-.74,3.21-.44-5.67-.68-5.67-.47.19-.71.18-.49.91-.73.91-.5,1.09-.74,1.08-.5,1.14-.74,1.13-.44-1.89-.68-1.9l-.71,0c-.24,0-.54,1.95-.78,1.94s-.52,1.31-.76,1.3-.4-2.66-.64-2.67-.43-1.22-.67-1.22-.59,2.9-.83,2.89-.36-3.05-.6-3.06-.68,4.67-.92,4.66-.3-4.1-.54-4.11-.63,3.1-.87,3.09-.26-4.2-.5-4.21-.55,1.29-.79,1.27-.59,2-.83,1.94-.4-1.33-.64-1.35-.35-2-.59-2-.54.89-.78.88-.73,3.56-1,3.54-.41-1.11-.65-1.12-.31-2.19-.55-2.21-.59,1.39-.83,1.37S-290.81-19-291-19s-.24-2.88-.48-2.9-.65,2-.89,2-.23-2.83-.47-2.85-.49.16-.73.13-.8,3.28-1,3.26-.07-4.14-.31-4.16-.82,3.37-1.06,3.35-.11-3.63-.35-3.65-.45-.18-.69-.2-.76,2.5-1,2.47-.65,1.49-.89,1.46-.18-2.59-.42-2.61-.42-.51-.66-.54-1,4.12-1.23,4.09-.13-2.88-.37-2.91-.59.84-.83.81-.63,1.15-.87,1.11-.1-2.94-.33-3-1,3.63-1.23,3.6.25-5.27,0-5.3-1.08,4.17-1.31,4.14-.06-2.94-.3-3-.34-.93-.58-1-1,3.17-1.2,3.13-.05-2.84-.29-2.88-1,3.49-1.27,3.45-.24-1.61-.47-1.65-.66,1.05-.9,1,0-2.74-.27-2.78-.85,2.1-1.08,2.06.16-3.79-.07-3.83-1.12,3.6-1.36,3.56,0-2.68-.24-2.72-.91,2.32-1.15,2.28-.38-.61-.61-.66-.54.27-.78.23-.05-2.31-.29-2.36-.23-1.29-.47-1.34-.54.32-.78.27-.87,2-1.11,1.91,0-2.27-.26-2.32-.68,1-.92.91-1,2.64-1.27,2.59.17-3.13-.07-3.18-.36-.58-.6-.63-1.52,4.72-1.75,4.67-.11-1.78-.34-1.83-.52.1-.75.05-.22-1.22-.46-1.27-.44-.21-.68-.27-.65.68-.88.63-.24-1.1-.47-1.16-.42-.33-.65-.39l-.7-.16c-.24-.06-.42-.33-.65-.39s-.88,1.54-1.11,1.48.43-3.68.2-3.73-1.19,2.72-1.42,2.66-.33-.64-.57-.7-.11-1.45-.35-1.51-.53.15-.76.09-.39-.38-.63-.44-.42-.24-.65-.31-1.07,2.08-1.3,2-.22-1-.45-1.07-.93,1.55-1.17,1.48.53-3.62.3-3.68S-339-29-339.21-29.1s-.41-.32-.64-.39.48-3.35.25-3.42-1.35,2.9-1.58,2.83-.86,1.21-1.09,1.14.65-3.85.42-3.92-1.65,3.79-1.88,3.72.11-2-.12-2.09-.7.66-.93.59-.94,1.35-1.16,1.28-.23-.89-.46-1,.28-2.47,0-2.55-.07-1.31-.3-1.39-1.84,4.1-2.07,4-.42-.3-.64-.37.18-2.1,0-2.17-1.32,2.38-1.54,2.31-.34-.54-.56-.62.74-3.65.51-3.73-1.42,2.62-1.64,2.54-.41-.29-.64-.37l-.69-.23c-.23-.08,1-4.32.8-4.4s-2.41,5.29-2.63,5.21-.36-.45-.59-.53.18-1.89-.05-2-1.24,2-1.46,1.88.65-3.15.43-3.23-.6.22-.83.14-1,1.26-1.22,1.17.07-1.53-.15-1.62-1,1.29-1.24,1.2.88-3.58.65-3.67-2,3.74-2.2,3.65.51-2.62.29-2.7-.06-1.14-.29-1.23-2,3.62-2.2,3.53,1.26-4.39,1-4.48-1.7,2.9-1.92,2.81-.73.49-1,.39,1.08-3.86.86-4,.07-1.4-.15-1.49-1.62,2.6-1.84,2.5.7-2.85.48-2.95-.77.6-1,.51-1.19,1.54-1.41,1.45-.32-.47-.54-.57-1.42,2-1.63,1.92,1.11-3.71.89-3.8-.86.75-1.08.65.38-2,.17-2.1-1.07,1.19-1.29,1.09-1.5,2.15-1.72,2-.21-.7-.43-.8-1,1-1.23.91-.66.27-.88.17.32-1.8.1-1.91.18-1.5,0-1.6-.38-.32-.59-.42-.78.51-1,.41.63-2.39.41-2.5-1.84,2.68-2.05,2.57-.3-.48-.52-.59.5-2.08.28-2.18-1.67,2.27-1.89,2.17.1-1.27-.11-1.38,0-1-.25-1.1.31-1.67.1-1.78-2.31,3.45-2.53,3.34,1.6-4.13,1.39-4.24-2.58,3.91-2.79,3.8-.23-.61-.44-.72,1.7-4.26,1.49-4.37-.92.72-1.13.61-2.57,3.76-2.78,3.65.4-1.76.19-1.88-.9.65-1.11.53.41-1.75.2-1.87.33-1.6.12-1.72-1.73,2.13-1.94,2,1.54-3.73,1.33-3.85-.72.31-.92.19-1.11,1-1.32.87-.27-.5-.48-.62.1-1.12-.11-1.24-1.94,2.4-2.15,2.28-.56,0-.77-.12,1.63-3.73,1.43-3.85-1.62,1.8-1.82,1.67-1.59,1.74-1.8,1.61,1.18-2.9,1-3-.82.43-1,.3-1.14,1-1.35.83-1.39,1.34-1.59,1.22,1.51-3.39,1.31-3.52-2.29,2.79-2.5,2.67.8-2.21.6-2.34-.85.44-1,.31,1.57-3.4,1.37-3.52-3.17,4.1-3.37,4,.81-2.18.61-2.31-1.26,1.08-1.47,1,.53-1.72.33-1.85-.68.16-.88,0,1.59-3.31,1.39-3.44-.5-.1-.7-.23-.51-.09-.71-.22-1.3,1.1-1.5,1-1.51,1.37-1.71,1.24-.37-.31-.57-.45,1.13-2.51.93-2.65.41-1.44.21-1.58-2.08,2.19-2.27,2.05-.47-.17-.67-.3.18-1.1,0-1.24-.9.44-1.1.31.54-1.61.35-1.74-.69.14-.88,0,.37-1.34.18-1.48-2.54,2.71-2.73,2.57.51-1.53.31-1.67,1.1-2.33.91-2.47-.34-.34-.53-.49-2.18,2.16-2.37,2,.92-2,.73-2.2-.68.12-.87,0-.25-.47-.44-.61-.33-.35-.52-.5-1,.54-1.2.39-1.95,1.77-2.14,1.62,1.14-2.28,1-2.42.6-1.57.41-1.71-1.2.77-1.38.62-.22-.5-.41-.65-.75.18-.94,0-2.06,1.84-2.25,1.69.69-1.64.5-1.79.4-1.28.22-1.43-.85.3-1,.15-1.07.55-1.25.4,1.62-2.76,1.43-2.91-.73.15-.92,0-.2-.5-.39-.66-1,.5-1.22.35-1.77,1.38-1.95,1.23-.75.13-.93,0,1.21-2.19,1-2.34-1.48,1-1.67.85-.62,0-.81-.17.44-1.26.26-1.41.22-1,0-1.15.61-1.44.43-1.59.21-1,0-1.12-1.3.76-1.48.6-.19-.5-.37-.66-1,.41-1.18.25.35-1.1.17-1.26-1.25.68-1.43.51-.14-.56-.31-.72-2.77,2.33-2.95,2.17.34-1.1.17-1.26,2.49-3.43,2.32-3.6-1.47.89-1.65.73.78-1.54.61-1.7-2.89,2.39-3.07,2.22-.09-.6-.26-.77-.57-.11-.74-.27.56-1.29.38-1.46-2.39,1.81-2.56,1.64.53-1.26.36-1.42-1.15.48-1.32.31,2.63-3.39,2.46-3.56.46-1.15.29-1.32-3.86,3.24-4,3.07,0-.67-.19-.84,2.21-2.91,2-3.08.41-1.07.24-1.24-1.93,1.24-2.1,1.07-.39-.28-.56-.46,1-1.62.81-1.79-.95.27-1.12.09-3.18,2.42-3.35,2.25-.58-.12-.75-.29,2.17-2.75,2-2.93-1.27.55-1.44.38-.86.15-1,0-1.41.67-1.58.49.12-.78-.05-1,3.17-3.61,3-3.79-.24-.42-.4-.6-.22-.43-.39-.61-.65,0-.81-.22-3.23,2.3-3.39,2.12-1.3.52-1.46.34,1.25-1.78,1.09-2-.74,0-.9-.17,2.81-3.14,2.65-3.32-3.33,2.31-3.49,2.13-.56-.15-.72-.33,1.13-1.63,1-1.81-2.11,1.2-2.27,1,3.23-3.43,3.07-3.61-3.77,2.61-3.92,2.43,2.8-3,2.64-3.21,0-.64-.13-.83-4.41,3.1-4.56,2.92.71-1.23.55-1.42-.36-.32-.52-.51-.93.15-1.08,0,.72-1.23.57-1.41-.2-.46-.35-.65,1.75-2,1.6-2.23-3.34,2.09-3.49,1.9,1.59-1.9,1.43-2.09,1.71-2,1.56-2.16-1.11.28-1.26.09-3.47,2.14-3.62,2,.31-.86.16-1-.65-.11-.8-.29,2.69-2.71,2.55-2.9-2.91,1.65-3.06,1.46,2.17-2.28,2-2.47-.67-.09-.82-.28,0-.58-.17-.77-.79,0-.93-.19-2.94,1.6-3.08,1.41,3.24-3,3.1-3.22-.14-.48-.29-.67-1,.13-1.11-.07-2.71,1.4-2.85,1.2-.14-.5-.29-.69,1.46-1.65,1.32-1.84-2.56,1.25-2.7,1,3.79-3.3,3.65-3.5-3.92,2.2-4.06,2,.37-.86.24-1,.74-1.11.6-1.31.54-1,.4-1.16-1.38.39-1.52.19-2.66,1.25-2.79,1.05.06-.64-.07-.84-.77-.06-.91-.26,1.05-1.3.91-1.5,0-.56-.16-.76,1.54-1.61,1.41-1.81-2.16.86-2.29.66,0-.58-.14-.78,2.56-2.25,2.42-2.45-2.58,1.12-2.71.92l-.41-.6c-.13-.2-.44-.29-.57-.49s-.85,0-1-.23-.35-.35-.47-.55,1.14-1.3,1-1.5,1.56-1.54,1.43-1.74-3.31,1.5-3.44,1.3-.26-.41-.38-.62,2.14-1.88,2-2.09-.61-.18-.74-.39-2.12.73-2.24.53,2.9-2.32,2.78-2.52-3.58,1.59-3.7,1.38-.44-.3-.56-.5-.43-.31-.55-.52-.88,0-1-.25,1.94-1.69,1.82-1.9-2.46.87-2.58.66,2.79-2.17,2.67-2.37,1.11-1.19,1-1.4-.72-.13-.84-.34-2.06.62-2.18.41-1,0-1.1-.21-1.41.24-1.53,0-.3-.39-.42-.6.21-.67.1-.88.73-.95.61-1.16,2.2-1.74,2.08-1.95-3.72,1.47-3.83,1.25-.81-.12-.92-.33,2.32-1.78,2.2-2-1.2.09-1.31-.12.29-.7.18-.91-.78-.13-.89-.35,2.15-1.65,2-1.87-.9-.07-1-.28-3.32,1.15-3.43.94,2.78-1.95,2.67-2.17-1.92.43-2,.22,2.26-1.67,2.15-1.88-1.63.27-1.74.06-2.24.57-2.35.35-1.06,0-1.17-.24,1.68-1.35,1.57-1.57-1.3.09-1.4-.12.51-.78.41-1-.75-.18-.85-.4-1.05,0-1.15-.26,3.68-2.25,3.58-2.47-2.76.75-2.86.53,3.55-2.16,3.45-2.38-2.87.79-3,.57-.11-.47-.21-.69,2-1.41,1.87-1.63-1.3.06-1.39-.16-2.4.53-2.5.31-.54-.29-.63-.51,2.44-1.58,2.34-1.8-.05-.5-.14-.72-1.11-.05-1.21-.27-.06-.49-.15-.71-2.15.38-2.24.16,2.05-1.38,2-1.6.82-.86.73-1.08.71-.8.62-1-3.67,1-3.76.77,0-.52-.1-.75,1-.92.94-1.15.94-.88.85-1.11-3.59.9-3.68.68,4.07-2.11,4-2.33-1.81.2-1.9,0,1.31-1,1.22-1.23-5.09,1.42-5.17,1.2,4.86-2.35,4.77-2.58-5.41,1.52-5.5,1.3,4.73-2.27,4.64-2.5-2.68.48-2.77.26.12-.56,0-.78,1.36-1,1.27-1.23-.08-.47-.16-.7.39-.64.31-.87-4.6,1.11-4.68.89,4.8-2.19,4.72-2.41-4.07.9-4.15.67.86-.8.79-1,1.29-.94,1.21-1.17-1.41,0-1.49-.26,1.72-1.08,1.65-1.3.24-.58.17-.81-.83-.23-.9-.46-4.14.83-4.21.6,1.39-.95,1.32-1.18,3.51-1.62,3.44-1.85-4.27.84-4.34.61,1.46-1,1.39-1.19.14-.54.07-.77-2,.11-2.08-.12,2.61-1.29,2.54-1.52-1.65,0-1.72-.24-.18-.44-.25-.67,1.74-1,1.67-1.24-2.41.2-2.47,0-1.36-.12-1.43-.35,1-.78.93-1,2-1,1.92-1.29.82-.71.76-.95-3.63.5-3.69.26-1.74,0-1.8-.26,4.85-1.79,4.79-2-3.49.43-3.55.2,3.42-1.39,3.36-1.62-1.64-.07-1.7-.3-.92-.26-1-.49.29-.57.23-.8-.76-.31-.82-.54-1.72-.08-1.78-.31,4.53-1.59,4.47-1.82-4.39.56-4.45.32.94-.71.88-.95-.88-.29-.94-.52.5-.61.44-.84,1-.71.91-.95,1.69-.86,1.64-1.1-1.29-.2-1.34-.43-1.13-.25-1.18-.48.94-.69.89-.93-3.73.3-3.78.06,4.3-1.38,4.25-1.62-1.83-.11-1.87-.35-1.6-.16-1.65-.4-1.37-.22-1.41-.46,1.65-.82,1.6-1.05,2.71-1,2.66-1.25-4.07.29-4.12.05,2.15-.89,2.11-1.13-1.29-.25-1.33-.49-.62-.38-.66-.61.72-.62.68-.86,3.42-1.08,3.38-1.32-2.23-.1-2.27-.34,1.79-.78,1.75-1-5.14.37-5.18.13-.39-.43-.43-.67,2.53-.89,2.49-1.13.16-.51.13-.75,1.53-.72,1.5-1-1.77-.21-1.81-.45,1.85-.76,1.82-1-2.08-.19-2.12-.42-.07-.48-.11-.72,1.66-.71,1.62-1-3.74,0-3.78-.21,2.64-.84,2.61-1.08-3.14-.07-3.17-.31,5.38-1.17,5.35-1.41-3.31-.07-3.34-.31-1.4-.31-1.43-.55,1.7-.69,1.67-.93,2.22-.74,2.19-1-3.82-.05-3.84-.29-.1-.48-.13-.72-.52-.43-.55-.67,1.92-.69,1.9-.92-1.61-.33-1.63-.57,3.35-.81,3.32-1,.81-.55.79-.79-1.32-.35-1.35-.59-3.26-.19-3.28-.43-.4-.45-.42-.69,2.56-.7,2.54-.94-2.82-.26-2.83-.5.11-.5.09-.74,4.81-.84,4.79-1.08-3.12-.25-3.13-.49-.1-.48-.12-.72-1.3-.39-1.32-.63,2.81-.67,2.8-.91-.19-.46-.21-.7.77-.53.76-.77-4.24-.24-4.25-.48,4.9-.74,4.89-1-1.57-.4-1.58-.64,1.32-.54,1.31-.78-1.08-.43-1.09-.67-2.32-.38-2.33-.62,2.77-.59,2.76-.83-1.1-.44-1.11-.68,1.22-.52,1.21-.76-1.86-.42-1.87-.66-.3-.47-.3-.71-1.21-.46-1.22-.7.86-.5.86-.74-1.88-.45-1.88-.69,1.29-.51,1.29-.75-.16-.48-.16-.72.43-.49.43-.73-.22-.49-.22-.73,2.48-.49,2.48-.73-.4-.48-.4-.72-1.79-.48-1.79-.72,1.6-.48,1.61-.72-1.19-.49-1.19-.73-1.6-.5-1.6-.74,2.5-.45,2.51-.69-.87-.49-.87-.74-1.06-.5-1-.74.43-.47.44-.71,3.5-.4,3.51-.64-2.21-.54-2.21-.78,2.71-.39,2.71-.63-2.62-.57-2.62-.81-.22-.48-.22-.73-.3-.49-.29-.73-.51-.5-.5-.74-1.65-.56-1.64-.8,1.67-.41,1.69-.65-1.69-.57-1.68-.81-.37-.51-.36-.75,2.06-.37,2.07-.61.92-.43.93-.67,2.42-.33,2.43-.57-2.38-.63-2.36-.87-1.27-.57-1.25-.81,2.66-.3,2.68-.54-2.52-.66-2.5-.9-.14-.5-.12-.74-.31-.51-.29-.75,1.06-.4,1.08-.64-2.1-.66-2.08-.9,3.72-.17,3.75-.4-3.71-.82-3.69-1.06,1-.4,1-.64,2-.29,2-.53.67-.42.7-.66,1.89-.29,1.91-.52-3.12-.81-3.1-1.05,3.55-.1,3.58-.34-1.94-.69-1.92-.93.94-.38,1-.61-1.46-.66-1.43-.89-2.36-.77-2.33-1,.64-.41.66-.65.24-.46.27-.7,4.5.09,4.53-.15-3.93-1-3.9-1.23.34-.44.37-.68.93-.36,1-.6-.29-.53-.26-.76,3-.06,3-.3-1-.62-1-.86-3.41-1-3.38-1.23,3.06,0,3.1-.26-3.8-1.08-3.76-1.32,4.81.27,4.84,0,.68-.38.72-.61-1.5-.73-1.46-1,.38-.42.42-.65-2-.83-2-1.07.55-.4.59-.63.31-.44.35-.68,1.31-.25,1.35-.49-3.75-1.17-3.7-1.4,1.74-.18,1.79-.41,3.7.2,3.75,0-4.81-1.4-4.76-1.64,2.07-.09,2.12-.33.23-.44.28-.68-.14-.52-.09-.75-1.26-.75-1.21-1,3.92.32,4,.08-1-.7-1-.94,2-.06,2.07-.29-5.25-1.62-5.2-1.85,2.69.08,2.75-.15,1.29-.21,1.34-.44,1.4-.17,1.46-.41-.56-.61-.5-.84-1-.72-.94-1-2.88-1.16-2.83-1.4,1-.27,1-.5,2,0,2.09-.25,1.14-.21,1.2-.44-2.15-1-2.09-1.26,3.69.43,3.75.19-2.15-1-2.09-1.26,1.6-.08,1.66-.32-4.81-1.73-4.75-2,3.85.5,3.91.26,1-.23,1-.46-.9-.74-.84-1-.68-.68-.61-.91-1.06-.79-1-1-.49-.64-.42-.87,2.12.09,2.19-.14,2.78.29,2.85.06-.21-.55-.15-.78-2.8-1.31-2.73-1.54-2.08-1.11-2-1.34,1.6,0,1.67-.27-1-.8-.91-1,4.68.91,4.75.68-2.54-1.27-2.47-1.5,1.59,0,1.66-.25-2.75-1.35-2.68-1.58,2.73.35,2.8.12.91-.22,1-.45-3.47-1.61-3.4-1.84.59-.32.66-.55,1.1-.15,1.18-.38.14-.46.22-.69,2.2.23,2.28,0-3.55-1.7-3.47-1.93,1.37,0,1.45-.27,1.22-.1,1.3-.32.87-.21.95-.44-.12-.55,0-.77-.45-.67-.37-.9-1-.88-1-1.11-.11-.55,0-.78-.42-.67-.33-.89,3.07.61,3.16.38,1.4,0,1.49-.21-3.29-1.74-3.2-2,4.09,1,4.17.8-2.31-1.38-2.22-1.61,2.7.53,2.79.3-3.54-1.88-3.46-2.1,1.09-.1,1.18-.32,3.5.86,3.59.64-4.37-2.25-4.28-2.47.22-.44.31-.66.36-.38.45-.6,3.87,1,4,.83-4.26-2.26-4.17-2.48,1.95.27,2,.05,3.25.83,3.34.61-1.77-1.25-1.68-1.48-.11-.56,0-.79,2.58.59,2.67.36-4.65-2.52-4.56-2.74,2,.36,2.14.14,3.05.81,3.15.59.22-.42.31-.64-4.6-2.57-4.5-2.79,4.43,1.46,4.53,1.24-4.41-2.51-4.31-2.73,4.43,1.48,4.53,1.26.78-.17.88-.39-2.44-1.64-2.34-1.86,2.06.42,2.16.21,1-.06,1.1-.28-3.26-2.07-3.16-2.28,2.58.69,2.68.47-1.56-1.28-1.46-1.49,2.25.55,2.35.33.86-.11,1-.33-1.52-1.27-1.41-1.48-1.67-1.36-1.56-1.58,0-.53.12-.75,2.48.7,2.58.48-2.89-2-2.78-2.21,2.44.7,2.55.48-.26-.67-.15-.89-.86-1-.75-1.2.36-.36.48-.57,3.72,1.4,3.83,1.19-2.63-1.93-2.52-2.14-.2-.66-.09-.87,1.65.33,1.76.12-.94-1.05-.83-1.26-.1-.61,0-.82,1.78.42,1.9.21,1.21.12,1.33-.09-2.82-2.11-2.7-2.32,1.72.4,1.84.19,1.18.12,1.3-.09,1.55.32,1.67.11-2.27-1.84-2.15-2.05.22-.43.34-.63-.78-1-.66-1.22,2.48.88,2.6.67.17-.46.3-.66.3-.38.42-.59.33-.36.46-.57-.72-1-.6-1.19,1,0,1.11-.18,1.19.16,1.31-.05-2-1.77-1.87-2,2.13.73,2.26.53.46-.28.58-.48.33-.36.46-.57.16-.46.29-.66-2.18-1.93-2.05-2.13,4.3,2.13,4.42,1.93-3.7-2.91-3.57-3.11,2.21.84,2.34.63,1,.05,1.09-.15.47-.26.6-.46-.9-1.16-.77-1.36,1,.07,1.12-.13-2.09-1.95-2-2.15,3.55,1.77,3.68,1.57.46-.26.6-.46-1.42-1.52-1.29-1.72,1,.08,1.11-.12-.43-.87-.29-1.07-1.29-1.46-1.16-1.66,2,.78,2.12.58-2.07-2-1.94-2.22,4.34,2.43,4.48,2.24-.4-.86-.26-1.06-.3-.79-.16-1,1.32.36,1.46.17-.1-.66,0-.86-2.46-2.35-2.32-2.55.18-.46.32-.66,1.11.22,1.25,0-1.09-1.39-.94-1.59,4.05,2.38,4.19,2.19-1.4-1.62-1.25-1.82,2,.87,2.11.68-.43-.91-.28-1.1-.7-1.12-.55-1.31,1.43.48,1.57.29.71-.06.85-.25,0-.57.18-.76-.58-1.05-.44-1.24,1.26.36,1.4.17-.22-.77-.07-1-1.55-1.82-1.4-2,0-.58.19-.77-.17-.76,0-.94,1.59.65,1.74.46-1-1.4-.82-1.59,2.76,1.62,2.91,1.43-2.43-2.6-2.28-2.79,1.43.55,1.58.36.91.13,1.06-.06,1.81.88,2,.69-1.66-2-1.5-2.19.69,0,.84-.23-.8-1.3-.64-1.49.61-.11.76-.3,1.77.88,1.93.7.6-.11.76-.29-2.1-2.45-1.95-2.63.08-.58.24-.76,2.48,1.52,2.64,1.34-1.19-1.68-1-1.86,3,2.05,3.2,1.87-.75-1.31-.59-1.49.94.2,1.1,0,.25-.41.41-.59-2.19-2.62-2-2.8,1.35.57,1.51.39-1-1.54-.81-1.72,0-.67.16-.84,3,2.13,3.18,1.95,1.21.48,1.38.31-.64-1.25-.48-1.43-.56-1.18-.4-1.36-.78-1.4-.61-1.57,1.74,1,1.91.81.26-.41.43-.58.18-.49.35-.67,1.49.78,1.66.61-.49-1.14-.32-1.31-.28-.95-.11-1.12,1,.32,1.18.15-1.17-1.83-1-2,.1-.59.27-.76.09-.59.26-.76.59-.1.76-.27.85.17,1,0,0-.68.18-.85,1.2.54,1.38.37-.46-1.16-.29-1.33.65,0,.82-.19,3.19,2.63,3.37,2.46-.17-.85,0-1,.66,0,.83-.16-3.16-4.05-3-4.21,1.82,1.22,2,1.06-.06-.77.12-.94,1.39.8,1.57.64,1.45.87,1.63.71-.17-.89,0-1.06.46-.2.64-.36-1.78-2.69-1.61-2.85,3,2.61,3.18,2.45-1.61-2.51-1.43-2.67-.53-1.32-.35-1.48.32-.37.5-.53.2-.51.38-.67,3.78,3.59,4,3.43-2.32-3.39-2.14-3.55,3.09,2.84,3.27,2.68-.9-1.78-.72-1.93.08-.65.26-.8-1.83-2.91-1.65-3.06,1.08.52,1.27.37.17-.54.36-.7,0-.76.18-.92,2.88,2.72,3.07,2.56,1.08.57,1.26.42-.21-1,0-1.17-2-3.23-1.83-3.38,3.24,3.22,3.42,3.07,0-.8.16-.95-2.25-3.56-2.06-3.71,2,1.68,2.15,1.53-.88-1.89-.69-2,3.36,3.49,3.55,3.35-.35-1.22-.16-1.37-1.81-3.1-1.62-3.24.15-.61.34-.75,3.18,3.34,3.37,3.19.23-.48.42-.63,0-.78.19-.93.26-.45.45-.59-.41-1.35-.22-1.49.66.08.85-.06-1.42-2.73-1.23-2.87.3-.42.49-.56,1.23.85,1.43.71,0-.86.17-1,.91.43,1.1.29.24-.5.43-.64,1,.59,1.21.45,2.06,2.06,2.25,1.92-1.22-2.55-1-2.69-.61-1.71-.42-1.85,1.21.89,1.41.75-.61-1.74-.42-1.87,1.06.67,1.25.53.55-.06.75-.19-.11-1,.09-1.16.37-.31.57-.45.34-.36.54-.5,1.49,1.35,1.68,1.22,1.72,1.72,1.92,1.58-.07-1,.13-1.1-1.07-2.5-.87-2.63,1.86,2,2.06,1.83,0-.88.2-1,.93.56,1.13.43-1.55-3.31-1.35-3.44,1.6,1.62,1.81,1.49-.41-1.54-.2-1.67,1.13.9,1.33.77.74.28.95.15-1.44-3.23-1.23-3.35,2.11,2.51,2.32,2.38.38-.3.58-.42-1-2.65-.84-2.77,1.28,1.17,1.49,1.05.17-.65.37-.78,1.27,1.18,1.47,1.06,1.58,1.73,1.79,1.61-2.44-5.09-2.24-5.22,2.71,3.68,2.92,3.56-1.63-3.77-1.42-3.89.19-.63.4-.75,1.52,1.67,1.73,1.55,0-1,.22-1.08,2.48,3.42,2.69,3.3-1.27-3.23-1.06-3.35,2.06,2.71,2.27,2.59.52,0,.73-.14-.35-1.63-.14-1.74.27-.5.48-.62-1.37-3.53-1.15-3.64.48-.13.69-.25,2,2.74,2.23,2.62.7.32.92.2.28-.48.49-.59.29-.47.51-.59.24-.57.45-.68,1.56,2,1.78,1.87-1.06-3.1-.85-3.21.59.09.8,0,.23-.6.45-.71.23-.61.44-.72,1.49,1.91,1.71,1.8.59.13.81,0-.53-2.15-.31-2.25-.53-2.2-.32-2.3,2.33,3.69,2.55,3.59.58.12.8,0,.48-.08.7-.19-1.1-3.44-.89-3.54.29-.53.51-.63,1.44,1.94,1.65,1.84.39-.31.61-.41l.66-.28c.22-.1,1,1,1.22.94s-1.48-4.41-1.26-4.51,2.54,4.46,2.76,4.36.05-1,.27-1.13-.08-1.37.14-1.47,1.35,1.88,1.57,1.79-1.05-3.59-.83-3.69.66.3.88.2,1.63,2.59,1.85,2.49.63.28.85.19-1.07-3.76-.84-3.85-.23-1.8,0-1.89.57.1.79,0,1.15,1.5,1.37,1.41.35-.43.57-.52.87.86,1.09.77-.5-2.55-.28-2.64.84.81,1.07.72.54.05.76,0,1.35,2.12,1.57,2,.54.07.76,0-1.1-4.2-.88-4.28,1.3,2,1.52,1.94,1.35,2.21,1.57,2.12-.68-3.17-.45-3.26,1.05,1.47,1.28,1.38.72.57.94.49-.24-2.05,0-2.13.47-.1.7-.19-.18-1.93,0-2,1.18,1.85,1.4,1.77,1.07,1.59,1.3,1.51S-353.26-509-353-509s.72.57.94.5.85,1,1.08.89,1.06,1.64,1.29,1.56-.65-3.44-.42-3.51.68.49.91.42,1.14,1.92,1.37,1.85.16-1.05.39-1.12,1.25,2.3,1.47,2.23-.38-2.76-.15-2.84,1,1.64,1.25,1.57-.17-2.16.06-2.24,0-1.69.21-1.76,1.94,4.66,2.16,4.59-.95-4.79-.72-4.86.58.24.81.17.84,1.11,1.07,1,.82,1.1,1.05,1-.1-2.07.14-2.13.85,1.22,1.08,1.15-.15-2.29.08-2.35,1.69,4.22,1.92,4.16.05-1.61.28-1.68.71.79.95.73.12-1.36.35-1.43.26-.86.5-.93.06-1.66.29-1.72.85,1.36,1.09,1.3.2-1.16.43-1.22.23-1,.47-1.09,1.16,2.62,1.39,2.56.48-.09.71-.15,1.07,2.33,1.3,2.27.43-.2.67-.26.33-.64.56-.7-.48-4.07-.24-4.13.88,1.65,1.12,1.59.62.59.86.54.78,1.28,1,1.23-.48-4.33-.25-4.38l.71-.17c.23,0,.44-.28.67-.33s1.27,3.58,1.51,3.53.23-1.2.46-1.25.59.45.82.4.57.37.8.32.14-1.72.37-1.77.5,0,.74,0,.49,0,.72,0,.36-.69.6-.73.5.09.74,0,.14-1.85.38-1.89,1.07,3.08,1.3,3,.11-2.06.35-2.11.8,1.75,1,1.71.18-1.75.41-1.79.58.48.81.44.17-1.89.41-1.93.57.47.81.43.36-.8.59-.84.53.2.77.16,1.14,4.12,1.38,4.09,0-3.18.22-3.22.37-.83.6-.87.49,0,.73-.07.33-1,.57-1.07.72,1.53.95,1.49.47-.19.7-.22.79,2.15,1,2.12.38-.72.62-.75.23-1.95.46-2,.56.47.79.44.62,1,.86,1,.15-2.64.39-2.67.93,3.67,1.17,3.64.28-1.69.52-1.72.74,2.2,1,2.18.59,1.05.83,1,.32-1.43.56-1.46.26-2.11.49-2.13.31-1.73.55-1.76.84,3.46,1.07,3.44.18-3.09.42-3.11.9,4.35,1.14,4.33.08-4.27.32-4.3.39-1.08.63-1.1.92,4.95,1.16,4.93.28-2.37.52-2.39.44-.51.68-.53.6,1.59.84,1.57.3-2.48.54-2.5.42-.83.66-.85.68,2.86.92,2.84.38-1.53.62-1.55.35-2.16.59-2.17.61,1.92.85,1.91.58,1.74.82,1.73.27-3.89.51-3.9.7,4.15.94,4.13.48.16.72.15.4-1.7.64-1.71.37-2.72.61-2.73.61,3,.85,3,.39-2.46.63-2.47.5.39.74.38.52.93.76.92.44-1.52.68-1.52.57,3.17.81,3.17.47-.34.71-.34.47-.42.71-.42.45-2.05.69-2.05.5,1.12.74,1.12.5,1.21.74,1.21.5,1.57.74,1.56.46-2.88.7-2.88.48-.65.72-.65.49,3.2.73,3.2.48-2,.72-2,.48,1.12.72,1.12.48-.24.72-.24.49-.44.73-.43.5-1.57.74-1.56.41,4.42.65,4.43.57-4.91.81-4.91.48.34.72.34.48.34.72.34.42,2.28.66,2.28.59-3.58.83-3.57.34,4.37.58,4.38.52-1,.76-1,.54-1.61.78-1.6.52-1,.76-.95.34,3.3.58,3.31.52-.92.76-.91.6-2.17.84-2.15.25,4.4.49,4.41.51-.68.75-.67.41,1.18.65,1.19.63-2.52.87-2.51l.72,0c.24,0,.36,1.72.6,1.73s.59-1.61.83-1.6.54-.78.78-.77.26,2.85.5,2.87.73-3.13,1-3.11.22,3.2.46,3.22.61-1.61.85-1.59.3,2.1.54,2.12.45.2.69.22.89-4.38,1.13-4.36.27,2.18.51,2.21.76-2.79,1-2.77.56-.62.8-.59-.06,5.18.18,5.21,1-5,1.25-4.93.22,2.46.46,2.48.61-1.1.85-1.07.24,2.08.48,2.11.34,1.23.57,1.25.65-1.38.89-1.35.58-.76.82-.73.33,1.23.57,1.26.44.27.68.3,1-3.59,1.21-3.56.34,1.14.57,1.17.36.93.6,1,.37.82.61.85.41.48.65.51.51-.12.74-.08.71-1.43,1-1.39.67-1.17.9-1.13,0,3.2.23,3.24l.71.08c.24,0,.88-2.35,1.12-2.32s.51-.14.75-.1.51-.07.74,0-.18,3.9.06,3.94.86-2.17,1.1-2.13.66-.93.9-.89.58-.52.82-.47-.24,4,0,4,1.28-4.2,1.51-4.15,0,2.84.19,2.89.83-1.77,1.07-1.72-.35,4.31-.12,4.35.44.23.67.28.91-2.1,1.15-2,.79-1.43,1-1.38.58-.41.82-.36.54-.21.77-.16-.47,4.52-.24,4.57.87-1.75,1.1-1.7,0,2.39.2,2.44.49,0,.72,0,1.26-3.4,1.49-3.34.07,1.83.31,1.89.36.54.6.6,1.22-3.1,1.45-3,.25,1.07.48,1.12.75-1,1-1-.67,4.74-.44,4.8,1.15-2.67,1.39-2.61.13,1.42.37,1.48.26.9.49.95.73-.91,1-.85.19,1.16.43,1.22,1-1.79,1.19-1.73.78-1,1-1,.5,0,.73.08-.15,2.37.08,2.44,1-1.7,1.2-1.63.51,0,.74.05-.29,2.78-.06,2.85.42.28.65.34.86-1.26,1.09-1.19,1.4-3.06,1.63-3-.29,2.67-.06,2.74.05,1.52.28,1.59.43.23.66.3.41.29.64.36,1-1.72,1.26-1.65.74-.77,1-.69.79-.88,1-.81.3.66.53.73.23.87.46.94-.2,2.19,0,2.26.93-1.31,1.16-1.23.83-1,1-.89.83-.93,1.06-.85-.28,2.33,0,2.41.36.44.59.52.95-1.29,1.18-1.21.54-.08.76,0-1.21,4.92-1,5,.8-.85,1-.77,1.53-2.87,1.75-2.79-.81,3.69-.58,3.77.91-1.11,1.13-1,.81-.83,1-.74,1.14-1.7,1.37-1.62.76-.66,1-.58-.22,2,0,2.05-.13,1.71.1,1.8,1.24-1.91,1.46-1.82-.76,3.31-.53,3.39,1.64-2.9,1.87-2.81-.87,3.52-.65,3.6,1.7-3,1.92-2.89,0,1.42.18,1.51.11,1,.33,1.1-.32,2.06-.1,2.15,1.08-1.38,1.3-1.29,1.56-2.52,1.78-2.43-1,3.58-.74,3.67,2.06-3.68,2.28-3.58-.75,3-.52,3.1.42.22.64.31.15.85.38.95.18.76.4.85,1-1,1.2-.94.22.68.44.78,0,1.23.19,1.33,2.35-4.09,2.57-4-.4,2.07-.18,2.17,0,1.17.21,1.27,1.3-1.68,1.52-1.58-1.2,3.75-1,3.85,1-.94,1.18-.84,2-3.15,2.22-3.05-.27,1.72,0,1.82-.56,2.29-.35,2.4.61-.16.82-.06,1.07-1.1,1.28-1,1.7-2.39,1.92-2.29-1.41,4-1.19,4.07,1.65-2.26,1.87-2.16-.18,1.44,0,1.55.15.78.36.88,1.83-2.56,2-2.45-2,5.08-1.82,5.18,2.23-3.3,2.44-3.19.4.29.61.4,1.19-1.24,1.4-1.13-2.08,5-1.87,5.14.5.07.71.18,1.89-2.54,2.1-2.42-.19,1.37,0,1.48.12.8.33.91.14.74.35.85,1.32-1.42,1.53-1.3,1.45-1.64,1.66-1.52-1.61,3.9-1.4,4,1.17-1.12,1.38-1,1.18-1.12,1.38-1-.23,1.39,0,1.51,1.42-1.53,1.63-1.41-.46,1.78-.25,1.9,1.79-2.15,2-2-2.32,5-2.12,5.1.39.27.6.4,2.8-3.84,3-3.72-.25,1.37,0,1.49-.94,2.52-.74,2.64,1.76-2,2-1.88-.61,1.93-.4,2.05,1.29-1.2,1.49-1.08-.14,1.17.06,1.29.39.28.6.4.86-.48,1.06-.35-.15,1.15.05,1.28.33.38.53.51,1.22-1,1.42-.91-.24,1.28,0,1.41,1.31-1.16,1.51-1-1,2.47-.81,2.6,2.73-3.35,2.93-3.22-2,3.93-1.77,4.06,2.76-3.35,3-3.22-2,3.86-1.76,4,1.5-1.39,1.7-1.26,1.79-1.81,2-1.68.05.8.25.93-1.81,3.54-1.61,3.68,1.44-1.28,1.64-1.15,1.33-1.09,1.53-1-1.42,2.91-1.23,3.05,1.28-1,1.48-.87-1,2.22-.77,2.36,2.85-3.24,3.05-3.1-2,3.69-1.82,3.83.66-.11.86,0,1.65-1.5,1.85-1.36-.82,2-.63,2.1,1.28-.95,1.48-.81-.34,1.27-.14,1.41-.18,1,0,1.19,2.83-3.06,3-2.92-.58,1.6-.39,1.74.12.65.31.8.55.06.74.2.53.1.72.25-1.33,2.55-1.14,2.7.47.15.66.3,2.38-2.32,2.57-2.17-.87,1.92-.68,2.06,1.18-.75,1.37-.6.9-.37,1.09-.22-.35,1.22-.16,1.37,1.94-1.68,2.13-1.53-1.42,2.57-1.23,2.71.09.66.28.81,1.85-1.55,2-1.4,1.21-.72,1.4-.57.22.5.4.65-1.74,2.9-1.56,3,2.35-2.09,2.53-1.94-.06.84.12,1-2.29,3.51-2.11,3.66,2-1.61,2.16-1.46.91-.34,1.09-.18-.56,1.41-.38,1.56.57.07.76.22-.15.91,0,1.07,1.06-.5,1.24-.35-.2,1,0,1.13,1.77-1.3,2-1.14.32.36.5.52.59.06.77.22-2,2.92-1.77,3.08,3.7-3.43,3.88-3.27-3.1,4.18-2.92,4.34.61,0,.79.19,3.64-3.3,3.82-3.13-1.38,2.23-1.21,2.39-.43,1.18-.25,1.34-.29,1-.12,1.18,2.74-2.24,2.92-2.07-1,1.79-.84,1.95,2.41-1.86,2.58-1.69-2.1,2.93-1.93,3.1,2.63-2.07,2.8-1.91-.37,1.1-.19,1.26-2.54,3.33-2.37,3.5.54.12.72.28,4-3.42,4.17-3.25-3,3.72-2.8,3.89.83-.16,1,0,2.67-2,2.84-1.85-.14.83,0,1,.5.18.67.35-2.55,3.21-2.38,3.38.35.32.52.49,3-2.27,3.16-2.1,1.44-.73,1.61-.55-.13.8,0,1-1.11,1.74-.94,1.91-.08.74.09.91-1,1.64-.85,1.81,3.28-2.46,3.45-2.29-3,3.5-2.85,3.68,4.08-3.17,4.25-3,.34.35.5.52-.3.95-.14,1.13-.24.88-.08,1.06-1,1.54-.81,1.72-.16.78,0,1,1.76-.94,1.92-.77,2-1.17,2.19-1-.6,1.18-.44,1.36-.32.93-.16,1.11.37.32.53.5,0,.63.16.82-1.4,1.86-1.24,2,0,.65.13.83,4.42-3.19,4.58-3-1.36,1.81-1.21,2-.53,1.09-.37,1.27-.92,1.41-.77,1.59,3.51-2.33,3.66-2.15-2.31,2.58-2.16,2.76.06.58.21.76,1.61-.72,1.76-.53-.08.69.08.87-1.43,1.79-1.28,2,4.74-3.24,4.89-3.06-.45,1-.3,1.18-2.27,2.45-2.12,2.64,2.32-1.25,2.47-1.06,1.22-.35,1.37-.16-3.36,3.27-3.21,3.46,1.6-.65,1.75-.46-.18.74,0,.93-.28.82-.13,1,.25.4.4.59,2-.91,2.11-.72-1.31,1.61-1.16,1.8-.57,1-.43,1.22,4.18-2.56,4.32-2.37S-71.11-419.18-71-419s-.73,1.14-.59,1.33,2.12-1,2.26-.79,2.24-1.06,2.38-.86-.14.71,0,.9,1.15-.24,1.29,0-2.4,2.33-2.26,2.53,2.61-1.29,2.75-1.09.64.14.78.34-.42.89-.29,1.09-2.87,2.62-2.73,2.82.15.47.29.67,2.22-1,2.36-.78-2,2-1.9,2.19,3.29-1.69,3.42-1.49.51.24.65.44.39.32.52.52-.64,1-.5,1.21,1.7-.56,1.83-.36.76.08.89.28-1.13,1.33-1,1.53-2.47,2.21-2.34,2.41.21.43.34.63,1.78-.59,1.91-.39.61.18.74.38,0,.54.17.74,1.44-.35,1.57-.15,0,.57.14.77-.88,1.13-.75,1.33.34.35.47.55,1,0,1.11.16.34.35.46.56,0,.54.17.74.54.23.67.44,1.85-.56,2-.36-3.36,2.6-3.23,2.81,1.87-.57,2-.37,1.86-.54,2-.34-1.09,1.21-1,1.42-2.26,1.88-2.14,2.09.41.31.53.52,4.45-2,4.58-1.83-1.42,1.38-1.3,1.58-.92,1.09-.8,1.3,1.8-.48,1.92-.27-1.74,1.53-1.62,1.74,1.82-.47,1.94-.26-1.29,1.27-1.17,1.48,2-.56,2.1-.35-1.05,1.13-.94,1.34.37.35.49.56-1.29,1.24-1.18,1.45,4.23-1.74,4.35-1.53.68.19.8.4-2.81,2.05-2.7,2.26-1.63,1.4-1.52,1.61,1.39-.2,1.51,0,3.83-1.46,3.94-1.25-2.2,1.69-2.09,1.9,2.34-.66,2.45-.44-4.33,2.75-4.23,3,4.92-1.95,5-1.74-2.31,1.7-2.2,1.92-2.07,1.56-2,1.78,2.73-.82,2.83-.61-2.18,1.6-2.07,1.82,2.53-.71,2.63-.49-.35.71-.25.92,1.39-.14,1.5.08-.46.75-.36,1,.62.24.72.46,2.64-.71,2.74-.5-.41.74-.31.95,0,.54.11.76-.6.8-.5,1-3.4,2.08-3.3,2.3,2.2-.47,2.29-.26-.7.84-.6,1.06,1.93-.34,2-.12.31.39.41.61,2.51-.57,2.6-.35l.3.67c.1.22-2.82,1.74-2.73,2s-1.3,1.08-1.2,1.3,2.9-.71,3-.49.52.3.62.52-2.46,1.56-2.37,1.78,2.2-.4,2.3-.18-1.1,1-1,1.19-1.38,1.08-1.29,1.3,1.92-.26,2,0,1.42-.05,1.51.17-3.35,1.85-3.27,2.08,3.37-.82,3.46-.6-1.43,1.08-1.34,1.3-.25.61-.17.83,2.92-.61,3-.38.35.38.44.6-2.9,1.61-2.82,1.84-.18.57-.1.8,2.9-.57,3-.34-1,.89-1,1.12-.38.64-.3.87.52.32.6.55,3.6-.78,3.68-.56-4.66,2.17-4.58,2.4,4.75-1.17,4.83-.94-4.12,2-4,2.17,2.6-.39,2.68-.16-1.64,1.07-1.57,1.3-.84.78-.76,1,.78.24.86.46,4.28-.91,4.35-.68-2.77,1.42-2.69,1.65-1.45,1-1.37,1.2,3.43-.61,3.5-.38-1.42,1-1.35,1.19,2.89-.4,3-.18-4.64,2-4.57,2.19-.33.6-.26.83,3.74-.65,3.81-.42.73.28.8.51-.37.62-.3.85-1.6,1-1.53,1.21,1.3.11,1.37.34-1.05.81-1,1,1.9,0,2,.18-.56.66-.49.9,2.48-.2,2.55,0-2.16,1.11-2.09,1.34,0,.5,0,.73-2.57,1.2-2.5,1.43,5.09-.88,5.15-.64-3.74,1.49-3.68,1.72,3.33-.38,3.39-.15-2.7,1.2-2.64,1.44.42.38.48.62,3.5-.39,3.55-.16-3.6,1.4-3.54,1.63,2.74-.18,2.8,0,1.3.19,1.35.42-5.42,1.8-5.36,2,5.19-.75,5.25-.52-2.91,1.18-2.86,1.42,3.42-.3,3.48-.07-2.7,1.12-2.65,1.35-.7.65-.65.89.38.4.44.63.91.29,1,.53-.94.69-.89.93.81.31.86.55,1,.28,1,.51-2.33,1-2.28,1.21,1.45.19,1.5.43-2.33.95-2.28,1.19,2.83-.08,2.87.16,1.9.12,1.95.35-2.14.9-2.09,1.14-1.16.71-1.12.94,3.83-.23,3.88,0-3,1-3,1.28-1.28.72-1.23.95,2.8,0,2.84.22,1.13.3,1.17.53-.22.53-.18.77,1.19.29,1.23.52-4.51,1.24-4.47,1.48,2.08.14,2.12.38-.29.53-.25.76-.81.61-.77.85,1.22.3,1.25.53,1.77.22,1.81.46,1.66.24,1.69.48-4.69,1.17-4.65,1.41,2.31.15,2.34.39.14.46.18.7.9.36.94.6-1.23.65-1.2.89-1.25.65-1.22.88,2,.23,2,.47,1.74.27,1.77.51-.26.52-.24.76.23.46.26.7-4.16,1-4.13,1.2,1.87.27,1.89.51-.64.55-.62.79,2.84.18,2.86.42-2.67.76-2.64,1,1.23.36,1.26.59-2.95.77-2.92,1,3.14.18,3.16.42-1.43.61-1.41.85-1,.57-1,.81,2.41.27,2.43.51,1.56.35,1.58.59-1.61.62-1.59.86,1.55.36,1.57.6-3.63.75-3.61,1,0,.48,0,.72,2.7.29,2.71.53-.73.53-.71.77-.44.5-.43.74-.75.53-.74.77,2.77.32,2.79.56.53.45.55.69-1.4.56-1.39.8.87.44.88.68-.25.49-.24.73-2.87.61-2.86.85,2,.39,2,.63,1.54.43,1.55.67-.27.49-.26.73-2.45.56-2.44.8.47.47.48.71,2.43.41,2.43.65-.37.5-.36.74-4.05.56-4.05.8,1.25.45,1.26.7,3.29.43,3.29.67-4,.53-4,.77,1.67.46,1.67.7,1.51.47,1.51.71-1.6.49-1.6.73S-19.8-270.24-19.8-270Z"/></clipPath></defs><g class="cls-2"><path class="cls-3" d="M212.12-191.39c0,.24.06.48.06.72s-2,.48-2,.72,3,.5,3,.74-3.53.45-3.54.69,1,.5,1,.74,1.17.5,1.16.74-2.22.44-2.22.68-.78.46-.79.7.88.5.87.74-1.27.44-1.28.68-.35.46-.36.71,3.7.6,3.69.84-2.71.38-2.72.62,1.81.55,1.8.79-2.45.38-2.46.62-.4.46-.41.7,2.53.59,2.52.83,0,.49,0,.73,2.12.59,2.11.83-1.14.43-1.15.67,1.45.57,1.43.81-1.26.41-1.28.65-4.12.22-4.14.45,2.15.63,2.14.87.16.49.15.73.73.53.71.77-.87.42-.89.66,2.63.69,2.61.93-3.28.22-3.3.46,1.12.57,1.1.81-.78.42-.81.66-.8.41-.83.64-1.09.38-1.12.62,3,.77,3,1-.14.47-.16.71-2.59.22-2.61.46,4.62,1,4.6,1.21-2.94.17-3,.41-1.79.28-1.82.52.65.55.63.79,3.95.95,3.92,1.19-4.19,0-4.22.22,2.54.8,2.51,1-.6.41-.63.65,2,.74,1.94,1-5-.17-5.05.07.45.54.42.78,2.94.88,2.91,1.12-4-.07-4,.16.16.51.13.74,1.74.74,1.71,1,2.1.8,2.07,1-3.82-.1-3.86.14,2.21.82,2.17,1.06.56.58.53.82-3.23,0-3.27.2S210-150.27,210-150s-.89.35-.93.58-1.17.3-1.21.53.52.58.48.82-4-.21-4,0,.73.61.69.85,1,.66.92.89,1.55.78,1.5,1,1.24.73,1.2,1-4.85-.43-4.9-.19,3.16,1.09,3.11,1.33.33.56.28.79-2.55,0-2.6.22,3.26,1.15,3.21,1.38-.12.48-.17.71-4-.34-4.07-.11.53.6.48.84-.84.3-.89.54,1,.71,1,.94.32.56.27.8,2,.93,1.92,1.17-.64.35-.69.58.09.52,0,.76-.33.42-.39.65-3.89-.42-3.94-.19,5,1.68,4.9,1.91-1.52.13-1.58.37,1.55.87,1.49,1.11-3.06-.26-3.12,0-.73.31-.79.54,3,1.26,2.91,1.49-1.76.05-1.82.28-2.91-.26-3,0,2.34,1.11,2.28,1.34,1.75,1,1.69,1.2-4-.58-4.06-.35,2.79,1.26,2.72,1.49-1.91,0-2,.21-.31.41-.38.64.87.74.8,1-1.82,0-1.88.21,4.11,1.69,4,1.92-4.33-.76-4.4-.53-1.22.13-1.29.36.83.75.77,1,1.72,1,1.65,1.24.18.56.11.79,1.1.85,1,1.08-.63.31-.71.54.61.7.54.93-.08.48-.15.71-3.84-.72-3.91-.49,3.64,1.68,3.56,1.91-2.5-.31-2.58-.08,1.11.87,1,1.1-1,.19-1.05.41-.75.26-.83.48-1.68-.06-1.75.17,1.17.9,1.09,1.13.79.78.71,1,.75.77.67,1-3.13-.59-3.21-.37,3.16,1.64,3.08,1.86-2.93-.54-3-.31,2.77,1.51,2.68,1.73-2.23-.3-2.32-.07-2.3-.35-2.38-.12.26.6.17.83-.47.33-.55.55.39.66.31.88,2.43,1.45,2.34,1.67-1.3,0-1.39.24-2.22-.35-2.3-.13,3,1.69,2.91,1.91.37.67.28.89.25.63.16.85-.07.5-.16.72.45.71.36.93-3.93-1.08-4-.86-1,.11-1.07.33S192-95.18,191.94-95s.31.66.21.88-2.6-.58-2.69-.36,1.95,1.35,1.86,1.58,1,.94.87,1.16-2.21-.43-2.31-.21,1.46,1.16,1.36,1.38.44.72.34.94-4.21-1.34-4.31-1.12,1.07,1,1,1.22.46.73.36.95-.29.39-.39.61-1.38-.1-1.48.11,3.36,2.09,3.26,2.31-4.83-1.72-4.93-1.5,3.1,2,3,2.2.3.67.2.89-1.9-.37-2-.15-1.22-.06-1.33.16,3.3,2.12,3.2,2.34-2.63-.74-2.74-.52-.29.39-.39.61-1.51-.22-1.62,0,3.89,2.47,3.79,2.68-4.25-1.58-4.36-1.37,2.35,1.73,2.25,1.94-1,0-1.09.26-2.72-.85-2.83-.64,2.36,1.75,2.25,2-2-.52-2.15-.31.4.75.29,1-1.8-.41-1.91-.19,4.29,2.81,4.17,3-4.81-2-4.92-1.81,1.84,1.53,1.72,1.74.7.93.59,1.14-1.21-.12-1.33.09-1,0-1.1.22-1.28-.16-1.39,0,0,.52-.16.73,3.18,2.32,3.06,2.53-3.65-1.5-3.77-1.29,3.32,2.43,3.2,2.64.18.66.06.87-2.07-.63-2.19-.43S179-65.25,178.92-65s-.43.32-.55.53.59.91.47,1.12-3.39-1.44-3.51-1.24.59.91.46,1.12-.86,0-1,.25-1.56-.38-1.68-.18.15.65,0,.85,1.5,1.48,1.38,1.68-1.18-.16-1.31.05.05.59-.07.8-2-.66-2.09-.45,3,2.43,2.87,2.64-4-2-4.17-1.77.79,1,.66,1.26-1.32-.28-1.45-.08-.05.53-.18.73,2.84,2.4,2.71,2.6-2.32-.93-2.45-.73,1.13,1.31,1,1.51-.14.49-.27.69-.68.12-.81.32.2.72.07.92.57,1,.44,1.16-3.07-1.49-3.2-1.29.38.83.24,1,1.2,1.4,1.07,1.6.21.73.07.93-3.07-1.54-3.21-1.34,0,.58-.12.78.63,1,.49,1.22-.68.1-.82.3-1.31-.35-1.45-.15,3,2.69,2.81,2.88-1.81-.7-1.95-.51,1.83,1.92,1.69,2.12-.27.4-.41.6-1.8-.72-1.94-.53,1.77,1.91,1.63,2.1S160-44.15,159.86-44s2.31,2.31,2.16,2.5-2.75-1.46-2.89-1.27-.07.55-.21.74-.88-.07-1,.12,2.5,2.51,2.36,2.7-.93-.11-1.08.08-2.63-1.42-2.77-1.23-.13.5-.28.69,3.16,3.07,3,3.26-.86-.06-1,.13-1.59-.65-1.74-.46-1.88-.88-2-.7,3.91,3.74,3.76,3.93S155.18-35.21,155-35s-.78,0-.93.17-1-.21-1.17,0-.6.12-.76.3,2.34,2.54,2.19,2.72-.57.16-.73.34-2.43-1.4-2.58-1.21.7,1.21.54,1.39.91,1.39.76,1.57-3.13-2-3.29-1.83,2.58,2.82,2.42,3-1.81-.92-2-.74-1.52-.69-1.68-.51,0,.66-.12.84.23.83.08,1,2.1,2.48,1.94,2.66-.48.22-.64.4.28.89.12,1.07-3.49-2.46-3.65-2.29,1.11,1.64.95,1.82,1.83,2.31,1.67,2.48-2.73-1.82-2.89-1.64-1.44-.67-1.6-.49.72,1.31.56,1.48.3.94.13,1.11.67,1.28.5,1.45.53,1.16.37,1.34S143-20,142.83-19.87s-1-.26-1.14-.08-1.68-.95-1.85-.77,3.33,3.84,3.16,4-3.51-2.71-3.68-2.53.2.85,0,1-1.57-.85-1.74-.68.91,1.55.74,1.72.87,1.53.7,1.7.82,1.48.65,1.65-2.88-2.18-3.05-2-1.28-.61-1.45-.44,3.08,3.78,2.91,4-3.75-3.12-3.92-2.95.32,1,.15,1.18,2.6,3.35,2.43,3.52-.33.36-.5.53-2.19-1.58-2.37-1.41-2-1.41-2.18-1.25.58,1.3.41,1.47,1.54,2.33,1.37,2.49-3.15-2.64-3.32-2.47,2.45,3.31,2.28,3.48-.89-.25-1.07-.08-1.13-.52-1.31-.35,1.27,2.08,1.1,2.25-2.73-2.27-2.91-2.1-.27.41-.45.57-.81-.19-1,0,1.3,2.15,1.12,2.31S125.67-7,125.49-6.85s.14.87,0,1,2.62,3.68,2.44,3.84-3-2.64-3.15-2.48S126.09-2.2,125.91-2s-2.23-1.82-2.41-1.66-.31.36-.49.52-.29.4-.47.56-.19.51-.37.67-1.08-.54-1.26-.38,2.67,3.91,2.49,4.06-3.2-3-3.38-2.9,1.46,2.49,1.27,2.64-2.33-2-2.51-1.89S121,3.05,120.84,3.2,119,1.66,118.77,1.81s1,1.93.76,2.08-.68-.07-.87.09.36,1.21.17,1.36S116.14,2.75,116,2.9s-.75-.18-.94,0,1.07,2.13.89,2.27-1-.44-1.15-.29.5,1.43.31,1.57.6,1.55.41,1.7-3.53-3.76-3.72-3.62S113.2,7.17,113,7.31s-1.47-1.13-1.66-1,1.06,2.18.87,2.33.74,1.78.55,1.93S109.5,7,109.3,7.18s-.83-.32-1-.18,2.89,4.69,2.69,4.83-2-1.91-2.2-1.77-.8-.27-1-.13-.27.45-.46.59.63,1.7.44,1.84-2.83-3.11-3-3,1,2.22.81,2.36-.22.51-.42.65-1.19-.86-1.39-.72,1.76,3.33,1.56,3.47,0,.91-.15,1S102.9,13.82,102.7,14s.74,1.92.54,2.05-3-3.53-3.2-3.39,2,3.72,1.76,3.86.07.95-.13,1.09-3.15-3.81-3.35-3.68,2.76,5,2.56,5.11-.36.35-.56.48-2.61-3.08-2.81-2.95-.42.24-.62.37,0,1-.15,1.09.05,1-.15,1.09-.15.66-.35.79S94,17.31,93.83,17.44s.4,1.52.2,1.65.43,1.57.22,1.7-1.25-1.09-1.45-1,.45,1.63.24,1.76-.05.82-.26,1,.28,1.37.07,1.5S91.21,22.28,91,22.4s.61,1.94.41,2.06-.24.55-.45.68-.63-.12-.84,0-2-2.38-2.19-2.25-.49.1-.7.22,1.5,3.49,1.29,3.62-3.26-4.64-3.47-4.51-.39.26-.6.38,0,1-.2,1.08S86.16,28,86,28.09s-2.29-3.05-2.5-2.94,1.46,3.57,1.25,3.69-1.81-2.23-2-2.11.84,2.49.63,2.61-.19.64-.4.76-2.42-3.39-2.63-3.27.29,1.54.08,1.65.48,1.89.27,2-1.51-1.79-1.72-1.67.72,2.37.51,2.48S77,27.71,76.75,27.82s-.78-.45-1-.34,0,1.12-.16,1.23-.23.59-.44.7,0,1.08-.19,1.19.09,1.24-.12,1.35.48,2,.27,2.13-1.21-1.31-1.42-1.2.29,1.66.08,1.77-1-.93-1.22-.82-2.13-3.21-2.35-3.11,1.08,3.27.86,3.38-.32.45-.53.55-.07,1-.29,1.07-2.45-4-2.67-3.89,0,1-.26,1.12,1,3.21.78,3.31-.85-.67-1.07-.57-.42.24-.64.34S64.85,33.85,64.63,34s1.53,4.46,1.31,4.56-2.38-4-2.59-3.93-.59-.14-.81,0,.67,2.64.45,2.73-.48.12-.69.22.5,2.35.28,2.44-1.81-2.92-2-2.82.79,3,.57,3.1-1.58-2.42-1.8-2.32.61,2.64.39,2.74-1.54-2.4-1.76-2.31.67,2.83.44,2.92-1.55-2.46-1.77-2.37-.76-.59-1-.49-.15.9-.37,1,.3,2,.07,2.07-1.05-1.31-1.27-1.22-.78-.65-1-.56.33,2.13.11,2.22-1-1.3-1.25-1.21-.43.23-.65.31.8,3.41.58,3.5-1.7-3.06-1.92-3,.78,3.42.56,3.5-1-1.41-1.28-1.32-.16,1-.38,1S47.3,42,47.07,42.05s.22,2,0,2.06-1.49-2.69-1.71-2.61-.16,1-.38,1,.81,3.7.59,3.78-1.94-4-2.17-3.93,1,4.13.72,4.21-.88-1.06-1.11-1-1.15-1.85-1.37-1.78.36,2.55.13,2.63l-.67.26c-.23.08-1.81-3.87-2-3.79s.94,4.35.71,4.43-.44.19-.67.26-1.65-3.52-1.88-3.45.69,3.71.46,3.78-1.09-1.83-1.32-1.76.08,1.84-.15,1.91-.7-.63-.93-.56,0,1.6-.24,1.67-1.17-2.16-1.4-2.09-.76-.86-1-.79-.72-.74-.95-.68-.48,0-.71.12.05,1.84-.18,1.9-.85-1.21-1.08-1.14.33,2.87.1,2.94-1.12-2.17-1.35-2.1.46,3.38.23,3.45S27.19,47.16,27,47.23s.16,2.36-.07,2.42,0,1.79-.25,1.85-.8-1.11-1-1-.17,1.25-.4,1.31-1-2.08-1.28-2,.48,3.77.25,3.83-1-1.75-1.18-1.69-1.16-2.63-1.4-2.57S21.54,51,21.3,51.1s-.25,1-.48,1-.93-1.79-1.16-1.74-.51-.08-.75,0-.1,1.62-.34,1.68-.21,1.21-.44,1.26-1.35-3.68-1.58-3.63-.55-.28-.78-.22.15,2.82-.09,2.87-.45.17-.68.23-.14,1.64-.37,1.69-1.12-2.92-1.36-2.87-.68-.9-.91-.85-.38.51-.61.56.16,3.15-.07,3.2-1.16-3.25-1.39-3.21.21,3.46,0,3.51-.21,1.42-.44,1.46-1-2.59-1.24-2.54-.87-2-1.1-2-.43.28-.67.32S7.28,57,7,57.05s-1.2-3.87-1.44-3.83,0,2.66-.24,2.7-1-3.11-1.28-3.07.23,4.08,0,4.12S3.2,54.75,3,54.79s-.64-.95-.88-.91-.33.92-.57,1S1.28,56.41,1,56.45.85,58.3.61,58.34s-.8-2-1-1.94S-.67,58-.91,58.07s-.57-.57-.81-.53-.85-2.44-1.09-2.41-.16,2.22-.4,2.26-.65-1.12-.88-1.08-.47.1-.71.13l-.72.09c-.24,0-.23,1.9-.47,1.93s-.52-.25-.76-.22-.75-2-1-2-.46.11-.7.14-.09,3.3-.33,3.33-1-4.08-1.21-4.05S-10.31,57-10.54,57s-.34,1.36-.58,1.39-.56-.71-.8-.68-.26,2.12-.5,2.14-1.05-5.44-1.29-5.42,0,5.06-.2,5.08-.43.62-.67.65-.82-3.46-1.06-3.43-.37,1.17-.61,1.19-.67-2.13-.91-2.11-.31,1.92-.55,1.94-.62-1.65-.86-1.63-.34,1.76-.58,1.78-.57-1.24-.81-1.22-.41,1-.65,1-.63-2.11-.87-2.09-.13,5.12-.37,5.14l-.72,0c-.24,0-.56-1.08-.8-1.07s-.56-1.28-.8-1.26-.33,2.75-.57,2.76-.71-4.21-1-4.2-.55-1.39-.79-1.38-.46.34-.7.35-.32,3.32-.56,3.33-.54-1.24-.78-1.23-.48.13-.72.14-.42,1.66-.66,1.67-.59-3.3-.83-3.29-.49-.46-.73-.46-.33,5.1-.57,5.11-.56-2.6-.8-2.59-.42,2.68-.66,2.68-.56-3.64-.8-3.63-.5-1.42-.75-1.42-.47-.07-.71-.07-.48-.42-.72-.41-.46,1.8-.7,1.8-.49-1.75-.73-1.75-.46,4.42-.7,4.42-.49-3.85-.73-3.85-.49,4.66-.73,4.66-.46-4.2-.7-4.2-.5,1.93-.74,1.93-.48-.18-.72-.18-.44-2.81-.68-2.81-.47,0-.71,0-.48.42-.72.42-.49.79-.73.78-.58,4-.82,4-.5.31-.74.3-.37-4-.61-4-.5.92-.74.91-.51.73-.75.72-.53,1.19-.77,1.18-.44-1.13-.68-1.14-.35-3-.59-3S-51.29,57-51.53,57s-.42-1-.66-1-.57,1.71-.81,1.7-.55,1.15-.79,1.14-.26-3.64-.5-3.66S-55,59-55.24,59s-.58,1.46-.82,1.44-.26-3.49-.49-3.5-.53.64-.77.63S-57.61,55-57.85,55s-.79,4-1,4-.49.16-.73.14-.2-3.49-.44-3.51-.45-.35-.69-.37-.73,2.85-1,2.83-.47-.2-.71-.22-.72,2.45-1,2.43-.25-2.44-.49-2.46-.36-1.19-.6-1.21-.76,2.64-1,2.62-.12-3.42-.36-3.45-.5.12-.73.1-.32-1.46-.56-1.48-.94,4-1.18,4-.17-2.71-.41-2.74-.68,1.68-.92,1.65-.34-1.17-.58-1.2-.62,1.09-.86,1.06-.29-1.51-.53-1.54-.93,3.39-1.17,3.35.11-4.43-.13-4.47-.8,2.35-1,2.32-.55.42-.78.38,0-3.71-.2-3.74-.66,1.25-.9,1.21-1,3.24-1.2,3.21.23-4.72,0-4.76-.52.27-.76.23-.82,2.16-1.06,2.13-.15-2.06-.39-2.1-.31-1.07-.54-1.11-1.15,4-1.39,3.94l-.71-.13c-.24,0,0-2.93-.22-3s-.55.38-.79.34-.64.87-.87.83-1,3-1.27,2.94,0-2.86-.2-2.91,0-2.43-.27-2.48-.79,1.6-1,1.56-.56.41-.8.37-.85,1.84-1.09,1.79.16-3.28-.07-3.32-.25-1.15-.49-1.2-1,2.41-1.22,2.37-.43-.29-.66-.34-.86,1.71-1.09,1.66.38-4.07.14-4.12-1,2.58-1.28,2.53,0-2.27-.23-2.32-.79,1.34-1,1.29,0-2-.28-2-.39-.41-.62-.47-1.42,4-1.66,3.94,0-2.05-.24-2.1-.75,1-1,1,0-2.07-.23-2.12-.56.29-.79.23-1.24,3-1.47,2.91-.6.39-.83.33.5-3.94.27-4-1.32,3.2-1.56,3.14.49-3.78.26-3.84-1,1.69-1.18,1.63-.27-.84-.5-.9-1.09,2.17-1.32,2.1.3-3,.07-3S-106.75,52.07-107,52s1-5.44.78-5.5-1.09,2.13-1.32,2.06,0-1.6-.27-1.67-1,1.69-1.22,1.62-1.19,2.38-1.42,2.31-.61.32-.84.25-.37-.47-.6-.54-.13-1.26-.36-1.33-.7.66-.93.59.75-4.07.52-4.14-.34-.53-.57-.6-1.93,4.56-2.16,4.49-.28-.73-.51-.8.61-3.47.38-3.55-.51,0-.74-.06-.75.76-1,.69-.06-1.34-.29-1.42-1.76,3.77-2,3.69.37-2.63.14-2.71.22-2.13,0-2.21-1.6,3.18-1.83,3.1-.75.68-1,.6-.19-1-.41-1,.33-2.38.1-2.47-.28-.63-.5-.71-1.29,2.15-1.51,2.07-.31-.57-.54-.65.44-2.59.22-2.68-1.77,3.39-2,3.31.5-2.72.27-2.8-1.17,1.75-1.39,1.67-1,1.23-1.21,1.14,0-1.39-.22-1.48,0-1.31-.23-1.39.34-2.19.11-2.28-1.57,2.69-1.79,2.6.62-2.86.39-3-.56.13-.78,0-1.79,3.15-2,3.06,1.14-4.09.92-4.18S-134,40-134.2,39.86s-.29-.54-.52-.63,0-1.21-.23-1.3-1.21,1.65-1.43,1.56-.78.59-1,.5,1-3.66.82-3.76S-139.15,41-139.37,41s.64-2.7.42-2.8-.67.33-.89.24.66-2.7.44-2.8-2.26,3.91-2.48,3.82-.48-.11-.7-.21,1.18-3.81,1-3.91-.62.22-.84.12-.72.42-.94.32-1.35,1.79-1.57,1.69,1.49-4.36,1.28-4.46-1.28,1.61-1.5,1.51-.63.21-.85.11-1.56,2.17-1.78,2.07-.32-.46-.54-.56.28-1.69.06-1.8.71-2.55.49-2.66-.91.8-1.13.69-2,3.06-2.26,3-.08-.93-.3-1,1.05-3.16.83-3.26-2,2.89-2.21,2.78,1.28-3.59,1.07-3.69-1.74,2.33-1.95,2.22.9-2.79.68-2.9-1.74,2.33-2,2.22-.18-.69-.4-.8-.19-.67-.4-.78.37-1.73.16-1.84-1.2,1.23-1.41,1.11.83-2.54.61-2.66-.94.76-1.16.65-.6.12-.81,0-1.12,1-1.34.93.94-2.68.73-2.79-1.36,1.46-1.57,1.34.83-2.45.62-2.57-1.69,2-1.9,1.91.65-2.11.44-2.23-.47-.13-.68-.25-2.1,2.7-2.31,2.58-.38-.31-.59-.43.11-1.14-.1-1.26-1.51,1.63-1.72,1.51.3-1.47.09-1.59.27-1.38.06-1.51-.13-.7-.34-.83-2.17,2.68-2.37,2.55,1-2.55.77-2.67-1.08.85-1.29.72-.16-.65-.36-.78.88-2.34.68-2.47-2.7,3.44-2.91,3.31-.72.23-.92.11,1.52-3.32,1.31-3.45-1.85,2-2.06,1.9-.93.57-1.14.44,1.49-3.22,1.29-3.35-.44-.2-.64-.33-1.11.82-1.31.69.35-1.41.15-1.54-.23-.53-.43-.66-.1-.7-.3-.84-1.84,1.89-2,1.76-.61.05-.81-.09,1.16-2.59,1-2.72-.93.51-1.13.37-.24-.49-.44-.62.37-1.39.18-1.53-.09-.71-.28-.84-2.42,2.63-2.62,2.5-.45-.2-.65-.34.07-.93-.12-1.07-.29-.43-.49-.57,1.08-2.33.88-2.47-1.75,1.63-2,1.49-1.5,1.26-1.69,1.12,2-3.57,1.79-3.71-.16-.57-.36-.71-2.43,2.51-2.63,2.37-.55-.07-.74-.21-.59,0-.78-.17,1.55-2.88,1.36-3,.23-1.1,0-1.24-1.74,1.5-1.93,1.36-2.24,2.15-2.43,2,1.85-3.21,1.66-3.36-.19-.53-.38-.67-1.76,1.48-1.95,1.33-.52-.11-.71-.26-1.25.81-1.44.66.85-1.86.66-2,1.52-2.67,1.33-2.82-2.31,2.13-2.5,2-1.59,1.2-1.78,1,1.32-2.4,1.13-2.55.26-1.07.07-1.22-2.54,2.35-2.73,2.2,2-3.14,1.77-3.3-1.3.83-1.48.67-2.1,1.77-2.28,1.61,2.15-3.33,2-3.48-2.91,2.71-3.09,2.55-.3-.4-.48-.56-.53-.13-.72-.28.85-1.73.66-1.89.57-1.4.39-1.55-1.14.58-1.32.42,1.9-2.9,1.72-3.06-3.07,2.77-3.25,2.61.21-1,0-1.12-.91.29-1.09.13-1,.43-1.21.27,2.45-3.45,2.27-3.61-1.71,1.18-1.89,1-1.7,1.16-1.88,1,.88-1.68.7-1.84-1,.35-1.16.19,1.71-2.56,1.53-2.72.37-1.09.19-1.25-1.84,1.27-2,1.11-1,.4-1.21.23,1.56-2.35,1.39-2.51-.3-.38-.47-.55-3.52,3-3.69,2.82-.5-.18-.67-.35,2.59-3.37,2.42-3.54.22-.91.05-1.08-3.2,2.59-3.37,2.43,2.23-2.95,2.06-3.12-.47-.21-.64-.38.23-.9.06-1.07-.67,0-.84-.16-2.45,1.76-2.62,1.59,1-1.65.82-1.82-3.33,2.6-3.5,2.42,1.84-2.47,1.67-2.64-2,1.3-2.2,1.13-.42-.28-.58-.45,2.15-2.74,2-2.91-1.09.37-1.25.2-1.81,1.05-2,.87.31-.95.14-1.12,1.84-2.39,1.68-2.56-2.13,1.33-2.3,1.16,2.24-2.73,2.08-2.91-.48-.2-.64-.37-3.49,2.55-3.65,2.37,2.56-3,2.39-3.16-1.32.56-1.48.38-1.46.67-1.62.49.56-1.14.4-1.32.92-1.47.77-1.65-2.48,1.56-2.64,1.38-1.45.63-1.61.45.79-1.33.63-1.51.37-1,.21-1.14-2.21,1.27-2.37,1.09,1-1.51.86-1.69,1.66-2.05,1.5-2.23-1.64.77-1.79.58.19-.79,0-1-1.48.62-1.64.44-2,1.08-2.2.89,1.9-2.21,1.74-2.39-.33-.35-.48-.53.11-.71,0-.9.46-1,.31-1.18-.28-.38-.44-.57-1.27.42-1.42.23-2,1-2.17.81,1.59-1.88,1.44-2.07-.31-.36-.46-.55,1.36-1.68,1.21-1.87-2.64,1.46-2.78,1.27.6-1.07.45-1.26,1.37-1.66,1.22-1.85-3.84,2.35-4,2.16,2.45-2.48,2.3-2.67-2.51,1.31-2.65,1.11,2.66-2.61,2.51-2.8-4.14,2.52-4.28,2.33,1.72-1.89,1.57-2.08-2.61,1.33-2.75,1.14,2.55-2.48,2.41-2.68-2.92,1.55-3.06,1.35-.69-.1-.83-.29,2.48-2.39,2.34-2.59-2.13.94-2.27.75,2.34-2.27,2.2-2.46.63-1,.49-1.23-3.84,2.13-4,1.94,1.1-1.37,1-1.56.45-.9.31-1.09-3.31,1.71-3.44,1.51,3.64-3.11,3.51-3.3l-.42-.58c-.14-.2-2.2.92-2.33.72s.16-.69,0-.89.1-.64,0-.84,1.2-1.38,1.06-1.58-.91,0-1.05-.16-1.27.27-1.4.07-.82,0-.95-.23,1.05-1.26.91-1.46.51-.9.38-1.1-3.9,2-4,1.75-.57-.21-.7-.41,4.16-3.23,4-3.43-2.84,1.23-3,1,1.08-1.25,1-1.45,0-.57-.12-.77-1.34.27-1.47.06.57-.91.44-1.11,1-1.17.88-1.38-2,.66-2.11.45.93-1.12.8-1.32-4.33,2-4.45,1.83,4.32-3.14,4.2-3.34-2.06.67-2.18.46-2.15.71-2.27.5.57-.89.45-1.1-1.49.31-1.61.1,3.44-2.54,3.32-2.75-2.31.77-2.43.57.08-.6,0-.81-.4-.33-.52-.53,1.57-1.43,1.45-1.64-.9,0-1-.25-.42-.32-.53-.53-3.76,1.53-3.88,1.31,3-2.19,2.88-2.4-1,0-1.11-.21-.42-.32-.53-.53-1.77.4-1.89.18,3.8-2.56,3.69-2.77-3.29,1.2-3.4,1-.46-.3-.57-.52.58-.84.47-1.06-1,0-1.08-.25,2.66-1.9,2.55-2.12-4.48,1.75-4.59,1.53,2-1.56,1.9-1.77-2.41.67-2.51.45,1.76-1.42,1.65-1.64-1.08,0-1.19-.21,2.83-1.93,2.73-2.15-4.12,1.48-4.23,1.27,2.4-1.71,2.3-1.92-3.13,1-3.24.75.89-1,.78-1.18,1.27-1.13,1.17-1.35-1.3.08-1.4-.14-.75-.18-.85-.4-.15-.46-.25-.68-.62-.25-.72-.47-.95-.1-1.05-.32,1.59-1.26,1.5-1.48.85-.91.75-1.13.33-.67.23-.89.48-.73.38-1-1.34.07-1.43-.15-3.12.83-3.22.61,2.54-1.63,2.45-1.85-1.39.07-1.49-.15,1.63-1.21,1.53-1.43,1-1,1-1.18-.92-.13-1-.35-.71-.23-.8-.45-1.39.06-1.49-.16,2.22-1.43,2.13-1.65-4.65,1.36-4.74,1.14,1.77-1.23,1.69-1.46,2.17-1.38,2.08-1.6.07-.54,0-.76.06-.54,0-.76-4.66,1.3-4.74,1.07,2.78-1.59,2.7-1.81,1.76-1.18,1.67-1.41-5,1.39-5.1,1.16,1.32-1,1.23-1.23,0-.52-.09-.74,0-.52-.07-.75,1.86-1.18,1.78-1.41-3.77.85-3.85.63,1.77-1.15,1.69-1.38-2.67.44-2.75.21,1.11-.91,1-1.13-.83-.23-.91-.46,2.91-1.51,2.83-1.74-3.66.75-3.74.52-.19-.45-.26-.68,2.08-1.21,2-1.44-.43-.36-.5-.59-1.38-.06-1.45-.29,3-1.49,3-1.72-1.28-.09-1.35-.32,1.78-1.07,1.71-1.3-1.19-.12-1.27-.35,1-.8.89-1-1.5,0-1.57-.26-1.48-.05-1.55-.28.2-.56.13-.79,1.68-1,1.61-1.23-.49-.35-.56-.58-4.12.71-4.19.48,4.39-1.78,4.32-2-3.56.52-3.62.29,4.08-1.66,4-1.89-2.13.11-2.19-.13.87-.73.81-1,.69-.68.62-.91-5.27.94-5.34.71,4.82-1.8,4.76-2-4.94.82-5,.59-.44-.39-.5-.63.94-.74.88-1,1-.75.92-1-2.16,0-2.22-.19.11-.52.05-.76.48-.62.43-.85,2.31-1.06,2.26-1.3-3.09.25-3.15,0,.54-.63.48-.86-.36-.42-.41-.65,2.4-1.05,2.34-1.29,1-.71.9-.94-1.48-.15-1.54-.39,1.43-.81,1.38-1-3.08.19-3.13-.05,3.42-1.23,3.37-1.47-1.07-.25-1.12-.49-2-.06-2.08-.29,1-.7.92-.93-2.52,0-2.57-.21,4.1-1.32,4.05-1.56-2.69,0-2.73-.18.71-.63.67-.87-.67-.36-.71-.6-1.14-.27-1.18-.51.2-.53.16-.76-1.49-.22-1.53-.46,1.5-.76,1.45-1,1.79-.8,1.75-1,1-.65.93-.89-.11-.46-.15-.7.13-.5.09-.74-4.82.31-4.86.08,4.39-1.21,4.35-1.44-4.41.22-4.45,0,.88-.63.84-.87-.53-.41-.56-.64,3.43-1,3.4-1.25-1.24-.3-1.27-.53.47-.55.43-.79-2.2-.17-2.23-.41-1.8-.24-1.83-.48,1.93-.75,1.9-1,1-.63,1-.86,1.11-.63,1.08-.87.74-.57.71-.81-3.52,0-3.55-.28,1.78-.7,1.75-.94.07-.49,0-.73-.45-.43-.48-.67,2.42-.75,2.4-1-4.81.05-4.83-.19,0-.49,0-.73.48-.53.45-.77,1.88-.68,1.86-.91,1.65-.65,1.63-.89-2.75-.21-2.77-.45-.86-.41-.88-.65,3.11-.76,3.08-1-3.21-.2-3.23-.44-1.16-.39-1.18-.63,1.49-.6,1.47-.84-2.17-.32-2.19-.56,4-.79,4-1-3.58-.23-3.59-.47,1.09-.56,1.07-.8,3.17-.69,3.16-.93-2.51-.32-2.53-.56,3.33-.69,3.31-.93-5.78-.14-5.79-.38,4-.7,4-.94-3.72-.29-3.73-.53,5.41-.75,5.4-1-5-.25-5-.49-.57-.46-.58-.7,5.68-.72,5.67-1-5.58-.26-5.59-.5.1-.5.1-.74,5.18-.65,5.17-.89-4.25-.35-4.26-.59.62-.5.62-.74,2.83-.55,2.83-.79-.1-.47-.11-.71-1.7-.45-1.71-.69-.38-.48-.38-.72.2-.48.2-.72,2.36-.5,2.35-.74-3.33-.46-3.34-.7-.2-.48-.2-.73,3-.48,3-.72-1.53-.48-1.53-.72,1.47-.47,1.47-.71-.59-.49-.59-.73-1.46-.49-1.46-.73.68-.47.68-.71-1.5-.51-1.49-.75-.06-.48-.06-.72,1.36-.46,1.37-.7.42-.47.42-.71.3-.47.31-.71-1.47-.53-1.47-.77-1.38-.53-1.37-.77.68-.46.69-.7,1.17-.44,1.18-.68,2.15-.39,2.16-.63-3.09-.61-3.07-.85,3-.34,3.05-.58-4.44-.71-4.43-.95,4.37-.25,4.38-.49.89-.43.9-.67-1.68-.57-1.67-.81-2.75-.65-2.73-.89,3.42-.26,3.44-.5-.89-.54-.87-.78-2.76-.68-2.75-.92,3.41-.24,3.43-.48-3.7-.76-3.69-1,3.2-.23,3.22-.47.08-.48.1-.72-2.84-.72-2.82-1,3.55-.18,3.57-.42-.36-.51-.34-.75,2.08-.28,2.1-.52-1.86-.66-1.83-.9-.07-.48,0-.72-1.67-.65-1.64-.89-.92-.59-.89-.83,3.39-.11,3.42-.35-3.05-.82-3-1.06,1.41-.33,1.44-.57.48-.43.51-.66,1.8-.27,1.83-.51-3.32-.89-3.29-1.13,4.31.06,4.34-.18-3.85-1-3.82-1.21-.11-.5-.08-.74,3.37,0,3.41-.27-3.39-1-3.36-1.19,3.69,0,3.72-.21-2.88-.89-2.84-1.13,3.73.06,3.76-.18-3.79-1-3.75-1.28-.16-.51-.12-.75,3.9.12,3.93-.12.11-.46.14-.7-4.49-1.21-4.46-1.44-.95-.65-.91-.89,4.82.31,4.86.07-4-1.16-3.95-1.4,2-.15,2-.38-.23-.53-.19-.77,1.67-.19,1.72-.43.33-.42.37-.66-1.51-.76-1.46-1,2.2-.07,2.25-.31-2.87-1-2.83-1.27,3.51.19,3.56-.05-1.16-.71-1.11-.94-3.51-1.2-3.46-1.43.24-.45.29-.69,3.31.19,3.36-.05,1.19-.23,1.24-.47-.63-.62-.58-.85-1.69-.86-1.64-1.09-1.92-.92-1.87-1.15,2.73.1,2.79-.13-1.56-.84-1.51-1.08,4.74.58,4.8.35-4.54-1.53-4.48-1.77,2.31,0,2.36-.19-.85-.7-.8-.93-1.5-.85-1.44-1.09,2.07,0,2.12-.23.79-.3.84-.54-1.42-.85-1.37-1.08-.75-.69-.69-.92,1-.25,1-.49,2.56.17,2.62-.07-1.31-.83-1.25-1.07.79-.28.85-.52-.65-.67-.59-.9-1.06-.79-1-1,.82-.27.89-.51.62-.33.68-.56.66-.31.73-.54.72-.3.79-.53,0-.5.05-.73.33-.4.4-.63-3.63-1.56-3.57-1.79,1.68,0,1.75-.25,2.71.31,2.77.08-1.66-1-1.59-1.23,0-.5.1-.73-1.48-1-1.41-1.19-.24-.59-.17-.82,1.56,0,1.63-.25,3.6.64,3.67.41-4.64-2-4.57-2.22,4.14.83,4.21.6-3.52-1.65-3.45-1.88.88-.22,1-.45,2.28.25,2.35,0-.32-.61-.25-.84-2.29-1.29-2.22-1.52,3.52.7,3.6.47-2.47-1.36-2.4-1.59,1.77.1,1.85-.12.22-.44.3-.66-.68-.76-.6-1-.71-.77-.62-1,2,.22,2.13,0-.89-.84-.8-1.06,1.75.13,1.84-.09-.09-.55,0-.77-2.31-1.38-2.23-1.61.05-.5.14-.72,3.65.88,3.74.65-.47-.69-.38-.91-2.7-1.57-2.61-1.79,1.6.11,1.69-.12.48-.33.57-.55.53-.31.61-.53-.76-.83-.67-1.05-1.41-1.1-1.32-1.32,4.05,1.14,4.14.91.48-.31.58-.53-.8-.85-.71-1.07-2.16-1.43-2.07-1.65,3.39.91,3.49.69-1.61-1.21-1.52-1.43-.46-.72-.37-.94.13-.48.23-.7,1.65.2,1.75,0,.51-.3.6-.52-1.38-1.14-1.28-1.36,1.92.34,2,.12,1.42.12,1.52-.1-3.41-2.08-3.31-2.29.12-.48.22-.7,3.5,1.08,3.6.86.68-.2.78-.42-2.18-1.55-2.07-1.76-1.38-1.18-1.27-1.4-.7-.87-.59-1.09,5.23,2,5.33,1.76-2.88-1.92-2.78-2.14,2.47.67,2.58.45-2-1.52-1.91-1.73-1.74-1.4-1.63-1.62,3.09,1,3.2.78,1.91.43,2,.21-1.1-1.09-1-1.3-1.91-1.51-1.8-1.73,4,1.51,4.12,1.3-2.58-1.86-2.47-2.08-.31-.7-.2-.91-1.2-1.17-1.08-1.39.58-.24.69-.45,1.55.27,1.66.06-.16-.64,0-.85.32-.38.43-.59,2.48.79,2.59.58.17-.45.29-.66-1.67-1.46-1.55-1.67-1.38-1.32-1.27-1.53,3.89,1.61,4,1.4,1.34.2,1.46,0-.45-.8-.33-1-4-2.8-3.86-3,4.78,2.17,4.9,2-3.19-2.38-3.07-2.59,4.08,1.81,4.2,1.6.06-.51.18-.72-3.68-2.71-3.56-2.92,1,0,1.12-.18-1.13-1.24-1-1.44,1.76.49,1.89.28,2.68,1.06,2.8.85.16-.46.29-.66,1.14.14,1.27-.07-3.47-2.68-3.34-2.89,1,0,1.08-.18.31-.38.43-.58-1-1.22-.91-1.42.34-.37.46-.57,2.14.78,2.27.58,2.51,1,2.64.83-1.42-1.47-1.29-1.68,1.54.44,1.67.23-3.55-2.88-3.42-3.08.48-.26.62-.46,1.12.15,1.25-.05,2.61,1.16,2.74,1-2.31-2.12-2.18-2.32-.41-.86-.27-1.06-.3-.79-.17-1,3.27,1.64,3.4,1.44,1.2.24,1.33,0-2.09-2-2-2.22-.92-1.22-.78-1.42,3.17,1.62,3.3,1.42.79,0,.93-.22.16-.47.3-.67,1,.12,1.13-.07-1.15-1.41-1-1.61,1.2.29,1.35.09.44-.26.58-.46-1.2-1.45-1.05-1.65l.43-.57c.14-.19.13-.5.28-.69s-1.36-1.6-1.21-1.79,3.3,1.86,3.45,1.66-.73-1.13-.58-1.32-2.6-2.56-2.46-2.76,1.47.5,1.61.31.63-.13.77-.32,2.4,1.23,2.54,1-.52-1-.37-1.2,0-.62.12-.81.56-.17.71-.36-1.8-2-1.66-2.22,3.57,2.21,3.72,2-3.67-3.53-3.52-3.72,4.08,2.65,4.23,2.46-1.48-1.81-1.33-2,2.82,1.67,3,1.49-2.15-2.36-2-2.54-.05-.67.11-.85,1.79.85,1.94.66.53-.17.69-.36-.26-.83-.11-1,.93.15,1.08,0-1.45-1.85-1.29-2-1.33-1.76-1.18-1.95,3.25,2.13,3.41,1.95,1.14.36,1.3.18-1.2-1.67-1-1.85,1.82.95,2,.76-.18-.78,0-1-1.79-2.21-1.63-2.39-.61-1.18-.45-1.36,2.2,1.31,2.36,1.13.24-.44.4-.62,2.36,1.48,2.52,1.3-1.59-2.08-1.43-2.26-1.24-1.77-1.08-1.95,3.94,2.94,4.1,2.77-3.25-3.63-3.08-3.81,1,.29,1.19.11,2.51,1.68,2.68,1.51-3-3.44-2.81-3.61,3.55,2.67,3.71,2.5.53-.16.69-.34,1,.34,1.21.16-1.12-1.72-.95-1.89.13-.53.3-.71,1.49.78,1.66.61,0-.69.14-.86,0-.68.15-.85-1.45-2.11-1.28-2.28,1.57.89,1.74.72-2.08-2.76-1.91-2.93,3.06,2.39,3.23,2.22-.6-1.29-.43-1.46-1.26-2-1.09-2.13,3.3,2.67,3.47,2.5,1.24.58,1.41.42-.36-1.06-.19-1.22-2.48-3.26-2.3-3.42,1.26.61,1.43.45,1.84,1.23,2,1.06-1-1.72-.8-1.89,2.56,2,2.73,1.85.16-.52.33-.69-1.28-2.07-1.1-2.23-.44-1.18-.26-1.34.85.21,1,0-.25-1-.07-1.14,3,2.53,3.14,2.37-2.85-3.86-2.67-4,2.62,2.19,2.8,2-2-2.94-1.81-3.1,3.66,3.38,3.84,3.22l.54-.46c.18-.16-2.54-3.61-2.36-3.77s.41-.26.59-.42,3.45,3.23,3.64,3.08-2.14-3.21-2-3.36,1.74,1.29,1.92,1.13-1.39-2.36-1.2-2.52,2,1.58,2.16,1.43,1.56,1.11,1.74.95-3.17-4.51-3-4.67.76.14.94,0,1.52,1.07,1.7.92.71.1.9-.05.59,0,.77-.19.9.34,1.08.19-.79-1.74-.6-1.89-.77-1.72-.58-1.87,1.42,1,1.61.85.48-.16.67-.31,1.14.66,1.33.51,1.1.62,1.29.48-2.49-4-2.3-4.11,1.59,1.26,1.78,1.11,1.51,1.17,1.7,1-1.7-3-1.51-3.14.68.09.87-.06,2.51,2.51,2.7,2.36-.41-1.34-.22-1.48-.25-1.13-.06-1.28,1,.59,1.23.44,1.23.86,1.42.71-2.33-4-2.14-4.11,3.14,3.46,3.33,3.32,0-.83.18-1,1.2.86,1.39.71-.2-1.09,0-1.23-1.69-3.19-1.49-3.33.13-.65.33-.79.43-.22.63-.36,1.45,1.22,1.65,1.09,1,.61,1.21.47-1.67-3.25-1.47-3.38,1.93,1.95,2.13,1.81,1.95,2,2.15,1.86-2.65-4.73-2.45-4.87,2.14,2.3,2.34,2.16,1.81,1.83,2,1.7-2.26-4.23-2.06-4.37.44-.21.64-.34,1.26,1,1.46.88,2.25,2.56,2.45,2.43-1.83-3.68-1.63-3.81-.38-1.46-.17-1.6.33-.38.53-.51,3.4,4.41,3.6,4.28l.61-.37c.2-.12-.48-1.64-.28-1.77s1.05.77,1.25.65.6.05.8-.07-1.5-3.33-1.29-3.45,1.63,1.73,1.83,1.61-.65-2-.45-2.11,1.2,1,1.41.92.92.6,1.12.47-.84-2.33-.64-2.45-.53-1.84-.33-2,1.75,2,2,1.89,1.22,1.13,1.43,1,.64.15.84,0-2.1-4.57-1.89-4.69,1.89,2.31,2.1,2.19.61.09.82,0,.11-.77.32-.89.56,0,.77-.09-1-2.81-.82-2.93,2.93,4.26,3.14,4.14-1.16-3.07-.95-3.18-.41-1.75-.2-1.87,2.29,3.18,2.51,3.07l.63-.33c.21-.12-.64-2.19-.42-2.3s.75.38,1,.27,1.12,1.08,1.33,1-.36-1.71-.15-1.82-.44-1.87-.22-2,.52,0,.73-.15,2.48,3.74,2.69,3.63-.34-1.7-.12-1.81-.4-1.84-.19-1.95,1.44,1.79,1.66,1.68.72.37.93.27-.13-1.33.09-1.44.07-.93.28-1-.15-1.41.06-1.52,1.42,1.81,1.64,1.7-1.08-3.31-.86-3.42,2.08,3.21,2.3,3.11-.61-2.39-.4-2.5.09-.94.31-1,2.14,3.42,2.36,3.32l.63-.33c.22-.1-1.12-3.56-.91-3.66s0-1.26.18-1.36,1.15,1.34,1.37,1.24-.09-1.37.13-1.47.42-.25.64-.35,2.67,4.81,2.89,4.71-1.13-3.73-.91-3.83,1.52,2.28,1.74,2.19-.82-3.08-.6-3.18,1.75,2.83,2,2.73-.84-3.17-.62-3.26.52,0,.75-.1.05-1.13.27-1.22.76.55,1,.46,1.7,2.84,1.92,2.75.25-.65.47-.74-.09-1.48.13-1.57,1.38,2.14,1.61,2.05-.41-2.29-.19-2.38.42-.25.64-.34-.43-2.4-.2-2.49.87.89,1.09.81,1.29,2,1.51,1.9.12-1,.34-1.11,1.37,2.23,1.59,2.15-1.38-5-1.16-5.1.36-.43.59-.51,1.87,3.66,2.1,3.57-.29-2.16-.07-2.24,1.23,2,1.46,1.89-.09-1.65.14-1.73,1.29,2.19,1.52,2.11l.67-.22c.23-.08-.74-3.55-.51-3.62s-.17-2,.06-2,2,4.33,2.23,4.25-.92-4.18-.69-4.26.34-.49.57-.57,2.24,5.16,2.47,5.09.4-.3.63-.37,0-1.45.25-1.53-.54-3.21-.32-3.28.61.3.84.22,1.06,1.75,1.29,1.68-.44-3-.21-3.06,2.07,5,2.3,4.93-1.2-5.49-1-5.56l.69-.22c.23-.07,1.63,3.68,1.86,3.61s.8,1,1,.94.42-.24.65-.3.21-1,.44-1,.49,0,.72-.07-.55-3.67-.32-3.74,1.66,4.09,1.89,4-.28-2.76-.05-2.82-.11-2.2.13-2.26,1.58,3.92,1.81,3.86.17-1.18.4-1.24.71.8,1,.74l.69-.18c.23-.06-.35-3.2-.11-3.26s.92,1.66,1.16,1.6.77,1.08,1,1-.15-2.53.09-2.59,1,1.89,1.2,1.83.61.51.84.45-.25-3.07,0-3.12.68.73.91.68,1.14,2.7,1.37,2.65.06-1.8.3-1.86-.13-2.68.1-2.74,1.39,3.92,1.63,3.87-.37-3.78-.13-3.84,1.1,2.73,1.33,2.68.79,1.38,1,1.33-.35-3.83-.11-3.89.28-1,.51-1.05,1.3,3.85,1.54,3.8.61.62.85.57-.32-3.91-.08-4,.44-.26.67-.31.72,1.16,1,1.11.69,1,.93,1,.34-.73.58-.77-.19-3.6,0-3.64,1,2.84,1.26,2.8.27-1.24.5-1.29,1.08,3.26,1.31,3.21.32-.95.55-1,.68,1.12.92,1.08-.43-5.32-.19-5.36S-80.7-435-80.46-435s-.26-4.49,0-4.53.8,1.86,1,1.83.35-.88.59-.92.3-1.21.53-1.24.77,1.84,1,1.8.06-2.87.29-2.91.56.47.8.44.38-.81.62-.84.53.29.77.26.41-.57.65-.6.77,2.06,1,2,.82,2.53,1.06,2.5.37-.83.61-.86,0-3.47.28-3.5.59.87.83.84.31-1.48.55-1.51,1.11,5.31,1.35,5.28.39-.77.63-.8.53.52.77.49.19-2.64.43-2.67.63,1.37.87,1.34.37-1,.61-1,.18-3,.42-3,.83,3.51,1.07,3.49.24-2.55.48-2.58.75,2.84,1,2.82.52.48.76.46.2-3.19.44-3.21l.72,0c.24,0,.69,2.51.93,2.49s.57,1.22.81,1.2.43-.54.67-.56.25-3.22.49-3.23.43-.74.67-.76.69,3,.93,3,.28-3.14.52-3.16.72,3.92,1,3.91.48.19.72.17.29-3.56.53-3.57.46-.44.7-.45.43-1.1.67-1.11.74,5.43,1,5.42.25-5.11.49-5.12.57,2.09.81,2.08.52,1.08.76,1.07.44-1.29.68-1.3.48.11.72.1.52,1,.76,1,.42-2.33.66-2.33.53,2,.77,2,.52,2.11.76,2.11.39-4.95.63-5,.5.77.74.77.52,3.21.76,3.21.47-.36.71-.36.47-2.16.71-2.16.48-.79.72-.79.49,3.66.73,3.66.48-3.07.72-3.07.5-1.42.74-1.42.47,1.15.72,1.16.48-.47.73-.47.42,4.48.66,4.48.53-3.41.77-3.41.43,2.87.67,2.88.58-5,.82-5,.36,5.39.6,5.39.55-2.8.79-2.8.43,1.77.67,1.78.5-.85.74-.84.5-.58.74-.57.51-.72.75-.71.35,3.22.59,3.23.7-4.89.94-4.88.39,2.06.63,2.07.51-.59.75-.57.43,1,.67,1,.63-2.61.87-2.59.32,2.75.56,2.76.41,1.27.65,1.29.41,1,.65,1,.56-1.21.8-1.19.49-.23.73-.21.4,1.1.64,1.12.75-3.57,1-3.55.45.46.69.48.36,1.56.6,1.58.65-2,.89-1.94.56-.83.8-.81,0,5.57.22,5.59.62-1.61.86-1.59.5-.18.74-.16.43.49.67.52.32,1.56.56,1.59.7-2.12.94-2.1.37,1,.6,1,1-4.3,1.2-4.28.13,3.2.37,3.23.2,2.38.44,2.41.46.14.7.16.62-1.17.86-1.15,1-3.93,1.21-3.9,0,3.84.23,3.87.94-3.42,1.18-3.38,0,3.59.24,3.62,1-3.87,1.25-3.84.53-.21.76-.18-.08,4,.16,4,.23,1.69.47,1.72.58-.67.82-.63.75-1.78,1-1.74.85-2.39,1.09-2.35.15,2.17.39,2.21.32,1,.56,1,.87-2.35,1.11-2.31-.2,4.15,0,4.19,1.05-3.31,1.29-3.27.11,2.16.35,2.2.64-.88.87-.84,0,2.58.27,2.62.74-1.43,1-1.39.9-2.23,1.14-2.19.33.85.57.89.79-1.57,1-1.53.54-.26.78-.21.35.76.58.81,0,2.6.21,2.65.59-.49.82-.44-.08,2.8.15,2.85,1.2-3.42,1.43-3.37.49,0,.72.09.34.75.57.8,0,2.16.26,2.21.55-.33.79-.28,1.36-3.89,1.6-3.84,0,2.24.22,2.29.44.24.68.29.31.79.54.84,1-2,1.2-1.92,0,2.18.2,2.24,1-2.11,1.24-2.05.5,0,.73.07-.37,3.48-.13,3.54.22,1.06.45,1.12,1-2.17,1.28-2.11-.19,2.66,0,2.72,1.12-2.43,1.36-2.37.54-.17.77-.1.13,1.38.36,1.44,1.38-3.27,1.61-3.21-.64,4.18-.41,4.25.78-1,1-1-.14,2.28.09,2.35.55-.19.78-.12,1-1.76,1.22-1.69.79-1,1-.92,1-1.59,1.2-1.52-.07,1.93.16,2,0,1.79.2,1.86S33.33-432,33.56-432s0,1.8.19,1.87-.21,2.29,0,2.36,1.67-3.77,1.9-3.7.23.88.46,1,.86-1.1,1.09-1,0,1.54.24,1.61,0,1.7.19,1.77,1.07-1.73,1.3-1.66-.42,2.8-.19,2.87,1.64-3.41,1.87-3.33-.87,4.07-.64,4.15.81-.91,1-.83.59-.27.82-.19-.05,1.61.17,1.69,1.23-2.06,1.46-2,.62-.31.85-.23.5,0,.72.11.91-1.09,1.14-1-1.2,4.71-1,4.8,1.82-3.61,2.05-3.53-.39,2.44-.16,2.52,1.68-3.13,1.9-3-.56,2.87-.34,3,.87-.94,1.1-.86,0,1.28.25,1.36-.36,2.25-.13,2.33.55-.12.78,0,2.36-4.71,2.58-4.62-1.51,5.14-1.29,5.23.91-1,1.13-.91.42.23.64.32,0,1.2.25,1.29,1.31-1.93,1.53-1.84.1,1,.32,1.11,1.32-1.93,1.55-1.84-.72,2.94-.49,3,1.52-2.39,1.75-2.3.45.18.67.27-.62,2.65-.4,2.74,1.86-3.08,2.08-3,0,1.24.21,1.34.2.74.42.84.45.17.67.27l.66.29c.21.1,1.57-2.32,1.79-2.23s0,1.31.16,1.41.75-.46,1-.36.57-.07.79,0,.08,1,.3,1.07-.69,2.62-.48,2.73.74-.43,1-.33-.4,2-.19,2.07,2.41-3.92,2.63-3.82-1.22,3.64-1,3.74,1.89-2.79,2.11-2.68-1.07,3.27-.85,3.38,2.29-3.56,2.5-3.45-.7,2.5-.48,2.61,0,1.11.19,1.22,1.24-1.39,1.45-1.28-1.39,3.81-1.18,3.92,1.5-1.88,1.71-1.77.39.29.6.4.61-.13.82,0,.59-.1.81,0,1.66-2.12,1.87-2-1.73,4.29-1.52,4.41,1.07-1,1.28-.87,1.36-1.52,1.57-1.4.33.41.54.53-.78,2.43-.57,2.54,1.1-1,1.31-.88.14.74.35.86-.76,2.35-.55,2.46,3.08-4.53,3.29-4.41l.63.36c.21.12-.86,2.5-.65,2.62s-.89,2.54-.69,2.66,3-4.3,3.23-4.18-1,2.78-.83,2.9-.79,2.3-.59,2.42.92-.63,1.13-.51.48.13.68.25,1.79-2.07,2-1.95S87.6-404,87.8-403.88s2-2.42,2.22-2.3-1.07,2.69-.86,2.81,2.42-3.06,2.63-2.93-.81,2.24-.61,2.37,1.09-.84,1.29-.72-.14,1.14.06,1.27,1.43-1.37,1.63-1.24,1-.61,1.16-.48.56,0,.76.16-.71,2-.5,2.15.08.76.28.89-.79,2.1-.59,2.24,1.87-2,2.07-1.87-.46,1.58-.26,1.71,1.61-1.57,1.81-1.44.79-.31,1-.18-.68,1.9-.48,2-.9,2.19-.7,2.33.15.63.35.76,1.39-1.2,1.59-1.07,2-2.11,2.22-2,0,.89.17,1,.3.42.5.55-.32,1.3-.12,1.44,1.34-1.07,1.53-.93-2.06,3.75-1.86,3.89.78-.29,1-.15,1.51-1.29,1.7-1.16-1.19,2.48-1,2.62.73-.2.92-.06,1.27-.93,1.46-.79.41.25.6.39,2.21-2.18,2.4-2,.08.72.27.86-1.56,2.91-1.37,3,1.1-.68,1.3-.54-.52,1.48-.32,1.62,2.43-2.42,2.62-2.28-.85,1.92-.66,2.07,1.2-.78,1.39-.64-.16,1,0,1.15,1.59-1.26,1.78-1.12,0,.76.21.91-2,3.31-1.79,3.46,3.31-3.43,3.5-3.28-.45,1.34-.26,1.49.8-.22,1-.07-1.47,2.61-1.29,2.76.51.13.7.28-.31,1.13-.12,1.29,1.23-.76,1.41-.6-.23,1,0,1.18,1.1-.59,1.29-.43.83-.25,1-.1-1.25,2.24-1.07,2.4,0,.69.22.84.62,0,.8.16,1.9-1.5,2.09-1.34,1.85-1.42,2-1.26-1.72,2.73-1.53,2.88.56.08.74.24,0,.7.21.85,1.18-.61,1.36-.46,2.14-1.69,2.32-1.53-.88,1.72-.7,1.88-1.33,2.21-1.15,2.37,1.77-1.26,2-1.1-1.6,2.49-1.42,2.65,1.42-.86,1.6-.7.21.47.39.63,0,.68.2.84,2.21-1.68,2.38-1.52-2.19,3.06-2,3.23,3.27-2.8,3.45-2.64-1.58,2.38-1.4,2.54-.14.84,0,1,1.44-.82,1.61-.65-1.29,2-1.11,2.2,2.56-2,2.73-1.81-1.49,2.23-1.32,2.4,3.82-3.24,4-3.08-.67,1.39-.5,1.55-1.5,2.21-1.33,2.38-.61,1.3-.44,1.46,1.37-.7,1.54-.53,1.38-.7,1.55-.53,1.88-1.19,2.05-1-3.57,4.19-3.4,4.36,4.34-3.59,4.51-3.42-1.46,2.11-1.29,2.28-.93,1.56-.76,1.74-.26.9-.09,1.08-.05.7.11.88,2.11-1.36,2.28-1.19,1.76-1,1.93-.83.21.46.37.64,1.49-.73,1.66-.56-.7,1.32-.54,1.5-1,1.56-.82,1.74.18.49.34.67-1,1.55-.82,1.72,1.68-.88,1.84-.71-1.56,2.06-1.4,2.24,1.21-.45,1.37-.27.58.12.74.3-.17.79,0,1,.87-.14,1,0,1.23-.45,1.39-.27-1.77,2.18-1.61,2.36,4.15-3,4.31-2.79-1.61,2-1.45,2.21-1,1.49-.86,1.68,3.57-2.42,3.72-2.24-2.67,2.91-2.52,3.1,1.4-.56,1.55-.38-1.09,1.55-.94,1.73.44.25.59.44,1.3-.46,1.46-.28-.94,1.39-.78,1.58,4.15-2.8,4.31-2.61-.83,1.3-.68,1.49-1.49,1.83-1.34,2,2-1,2.17-.82-1.06,1.47-.91,1.66,1.41-.52,1.56-.33-.17.75,0,.94-2.07,2.24-1.92,2.43,1.22-.36,1.37-.17,1.88-.86,2-.67.68.08.82.27-.9,1.31-.75,1.5,1.94-.89,2.09-.7-.18.75,0,.94,1.47-.5,1.62-.31.21.45.35.64-3.7,3.37-3.55,3.56,1.27-.36,1.42-.17,1.81-.74,1.95-.55-.25.78-.11,1-1.11,1.4-1,1.59,1.06-.18,1.2,0,2.76-1.38,2.9-1.19.57.19.71.38-.89,1.23-.75,1.42,1.33-.34,1.47-.14-.28.79-.14,1-2.52,2.35-2.38,2.55,3.14-1.6,3.27-1.4-.66,1-.53,1.24,2.17-.9,2.31-.7.17.48.3.67.54.23.67.43-3.33,2.83-3.2,3,3.46-1.74,3.59-1.54-2.18,2-2,2.24,3.14-1.5,3.27-1.3-4.68,3.65-4.55,3.86.63.15.76.35,2.62-1.13,2.75-.93.87,0,1,.21-.41.84-.28,1-2.2,2-2.07,2.17,3.31-1.53,3.44-1.33-.61,1-.49,1.16-2,1.83-1.9,2,4.44-2.19,4.57-2-3,2.42-2.89,2.63,2.6-1,2.73-.83.28.39.4.6-.67,1-.54,1.17-.21.68-.08.89,1.12-.12,1.25.09-2.07,1.78-1.94,2,0,.52.16.73,3.75-1.64,3.87-1.44-.28.73-.16.94-1.12,1.2-1,1.41.52.25.64.46,1.27-.17,1.38,0-.85,1-.73,1.25-1.2,1.22-1.09,1.43,2.69-.95,2.8-.74,1.62-.34,1.73-.13.38.35.49.56-4.4,3-4.29,3.17,1.16-.09,1.28.12,1,0,1.15.19,2.38-.73,2.5-.52.73.16.84.37.21.44.33.65-.44.78-.32,1,.82.12.93.34-1.36,1.25-1.25,1.46-2.84,2-2.73,2.21,1.62-.3,1.73-.08-.06.56,0,.78,1.48-.21,1.59,0,2.58-.75,2.69-.53-.8.94-.7,1.15-2.31,1.68-2.21,1.89,3-.94,3.12-.72-1.89,1.45-1.78,1.67,1,0,1.14.25-1.35,1.17-1.25,1.39.26.4.36.62,0,.52.11.74.2.43.3.65,3.9-1.28,4-1.06-2.16,1.52-2.06,1.74-.36.69-.26.91,2.73-.71,2.83-.49.49.31.58.53-.94.95-.84,1.17-2.18,1.5-2.09,1.71,3.62-1.06,3.72-.84-3.09,1.87-3,2.09-1,.94-.88,1.16.82.16.92.38,1.28,0,1.38.2,3.15-.81,3.24-.59-4.14,2.26-4,2.48.8.18.89.4,1.43-.07,1.52.15-.29.64-.2.86,3.3-.82,3.39-.6-2.27,1.44-2.18,1.66-2.12,1.36-2,1.58,3.66-.93,3.75-.71-3.14,1.75-3.05,2,5.13-1.48,5.22-1.26-3.68,1.94-3.6,2.17,1.41,0,1.49.19-1.6,1.12-1.51,1.35,1.67-.12,1.76.1,2.68-.48,2.76-.25-.68.77-.6,1-1.52,1.07-1.44,1.3-1.84,1.17-1.76,1.4,2.82-.51,2.9-.28.36.38.44.61-.67.75-.59,1-.74.76-.66,1,.36.38.44.61,2.81-.46,2.89-.23-.42.66-.34.88,1,.18,1.09.4,0,.51.08.74-4.35,1.94-4.27,2.17,3.86-.76,3.94-.53-1.4,1-1.33,1.18,2.54-.3,2.61-.07-1.84,1.09-1.77,1.32.09.47.16.7,1.47.05,1.55.28-.46.64-.39.87-1.86,1.07-1.79,1.3.34.4.41.63.24.42.31.65,2-.09,2.06.14,1,.21,1.08.44-3.38,1.48-3.31,1.71,2-.07,2,.16-1.54.93-1.47,1.17,4.43-.74,4.49-.51-3.85,1.57-3.79,1.8-1.34.85-1.28,1.08,3-.32,3.1-.09,2.84-.25,2.9,0-1.77,1-1.71,1.2-2.76,1.21-2.7,1.45,2.49-.15,2.54.08,1.72.07,1.78.3-2,1-2,1.24-1.69.91-1.64,1.15,3.55-.38,3.61-.15-2.68,1.15-2.62,1.38-1,.73-1,1,.51.37.56.6.72.32.77.56-.78.66-.73.9-.12.51-.06.74,3.95-.39,4-.16-3.08,1.17-3,1.41-.86.67-.81.9,5.35-.65,5.4-.42-2.55,1-2.5,1.27,1,.29,1,.53-1,.69-.95.92-2.31,1-2.26,1.19,1.83.12,1.88.36.59.37.63.6,1.24.25,1.29.49,2.38,0,2.43.28-4.19,1.27-4.14,1.51,4.42-.33,4.46-.09-1.73.81-1.69,1,.6.39.64.63-3.58,1.11-3.54,1.35-.47.56-.43.8,5-.36,5-.12-.81.63-.77.86-3.36,1-3.32,1.27.12.47.15.7.55.4.59.64-1.11.65-1.08.88,3.71-.07,3.75.16-1.83.76-1.8,1,.46.42.49.65,1.05.34,1.08.58-2.68.85-2.64,1.09,4.07-.07,4.1.17.62.4.66.64-.87.61-.84.84-.41.54-.38.78-.89.6-.86.84-2.74.81-2.72,1.05,1.79.26,1.81.5,3.8.05,3.83.29-5.23,1.07-5.21,1.31,1.7.29,1.73.53,3.46.11,3.49.35-4.42.94-4.39,1.18,2.21.26,2.23.5-1.17.59-1.15.83,2.91.21,2.94.45-2,.66-2,.9,0,.49,0,.73.18.46.2.7-2.52.69-2.5.93,5.26.06,5.28.29-5.24.9-5.22,1.14,3.4.22,3.42.46.17.47.18.71-2.08.62-2.07.86,2.06.35,2.08.59-2.91.66-2.89.9.9.42.91.66,1,.42,1,.66-1.55.56-1.54.8,2,.38,2,.62,2.9.34,2.91.58-5,.71-5,.95,1.36.42,1.37.66.61.45.62.69,1.78.42,1.78.66-.5.5-.49.74-.2.49-.2.73-2.62.56-2.61.8,2.47.41,2.47.65,2.46.43,2.47.67-1.21.51-1.2.75-4.31.56-4.3.8,1.18.46,1.18.7.76.47.76.71,3.15.45,3.15.69-3.77.51-3.77.75,3.69.47,3.69.71S212.12-191.63,212.12-191.39Z"/></g><path class="cls-4" d="M240,294.48c-10.93-1.53-19.62-3.27-30-5.23a6.24,6.24,0,0,1-5.06-6.67c1.32-15.43,5-32.17,10.7-45.89H174.48L149.11,400a56.5,56.5,0,0,0,53.76,73.85c38.21,0,65.55-37.31,53.75-73.85Z"/><path class="cls-5" d="M166.48,417.34A56.28,56.28,0,0,1,169.21,400l25.37-163.29h-20.1L149.11,400A56.54,56.54,0,0,0,213,472.93,56.48,56.48,0,0,1,166.48,417.34Z"/><path class="cls-4" d="M390.46,419.85,371.92,302H330.43L311.88,419.85a41.29,41.29,0,1,0,78.58,0Z"/><path class="cls-5" d="M332,419.85,350.53,302h-20.1L311.88,419.85a41.31,41.31,0,0,0,39.29,54,41.85,41.85,0,0,0,10.05-1.22A41.34,41.34,0,0,1,332,419.85Z"/><path class="cls-6" d="M391.11,152.11A203.63,203.63,0,0,0,202.87,26.17C96.36,26.17,9,108,0,212.15A8.58,8.58,0,0,0,7,221.29c67.51,12.67,138,18,206.67,17.4A148.79,148.79,0,0,1,391.11,152.11Z"/><path class="cls-7" d="M21.74,216.53c8.62-103,90.49-184.64,192.06-190.07q-5.43-.29-10.93-.29C96.36,26.17,9,108,0,212.15A8.58,8.58,0,0,0,7,221.29q9.24,1.72,18.55,3.26A8.84,8.84,0,0,1,21.74,216.53Z"/><path class="cls-7" d="M452.63,185.92C362.07,102,213,158.68,202.43,282.53a6.72,6.72,0,0,0,5.47,7.22c91.08,17.1,196.24,17.06,287.26-.14a5.94,5.94,0,0,0,4.82-6.35A148.79,148.79,0,0,0,452.63,185.92Z"/><path class="cls-8" d="M223.06,288.47c6.81-83,70.67-137.05,139.48-142-76.17-5.33-152.62,48.62-160.11,136a6.72,6.72,0,0,0,5.47,7.22q7.93,1.49,16,2.8A7.31,7.31,0,0,1,223.06,288.47Z"/><path class="cls-7" d="M108.33,87.67c-35,29.1-53.3,66-62.46,91.88A223.84,223.84,0,0,0,34.58,226q7.45,1.17,14.93,2.22c1.59-13.42,12.35-82.37,68.46-129a7.54,7.54,0,0,0-9.64-11.6Z"/><path class="cls-7" d="M100.81,186.22a7.54,7.54,0,0,0-10.08,3.49c-.29.6-7,14.62-11.09,42.34,5,.55,10,1.08,15,1.56,3.73-24.6,9.53-37.08,9.66-37.34A7.53,7.53,0,0,0,100.81,186.22Z"/><path class="cls-8" d="M455.09,247a7.54,7.54,0,0,0-13.8,6.09,143.6,143.6,0,0,1,9.65,43.45c5-.62,10-1.3,15-2C464,267.28,455.48,247.83,455.09,247Z"/></svg>