<svg id="圖層_1" data-name="圖層 1" xmlns="http://www.w3.org/2000/svg" xmlns:xlink="http://www.w3.org/1999/xlink" viewBox="0 0 500 500"><defs><style>.cls-1{fill:none;}.cls-2{clip-path:url(#clip-path);}.cls-3{fill:#9dcb3b;}.cls-4{fill:#efc797;}.cls-5{fill:#e0b586;}.cls-6{fill:#3bbc56;}.cls-7{fill:#30aa44;}</style><clipPath id="clip-path"><path class="cls-1" d="M1020.2-270c0,.24-3.13.47-3.13.71s1.9.49,1.9.73,2.23.49,2.23.73-4,.44-4,.68,3.61.53,3.61.77-1.17.46-1.17.7-1.06.46-1.06.7-.65.47-.66.71,2.78.54,2.78.78-1.7.44-1.7.68-2.14.41-2.14.65,4.14.62,4.13.86-.22.47-.23.71,1.17.53,1.16.77-.94.45-1,.69-2.16.39-2.18.63,3.37.64,3.36.88-.71.45-.72.69-2.46.36-2.47.6,3.37.67,3.35.91-5,.19-5,.43,1.21.55,1.19.79,2.53.65,2.51.89-1,.41-1,.65-3.47.24-3.49.48,3.91.76,3.89,1,.12.5.11.74-3.42.21-3.44.45.84.55.82.79,3,.73,3,1-3.54.18-3.57.42-.78.4-.8.64,0,.48-.05.72,1.64.63,1.62.87,2.65.75,2.63,1-4.08.07-4.11.31.49.52.46.76,2,.7,2,.94-2.85.17-2.88.41,1.78.68,1.75.92,2.42.76,2.39,1,.46.55.43.79-4.22,0-4.25.21,2.16.75,2.13,1,.65.57.62.81-.5.42-.53.66-3.94-.05-4,.19.62.57.59.8,1.75.73,1.72,1-2.15.17-2.18.41,3.85,1,3.82,1.28-.84.37-.88.61,2.13.81,2.09,1.05-3.85-.11-3.89.13-1.36.27-1.4.5,3.07,1,3,1.22-1.87.18-1.91.42,2.74.94,2.7,1.18-2.93,0-3,.23-1.23.27-1.27.51,3.44,1.09,3.4,1.33.46.57.42.81.34.55.29.79-4.1-.27-4.15,0,2,.86,2,1.1.86.66.82.89-3.12-.11-3.17.13-.57.37-.62.6,1.61.81,1.57,1-1.33.22-1.38.45,1.45.79,1.4,1-2.59,0-2.64.19,3.71,1.27,3.66,1.5.32.57.27.8.12.53.07.76-4.56-.51-4.61-.28,1.55.84,1.5,1.07-1.26.21-1.31.44,1,.72,1,1,.07.51,0,.74-.67.33-.73.56,2.85,1.18,2.8,1.41-4.49-.59-4.54-.35.73.66.67.9-.93.25-1,.49.25.55.19.78-.25.43-.31.66,4.77,1.72,4.71,2-4.39-.64-4.45-.41,2.12,1,2.06,1.29,0,.5,0,.73-.73.3-.8.53,2,1.06,2,1.29-3-.32-3-.09-.16.45-.23.68-.8.27-.86.5.22.56.16.79,2.2,1.14,2.13,1.37-1.11.18-1.18.41-1.93-.07-2,.16,1.79,1,1.72,1.26-.09.48-.16.71,2,1.1,1.89,1.33-2.65-.3-2.72-.07-2.1-.16-2.18.07,4,1.74,3.88,2-.49.36-.56.59-4.72-1-4.79-.78.15.55.08.77,4.38,1.94,4.31,2.17-.48.35-.56.58.39.64.32.87-1.21.11-1.29.34.38.64.3.86.74.77.66,1-2.18-.24-2.26,0-1.78-.12-1.86.11,1.89,1.17,1.81,1.4-1.33,0-1.41.27,1.61,1.09,1.53,1.31-2.67-.45-2.75-.23,3.31,1.73,3.23,2-5.46-1.5-5.55-1.28,1.52,1.07,1.43,1.29-.13.47-.21.69-.69.25-.78.48.85.83.77,1.06-.36.37-.44.6,2.7,1.57,2.61,1.79-1.09.09-1.18.32-1.74-.17-1.83,0-2.56-.51-2.65-.29,1.12,1,1,1.19,1.19,1,1.1,1.22.14.58,0,.8-2.92-.69-3-.47,4.28,2.3,4.19,2.52-3.31-.86-3.4-.64-.43.34-.52.56,2.79,1.71,2.69,1.93-.7.23-.8.45,1.11,1,1,1.23,0,.53-.1.75-3.55-1-3.64-.81,1.87,1.36,1.78,1.58-3.39-1-3.48-.77.11.57,0,.79-.23.42-.33.64-.88.12-1,.34,3.58,2.17,3.48,2.39-.84.15-.94.37-.86.13-1,.35-.9.11-1,.32-1.42-.14-1.52.07-.14.47-.24.68-.27.4-.38.62-.65.21-.76.42,4.22,2.6,4.11,2.81-2.86-.87-3-.65,1.6,1.33,1.49,1.54-.28.41-.39.62-2.08-.51-2.19-.29,1.19,1.14,1.08,1.35-.81.13-.92.34-1,.06-1.06.27.44.77.33,1-3.25-1.16-3.36-.95-.13.46-.24.68,1.56,1.36,1.45,1.57-.1.49-.21.71-.68.17-.8.38-.66.19-.77.4.8,1,.69,1.19-1.05,0-1.16.18-1.38-.21-1.5,0,1.71,1.49,1.59,1.7-1.27-.17-1.39,0-.92,0-1,.24,2.32,1.86,2.2,2.07.8,1,.68,1.22.61.91.49,1.12-.94,0-1.06.23-1.37-.25-1.5,0-1.1-.09-1.22.12,1.8,1.62,1.68,1.83-1.09-.08-1.21.13.53.87.4,1.08-3.78-1.72-3.91-1.51,1.76,1.62,1.64,1.83.5.87.37,1.07-1.67-.47-1.8-.26.44.83.31,1-2.13-.76-2.26-.56,1.92,1.76,1.79,2,2,1.81,1.86,2-3.67-1.75-3.8-1.55-.33.35-.46.56,3,2.47,2.83,2.67-3-1.37-3.15-1.17.15.67,0,.87,1.57,1.61,1.44,1.81-2-.76-2.16-.56-2.68-1.2-2.82-1,1.57,1.61,1.44,1.81.46.89.32,1.08-1.72-.58-1.85-.38,1.56,1.64,1.42,1.84-.93-.06-1.07.14.56,1,.43,1.17.73,1.1.6,1.29-.88,0-1,.18-2-.85-2.19-.65,1.07,1.34.93,1.54,0,.61-.11.8-.82,0-1,.2-1-.12-1.15.07.59,1,.45,1.21.5,1,.35,1.15-2.17-1-2.31-.79-.33.35-.47.54,2.56,2.5,2.42,2.69-4.32-2.61-4.46-2.42,1.85,2,1.71,2.18-.86,0-1,.14,1.94,2.08,1.79,2.27-4.54-2.86-4.69-2.67.26.79.11,1-.51.21-.65.4.79,1.22.64,1.41.45,1,.3,1.14-.46.25-.61.44,0,.62-.13.81-.84-.06-1,.13-1-.19-1.15,0,1.28,1.65,1.13,1.84,1.09,1.49.94,1.68-1-.17-1.14,0-3.6-2.33-3.75-2.14,3.66,3.63,3.51,3.81.08.71-.07.89-2.88-1.77-3-1.58,2.29,2.54,2.13,2.72-2.52-1.49-2.67-1.3,0,.61-.18.79-1.32-.5-1.48-.31-1.05-.27-1.21-.09,1.91,2.27,1.75,2.45-.38.31-.54.49.36,1,.2,1.13-2.7-1.72-2.86-1.54,1.52,2,1.36,2.16.22.84.06,1-2.31-1.41-2.47-1.23,2,2.44,1.84,2.62-4-2.94-4.14-2.76,1.77,2.24,1.61,2.42,1.39,1.93,1.22,2.1-.24.44-.4.62-.26.42-.42.6-3.81-2.88-4-2.7.12.76,0,.94,1.52,2.09,1.36,2.26-1.69-.93-1.86-.75-1.61-.88-1.78-.71,3,3.49,2.8,3.67-2.29-1.54-2.46-1.36-1-.35-1.21-.18,1.79,2.41,1.62,2.58-3.33-2.58-3.49-2.41,1.5,2.14,1.33,2.31.44,1.11.27,1.28-2-1.31-2.17-1.14,1.59,2.27,1.42,2.44-2.65-2-2.82-1.82,2.12,2.83,1.95,3-2-1.37-2.19-1.2.15.83,0,1,.19.88,0,1.05-1.46-.82-1.63-.65,2.38,3.17,2.2,3.34-4-3.52-4.19-3.35,3.27,4.14,3.1,4.31-2.68-2.14-2.86-2,.36,1.08.18,1.24.46,1.19.28,1.36.64,1.4.46,1.57-3.2-2.76-3.37-2.6.32,1.06.15,1.23.33,1.07.15,1.24-.92-.3-1.1-.14-1.34-.77-1.52-.61-.72-.1-.9.06-.41.25-.59.41,1.87,2.84,1.69,3,.49,1.28.31,1.44-3.88-3.7-4.06-3.54S935-80.18,934.82-80s-.25.46-.43.61-3-2.72-3.16-2.57.09.83-.1,1,.94,1.84.76,2,1,1.87.76,2-3.62-3.56-3.8-3.4,1.14,2.11,1,2.26-.68-.06-.86.09-1.28-.8-1.46-.64.07.84-.11,1-1.3-.83-1.48-.68,1.94,3.15,1.75,3.3.52,1.41.33,1.56-1.67-1.31-1.85-1.16-1.62-1.26-1.81-1.11,2.4,3.8,2.22,4-.93-.38-1.12-.23-2.4-2.29-2.59-2.14-.39.26-.58.41.74,1.74.55,1.88-1.34-1-1.54-.81-.18.55-.37.7,1.87,3.24,1.68,3.39-2.34-2.29-2.53-2.14-1.46-1.15-1.65-1,2.54,4.19,2.34,4.33-3.11-3.37-3.3-3.23.11,1-.08,1.09-.16.6-.35.74-.35.33-.55.47-1.2-.85-1.39-.71,1.07,2.3.87,2.44-.5.12-.7.26-.28.43-.48.57S913.3-67,913.1-66.87s2,3.62,1.77,3.76-1.74-1.64-1.94-1.51-2.21-2.34-2.4-2.2,2.22,4.06,2,4.19-2.37-2.6-2.57-2.46,2.14,4,1.94,4.12-.27.47-.47.6-2.39-2.68-2.59-2.55,1.12,2.54.92,2.67-.9-.48-1.1-.34.12,1.06-.08,1.2-3.07-3.8-3.27-3.67,1.59,3.3,1.39,3.43.44,1.58.24,1.71-3.32-4.27-3.53-4.14,2.22,4.34,2,4.47-1.89-2.07-2.09-1.94-1.13-.88-1.33-.75,1.4,3.12,1.2,3.25-.91-.55-1.12-.42-1.09-.85-1.29-.72-.43.21-.63.34,1.31,3.06,1.1,3.19-1.13-.93-1.33-.8-1.38-1.34-1.58-1.22-1-.77-1.22-.65.87,2.4.67,2.52-1.81-2.1-2-2,.51,1.81.3,1.93.8,2.31.59,2.43-.39.3-.6.42,0,1-.2,1.1-.6-.06-.81.06-2.78-3.92-3-3.8,1.59,3.79,1.39,3.91-2.08-2.71-2.28-2.59.79,2.4.58,2.51-.28.51-.49.62,0,1-.2,1.13-1-.8-1.2-.68-1.24-1.27-1.45-1.15-.34.36-.56.47-.34.37-.55.48-1.05-1-1.26-.84-.1.84-.31,1,.48,1.94.26,2-.7-.31-.92-.2.16,1.34-.06,1.45-1.95-2.76-2.17-2.65,1,3,.76,3.06-.89-.68-1.1-.57.19,1.46,0,1.57-1.68-2.29-1.9-2.18,1.06,3.21.85,3.32-2.56-4.11-2.78-4,.74,2.58.52,2.69-1.34-1.69-1.56-1.58-.37.32-.59.42,1.27,3.77,1,3.87-1.27-1.56-1.49-1.45-1-1.09-1.25-1,1.45,4.24,1.23,4.34-2.4-4-2.62-3.94,1.42,4.25,1.21,4.35-1.47-2-1.68-1.94.7,2.72.48,2.82-2.35-4.05-2.57-4,.75,2.87.53,3,.14,1.5-.08,1.6-1.22-1.57-1.44-1.48-.18.82-.4.92-1.44-2.14-1.66-2,.37,2.08.14,2.18,0,1.25-.21,1.35-.65-.31-.87-.21-1.94-3.39-2.16-3.3.9,3.42.68,3.51-1.25-1.78-1.48-1.68.08,1.46-.14,1.55-.06,1.14-.28,1.23-1.73-3-2-2.93.6,2.78.38,2.87-1-1.32-1.27-1.23.77,3.28.55,3.37-.49.08-.71.17-1.33-2.1-1.55-2-.74-.58-1-.49.75,3.35.53,3.44-.68-.41-.9-.33-1.83-3.54-2.06-3.46,1.25,4.78,1,4.87-.93-1.13-1.16-1-.38.35-.61.44-.87-1-1.1-.93-1.47-2.72-1.7-2.64-.14,1-.37,1.1-.49,0-.72.11-.26.69-.49.77.35,2.5.12,2.58-1.66-3.41-1.89-3.34-.25.73-.48.81-.42.24-.65.31.45,2.9.22,3-1-1.4-1.19-1.32-.18,1-.41,1.08-.16,1.08-.39,1.15S844.68-34,844.45-34s-.07,1.39-.29,1.46-.13,1.22-.36,1.29-.08,1.36-.31,1.43-1.57-3.51-1.8-3.44-.38.37-.61.44.86,4.59.63,4.66-1.22-2.45-1.45-2.39-.45.19-.68.26-.53-.11-.76-.05,0,1.77-.23,1.83-1-1.74-1.22-1.68.4,3.25.17,3.31-.72-.8-.95-.74-.17,1.22-.41,1.28-.85-1.28-1.08-1.22-.66-.61-.89-.55-.74-.92-1-.86-.11,1.48-.34,1.54-.9-1.55-1.13-1.49.3,3.15.07,3.21-1.33-3.32-1.56-3.26,0,2-.22,2.1-.19,1.24-.43,1.3-1.26-3.18-1.49-3.12-.57-.35-.81-.3-.33.64-.57.7-.69-.91-.93-.86.44,4,.2,4.1-.95-2-1.18-2-.68-.86-.91-.81-.32.79-.55.84-.81-1.49-1-1.44-.4.36-.64.41-.48,0-.72,0,0,2.3-.24,2.35,0,2.66-.18,2.71-1-2.62-1.26-2.57-.87-1.94-1.11-1.89-.42.29-.66.33-.13,1.81-.37,1.85-.52-.17-.76-.13,0,2.76-.21,2.81-.74-1.4-1-1.36-.4.52-.63.56-.14,2-.38,2-1.34-4.89-1.58-4.85.18,3.85-.06,3.89-.81-1.93-1-1.89-.29,1.18-.53,1.22-.13,2.16-.37,2.2-.44.36-.68.4-.58-.58-.82-.54-.55-.39-.79-.36-.7-1.42-.94-1.38-.28,1.39-.52,1.43-1-3.78-1.27-3.74-.18,2.09-.42,2.12-.34,1.05-.58,1.08-.28,1.52-.52,1.55-.49,0-.73,0-.44.38-.68.41-.51-.13-.75-.1-.76-2.26-1-2.23-.23,2.13-.47,2.16-.56-.64-.8-.61-.55-.6-.79-.57-.58-.78-.81-.75-.18,2.82-.42,2.85-.63-1.37-.87-1.35-.42.67-.66.7-.74-2.53-1-2.51-.43.5-.67.53-.23,2.69-.46,2.71-.82-3.59-1.06-3.57-.4.87-.64.89-.38,1.25-.61,1.27-.75-3.21-1-3.2-.33,1.91-.57,1.93-.6-1.58-.84-1.57-.07,5.42-.31,5.44-.66-2.32-.9-2.3-.37,1.56-.61,1.57-.6-1.69-.84-1.67-.46.33-.7.34-.67-3.13-.91-3.12-.41,1.27-.65,1.29-.46.15-.7.16-.45.61-.69.63-.42,1.3-.66,1.31-.44,1-.68,1-.54-1.3-.78-1.29-.58-2.47-.82-2.46-.45.67-.69.68-.48-.06-.72-.05-.37,3.5-.61,3.51-.59-3.86-.83-3.85-.45,1-.7,1-.51-1.65-.75-1.65S775.34-18,775.1-18s-.56-4-.8-4-.46,1.08-.7,1.08-.48.23-.72.23-.47,1.09-.71,1.09-.49-1.57-.73-1.57-.48-1.86-.72-1.86-.48,5.22-.72,5.22-.48-2.75-.72-2.75-.5,3.21-.74,3.21-.44-5.67-.68-5.67-.47.19-.71.18-.49.91-.73.91-.5,1.09-.74,1.08-.5,1.14-.74,1.13-.44-1.89-.68-1.9l-.71,0c-.24,0-.54,1.95-.78,1.94s-.52,1.31-.76,1.3-.4-2.66-.64-2.67-.43-1.22-.67-1.22-.59,2.9-.83,2.89-.36-3.05-.6-3.06-.68,4.67-.92,4.66-.3-4.1-.54-4.11-.63,3.1-.87,3.09-.26-4.2-.5-4.21-.55,1.29-.79,1.27-.59,2-.83,1.94-.4-1.33-.64-1.35-.35-2-.59-2-.54.89-.78.88-.73,3.56-1,3.54-.41-1.11-.65-1.12-.31-2.19-.55-2.21-.59,1.39-.83,1.37S749.19-19,749-19s-.24-2.88-.48-2.9-.65,2-.89,2-.23-2.83-.47-2.85-.49.16-.73.13-.8,3.28-1,3.26-.07-4.14-.31-4.16-.82,3.37-1.06,3.35-.11-3.63-.35-3.65-.45-.18-.69-.2-.76,2.5-1,2.47-.65,1.49-.89,1.46-.18-2.59-.42-2.61-.42-.51-.66-.54-1,4.12-1.23,4.09-.13-2.88-.37-2.91-.59.84-.83.81-.63,1.15-.87,1.11-.1-2.94-.33-3-1,3.63-1.23,3.6.25-5.27,0-5.3-1.08,4.17-1.31,4.14-.06-2.94-.3-3-.34-.93-.58-1-1,3.17-1.2,3.13-.05-2.84-.29-2.88-1,3.49-1.27,3.45-.24-1.61-.47-1.65-.66,1.05-.9,1,0-2.74-.27-2.78-.85,2.1-1.08,2.06.16-3.79-.07-3.83-1.12,3.6-1.36,3.56,0-2.68-.24-2.72-.91,2.32-1.15,2.28-.38-.61-.61-.66-.54.27-.78.23-.05-2.31-.29-2.36-.23-1.29-.47-1.34-.54.32-.78.27-.87,2-1.11,1.91,0-2.27-.26-2.32-.68,1-.92.91-1,2.64-1.27,2.59.17-3.13-.07-3.18-.36-.58-.6-.63-1.52,4.72-1.75,4.67-.11-1.78-.34-1.83-.52.1-.75.05S714.4-26,714.16-26s-.44-.21-.68-.27-.65.68-.88.63-.24-1.1-.47-1.16-.42-.33-.65-.39l-.7-.16c-.24-.06-.42-.33-.65-.39s-.88,1.54-1.11,1.48.43-3.68.2-3.73-1.19,2.72-1.42,2.66-.33-.64-.57-.7-.11-1.45-.35-1.51-.53.15-.76.09-.39-.38-.63-.44-.42-.24-.65-.31-1.07,2.08-1.3,2-.22-1-.45-1.07-.93,1.55-1.17,1.48.53-3.62.3-3.68S701-29,700.79-29.1s-.41-.32-.64-.39.48-3.35.25-3.42-1.35,2.9-1.58,2.83-.86,1.21-1.09,1.14.65-3.85.42-3.92-1.65,3.79-1.88,3.72.11-2-.12-2.09-.7.66-.93.59-.94,1.35-1.16,1.28-.23-.89-.46-1,.28-2.47,0-2.55-.07-1.31-.3-1.39-1.84,4.1-2.07,4-.42-.3-.64-.37.18-2.1,0-2.17-1.32,2.38-1.54,2.31-.34-.54-.56-.62.74-3.65.51-3.73-1.42,2.62-1.64,2.54-.41-.29-.64-.37l-.69-.23c-.23-.08,1-4.32.8-4.4s-2.41,5.29-2.63,5.21-.36-.45-.59-.53.18-1.89,0-2-1.24,2-1.46,1.88.65-3.15.43-3.23-.6.22-.83.14-1,1.26-1.22,1.17.07-1.53-.15-1.62-1,1.29-1.24,1.2.88-3.58.65-3.67-2,3.74-2.2,3.65.51-2.62.29-2.7-.06-1.14-.29-1.23-2,3.62-2.2,3.53,1.26-4.39,1-4.48-1.7,2.9-1.92,2.81-.73.49-1,.39,1.08-3.86.86-4,.07-1.4-.15-1.49-1.62,2.6-1.84,2.5.7-2.85.48-2.95-.77.6-1,.51-1.19,1.54-1.41,1.45-.32-.47-.54-.57-1.42,2-1.63,1.92,1.11-3.71.89-3.8-.86.75-1.08.65.38-2,.17-2.1-1.07,1.19-1.29,1.09-1.5,2.15-1.72,2-.21-.7-.43-.8-1,1-1.23.91-.66.27-.88.17.32-1.8.1-1.91.18-1.5,0-1.6-.38-.32-.59-.42-.78.51-1,.41.63-2.39.41-2.5-1.84,2.68-2.05,2.57-.3-.48-.52-.59.5-2.08.28-2.18-1.67,2.27-1.89,2.17.1-1.27-.11-1.38,0-1-.25-1.1.31-1.67.1-1.78-2.31,3.45-2.53,3.34,1.6-4.13,1.39-4.24-2.58,3.91-2.79,3.8-.23-.61-.44-.72,1.7-4.26,1.49-4.37-.92.72-1.13.61-2.57,3.76-2.78,3.65.4-1.76.19-1.88-.9.65-1.11.53.41-1.75.2-1.87.33-1.6.12-1.72-1.73,2.13-1.94,2,1.54-3.73,1.33-3.85-.72.31-.92.19-1.11,1-1.32.87-.27-.5-.48-.62.1-1.12-.11-1.24-1.94,2.4-2.15,2.28-.56,0-.77-.12,1.63-3.73,1.43-3.85S643.23-54.85,643-55s-1.59,1.74-1.8,1.61,1.18-2.9,1-3-.82.43-1,.3-1.14,1-1.35.83-1.39,1.34-1.59,1.22,1.51-3.39,1.31-3.52-2.29,2.79-2.5,2.67.8-2.21.6-2.34-.85.44-1,.31,1.57-3.4,1.37-3.52-3.17,4.1-3.37,4,.81-2.18.61-2.31-1.26,1.08-1.47,1,.53-1.72.33-1.85-.68.16-.88,0,1.59-3.31,1.39-3.44-.5-.1-.7-.23-.51-.09-.71-.22-1.3,1.1-1.5,1-1.51,1.37-1.71,1.24-.37-.31-.57-.45,1.13-2.51.93-2.65.41-1.44.21-1.58-2.08,2.19-2.27,2.05-.47-.17-.67-.3.18-1.1,0-1.24-.9.44-1.1.31.54-1.61.35-1.74-.69.14-.88,0,.37-1.34.18-1.48-2.54,2.71-2.73,2.57.51-1.53.31-1.67,1.1-2.33.91-2.47-.34-.34-.53-.49-2.18,2.16-2.37,2,.92-2,.73-2.2-.68.12-.87,0-.25-.47-.44-.61-.33-.35-.52-.5-1,.54-1.2.39-1.95,1.77-2.14,1.62,1.14-2.28,1-2.42.6-1.57.41-1.71-1.2.77-1.38.62-.22-.5-.41-.65-.75.18-.94,0-2.06,1.84-2.25,1.69.69-1.64.5-1.79.4-1.28.22-1.43-.85.3-1,.15-1.07.55-1.25.4,1.62-2.76,1.43-2.91-.73.15-.92,0-.2-.5-.39-.66-1,.5-1.22.35-1.77,1.38-2,1.23-.75.13-.93,0,1.21-2.19,1-2.34-1.48,1-1.67.85-.62,0-.81-.17.44-1.26.26-1.41.22-1,0-1.15.61-1.44.43-1.59.21-1,0-1.12-1.3.76-1.48.6-.19-.5-.37-.66-1,.41-1.18.25.35-1.1.17-1.26-1.25.68-1.43.51-.14-.56-.31-.72-2.77,2.33-3,2.17.34-1.1.17-1.26,2.49-3.43,2.32-3.6-1.47.89-1.65.73.78-1.54.61-1.7-2.89,2.39-3.07,2.22-.09-.6-.26-.77-.57-.11-.74-.27.56-1.29.38-1.46-2.39,1.81-2.56,1.64.53-1.26.36-1.42-1.15.48-1.32.31,2.63-3.39,2.46-3.56.46-1.15.29-1.32-3.86,3.24-4,3.07,0-.67-.19-.84,2.21-2.91,2-3.08.41-1.07.24-1.24-1.93,1.24-2.1,1.07-.39-.28-.56-.46,1-1.62.81-1.79-1,.27-1.12.09-3.18,2.42-3.35,2.25-.58-.12-.75-.29,2.17-2.75,2-2.93-1.27.55-1.44.38-.86.15-1,0-1.41.67-1.58.49.12-.78-.05-1,3.17-3.61,3-3.79-.24-.42-.4-.6-.22-.43-.39-.61-.65,0-.81-.22-3.23,2.3-3.39,2.12-1.3.52-1.46.34,1.25-1.78,1.09-2-.74,0-.9-.17,2.81-3.14,2.65-3.32-3.33,2.31-3.49,2.13-.56-.15-.72-.33,1.13-1.63,1-1.81-2.11,1.2-2.27,1,3.23-3.43,3.07-3.61S579-105.86,578.8-106s2.8-3,2.64-3.21,0-.64-.13-.83-4.41,3.1-4.56,2.92.71-1.23.55-1.42-.36-.32-.52-.51-.93.15-1.08,0,.72-1.23.57-1.41-.2-.46-.35-.65,1.75-2,1.6-2.23-3.34,2.09-3.49,1.9,1.59-1.9,1.43-2.09,1.71-2,1.56-2.16-1.11.28-1.26.09-3.47,2.14-3.62,2,.31-.86.16-1-.65-.11-.8-.29,2.69-2.71,2.55-2.9-2.91,1.65-3.06,1.46,2.17-2.28,2-2.47-.67-.09-.82-.28,0-.58-.17-.77-.79,0-.93-.19-2.94,1.6-3.08,1.41,3.24-3,3.1-3.22-.14-.48-.29-.67-1,.13-1.11-.07-2.71,1.4-2.85,1.2-.14-.5-.29-.69,1.46-1.65,1.32-1.84-2.56,1.25-2.7,1,3.79-3.3,3.65-3.5-3.92,2.2-4.06,2,.37-.86.24-1,.74-1.11.6-1.31.54-1,.4-1.16-1.38.39-1.52.19-2.66,1.25-2.79,1.05.06-.64-.07-.84-.77-.06-.91-.26,1-1.3.91-1.5,0-.56-.16-.76,1.54-1.61,1.41-1.81-2.16.86-2.29.66,0-.58-.14-.78,2.56-2.25,2.42-2.45-2.58,1.12-2.71.92l-.41-.6c-.13-.2-.44-.29-.57-.49s-.85,0-1-.23-.35-.35-.47-.55,1.14-1.3,1-1.5,1.56-1.54,1.43-1.74-3.31,1.5-3.44,1.3-.26-.41-.38-.62,2.14-1.88,2-2.09-.61-.18-.74-.39-2.12.73-2.24.53,2.9-2.32,2.78-2.52-3.58,1.59-3.7,1.38-.44-.3-.56-.5-.43-.31-.55-.52-.88,0-1-.25,1.94-1.69,1.82-1.9-2.46.87-2.58.66,2.79-2.17,2.67-2.37,1.11-1.19,1-1.4-.72-.13-.84-.34-2.06.62-2.18.41-1,0-1.1-.21-1.41.24-1.53,0-.3-.39-.42-.6.21-.67.1-.88.73-.95.61-1.16,2.2-1.74,2.08-1.95-3.72,1.47-3.83,1.25-.81-.12-.92-.33,2.32-1.78,2.2-2-1.2.09-1.31-.12.29-.7.18-.91-.78-.13-.89-.35,2.15-1.65,2-1.87-.9-.07-1-.28-3.32,1.15-3.43.94,2.78-1.95,2.67-2.17-1.92.43-2,.22,2.26-1.67,2.15-1.88-1.63.27-1.74.06-2.24.57-2.35.35-1.06,0-1.17-.24,1.68-1.35,1.57-1.57-1.3.09-1.4-.12.51-.78.41-1-.75-.18-.85-.4-1,0-1.15-.26,3.68-2.25,3.58-2.47-2.76.75-2.86.53,3.55-2.16,3.45-2.38-2.87.79-3,.57-.11-.47-.21-.69,2-1.41,1.87-1.63-1.3.06-1.39-.16-2.4.53-2.5.31-.54-.29-.63-.51,2.44-1.58,2.34-1.8-.05-.5-.14-.72-1.11-.05-1.21-.27-.06-.49-.15-.71-2.15.38-2.24.16,2-1.38,2-1.6.82-.86.73-1.08.71-.8.62-1-3.67,1-3.76.77,0-.52-.1-.75,1-.92.94-1.15.94-.88.85-1.11-3.59.9-3.68.68,4.07-2.11,4-2.33-1.81.2-1.9,0,1.31-1,1.22-1.23-5.09,1.42-5.17,1.2,4.86-2.35,4.77-2.58-5.41,1.52-5.5,1.3,4.73-2.27,4.64-2.5-2.68.48-2.77.26.12-.56,0-.78,1.36-1,1.27-1.23-.08-.47-.16-.7.39-.64.31-.87-4.6,1.11-4.68.89,4.8-2.19,4.72-2.41-4.07.9-4.15.67.86-.8.79-1,1.29-.94,1.21-1.17-1.41,0-1.49-.26,1.72-1.08,1.65-1.3.24-.58.17-.81-.83-.23-.9-.46-4.14.83-4.21.6,1.39-.95,1.32-1.18,3.51-1.62,3.44-1.85-4.27.84-4.34.61,1.46-1,1.39-1.19.14-.54.07-.77-2,.11-2.08-.12,2.61-1.29,2.54-1.52-1.65,0-1.72-.24-.18-.44-.25-.67,1.74-1,1.67-1.24-2.41.2-2.47,0-1.36-.12-1.43-.35,1-.78.93-1,2-1,1.92-1.29.82-.71.76-.95-3.63.5-3.69.26-1.74,0-1.8-.26,4.85-1.79,4.79-2-3.49.43-3.55.2,3.42-1.39,3.36-1.62-1.64-.07-1.7-.3-.92-.26-1-.49.29-.57.23-.8-.76-.31-.82-.54-1.72-.08-1.78-.31,4.53-1.59,4.47-1.82-4.39.56-4.45.32.94-.71.88-.95-.88-.29-.94-.52.5-.61.44-.84,1-.71.91-.95,1.69-.86,1.64-1.1-1.29-.2-1.34-.43-1.13-.25-1.18-.48.94-.69.89-.93-3.73.3-3.78.06,4.3-1.38,4.25-1.62-1.83-.11-1.87-.35-1.6-.16-1.65-.4-1.37-.22-1.41-.46,1.65-.82,1.6-1.05,2.71-1,2.66-1.25-4.07.29-4.12.05,2.15-.89,2.11-1.13-1.29-.25-1.33-.49-.62-.38-.66-.61.72-.62.68-.86,3.42-1.08,3.38-1.32-2.23-.1-2.27-.34,1.79-.78,1.75-1-5.14.37-5.18.13-.39-.43-.43-.67,2.53-.89,2.49-1.13.16-.51.13-.75,1.53-.72,1.5-1-1.77-.21-1.81-.45,1.85-.76,1.82-1-2.08-.19-2.12-.42-.07-.48-.11-.72,1.66-.71,1.62-1-3.74,0-3.78-.21,2.64-.84,2.61-1.08-3.14-.07-3.17-.31,5.38-1.17,5.35-1.41-3.31-.07-3.34-.31-1.4-.31-1.43-.55,1.7-.69,1.67-.93,2.22-.74,2.19-1-3.82-.05-3.84-.29-.1-.48-.13-.72-.52-.43-.55-.67,1.92-.69,1.9-.92-1.61-.33-1.63-.57,3.35-.81,3.32-1,.81-.55.79-.79-1.32-.35-1.35-.59-3.26-.19-3.28-.43-.4-.45-.42-.69,2.56-.7,2.54-.94-2.82-.26-2.83-.5.11-.5.09-.74,4.81-.84,4.79-1.08-3.12-.25-3.13-.49-.1-.48-.12-.72-1.3-.39-1.32-.63,2.81-.67,2.8-.91-.19-.46-.21-.7.77-.53.76-.77-4.24-.24-4.25-.48,4.9-.74,4.89-1-1.57-.4-1.58-.64,1.32-.54,1.31-.78-1.08-.43-1.09-.67-2.32-.38-2.33-.62,2.77-.59,2.76-.83-1.1-.44-1.11-.68,1.22-.52,1.21-.76-1.86-.42-1.87-.66-.3-.47-.3-.71-1.21-.46-1.22-.7.86-.5.86-.74-1.88-.45-1.88-.69,1.29-.51,1.29-.75-.16-.48-.16-.72.43-.49.43-.73-.22-.49-.22-.73,2.48-.49,2.48-.73-.4-.48-.4-.72-1.79-.48-1.79-.72,1.6-.48,1.61-.72-1.19-.49-1.19-.73-1.6-.5-1.6-.74,2.5-.45,2.51-.69-.87-.49-.87-.74-1.06-.5-1-.74.43-.47.44-.71,3.5-.4,3.51-.64-2.21-.54-2.21-.78,2.71-.39,2.71-.63-2.62-.57-2.62-.81-.22-.48-.22-.73-.3-.49-.29-.73-.51-.5-.5-.74-1.65-.56-1.64-.8,1.67-.41,1.69-.65-1.69-.57-1.68-.81-.37-.51-.36-.75,2.06-.37,2.07-.61.92-.43.93-.67,2.42-.33,2.43-.57-2.38-.63-2.36-.87-1.27-.57-1.25-.81,2.66-.3,2.68-.54-2.52-.66-2.5-.9-.14-.5-.12-.74-.31-.51-.29-.75,1.06-.4,1.08-.64-2.1-.66-2.08-.9,3.72-.17,3.75-.4-3.71-.82-3.69-1.06,1-.4,1-.64,2-.29,2-.53.67-.42.7-.66,1.89-.29,1.91-.52-3.12-.81-3.1-1.05,3.55-.1,3.58-.34-1.94-.69-1.92-.93.94-.38,1-.61-1.46-.66-1.43-.89-2.36-.77-2.33-1,.64-.41.66-.65.24-.46.27-.7,4.5.09,4.53-.15-3.93-1-3.9-1.23.34-.44.37-.68.93-.36,1-.6-.29-.53-.26-.76,3-.06,3-.3-1-.62-1-.86-3.41-1-3.38-1.23,3.06,0,3.1-.26-3.8-1.08-3.76-1.32,4.81.27,4.84,0,.68-.38.72-.61-1.5-.73-1.46-1,.38-.42.42-.65-2-.83-2-1.07.55-.4.59-.63.31-.44.35-.68,1.31-.25,1.35-.49-3.75-1.17-3.7-1.4,1.74-.18,1.79-.41,3.7.2,3.75,0-4.81-1.4-4.76-1.64,2.07-.09,2.12-.33.23-.44.28-.68-.14-.52-.09-.75-1.26-.75-1.21-1,3.92.32,4,.08-1-.7-1-.94,2-.06,2.07-.29-5.25-1.62-5.2-1.85,2.69.08,2.75-.15,1.29-.21,1.34-.44,1.4-.17,1.46-.41-.56-.61-.5-.84-1-.72-.94-1-2.88-1.16-2.83-1.4,1-.27,1-.5,2,0,2.09-.25,1.14-.21,1.2-.44-2.15-1-2.09-1.26,3.69.43,3.75.19-2.15-1-2.09-1.26,1.6-.08,1.66-.32-4.81-1.73-4.75-2,3.85.5,3.91.26,1-.23,1-.46-.9-.74-.84-1-.68-.68-.61-.91-1.06-.79-1-1-.49-.64-.42-.87,2.12.09,2.19-.14,2.78.29,2.85.06-.21-.55-.15-.78-2.8-1.31-2.73-1.54-2.08-1.11-2-1.34,1.6,0,1.67-.27-1-.8-.91-1,4.68.91,4.75.68-2.54-1.27-2.47-1.5,1.59,0,1.66-.25-2.75-1.35-2.68-1.58,2.73.35,2.8.12.91-.22,1-.45-3.47-1.61-3.4-1.84.59-.32.66-.55,1.1-.15,1.18-.38.14-.46.22-.69,2.2.23,2.28,0-3.55-1.7-3.47-1.93,1.37,0,1.45-.27,1.22-.1,1.3-.32.87-.21.95-.44-.12-.55,0-.77-.45-.67-.37-.9-1-.88-1-1.11-.11-.55,0-.78-.42-.67-.33-.89,3.07.61,3.16.38,1.4,0,1.49-.21-3.29-1.74-3.2-2,4.09,1,4.17.8-2.31-1.38-2.22-1.61,2.7.53,2.79.3-3.54-1.88-3.46-2.1,1.09-.1,1.18-.32,3.5.86,3.59.64-4.37-2.25-4.28-2.47.22-.44.31-.66.36-.38.45-.6,3.87,1,4,.83-4.26-2.26-4.17-2.48,1.95.27,2,.05,3.25.83,3.34.61-1.77-1.25-1.68-1.48-.11-.56,0-.79,2.58.59,2.67.36-4.65-2.52-4.56-2.74,2,.36,2.14.14,3,.81,3.15.59.22-.42.31-.64-4.6-2.57-4.5-2.79,4.43,1.46,4.53,1.24-4.41-2.51-4.31-2.73,4.43,1.48,4.53,1.26.78-.17.88-.39-2.44-1.64-2.34-1.86,2.06.42,2.16.21,1-.06,1.1-.28-3.26-2.07-3.16-2.28,2.58.69,2.68.47-1.56-1.28-1.46-1.49,2.25.55,2.35.33.86-.11,1-.33-1.52-1.27-1.41-1.48-1.67-1.36-1.56-1.58,0-.53.12-.75,2.48.7,2.58.48-2.89-2-2.78-2.21,2.44.7,2.55.48-.26-.67-.15-.89-.86-1-.75-1.2.36-.36.48-.57,3.72,1.4,3.83,1.19-2.63-1.93-2.52-2.14-.2-.66-.09-.87,1.65.33,1.76.12-.94-1.05-.83-1.26-.1-.61,0-.82,1.78.42,1.9.21,1.21.12,1.33-.09-2.82-2.11-2.7-2.32,1.72.4,1.84.19,1.18.12,1.3-.09,1.55.32,1.67.11-2.27-1.84-2.15-2.05.22-.43.34-.63-.78-1-.66-1.22,2.48.88,2.6.67.17-.46.3-.66.3-.38.42-.59.33-.36.46-.57-.72-1-.6-1.19,1,0,1.11-.18,1.19.16,1.31-.05-2-1.77-1.87-2,2.13.73,2.26.53.46-.28.58-.48.33-.36.46-.57.16-.46.29-.66-2.18-1.93-2.05-2.13,4.3,2.13,4.42,1.93-3.7-2.91-3.57-3.11,2.21.84,2.34.63,1,.05,1.09-.15.47-.26.6-.46-.9-1.16-.77-1.36,1,.07,1.12-.13-2.09-1.95-2-2.15,3.55,1.77,3.68,1.57.46-.26.6-.46-1.42-1.52-1.29-1.72,1,.08,1.11-.12-.43-.87-.29-1.07-1.29-1.46-1.16-1.66,2,.78,2.12.58-2.07-2-1.94-2.22,4.34,2.43,4.48,2.24-.4-.86-.26-1.06-.3-.79-.16-1,1.32.36,1.46.17-.1-.66,0-.86-2.46-2.35-2.32-2.55.18-.46.32-.66,1.11.22,1.25,0-1.09-1.39-.94-1.59,4,2.38,4.19,2.19-1.4-1.62-1.25-1.82,2,.87,2.11.68-.43-.91-.28-1.1-.7-1.12-.55-1.31,1.43.48,1.57.29.71-.06.85-.25,0-.57.18-.76-.58-1.05-.44-1.24,1.26.36,1.4.17-.22-.77-.07-1-1.55-1.82-1.4-2,0-.58.19-.77-.17-.76,0-.94,1.59.65,1.74.46-1-1.4-.82-1.59,2.76,1.62,2.91,1.43-2.43-2.6-2.28-2.79,1.43.55,1.58.36.91.13,1.06-.06,1.81.88,2,.69-1.66-2-1.5-2.19.69,0,.84-.23-.8-1.3-.64-1.49.61-.11.76-.3,1.77.88,1.93.7.6-.11.76-.29-2.1-2.45-1.95-2.63.08-.58.24-.76,2.48,1.52,2.64,1.34-1.19-1.68-1-1.86,3,2.05,3.2,1.87-.75-1.31-.59-1.49.94.2,1.1,0,.25-.41.41-.59-2.19-2.62-2-2.8,1.35.57,1.51.39-1-1.54-.81-1.72,0-.67.16-.84,3,2.13,3.18,1.95,1.21.48,1.38.31-.64-1.25-.48-1.43-.56-1.18-.4-1.36-.78-1.4-.61-1.57,1.74,1,1.91.81.26-.41.43-.58.18-.49.35-.67,1.49.78,1.66.61-.49-1.14-.32-1.31-.28-.95-.11-1.12,1,.32,1.18.15-1.17-1.83-1-2,.1-.59.27-.76.09-.59.26-.76.59-.1.76-.27.85.17,1,0,0-.68.18-.85,1.2.54,1.38.37-.46-1.16-.29-1.33.65,0,.82-.19,3.19,2.63,3.37,2.46-.17-.85,0-1,.66,0,.83-.16-3.16-4.05-3-4.21,1.82,1.22,2,1.06-.06-.77.12-.94,1.39.8,1.57.64,1.45.87,1.63.71-.17-.89,0-1.06.46-.2.64-.36-1.78-2.69-1.61-2.85,3,2.61,3.18,2.45-1.61-2.51-1.43-2.67-.53-1.32-.35-1.48.32-.37.5-.53.2-.51.38-.67,3.78,3.59,4,3.43-2.32-3.39-2.14-3.55,3.09,2.84,3.27,2.68-.9-1.78-.72-1.93.08-.65.26-.8-1.83-2.91-1.65-3.06,1.08.52,1.27.37.17-.54.36-.7,0-.76.18-.92,2.88,2.72,3.07,2.56,1.08.57,1.26.42-.21-1,0-1.17-2-3.23-1.83-3.38,3.24,3.22,3.42,3.07,0-.8.16-.95-2.25-3.56-2.06-3.71,2,1.68,2.15,1.53-.88-1.89-.69-2,3.36,3.49,3.55,3.35-.35-1.22-.16-1.37-1.81-3.1-1.62-3.24.15-.61.34-.75,3.18,3.34,3.37,3.19.23-.48.42-.63,0-.78.19-.93.26-.45.45-.59-.41-1.35-.22-1.49.66.08.85-.06-1.42-2.73-1.23-2.87.3-.42.49-.56,1.23.85,1.43.71,0-.86.17-1,.91.43,1.1.29.24-.5.43-.64,1,.59,1.21.45,2.06,2.06,2.25,1.92-1.22-2.55-1-2.69-.61-1.71-.42-1.85,1.21.89,1.41.75-.61-1.74-.42-1.87,1.06.67,1.25.53.55-.06.75-.19-.11-1,.09-1.16.37-.31.57-.45.34-.36.54-.5,1.49,1.35,1.68,1.22,1.72,1.72,1.92,1.58-.07-1,.13-1.1-1.07-2.5-.87-2.63,1.86,2,2.06,1.83,0-.88.2-1,.93.56,1.13.43-1.55-3.31-1.35-3.44,1.6,1.62,1.81,1.49-.41-1.54-.2-1.67,1.13.9,1.33.77.74.28,1,.15-1.44-3.23-1.23-3.35,2.11,2.51,2.32,2.38.38-.3.58-.42-1-2.65-.84-2.77,1.28,1.17,1.49,1.05.17-.65.37-.78,1.27,1.18,1.47,1.06,1.58,1.73,1.79,1.61-2.44-5.09-2.24-5.22,2.71,3.68,2.92,3.56-1.63-3.77-1.42-3.89.19-.63.4-.75,1.52,1.67,1.73,1.55,0-1,.22-1.08,2.48,3.42,2.69,3.3-1.27-3.23-1.06-3.35,2.06,2.71,2.27,2.59.52,0,.73-.14-.35-1.63-.14-1.74.27-.5.48-.62-1.37-3.53-1.15-3.64.48-.13.69-.25,2,2.74,2.23,2.62.7.32.92.2.28-.48.49-.59.29-.47.51-.59.24-.57.45-.68,1.56,2,1.78,1.87-1.06-3.1-.85-3.21.59.09.8,0,.23-.6.45-.71.23-.61.44-.72,1.49,1.91,1.71,1.8.59.13.81,0-.53-2.15-.31-2.25-.53-2.2-.32-2.3,2.33,3.69,2.55,3.59.58.12.8,0,.48-.08.7-.19-1.1-3.44-.89-3.54.29-.53.51-.63,1.44,1.94,1.65,1.84.39-.31.61-.41l.66-.28c.22-.1,1,1,1.22.94s-1.48-4.41-1.26-4.51,2.54,4.46,2.76,4.36,0-1,.27-1.13-.08-1.37.14-1.47,1.35,1.88,1.57,1.79-1-3.59-.83-3.69.66.3.88.2,1.63,2.59,1.85,2.49.63.28.85.19-1.07-3.76-.84-3.85-.23-1.8,0-1.89.57.1.79,0,1.15,1.5,1.37,1.41.35-.43.57-.52.87.86,1.09.77-.5-2.55-.28-2.64.84.81,1.07.72.54.05.76,0,1.35,2.12,1.57,2,.54.07.76,0-1.1-4.2-.88-4.28,1.3,2,1.52,1.94,1.35,2.21,1.57,2.12-.68-3.17-.45-3.26,1.05,1.47,1.28,1.38.72.57.94.49-.24-2.05,0-2.13.47-.1.7-.19-.18-1.93,0-2,1.18,1.85,1.4,1.77,1.07,1.59,1.3,1.51S686.74-509,687-509s.72.57.94.5.85,1,1.08.89,1.06,1.64,1.29,1.56-.65-3.44-.42-3.51.68.49.91.42,1.14,1.92,1.37,1.85.16-1.05.39-1.12,1.25,2.3,1.47,2.23-.38-2.76-.15-2.84,1,1.64,1.25,1.57-.17-2.16.06-2.24,0-1.69.21-1.76,1.94,4.66,2.16,4.59-.95-4.79-.72-4.86.58.24.81.17.84,1.11,1.07,1,.82,1.1,1.05,1-.1-2.07.14-2.13.85,1.22,1.08,1.15-.15-2.29.08-2.35,1.69,4.22,1.92,4.16,0-1.61.28-1.68.71.79.95.73.12-1.36.35-1.43.26-.86.5-.93.06-1.66.29-1.72.85,1.36,1.09,1.3.2-1.16.43-1.22.23-1,.47-1.09,1.16,2.62,1.39,2.56.48-.09.71-.15,1.07,2.33,1.3,2.27.43-.2.67-.26.33-.64.56-.7-.48-4.07-.24-4.13.88,1.65,1.12,1.59.62.59.86.54.78,1.28,1,1.23-.48-4.33-.25-4.38l.71-.17c.23,0,.44-.28.67-.33s1.27,3.58,1.51,3.53.23-1.2.46-1.25.59.45.82.4.57.37.8.32.14-1.72.37-1.77.5,0,.74,0,.49,0,.72,0,.36-.69.6-.73.5.09.74,0,.14-1.85.38-1.89,1.07,3.08,1.3,3,.11-2.06.35-2.11.8,1.75,1,1.71.18-1.75.41-1.79.58.48.81.44.17-1.89.41-1.93.57.47.81.43.36-.8.59-.84.53.2.77.16,1.14,4.12,1.38,4.09,0-3.18.22-3.22.37-.83.6-.87.49,0,.73-.07.33-1,.57-1.07.72,1.53.95,1.49.47-.19.7-.22.79,2.15,1,2.12.38-.72.62-.75.23-1.95.46-2,.56.47.79.44.62,1,.86,1,.15-2.64.39-2.67.93,3.67,1.17,3.64.28-1.69.52-1.72.74,2.2,1,2.18.59,1.05.83,1,.32-1.43.56-1.46.26-2.11.49-2.13.31-1.73.55-1.76.84,3.46,1.07,3.44.18-3.09.42-3.11.9,4.35,1.14,4.33.08-4.27.32-4.3.39-1.08.63-1.1.92,4.95,1.16,4.93.28-2.37.52-2.39.44-.51.68-.53.6,1.59.84,1.57.3-2.48.54-2.5.42-.83.66-.85.68,2.86.92,2.84.38-1.53.62-1.55.35-2.16.59-2.17.61,1.92.85,1.91.58,1.74.82,1.73.27-3.89.51-3.9.7,4.15.94,4.13.48.16.72.15.4-1.7.64-1.71.37-2.72.61-2.73.61,3,.85,3,.39-2.46.63-2.47.5.39.74.38.52.93.76.92.44-1.52.68-1.52.57,3.17.81,3.17.47-.34.71-.34.47-.42.71-.42.45-2.05.69-2.05.5,1.12.74,1.12.5,1.21.74,1.21.5,1.57.74,1.56.46-2.88.7-2.88.48-.65.72-.65.49,3.2.73,3.2.48-2,.72-2,.48,1.12.72,1.12.48-.24.72-.24.49-.44.73-.43.5-1.57.74-1.56.41,4.42.65,4.43.57-4.91.81-4.91.48.34.72.34.48.34.72.34.42,2.28.66,2.28.59-3.58.83-3.57.34,4.37.58,4.38.52-1,.76-1,.54-1.61.78-1.6.52-1,.76-.95.34,3.3.58,3.31.52-.92.76-.91.6-2.17.84-2.15.25,4.4.49,4.41.51-.68.75-.67.41,1.18.65,1.19.63-2.52.87-2.51l.72,0c.24,0,.36,1.72.6,1.73s.59-1.61.83-1.6.54-.78.78-.77.26,2.85.5,2.87.73-3.13,1-3.11.22,3.2.46,3.22.61-1.61.85-1.59.3,2.1.54,2.12.45.2.69.22.89-4.38,1.13-4.36.27,2.18.51,2.21.76-2.79,1-2.77.56-.62.8-.59-.06,5.18.18,5.21,1-5,1.25-4.93.22,2.46.46,2.48.61-1.1.85-1.07.24,2.08.48,2.11.34,1.23.57,1.25.65-1.38.89-1.35.58-.76.82-.73.33,1.23.57,1.26.44.27.68.3,1-3.59,1.21-3.56.34,1.14.57,1.17.36.93.6,1,.37.82.61.85.41.48.65.51.51-.12.74-.08.71-1.43.95-1.39.67-1.17.9-1.13,0,3.2.23,3.24l.71.08c.24,0,.88-2.35,1.12-2.32s.51-.14.75-.1.51-.07.74,0-.18,3.9.06,3.94.86-2.17,1.1-2.13.66-.93.9-.89.58-.52.82-.47-.24,4,0,4,1.28-4.2,1.51-4.15,0,2.84.19,2.89.83-1.77,1.07-1.72-.35,4.31-.12,4.35.44.23.67.28.91-2.1,1.15-2,.79-1.43,1-1.38.58-.41.82-.36.54-.21.77-.16-.47,4.52-.24,4.57.87-1.75,1.1-1.7,0,2.39.2,2.44.49,0,.72,0,1.26-3.4,1.49-3.34.07,1.83.31,1.89.36.54.6.6,1.22-3.1,1.45-3,.25,1.07.48,1.12.75-1,1-1-.67,4.74-.44,4.8,1.15-2.67,1.39-2.61.13,1.42.37,1.48.26.9.49.95.73-.91,1-.85.19,1.16.43,1.22,1-1.79,1.19-1.73.78-1,1-1,.5,0,.73.08-.15,2.37.08,2.44,1-1.7,1.2-1.63.51,0,.74.05-.29,2.78-.06,2.85.42.28.65.34.86-1.26,1.09-1.19,1.4-3.06,1.63-3-.29,2.67-.06,2.74,0,1.52.28,1.59.43.23.66.3.41.29.64.36,1-1.72,1.26-1.65.74-.77,1-.69.79-.88,1-.81.3.66.53.73.23.87.46.94-.2,2.19,0,2.26.93-1.31,1.16-1.23.83-1,1-.89.83-.93,1.06-.85-.28,2.33-.05,2.41.36.44.59.52.95-1.29,1.18-1.21.54-.08.76,0-1.21,4.92-1,5,.8-.85,1-.77,1.53-2.87,1.75-2.79-.81,3.69-.58,3.77.91-1.11,1.13-1,.81-.83,1-.74,1.14-1.7,1.37-1.62.76-.66,1-.58-.22,2,0,2.05-.13,1.71.1,1.8,1.24-1.91,1.46-1.82-.76,3.31-.53,3.39,1.64-2.9,1.87-2.81-.87,3.52-.65,3.6,1.7-3,1.92-2.89,0,1.42.18,1.51.11,1,.33,1.1-.32,2.06-.1,2.15,1.08-1.38,1.3-1.29,1.56-2.52,1.78-2.43-1,3.58-.74,3.67,2.06-3.68,2.28-3.58-.75,3-.52,3.1.42.22.64.31.15.85.38.95.18.76.4.85,1-1,1.2-.94.22.68.44.78,0,1.23.19,1.33,2.35-4.09,2.57-4-.4,2.07-.18,2.17,0,1.17.21,1.27,1.3-1.68,1.52-1.58-1.2,3.75-1,3.85,1-.94,1.18-.84,2-3.15,2.22-3.05-.27,1.72,0,1.82-.56,2.29-.35,2.4.61-.16.82-.06,1.07-1.1,1.28-1,1.7-2.39,1.92-2.29-1.41,4-1.19,4.07,1.65-2.26,1.87-2.16-.18,1.44,0,1.55.15.78.36.88,1.83-2.56,2-2.45-2,5.08-1.82,5.18,2.23-3.3,2.44-3.19.4.29.61.4,1.19-1.24,1.4-1.13-2.08,5-1.87,5.14.5.07.71.18,1.89-2.54,2.1-2.42-.19,1.37,0,1.48.12.8.33.91.14.74.35.85,1.32-1.42,1.53-1.3,1.45-1.64,1.66-1.52-1.61,3.9-1.4,4,1.17-1.12,1.38-1,1.18-1.12,1.38-1-.23,1.39,0,1.51,1.42-1.53,1.63-1.41-.46,1.78-.25,1.9,1.79-2.15,2-2-2.32,5-2.12,5.1.39.27.6.4,2.8-3.84,3-3.72-.25,1.37,0,1.49-.94,2.52-.74,2.64,1.76-2,2-1.88-.61,1.93-.4,2.05,1.29-1.2,1.49-1.08-.14,1.17.06,1.29.39.28.6.4.86-.48,1.06-.35-.15,1.15.05,1.28.33.38.53.51,1.22-1,1.42-.91-.24,1.28,0,1.41,1.31-1.16,1.51-1-1,2.47-.81,2.6,2.73-3.35,2.93-3.22-2,3.93-1.77,4.06,2.76-3.35,3-3.22-2,3.86-1.76,4,1.5-1.39,1.7-1.26,1.79-1.81,2-1.68,0,.8.25.93-1.81,3.54-1.61,3.68,1.44-1.28,1.64-1.15,1.33-1.09,1.53-1-1.42,2.91-1.23,3.05,1.28-1,1.48-.87-1,2.22-.77,2.36,2.85-3.24,3.05-3.1-2,3.69-1.82,3.83.66-.11.86,0,1.65-1.5,1.85-1.36-.82,2-.63,2.1,1.28-.95,1.48-.81-.34,1.27-.14,1.41-.18,1,0,1.19,2.83-3.06,3-2.92-.58,1.6-.39,1.74.12.65.31.8.55.06.74.2.53.1.72.25-1.33,2.55-1.14,2.7.47.15.66.3,2.38-2.32,2.57-2.17-.87,1.92-.68,2.06,1.18-.75,1.37-.6.9-.37,1.09-.22-.35,1.22-.16,1.37,1.94-1.68,2.13-1.53-1.42,2.57-1.23,2.71.09.66.28.81,1.85-1.55,2-1.4,1.21-.72,1.4-.57.22.5.4.65-1.74,2.9-1.56,3,2.35-2.09,2.53-1.94-.06.84.12,1-2.29,3.51-2.11,3.66,2-1.61,2.16-1.46.91-.34,1.09-.18-.56,1.41-.38,1.56.57.07.76.22-.15.91,0,1.07,1.06-.5,1.24-.35-.2,1,0,1.13,1.77-1.3,1.95-1.14.32.36.5.52.59.06.77.22-1.95,2.92-1.77,3.08,3.7-3.43,3.88-3.27-3.1,4.18-2.92,4.34.61,0,.79.19,3.64-3.3,3.82-3.13-1.38,2.23-1.21,2.39-.43,1.18-.25,1.34-.29,1-.12,1.18,2.74-2.24,2.92-2.07-1,1.79-.84,1.95,2.41-1.86,2.58-1.69-2.1,2.93-1.93,3.1,2.63-2.07,2.8-1.91-.37,1.1-.19,1.26-2.54,3.33-2.37,3.5.54.12.72.28,4-3.42,4.17-3.25-3,3.72-2.8,3.89.83-.16,1,0,2.67-2,2.84-1.85-.14.83,0,1,.5.18.67.35-2.55,3.21-2.38,3.38.35.32.52.49,3-2.27,3.16-2.1,1.44-.73,1.61-.55-.13.8,0,1-1.11,1.74-.94,1.91-.08.74.09.91-1,1.64-.85,1.81,3.28-2.46,3.45-2.29-3,3.5-2.85,3.68,4.08-3.17,4.25-3,.34.35.5.52-.3.95-.14,1.13-.24.88-.08,1.06-1,1.54-.81,1.72-.16.78,0,1,1.76-.94,1.92-.77,2-1.17,2.19-1-.6,1.18-.44,1.36-.32.93-.16,1.11.37.32.53.5,0,.63.16.82-1.4,1.86-1.24,2,0,.65.13.83,4.42-3.19,4.58-3-1.36,1.81-1.21,2-.53,1.09-.37,1.27-.92,1.41-.77,1.59,3.51-2.33,3.66-2.15-2.31,2.58-2.16,2.76.06.58.21.76,1.61-.72,1.76-.53-.08.69.08.87-1.43,1.79-1.28,2,4.74-3.24,4.89-3.06-.45,1-.3,1.18-2.27,2.45-2.12,2.64,2.32-1.25,2.47-1.06,1.22-.35,1.37-.16-3.36,3.27-3.21,3.46,1.6-.65,1.75-.46-.18.74,0,.93-.28.82-.13,1,.25.4.4.59,2-.91,2.11-.72-1.31,1.61-1.16,1.8-.57,1-.43,1.22,4.18-2.56,4.32-2.37-2.33,2.35-2.18,2.55-.73,1.14-.59,1.33,2.12-1,2.26-.79,2.24-1.06,2.38-.86-.14.71,0,.9,1.15-.24,1.29,0-2.4,2.33-2.26,2.53,2.61-1.29,2.75-1.09.64.14.78.34-.42.89-.29,1.09-2.87,2.62-2.73,2.82.15.47.29.67,2.22-1,2.36-.78-2,2-1.9,2.19,3.29-1.69,3.42-1.49.51.24.65.44.39.32.52.52-.64,1-.5,1.21,1.7-.56,1.83-.36.76.08.89.28-1.13,1.33-1,1.53-2.47,2.21-2.34,2.41.21.43.34.63,1.78-.59,1.91-.39.61.18.74.38,0,.54.17.74,1.44-.35,1.57-.15,0,.57.14.77-.88,1.13-.75,1.33.34.35.47.55,1,0,1.11.16.34.35.46.56,0,.54.17.74.54.23.67.44,1.85-.56,2-.36-3.36,2.6-3.23,2.81,1.87-.57,2-.37,1.86-.54,2-.34-1.09,1.21-1,1.42-2.26,1.88-2.14,2.09.41.31.53.52,4.45-2,4.58-1.83-1.42,1.38-1.3,1.58-.92,1.09-.8,1.3,1.8-.48,1.92-.27-1.74,1.53-1.62,1.74,1.82-.47,1.94-.26-1.29,1.27-1.17,1.48,2-.56,2.1-.35-1,1.13-.94,1.34.37.35.49.56-1.29,1.24-1.18,1.45,4.23-1.74,4.35-1.53.68.19.8.4-2.81,2.05-2.7,2.26-1.63,1.4-1.52,1.61,1.39-.2,1.51,0,3.83-1.46,3.94-1.25-2.2,1.69-2.09,1.9,2.34-.66,2.45-.44-4.33,2.75-4.23,3,4.92-1.95,5-1.74-2.31,1.7-2.2,1.92-2.07,1.56-2,1.78,2.73-.82,2.83-.61-2.18,1.6-2.07,1.82,2.53-.71,2.63-.49-.35.71-.25.92,1.39-.14,1.5.08-.46.75-.36,1,.62.24.72.46,2.64-.71,2.74-.5-.41.74-.31.95,0,.54.11.76-.6.8-.5,1-3.4,2.08-3.3,2.3,2.2-.47,2.29-.26-.7.84-.6,1.06,1.93-.34,2-.12.31.39.41.61,2.51-.57,2.6-.35l.3.67c.1.22-2.82,1.74-2.73,2s-1.3,1.08-1.2,1.3,2.9-.71,3-.49.52.3.62.52-2.46,1.56-2.37,1.78,2.2-.4,2.3-.18-1.1,1-1,1.19-1.38,1.08-1.29,1.3,1.92-.26,2,0,1.42-.05,1.51.17-3.35,1.85-3.27,2.08,3.37-.82,3.46-.6-1.43,1.08-1.34,1.3-.25.61-.17.83,2.92-.61,3-.38.35.38.44.6-2.9,1.61-2.82,1.84-.18.57-.1.8,2.9-.57,3-.34-1,.89-.95,1.12-.38.64-.3.87.52.32.6.55,3.6-.78,3.68-.56-4.66,2.17-4.58,2.4,4.75-1.17,4.83-.94-4.12,2-4,2.17,2.6-.39,2.68-.16-1.64,1.07-1.57,1.3-.84.78-.76,1,.78.24.86.46,4.28-.91,4.35-.68-2.77,1.42-2.69,1.65-1.45,1-1.37,1.2,3.43-.61,3.5-.38-1.42,1-1.35,1.19,2.89-.4,3-.18-4.64,2-4.57,2.19-.33.6-.26.83,3.74-.65,3.81-.42.73.28.8.51-.37.62-.3.85-1.6,1-1.53,1.21,1.3.11,1.37.34-1.05.81-1,1,1.9,0,2,.18-.56.66-.49.9,2.48-.2,2.55,0-2.16,1.11-2.09,1.34,0,.5,0,.73-2.57,1.2-2.5,1.43,5.09-.88,5.15-.64-3.74,1.49-3.68,1.72,3.33-.38,3.39-.15-2.7,1.2-2.64,1.44.42.38.48.62,3.5-.39,3.55-.16-3.6,1.4-3.54,1.63,2.74-.18,2.8,0,1.3.19,1.35.42-5.42,1.8-5.36,2,5.19-.75,5.25-.52-2.91,1.18-2.86,1.42,3.42-.3,3.48-.07-2.7,1.12-2.65,1.35-.7.65-.65.89.38.4.44.63.91.29,1,.53-.94.69-.89.93.81.31.86.55,1,.28,1,.51-2.33,1-2.28,1.21,1.45.19,1.5.43-2.33.95-2.28,1.19,2.83-.08,2.87.16,1.9.12,2,.35-2.14.9-2.09,1.14-1.16.71-1.12.94,3.83-.23,3.88,0-3,1-3,1.28-1.28.72-1.23.95,2.8,0,2.84.22,1.13.3,1.17.53-.22.53-.18.77,1.19.29,1.23.52-4.51,1.24-4.47,1.48,2.08.14,2.12.38-.29.53-.25.76-.81.61-.77.85,1.22.3,1.25.53,1.77.22,1.81.46,1.66.24,1.69.48-4.69,1.17-4.65,1.41,2.31.15,2.34.39.14.46.18.7.9.36.94.6-1.23.65-1.2.89-1.25.65-1.22.88,2,.23,2,.47,1.74.27,1.77.51-.26.52-.24.76.23.46.26.7-4.16,1-4.13,1.2,1.87.27,1.89.51-.64.55-.62.79,2.84.18,2.86.42-2.67.76-2.64,1,1.23.36,1.26.59-2.95.77-2.92,1,3.14.18,3.16.42-1.43.61-1.41.85-1,.57-1,.81,2.41.27,2.43.51,1.56.35,1.58.59-1.61.62-1.59.86,1.55.36,1.57.6-3.63.75-3.61,1,0,.48,0,.72,2.7.29,2.71.53-.73.53-.71.77-.44.5-.43.74-.75.53-.74.77,2.77.32,2.79.56.53.45.55.69-1.4.56-1.39.8.87.44.88.68-.25.49-.24.73-2.87.61-2.86.85,2,.39,2,.63,1.54.43,1.55.67-.27.49-.26.73-2.45.56-2.44.8.47.47.48.71,2.43.41,2.43.65-.37.5-.36.74-4,.56-4,.8,1.25.45,1.26.7,3.29.43,3.29.67-4,.53-4,.77,1.67.46,1.67.7,1.51.47,1.51.71-1.6.49-1.6.73S1020.2-270.24,1020.2-270Z"/></clipPath></defs><g class="cls-2"><path class="cls-3" d="M825-108.92c0,.24-.38.48-.39.73s.5.48.5.72,1.22.49,1.22.74-4.17.44-4.18.68,2.83.51,2.83.75-1.9.45-1.9.69-.82.46-.82.71,4.85.58,4.84.82-3.93.39-3.94.63-.05.48-.06.72,1.92.54,1.91.78,1.56.53,1.55.77.35.51.35.75-.54.46-.55.7-5.17.27-5.18.51,5.4.72,5.39,1-5,.25-5,.49,2.31.59,2.3.83,1.09.54,1.08.78-3.62.28-3.63.52.57.51.56.75.71.52.7.76,2.13.62,2.12.86,1.2.57,1.19.81.45.52.44.76-3.34.24-3.36.48,3.29.73,3.27,1-2.86.27-2.88.5-1.19.39-1.21.63-1.75.33-1.77.57,3.67.8,3.65,1,1.37.61,1.35.85-.41.45-.43.69-2.55.24-2.57.48,1.71.65,1.69.89.76.56.73.8,1,.6,1,.84-2.54.21-2.56.45-.51.43-.54.67-.56.42-.59.66-1,.37-1,.61,2,.72,2,1-.91.37-.93.61,1.2.63,1.17.87-1,.36-1.07.6-1.23.32-1.26.56,2.42.81,2.39,1,.63.58.6.82-1.34.3-1.37.54-.86.36-.9.6,1.54.71,1.51,1-2.87.06-2.9.3,2.29.84,2.26,1.07-1.29.29-1.33.53.7.6.66.83-1.78.21-1.82.44-1.7.21-1.74.44,4.5,1.24,4.46,1.48-2.33.09-2.37.33,2.55.93,2.51,1.17-4-.22-4.06,0-.14.46-.19.69,1.11.69,1.06.93.62.6.57.83,1.22.72,1.17,1-2.41,0-2.45.27.09.5,0,.74,1,.69,1,.93,1.8.85,1.75,1.09,0,.49-.06.73-2.35,0-2.39.25,1.89.89,1.84,1.12-2.81-.1-2.86.14-1.63.14-1.68.37.83.67.78.9-1.93.07-2,.3.55.61.5.84,2,.93,1.9,1.17,2.5,1.07,2.45,1.3-2.91-.18-3,.06,1.36.81,1.31,1-1.24.2-1.3.43.89.71.84,1-1.18.21-1.24.44-.82.29-.88.52,2.92,1.23,2.86,1.47-2.6-.17-2.66.07-.16.45-.22.68,1.95,1,1.89,1.24-2.28-.1-2.34.14,1.21.82,1.15,1,1.26.84,1.2,1.07-5.38-1-5.45-.73,4.17,1.64,4.11,1.87-.52.36-.59.59-1.18.17-1.25.4-.82.26-.89.5-2.3-.17-2.36.06S814-38.74,814-38.51s-2-.08-2,.15-.92.22-1,.45.53.66.46.89,1.26.88,1.19,1.11-1.09.16-1.16.39-.21.44-.28.67,4.08,1.78,4,2-3-.43-3-.2-1.65,0-1.72.2-1.19.12-1.26.35,1.5,1,1.42,1.21,1.23.91,1.16,1.14,1,.86,1,1.09-2.44-.31-2.52-.08-.94.18-1,.41,2,1.21,2,1.44.74.76.66,1-3.33-.66-3.41-.43,3.38,1.7,3.3,1.93-3.42-.71-3.5-.48,2.59,1.44,2.51,1.67-3.07-.6-3.15-.38,4.1,2,4,2.24-5.21-1.41-5.29-1.18,3.5,1.81,3.42,2-.47.35-.55.57-.8.22-.89.44,1.32,1,1.24,1.25.49.71.4.93-.78.22-.87.45-3.12-.71-3.21-.49,2.94,1.68,2.85,1.91S804-17.19,803.91-17s3.37,1.88,3.28,2.1-3.52-.91-3.61-.69-.34.37-.44.59,2.77,1.66,2.68,1.88-2.17-.38-2.27-.16,1.33,1.08,1.24,1.3.13.57,0,.8-1.35-.06-1.44.16-1.53-.14-1.62.09,3.75,2.14,3.65,2.36-1.86-.28-2-.06-2-.38-2.14-.16,3.86,2.24,3.76,2.46-5.36-1.87-5.45-1.65,1.42,1.16,1.32,1.38-1.19,0-1.29.2S804.11-3.8,804-3.58s-1.25,0-1.35.17-4.06-1.35-4.16-1.13-.14.45-.25.67,2.47,1.69,2.37,1.91,1.29,1.15,1.19,1.37-1.1,0-1.2.22-1.34-.1-1.44.11S797-.77,796.92-.55s3.66,2.32,3.56,2.54-2.74-.81-2.85-.6.76.91.65,1.13.37.72.26.94-3.61-1.29-3.72-1.07.31.68.2.89,3.34,2.25,3.23,2.46-3.66-1.34-3.77-1.13,3.76,2.49,3.65,2.71-1,0-1.15.22-.59.23-.71.44-1.2-.09-1.31.13-2.06-.56-2.17-.35,4.2,2.8,4.09,3-2.14-.6-2.25-.39-2.28-.69-2.4-.48.38.75.27,1,2.77,2.08,2.65,2.29-1.71-.39-1.83-.18-3-1.16-3.16-1,3.92,2.76,3.81,3-4.73-2.13-4.85-1.92,2.08,1.73,2,1.94-1.44-.27-1.56-.07.48.84.36,1-2-.62-2.13-.41,3.66,2.7,3.54,2.91-2.14-.7-2.26-.5-1.86-.54-2-.34-.8.07-.93.28.52.86.39,1.07,3.81,2.87,3.69,3.07-.76.11-.89.31-.62.19-.75.39-2.62-1.05-2.75-.84,1.06,1.21.93,1.42-.8.06-.93.27-1.39-.31-1.52-.11,2,1.84,1.88,2-2.29-.89-2.42-.69,1.88,1.78,1.75,2-1.3-.26-1.43-.06-.72.1-.85.3-1.73-.56-1.86-.36,2.55,2.25,2.42,2.46-1.49-.41-1.63-.21,2.06,1.94,1.92,2.14-.62.17-.75.37-3.55-1.81-3.68-1.61,2.25,2.11,2.12,2.31-2.24-1-2.38-.75,1.87,1.86,1.73,2.06-1-.11-1.14.09-.05.55-.18.75,0,.58-.16.77-1.72-.62-1.85-.42.06.63-.08.82-.85,0-1,.18,1.1,1.38,1,1.57-.08.55-.22.74-1-.12-1.12.08-2.14-1-2.29-.78,2.52,2.44,2.38,2.63-.83,0-1,.18-2.8-1.48-3-1.29,2.28,2.29,2.13,2.49.18.73,0,.92-.61.14-.76.34-.21.44-.36.63.47,1,.32,1.16-3.93-2.43-4.08-2.24,3.63,3.42,3.49,3.61,0,.62-.15.81-2.16-1.08-2.31-.89-1.6-.66-1.75-.47,1.51,1.82,1.36,2,0,.58-.2.77-2.22-1.17-2.37-1-1.17-.34-1.32-.15.37.91.22,1.1,2.59,2.74,2.44,2.92-.21.46-.37.65-.72,0-.87.21.54,1.09.39,1.27-3.17-2-3.32-1.83-.25.41-.4.6-.14.51-.29.69,0,.62-.18.8,1.61,2,1.45,2.19-4-2.77-4.11-2.59,2.12,2.47,2,2.66-1.55-.72-1.71-.54-.19.47-.34.65.69,1.25.53,1.43,1.14,1.67,1,1.84-3.47-2.45-3.63-2.27-.92-.18-1.08,0,1,1.56.86,1.74.32.94.16,1.12-2-1.2-2.19-1,0,.67-.14.84,2.68,3.13,2.51,3.31-4.24-3.29-4.41-3.12,1.36,1.92,1.19,2.09-1.74-1-1.9-.8-.53.15-.69.32-.34.33-.51.51,3.11,3.63,2.95,3.81-2.23-1.48-2.4-1.31-.35.33-.52.5,2.3,2.91,2.13,3.08-2.23-1.5-2.4-1.33-2.2-1.49-2.37-1.32,1.8,2.44,1.63,2.62-2-1.3-2.15-1.13.24.92.07,1.09-.75-.09-.92.08-.69,0-.86.15.37,1.06.19,1.22.15.83,0,1,1.3,2,1.12,2.19-1.53-.89-1.7-.72-1.05-.4-1.22-.23,2,2.78,1.81,3-1.07-.43-1.25-.26-1.12-.49-1.3-.33-.34.34-.52.5.71,1.47.53,1.63-.94-.3-1.12-.14-.13.58-.31.74-3-2.59-3.2-2.43,2.29,3.23,2.12,3.39-1.22-.62-1.39-.46-1.75-1.22-1.93-1.06,1.76,2.69,1.58,2.85-2.48-2.07-2.66-1.91,2.23,3.23,2,3.39-2.81-2.45-3-2.29,2.54,3.63,2.36,3.79-1.34-.8-1.52-.65-.78-.16-1,0-2.3-1.94-2.48-1.78.26,1,.08,1.2,1,1.9.81,2.06.19,1,0,1.13.43,1.27.25,1.43-4-4-4.17-3.87,1.82,2.94,1.64,3.1.85,1.8.67,2-2.26-2-2.45-1.84-1.93-1.61-2.12-1.46-.34.33-.52.48,1.72,2.9,1.53,3-2.56-2.44-2.75-2.29,2.84,4.33,2.65,4.47-2.93-2.92-3.12-2.77.52,1.44.33,1.58.9,1.93.71,2.07-1.89-1.64-2.08-1.49-.77-.22-1-.07,1.87,3.22,1.68,3.37-2.2-2.08-2.39-1.93-1.4-1.06-1.6-.92.63,1.61.44,1.76.47,1.43.28,1.57.55,1.55.36,1.7-2.79-3-3-2.82.23,1.11,0,1.25-1.3-1-1.49-.82.74,1.82.55,2,.72,1.82.52,2-.55.06-.75.2.43,1.43.24,1.57-2.06-2.05-2.25-1.91.06.92-.14,1.06-1.86-1.83-2.06-1.69,2.08,3.82,1.88,4-2.83-3.23-3-3.1-.49.13-.69.26,1.83,3.51,1.63,3.65-.68-.14-.88,0-2.41-2.71-2.61-2.58,2.33,4.33,2.13,4.46-1.2-.92-1.4-.79-.86-.42-1.06-.29.12,1-.08,1.18-1.45-1.33-1.65-1.2,1.59,3.33,1.39,3.46-1.56-1.51-1.76-1.38-1.49-1.43-1.69-1.3,1.07,2.57.87,2.7.19,1.21,0,1.34-1.41-1.33-1.62-1.2.29,1.36.08,1.49-1.41-1.34-1.61-1.22-1.73-1.88-1.94-1.75-.74-.31-.95-.19,1.38,3.17,1.18,3.29-1.33-1.25-1.53-1.13,1,2.56.78,2.68-.13.72-.34.85-.26.51-.47.63-2-2.37-2.18-2.25-.5.08-.71.2,0,1-.19,1.1.57,1.94.36,2.06-1.68-2-1.89-1.84,0,1-.16,1.17-.37.33-.58.45-1.15-1.06-1.36-.94.88,2.54.67,2.66-2.1-2.79-2.31-2.67.57,2,.36,2.12-.13.78-.34.89-1.16-1.12-1.37-1,.37,1.68.15,1.8-1.47-1.72-1.68-1.61,1.48,3.79,1.27,3.9-1.15-1.13-1.36-1-.55,0-.76.11-1-.91-1.24-.8.94,2.85.73,3-2.26-3.31-2.47-3.2-.4.27-.61.37-.46.16-.67.27,1.34,3.71,1.12,3.82-.36.37-.57.47-1.66-2.23-1.87-2.12-1.53-2-1.75-1.91.93,3,.72,3.07.22,1.56,0,1.66-.06,1-.28,1.08-2.5-4.07-2.71-4,1.51,4.28,1.29,4.39-2-3.09-2.21-3,.18,1.52,0,1.62-1.59-2.27-1.8-2.17-.24.62-.46.72-.63-.24-.85-.14-.67-.34-.89-.24-.07,1-.29,1.08.77,2.88.55,3-.58-.1-.8,0-.94-.94-1.16-.85,1,3.55.81,3.64-.47.13-.69.23-1.31-1.79-1.53-1.7.32,2,.1,2.06-1.47-2.21-1.69-2.12-1.44-2.17-1.66-2.08,1.54,4.93,1.32,5S670.24,123,670,123.1s-.94-1-1.17-.94.51,2.52.29,2.61-1.93-3.47-2.15-3.38-.22.73-.44.82-.86-.88-1.09-.79-.14.93-.36,1-.65-.36-.88-.28-.41.26-.63.35.71,3.17.48,3.25-.66-.37-.88-.29-.64-.32-.87-.24-.54-.08-.76,0-.51,0-.73.12.52,2.81.3,2.89-1.45-2.55-1.68-2.47-.26.68-.49.77-1-1.24-1.17-1.15-.85-1-1.08-.9-.52-.06-.75,0,.52,2.94.29,3-1.27-2.23-1.5-2.15.07,1.67-.16,1.74.18,2-.05,2.1-1.32-2.41-1.54-2.34-.2.92-.43,1,.11,1.88-.11,2-.19,1-.41,1.07-1.3-2.42-1.52-2.35-.94-1.38-1.17-1.31.16,2.09-.07,2.16-.08,1.37-.31,1.44-.1,1.32-.33,1.39-2-4.88-2.23-4.81,1.14,5.39.91,5.46-.53-.07-.76,0-.34.58-.57.64-.77-.89-1-.83-.69-.63-.92-.56-.71-.74-.94-.67-.92-1.48-1.15-1.41.08,2-.16,2.1.22,2.58,0,2.64-2-5.51-2.25-5.45.29,2.88.06,2.95-1-1.87-1.23-1.81-.26.85-.5.91-.84-1.34-1.07-1.28.61,4.26.38,4.32-1.29-3.08-1.52-3,.13,2.45-.1,2.51-.65-.6-.88-.55.22,2.89,0,2.95-1.64-4.7-1.87-4.64.55,4.33.31,4.38-.73-1-1-.93,0,2.19-.22,2.24-.89-1.7-1.13-1.65-.24,1.13-.47,1.18-1.41-4-1.64-4,.16,2.91-.08,3-1-2.32-1.23-2.27,0,2-.28,2.1,0,2.33-.23,2.38-1.1-2.86-1.34-2.82-.85-1.74-1.08-1.69-.08,2-.32,2-.4.45-.63.5,0,2.61-.21,2.66-.41.44-.65.49-.56-.35-.8-.31-.73-1.25-1-1.21-.19,1.64-.43,1.68-.55-.31-.79-.26-.86-2-1.09-2-.17,1.82-.41,1.86-.31,1.05-.54,1.09-.6-.58-.83-.54-1-2.8-1.2-2.76-.15,2.06-.39,2.1-.31,1.11-.54,1.15-.77-1.75-1-1.72-.79-1.93-1-1.89-.27,1.34-.51,1.37-.22,1.77-.46,1.81-.33,1-.57,1.07-1-3.67-1.26-3.63-.48,0-.71.06.14,4.52-.1,4.56-.94-3.35-1.18-3.32-.79-2.33-1-2.3-.12,2.79-.36,2.82-.09,3.08-.33,3.11-.52-.25-.76-.22-.64-1.24-.88-1.22-1-4.14-1.21-4.11,0,3.72-.29,3.75-.67-1.65-.91-1.62-.57-.84-.81-.81-.55-.73-.79-.7-.15,3.16-.39,3.19-.51-.28-.75-.25-.32,1.61-.56,1.63-.51-.22-.75-.2-.42.73-.66.75-.65-1.85-.89-1.82-.49,0-.73,0-.57-1.16-.81-1.14-.31,2.15-.55,2.17-.63-1.89-.87-1.87-.34,1.85-.58,1.87-.53-.52-.76-.51-.31,2.56-.55,2.58-.53-.5-.77-.49-.77-4.54-1-4.52-.51-.58-.75-.56-.39,1.37-.63,1.39-.43.9-.67.91-.6-2.35-.84-2.34-.23,5.08-.47,5.09-.72-5.09-1-5.08-.25,5.23-.49,5.24-.62-3.29-.86-3.28-.38,2.53-.62,2.54-.5-.52-.74-.52-.49.1-.73.11-.51-1.19-.75-1.18-.44,1.66-.68,1.66-.56-3.32-.8-3.31-.5-1-.74-1-.41,3.62-.65,3.63-.48,0-.72,0-.51-2.39-.75-2.39-.47,1.63-.71,1.64-.49-1.77-.73-1.77-.48.36-.72.36-.48,3.77-.72,3.77-.47-4.24-.71-4.24-.5,4.68-.74,4.68h-.73c-.24,0-.44-4.47-.68-4.48s-.51,2.47-.75,2.47-.49.26-.73.25-.42-3.21-.66-3.21-.51,1.62-.75,1.62-.47-.51-.71-.52-.59,3.93-.83,3.92-.35-4.62-.59-4.63-.57,2.81-.81,2.8-.51.61-.75.6-.41-1.92-.65-1.93-.4-1.75-.64-1.76-.43-1-.67-1-.74,5.49-1,5.48-.33-3.17-.57-3.18-.58,1.87-.82,1.85-.43-1-.67-1-.61,2.12-.85,2.11-.25-3.82-.49-3.84-.48,0-.72,0-.37-1.58-.61-1.6-.48.1-.72.09-.71,3.2-.95,3.19-.23-3.31-.47-3.33-.84,4.62-1.08,4.6-.09-4.81-.33-4.83-1,5.68-1.2,5.66,0-5.31-.26-5.33-.49.12-.73.1-.95,5.07-1.19,5,0-4.82-.27-4.84-.9,4.28-1.14,4.26-.46-.33-.7-.35-.39-.92-.63-.94-.58.87-.82.84-.08-3.68-.32-3.71-.76,2.47-1,2.44-.4-.7-.64-.73-.72,1.89-.95,1.86-.41-.74-.64-.77-.55.41-.78.38,0-3.67-.26-3.7-.28-1.55-.51-1.58-.73,1.81-1,1.78-.45-.24-.69-.27-.35-.92-.59-.95-.73,1.74-1,1.7-.19-2-.42-2.07-.74,1.7-1,1.67-.41-.49-.65-.52-.79,2-1,1.93-.07-2.66-.31-2.7-.6.74-.84.7-.15-2.06-.38-2.1-1,3-1.21,2.92,0-2.58-.29-2.63-.52.2-.75.16-.77,1.58-1,1.54,0-2.49-.28-2.53-1.05,3.12-1.29,3.07.17-3.54-.07-3.58S527.33,139,527.1,139s.3-4.15.06-4.2-.67,1-.91.93-.94,2.32-1.18,2.27-.64.72-.88.67-.39-.5-.63-.55.21-3.41,0-3.46-1,2.5-1.25,2.45.29-3.68.05-3.73-1.13,3-1.36,2.94-.36-.61-.6-.67-.44-.24-.67-.29-.13-1.62-.37-1.67-.22-1.17-.45-1.22-1.48,4.3-1.72,4.25.08-2.45-.16-2.5-.92,1.82-1.16,1.76.33-3.43.1-3.48-1,2.05-1.23,2-.76,1.06-1,1-.55.19-.78.13.31-3.24.08-3.29-1,2.09-1.26,2-.67.68-.91.62.28-3,.05-3.06-.81,1.22-1.05,1.16-.64.53-.87.47-.9,1.45-1.13,1.39.44-3.45.21-3.51-.57.25-.8.18-.64.54-.88.47-.07-1.49-.31-1.55-.55.21-.78.14-.54.15-.78.09-.37-.44-.6-.51-1.23,2.49-1.46,2.43-.08-1.44-.31-1.51.33-2.75.1-2.82-1.73,4-2,4-.06-1.46-.29-1.53-1.09,1.86-1.32,1.78.6-3.5.37-3.57,0-1.66-.21-1.73-.39-.34-.62-.41-.92,1.31-1.15,1.23,0-1.41-.27-1.48-1.39,2.69-1.62,2.61.24-2.23,0-2.3-1.15,1.93-1.38,1.85-.91,1.16-1.13,1.09.14-1.9-.09-2-1.09,1.65-1.31,1.57.68-3.41.45-3.49-1.12,1.73-1.34,1.65-1,1.37-1.23,1.29,1.32-5.09,1.09-5.17-1.8,3.55-2,3.47-1.06,1.47-1.29,1.39,1.27-4.81,1-4.9-.86,1-1.08.87-.3-.58-.52-.67-1.95,3.78-2.17,3.69-.45-.21-.67-.29-.3-.58-.53-.66.09-1.56-.14-1.65-.94,1.09-1.17,1-.41-.28-.63-.37,0-1.26-.25-1.35.34-2.13.12-2.22-.54.06-.76,0,.09-1.47-.14-1.57-2.12,3.89-2.34,3.8-.62.22-.84.12-.48-.1-.7-.2,1.52-4.85,1.3-4.94-2.16,3.84-2.38,3.74,1-3.44.74-3.53-1.38,2-1.61,1.88,1-3.51.8-3.6-2.52,4.53-2.74,4.43,1.1-3.67.88-3.77-.33-.43-.55-.53-1.11,1.31-1.33,1.21-1.18,1.42-1.39,1.32-.74.45-1,.35,1-3.27.76-3.37-1.53,2.14-1.75,2,1.19-3.67,1-3.77-2,3.18-2.25,3.08-.85.66-1.07.56,1.51-4.29,1.3-4.39-1.57,2.16-1.79,2,1-3.17.79-3.27-2.3,3.6-2.51,3.5.32-1.75.11-1.86.55-2.19.34-2.3-1.78,2.49-2,2.38.85-2.74.64-2.85-2.1,3.08-2.32,3-.54,0-.76-.11-.49-.09-.71-.2,1.39-3.73,1.18-3.84-1.64,2.1-1.85,2,.91-2.76.7-2.88-1.11,1.09-1.32,1-1.1,1-1.31.92-1.42,1.61-1.63,1.5.09-1.19-.12-1.31-.61.11-.82,0,1.58-3.87,1.37-4-2.36,3.28-2.57,3.16-.25-.55-.46-.66-.74.32-1,.2.38-1.66.17-1.78-.82.48-1,.36.6-2,.39-2.15-2.15,2.79-2.36,2.67,2.18-4.74,2-4.86-1.68,1.94-1.89,1.82-.32-.4-.53-.52-1.24,1.15-1.45,1-1,.69-1.18.57,2.07-4.4,1.86-4.52-1.9,2.24-2.11,2.11-.54,0-.75-.16-.9.55-1.11.43,2.15-4.42,1.94-4.54-1.9,2.17-2.1,2-1.27,1.13-1.48,1,1.13-2.71.93-2.84-2.18,2.56-2.38,2.43.8-2.16.59-2.29-2.12,2.44-2.33,2.31,2.05-4.09,1.85-4.22-.35-.33-.55-.46-1.07.77-1.27.64-.16-.64-.36-.77.06-1-.14-1.09.06-1-.14-1.09-2.6,3-2.8,2.91,1.46-3,1.26-3.17-.5-.11-.7-.25-.09-.71-.29-.85-1.79,1.79-2,1.65.49-1.55.29-1.69-2.25,2.41-2.45,2.27.73-1.89.53-2,.32-1.28.12-1.42-2.6,2.86-2.8,2.72.8-2,.6-2.1-1,.62-1.23.48-.27-.46-.46-.6.16-1,0-1.19,1.12-2.35.92-2.5-1.28,1-1.48.81.68-1.73.49-1.87-.79.27-1,.13l-.58-.42c-.19-.15-2.88,3-3.07,2.89s-.15-.61-.34-.75,1.79-3.17,1.6-3.31-2.67,2.71-2.86,2.57.06-.88-.13-1,0-.83-.17-1-1.07.59-1.26.45,1.78-3.07,1.6-3.22-.53-.1-.72-.25-3.09,3.14-3.28,3,1.33-2.45,1.14-2.6,1.34-2.44,1.15-2.59-2.7,2.6-2.89,2.45,1.27-2.34,1.09-2.49-1,.44-1.16.29-.19-.53-.38-.68-.73.14-.92,0,.8-1.72.62-1.87-3.41,3.34-3.59,3.18,2.4-3.62,2.22-3.78-2.88,2.68-3.06,2.52-.32-.37-.51-.53,1.63-2.65,1.45-2.81-.81.21-1,0-.5-.15-.68-.31-1.24.69-1.42.53-.21-.5-.39-.66,1.91-2.9,1.73-3.06-.51-.14-.69-.3-1.67,1.17-1.85,1-2.21,1.75-2.39,1.59,3.38-4.48,3.2-4.64-4,3.66-4.13,3.5S407,75.18,406.84,75s-2.78,2.33-3,2.17,3-4,2.81-4.12-.53-.12-.71-.29-.52-.13-.7-.29-1.87,1.31-2,1.15-2,1.42-2.18,1.26,1.26-2,1.08-2.2,0-.72-.15-.89,0-.72-.14-.89.44-1.15.27-1.31,0-.66-.2-.82-3.28,2.68-3.45,2.51-1.12.45-1.29.28,2.43-3.16,2.26-3.33-2.75,2.1-2.92,1.93-.64,0-.81-.22,3.22-3.9,3.05-4.07-3.25,2.56-3.42,2.38-1.25.56-1.42.39,2.33-3,2.16-3.14.95-1.59.78-1.76-2.43,1.69-2.59,1.52,1.11-1.74.94-1.91-2.5,1.74-2.67,1.56,1.33-1.93,1.16-2.1.93-1.54.77-1.72-2.65,1.85-2.82,1.67,1.9-2.43,1.74-2.61-1.43.69-1.6.51-.59-.1-.76-.27.46-1.08.3-1.25-.2-.46-.36-.64-.14-.52-.3-.69-1.86,1-2,.86.19-.82,0-1-1.11.35-1.27.17.35-1,.19-1.13,1.36-1.84,1.2-2-.61-.09-.77-.27-2.33,1.4-2.49,1.22-1.24.44-1.4.26-.64-.09-.79-.27,2.18-2.52,2-2.7-.91.15-1.07,0,.27-.85.11-1-1.83.92-2,.74-.58-.15-.73-.33,1.07-1.52.91-1.71-.89.12-1-.06-2.08,1.08-2.23.9.25-.83.09-1-.26-.41-.41-.59-1.37.48-1.52.29,1.39-1.74,1.24-1.93-.95.15-1.1,0,2.34-2.49,2.19-2.68-1.17.33-1.32.14-1.56.62-1.71.43-.77,0-.92-.2-1.12.26-1.26.07-.43-.29-.57-.48,1.81-2,1.66-2.2.24-.79.09-1,.28-.81.14-1,0-.58-.17-.78-1.23.33-1.37.14,1.62-1.8,1.47-2-1.45.49-1.6.3.89-1.25.75-1.44-2.15,1-2.29.79-1.09.2-1.23,0,.18-.73,0-.92-.21-.44-.35-.64,1.66-1.77,1.52-2-1.48.47-1.62.28.8-1.15.66-1.35-.08-.52-.21-.72-4.92,2.85-5.05,2.65,1.44-1.59,1.31-1.79,1.56-1.66,1.42-1.86-2,.76-2.09.57.37-.84.23-1,2-1.92,1.85-2.12-3.87,2-4,1.83,2.77-2.43,2.64-2.63-1.75.59-1.88.39.25-.74.12-.94-2.92,1.34-3.06,1.14,2.69-2.33,2.56-2.53.67-1,.54-1.2-2.68,1.16-2.81,1-1.48.37-1.61.17S363,25.15,362.84,25s-.28-.39-.41-.59.36-.79.23-1-.54-.23-.66-.43-2.26.83-2.39.63,1.45-1.46,1.32-1.66.86-1.09.74-1.3-.68-.14-.81-.35-3.34,1.46-3.46,1.25.52-.88.4-1.09-.44-.3-.56-.51,1.14-1.24,1-1.45-1.2.15-1.32-.06,2-1.73,1.89-1.94,1.12-1.2,1-1.41-2.59,1-2.71.74,2.13-1.77,2-2-.57-.22-.68-.43-4.54,2-4.66,1.8,1-1.11.88-1.32.66-.93.55-1.14,2.25-1.79,2.13-2-2.74,1-2.85.75-2.07.58-2.19.37.36-.75.24-1-.62-.21-.73-.42,1.07-1.13.95-1.34-1.11,0-1.22-.17,2.88-2.06,2.77-2.28.06-.57-.05-.78-4.39,1.75-4.5,1.53,2.78-2,2.67-2.19-3.25,1.13-3.36.91,1.19-1.15,1.08-1.36.06-.58-.05-.79-2.09.51-2.2.29,2.37-1.72,2.26-1.93,2.1-1.58,2-1.79-2.24.57-2.35.36-2.4.63-2.5.42S351-1,350.93-1.23s-.54-.27-.65-.48-1.17,0-1.27-.19-1.52.19-1.63,0-.81-.15-.92-.37-.11-.48-.21-.7,1.3-1.13,1.2-1.35.74-.87.64-1.09-.8-.15-.9-.37-2.69.69-2.79.47,3-1.86,2.86-2.08.37-.68.27-.9-.13-.46-.23-.68-3.47,1-3.57.78,3.56-2.07,3.46-2.29-3,.79-3.11.57.95-.93.85-1.15-2.69.62-2.78.4.35-.68.26-.9,2-1.36,1.92-1.59,1.55-1.15,1.45-1.37-.89-.15-1-.37-2.94.69-3,.47,3.28-1.85,3.19-2.07-1.81.22-1.9,0,.09-.54,0-.77-3.71.95-3.79.72,2.69-1.57,2.6-1.79.32-.64.23-.86-3.47.82-3.55.6,1.39-1.05,1.3-1.28,1-.89.9-1.11-.3-.4-.39-.62.14-.56.05-.79-2.82.53-2.91.31,1.9-1.21,1.81-1.43-2.7.46-2.78.23,1.16-.93,1.08-1.15,3.35-1.7,3.27-1.93-2.75.46-2.83.24,2.62-1.42,2.54-1.65-4.48,1-4.55.82,1.72-1.1,1.64-1.33,1.61-1.05,1.53-1.27-3.59.69-3.67.47-1.32-.07-1.4-.3,5.05-2.17,5-2.4-4.37.92-4.44.7,2.39-1.28,2.32-1.51,1-.83,1-1.06.4-.63.33-.86,0-.5,0-.73-.73-.27-.81-.5-4.18.79-4.25.56,2.82-1.36,2.75-1.59-3.31.49-3.38.26.3-.6.23-.83,1.43-.92,1.36-1.15.79-.73.72-1-.53-.34-.6-.57-3.21.41-3.28.18,4-1.62,3.92-1.86-3.11.37-3.18.14,1.56-.93,1.5-1.16-3,.32-3.08.09,3.94-1.56,3.88-1.79-1.11-.2-1.17-.43,0-.5-.06-.73-1.6-.08-1.66-.32,1.68-.92,1.62-1.16-1.6-.08-1.66-.32,1.21-.8,1.16-1,0-.5,0-.74-3,.24-3.06,0S334-50.82,333.91-51s-4.09.48-4.14.25.94-.72.88-1-2.17,0-2.22-.23,4.68-1.56,4.63-1.8-2.6.1-2.65-.13-.08-.47-.14-.71-2-.05-2-.29,1.64-.84,1.59-1.08-1.71-.13-1.76-.36.45-.59.4-.83.53-.6.48-.83,0-.5,0-.73-2-.09-2.09-.32.67-.63.62-.86-.19-.46-.24-.7.75-.63.7-.87,2.44-.95,2.4-1.18-4.38.32-4.42.09S331.09-64,331-64.27s-5.08.44-5.12.2,3-1,2.92-1.25,1.65-.77,1.61-1-4.73.33-4.77.09.51-.58.47-.82-1.35-.26-1.39-.5.16-.52.13-.76,3.39-1,3.35-1.27-1.71-.21-1.75-.45-.51-.41-.54-.65-.69-.39-.72-.62-.35-.44-.39-.68.71-.59.68-.83-1.74-.24-1.78-.48,4.89-1.17,4.86-1.41.46-.54.43-.78-2.23-.18-2.26-.42.87-.59.84-.83-1.93-.24-2-.48-1-.36-1-.6,2.24-.75,2.21-1-2.42-.2-2.45-.44,1.64-.67,1.61-.91,1.22-.62,1.2-.86-3.63-.08-3.66-.32.24-.52.21-.75.38-.53.35-.77,2.06-.69,2-.93-2.09-.28-2.12-.52,3.88-.85,3.85-1.09-1.25-.36-1.27-.6-2.08-.29-2.11-.53-1-.4-1.06-.64,4-.81,3.94-1-.22-.46-.24-.7.21-.49.19-.73-4-.18-4-.42-1-.41-1-.65,3.72-.74,3.71-1-2.84-.29-2.86-.53,1.52-.59,1.51-.83,2.71-.64,2.7-.88-5.3-.17-5.32-.41,1.89-.59,1.88-.83-.86-.44-.87-.68,1.28-.55,1.27-.79,2.71-.6,2.7-.84-3.8-.31-3.81-.55,1.3-.54,1.29-.78-.86-.45-.87-.69-.52-.46-.53-.71-1.66-.43-1.67-.67,4-.6,4-.84-.61-.46-.61-.7-3.17-.41-3.18-.65,3.88-.57,3.87-.81-2-.44-2-.68,2.8-.53,2.8-.77-1.6-.45-1.6-.69-1.91-.47-1.92-.71,4-.51,4-.75-3.68-.46-3.68-.7-.3-.49-.3-.73-1.17-.49-1.17-.73,4.14-.46,4.14-.7-2-.49-2-.73-1.39-.5-1.39-.74,4.58-.42,4.59-.66-5-.56-5-.8,2.86-.43,2.86-.67,2-.44,2-.68-1.53-.51-1.53-.75-1.93-.53-1.92-.78-1.38-.52-1.37-.76,2.06-.42,2.06-.66,2.81-.38,2.82-.62-4.15-.64-4.14-.88,3.95-.32,4-.56-1.33-.53-1.32-.77-.79-.52-.78-.76.33-.46.34-.7-2-.59-2-.83,4.51-.23,4.52-.47-3.18-.66-3.16-.9.59-.45.6-.69,0-.48,0-.72,1.77-.36,1.79-.6-2.56-.66-2.54-.9,2.85-.27,2.87-.51-.34-.51-.32-.74-2.48-.68-2.46-.92,2.37-.29,2.39-.53-1.31-.59-1.29-.83-2.82-.73-2.8-1,1.65-.34,1.67-.58,1.69-.32,1.71-.56-2.82-.76-2.79-1,3.31-.16,3.33-.39-2.62-.75-2.6-1,.56-.43.59-.67-1.05-.6-1-.84.89-.39.91-.63,3.49-.09,3.52-.33-.3-.51-.27-.75-.41-.53-.38-.77-.36-.52-.33-.76-.95-.6-.92-.84,2.28-.19,2.31-.43-3.68-1-3.65-1.2,0-.49.05-.73.85-.37.88-.61.52-.42.55-.65,1.47-.28,1.5-.52-1.93-.77-1.9-1-.78-.61-.74-.85,2-.18,2-.42,1.3-.28,1.34-.52-3.68-1.07-3.64-1.31,0-.49.06-.72,1.58-.24,1.62-.48.44-.41.48-.65,3.57.12,3.61-.12-1.77-.78-1.73-1,.24-.44.29-.68,1.15-.28,1.19-.51.58-.38.62-.62-.43-.56-.39-.8.87-.32.91-.55-1.42-.76-1.38-1-3-1.07-3-1.31-1-.69-1-.93,5,.51,5.06.27-4.72-1.44-4.67-1.68,2.34,0,2.39-.25,2.71.08,2.76-.16-.09-.5,0-.74-2.39-1-2.33-1.23.91-.29,1-.53-2.92-1.14-2.87-1.37,1-.28,1.08-.51,3.5.3,3.55.07-3.89-1.39-3.83-1.62,3.07.21,3.12,0-2.06-1-2-1.22,3.06.24,3.12,0,.64-.34.7-.57-2.54-1.11-2.48-1.35-1.6-.9-1.55-1.13,1.26-.18,1.32-.42,3.88.49,3.94.26-3.06-1.28-3-1.51.78-.3.84-.53,2,0,2.09-.19-1.71-1-1.64-1.18-1.23-.83-1.17-1.07,1.67,0,1.73-.27-1.41-.89-1.35-1.13,1.42-.1,1.48-.33-1.79-1-1.73-1.24,3.41.47,3.48.24-3.33-1.46-3.26-1.7,4.42.79,4.49.56-1.82-1-1.75-1.26,0-.51,0-.74-1.31-.9-1.24-1.13-.53-.67-.46-.9,3.74.64,3.81.41-1-.82-1-1-.8-.75-.73-1-1.47-1-1.4-1.21,4.83,1.05,4.91.82.43-.36.5-.59-5-2.15-4.95-2.37,4.93,1.12,5,.89-2.72-1.42-2.65-1.64,1.72.07,1.8-.16,1.38,0,1.46-.26-3.8-1.81-3.73-2,4.36,1,4.44.77-4.87-2.2-4.79-2.43,5.09,1.28,5.17,1.06-2.26-1.31-2.18-1.54,1.19-.08,1.27-.31-1.63-1.1-1.55-1.33-1-.89-.95-1.12,3.58.81,3.66.58,1-.13,1.09-.35-.38-.65-.29-.88-.41-.66-.32-.88,1.36,0,1.45-.22-.15-.56-.06-.78-.42-.68-.33-.9,1.07-.09,1.16-.31-1.13-1-1-1.18-.72-.81-.63-1-2.25-1.42-2.16-1.65,3.75,1,3.84.78-2.88-1.7-2.79-1.92,2.61.55,2.7.33-2.49-1.56-2.4-1.78,3.11.78,3.21.56.78-.19.87-.41.12-.47.22-.69-3.05-1.83-3-2,4,1.18,4.05,1-.38-.68-.28-.9-3.55-2.09-3.45-2.3,5.08,1.72,5.18,1.5-3.36-2-3.26-2.24-1.05-1-.95-1.23.16-.46.26-.68,1.27.05,1.37-.17,3.84,1.24,3.94,1,.25-.4.36-.62-3.55-2.19-3.45-2.4,3.53,1.13,3.63.91-2.1-1.53-2-1.74-.54-.8-.44-1-.89-1-.79-1.19,4.86,1.82,5,1.61-1.06-1-1-1.26-2.73-1.88-2.62-2.1,4.4,1.65,4.5,1.44-2.2-1.64-2.1-1.85,1.94.43,2.05.22.66-.2.76-.41-1.32-1.21-1.21-1.43-.72-.91-.61-1.12-1.87-1.52-1.76-1.73.27-.41.38-.62,4.59,1.86,4.7,1.65-3.21-2.24-3.1-2.45.77-.14.88-.35-.37-.76-.26-1,4.22,1.74,4.34,1.53-1.2-1.19-1.09-1.4-1.06-1.13-.94-1.34,0-.56.1-.77-.65-.92-.53-1.13,2.72,1,2.84.77-2.3-1.85-2.18-2.06.77-.12.89-.33,2.74,1,2.86.81-1.24-1.26-1.12-1.47S355.9-235,356-235.18s0-.55.14-.76,3.3,1.37,3.42,1.17-1.37-1.36-1.24-1.57,2.58,1,2.7.77.68-.15.81-.35-3.43-2.62-3.3-2.82,1.22.17,1.35,0,.5-.26.63-.46,2.65,1.07,2.78.86-.59-.92-.46-1.13.73-.09.86-.3-.78-1-.65-1.25-3-2.46-2.87-2.66,1.6.44,1.73.23.67-.14.8-.35.35-.35.48-.55-1.65-1.64-1.52-1.84,2,.71,2.11.51-1.5-1.57-1.37-1.77,3.43,1.68,3.57,1.48-1-1.24-.88-1.44,2.88,1.34,3,1.14-1.67-1.69-1.53-1.89,1.94.74,2.08.54-1.76-1.77-1.62-2,2.76,1.31,2.89,1.11-3.9-3.26-3.76-3.46,0-.6.12-.8.38-.33.52-.53.3-.39.44-.58,3.07,1.57,3.21,1.38-2.22-2.17-2.08-2.37,2.86,1.45,3,1.26-2.64-2.49-2.5-2.68,4.27,2.48,4.41,2.29-.64-1.05-.5-1.25.46-.25.6-.45-.54-1-.39-1.18.58-.17.72-.36.74-.05.88-.24-.14-.7,0-.89-2.6-2.56-2.46-2.75,1.37.42,1.51.23.94.11,1.09-.09,2.11,1,2.26.83.84,0,1-.14-.72-1.17-.58-1.36-.32-.86-.17-1,2.48,1.34,2.63,1.15-3.49-3.37-3.34-3.56-.31-.86-.16-1,4.15,2.7,4.3,2.51-2-2.22-1.85-2.4,1.72.77,1.87.58-.65-1.14-.49-1.33.69,0,.84-.23-1.87-2.17-1.72-2.36,2.31,1.28,2.46,1.1,1.16.34,1.31.16-2.06-2.36-1.91-2.54,2.05,1.09,2.2.9.28-.39.43-.57-.73-1.26-.58-1.45,2.62,1.62,2.78,1.44.17-.48.32-.67-.81-1.34-.65-1.52.47-.22.62-.4-1.21-1.71-1.05-1.89,3,2,3.17,1.84-3-3.3-2.84-3.48,3.78,2.73,3.94,2.55-.3-.91-.14-1.09-1.67-2.15-1.51-2.33,2,1.16,2.16,1-.81-1.38-.65-1.56,2.55,1.7,2.71,1.52-3.77-4.14-3.6-4.31,2.54,1.69,2.7,1.52-1.78-2.33-1.62-2.5,3.77,2.87,3.93,2.7-.35-1-.19-1.16,1.19.47,1.36.29-1.33-1.93-1.17-2.1.3-.39.46-.56.87.17,1,0-.75-1.4-.58-1.58.94.25,1.11.08,1.5.81,1.67.64-1.37-2-1.21-2.21,1.81,1.12,2,.95.06-.61.23-.78-1.24-1.94-1.07-2.11,1,.33,1.17.16,2.42,1.78,2.59,1.61-1.91-2.64-1.74-2.81-1.18-1.91-1-2.08,3,2.45,3.22,2.29,1.45.82,1.62.66-1.76-2.54-1.58-2.7-1.14-1.91-1-2.07,3.57,3.08,3.75,2.91.49-.16.66-.33-.68-1.43-.51-1.59.14-.56.32-.73,1.53,1,1.71.8-2.45-3.38-2.28-3.54,2.79,2.34,3,2.17-.87-1.67-.69-1.83,2.21,1.74,2.39,1.58-2.48-3.49-2.31-3.65.3-.4.48-.56.41-.26.59-.42,1.13.54,1.31.39-.46-1.26-.28-1.42,2.75,2.43,2.93,2.27.73.12.91,0-1-1.87-.79-2,.85.26,1,.1-1.06-2-.88-2.14-.38-1.2-.2-1.35,3.32,3.19,3.5,3-1.22-2.2-1-2.35,0-.73.21-.88,2.17,1.88,2.36,1.73-1.71-2.83-1.53-3,1.09.57,1.28.42,0-.73.21-.88,2,1.7,2.18,1.55.57,0,.76-.19-2.6-4-2.41-4.18,2.15,1.94,2.34,1.79.41-.25.6-.4-.67-1.63-.48-1.78,1.26.83,1.45.68-1.33-2.51-1.14-2.65,2.44,2.38,2.63,2.23.94.44,1.13.29-2-3.36-1.77-3.51,3.46,3.79,3.66,3.64-2.76-4.46-2.56-4.6,3,3.19,3.18,3.05.26-.45.45-.59.41-.24.61-.38-1.66-3.07-1.47-3.21.62,0,.81-.12.55-.07.74-.21-.71-1.82-.52-2,2.86,3.16,3.06,3-2-3.66-1.82-3.8,1.54,1.33,1.73,1.2,1.71,1.59,1.91,1.45,1.12.79,1.32.65-2.66-4.67-2.46-4.8.86.39,1.06.25,2.89,3.37,3.09,3.23-.43-1.48-.23-1.61-1.29-2.75-1.09-2.88,1.66,1.6,1.86,1.47-1.26-2.75-1.06-2.88.67.12.87,0,3.08,3.8,3.28,3.66-1.43-3-1.23-3.18,1.68,1.7,1.88,1.57-.7-2-.5-2.09-.68-1.95-.48-2.08,2.27,2.65,2.47,2.52-.23-1.25,0-1.38-1-2.54-.83-2.67,1.33,1.2,1.53,1.07,1.38,1.29,1.58,1.16-.58-1.84-.38-2-.05-1,.15-1.14.87.5,1.08.37,2.42,3.07,2.63,2.94-1-2.55-.79-2.67-1.08-2.75-.88-2.88.85.48,1.06.35,2.39,3.1,2.6,3-.14-1.17.06-1.29.49-.12.7-.24-1.4-3.35-1.19-3.47,3.07,4.34,3.28,4.22-.72-2.2-.51-2.32-.63-2.07-.42-2.19,0-1,.19-1.14,2.14,2.83,2.35,2.71.88.6,1.09.49-.07-1.11.14-1.22-.59-2.08-.38-2.19.38-.32.59-.43-.26-1.49-.05-1.61,1.54,1.83,1.75,1.72-.54-2-.33-2.15,1.81,2.37,2,2.26-.22-1.45,0-1.56.72.33.93.22.46-.17.67-.28,1.48,1.82,1.69,1.71-1.34-3.66-1.13-3.77,1.46,1.79,1.67,1.68.34-.39.56-.5-.75-2.56-.54-2.66,1.56,2,1.78,1.93-.82-2.74-.61-2.85.81.54,1,.44.62.16.83.06,2.23,3.5,2.45,3.4-1.12-3.42-.9-3.53,1,1,1.24.92.22-.65.44-.75.7.38.92.27.12-.87.34-1,1.38,1.85,1.6,1.74.25-.57.47-.67-.27-1.75-.05-1.85.16-.81.38-.91,1.22,1.56,1.44,1.46.83.7,1.05.61.58.14.8,0-.32-1.92-.1-2-1-3.62-.83-3.72,1.78,2.91,2,2.82,1.21,1.61,1.44,1.52,0-1.29.18-1.39-.8-3.14-.58-3.23,1.54,2.43,1.76,2.34,1.06,1.31,1.28,1.22-.75-3.08-.53-3.17,1,1.27,1.26,1.17-.42-2.32-.2-2.41.7.44.92.35.74.55,1,.46-.44-2.44-.22-2.52.82.77,1.05.68,1.51,2.57,1.74,2.49-.73-3.21-.5-3.3,1,1.23,1.21,1.14-.4-2.41-.17-2.5,1.76,3.33,2,3.25.13-1,.36-1.11,1,1.26,1.2,1.18,0-1.29.26-1.37,0-1.48.2-1.56-.13-1.79.1-1.87,2.08,4.41,2.3,4.33-1.05-4.44-.83-4.52.75.67,1,.59,1.11,1.76,1.34,1.68.42-.24.65-.32-.09-1.77.14-1.85,1.29,2.36,1.52,2.28.3-.62.53-.69,1,1.47,1.21,1.4-.86-4.19-.64-4.26.4-.35.63-.43,1.13,1.95,1.36,1.88.86,1.14,1.09,1.07.71.7.94.63-.12-2,.11-2.08-.34-2.75-.11-2.82.55.14.78.07.21-1,.44-1,.67.55.9.49,1.36,2.92,1.59,2.85-.05-1.91.18-2,.11-1.36.34-1.43,1.22,2.53,1.45,2.47-.26-2.71,0-2.78.69.67.92.61.82,1.19,1.06,1.12,0-1.94.2-2,.79,1.09,1,1,.89,1.48,1.12,1.41.25-.92.48-1,.68.71.91.65-.12-2.41.11-2.47,1.05,2.17,1.28,2.11.77,1.14,1,1.08-.23-2.87,0-2.93.5,0,.73,0,1.06,2.38,1.3,2.33.07-1.76.3-1.82-.32-3.47-.09-3.53,1.51,4.36,1.74,4.31.6.48.83.43.42-.27.66-.33-.11-2.64.13-2.69.18-1.43.41-1.48.55.23.78.18.34-.73.57-.78.34-.75.58-.8,1.31,4,1.55,3.92.63.7.86.65-.34-4.12-.11-4.17,1.12,3.17,1.36,3.12.37-.58.6-.63.37-.62.6-.67.14-1.87.37-1.91.5,0,.73,0,.87,2,1.11,2,0-2.48.27-2.52,1.07,3.26,1.3,3.22-.22-4,0-4.08,1,2.82,1.21,2.78,0-3.18.19-3.22.76,1.65,1,1.62.19-1.83.43-1.86.72,1.46,1,1.42.43-.36.67-.4.36-.85.59-.88,1,3.42,1.24,3.39.12-2.45.36-2.49.79,2.09,1,2.06-.15-4.43.09-4.46.7,1.49.93,1.46.55.4.78.37.23-2,.47-2,.5.1.74.07.59.83.83.8.73,1.93,1,1.9.62,1.14.85,1.11.28-1.76.51-1.79.45-.36.68-.38.44-.46.67-.49.74,2.35,1,2.32.36-1.1.6-1.12.3-1.77.54-1.8.63,1.46.87,1.44.49.08.73.06.37-1.15.61-1.17.47-.16.71-.18.5.27.74.25.25-2.8.49-2.82.91,5.06,1.14,5,.06-5.2.3-5.22.64,1.84.88,1.82.55.91.79.89.44-.56.68-.58.5.26.74.25.48-.06.72-.07.64,2.55.88,2.53.42-.93.66-.94.54,1.15.78,1.13.26-4,.5-4,.68,3.73.92,3.72.5.5.74.49.29-4,.53-4.05.57,2,.81,2l.72-.06c.24,0,.37-2.93.61-2.94s.45-.9.69-.91.68,5.87.92,5.86.3-5.84.54-5.85.53,1.44.77,1.43.49,0,.73,0,.47-.59.71-.59.47-.85.71-.85.56,5,.8,5,.48.09.72.08.43-5.22.67-5.22.52,5.57.76,5.56.47-1.95.71-1.95.48,1.7.72,1.7.49-3.48.73-3.48l.72,0c.24,0,.49-.26.73-.26s.5-1.15.74-1.15.49-.46.73-.45.41,4.52.65,4.53.46,1,.7,1,.49-.62.73-.62.51-1.38.75-1.37.5-.58.74-.58.4,2.57.64,2.58.61-4,.85-4,.45,1,.69,1,.44,1.11.68,1.12.6-2.82.84-2.81.45.81.69.82.29,4,.53,4,.73-5.05,1-5,.46.65.7.66.5-.29.74-.27.39,1.65.63,1.66.47.22.71.23.59-1.58.83-1.57.34,2.13.58,2.15.53-.76.77-.74.64-2.1.88-2.09.28,2.74.52,2.76.48.11.72.13.59-1.35.83-1.33.15,3.94.39,4,.77-3.31,1-3.29.49,0,.73,0,.54-.67.78-.65.39,1,.63,1,.27,2.2.51,2.23.37,1.07.6,1.09,1-4.77,1.23-4.74,0,4.93.19,4.95,1.06-5.26,1.3-5.23.43.56.67.58.38.95.62,1,.08,3.39.32,3.42.84-2.95,1.08-2.92.4.71.63.74.81-2.45,1-2.42.39.73.63.76,0,3.4.27,3.43.24,1.79.48,1.82.65-1.27.89-1.24,1-3.61,1.24-3.57.39.68.63.72.64-1,.88-.95.12,2.4.36,2.43.64-1,.87-.91.43.43.66.46.12,2.34.35,2.38.75-1.61,1-1.57.47.12.71.16.11,2.21.34,2.25,1.11-3.61,1.35-3.57l.71.14c.24.05.12,2.12.35,2.16s.59-.55.83-.5.16,1.78.4,1.82,1-3,1.28-2.94.14,1.84.38,1.88.26,1.19.5,1.23.25,1.18.49,1.23.91-2.16,1.15-2.11.43.28.67.33-.07,2.72.16,2.76,1-2.3,1.2-2.25.05,2.09.29,2.14.81-1.51,1-1.46,1-2.38,1.25-2.33-.52,4.56-.28,4.62.79-1.38,1-1.33.95-2,1.19-2,.76-1.14,1-1.09-.28,3.36,0,3.41.42.29.66.34.42.28.65.34,1.27-3.17,1.5-3.12.48.08.72.14.25,1,.48,1.06.23,1,.47,1.11.86-1.42,1.09-1.36-.48,3.81-.25,3.87.53-.14.76-.08,1.48-3.72,1.71-3.66.62-.44.86-.38-1,5.37-.72,5.43,1.56-3.91,1.79-3.85,0,1.74.26,1.8-.26,2.71,0,2.78,1.29-2.81,1.52-2.75.65-.53.88-.46.76-.86,1-.8.18,1.09.41,1.16.6-.29.83-.22-.09,2,.14,2.05.11,1.3.34,1.36,1.35-2.78,1.58-2.71-.44,3.05-.21,3.12.16,1.08.39,1.15.73-.72,1-.65.78-.9,1-.83,1.1-1.87,1.33-1.79-.37,2.71-.14,2.79.3.6.53.68,1.53-3.11,1.76-3,.83-.94,1.06-.87-.33,2.5-.1,2.58-.66,3.42-.43,3.5,1.11-1.8,1.34-1.72.25.75.48.82.47.09.7.17.65-.42.88-.34.68-.49.91-.41.92-1.14,1.15-1.06,1-1.37,1.23-1.29.16,1,.39,1.07.39.35.61.43-.64,3.11-.41,3.19,1-1.19,1.18-1.11.76-.65,1-.57.15,1,.38,1,.36.39.59.48-.41,2.37-.19,2.46,2-3.78,2.22-3.69-1,3.9-.8,4,1.34-2.07,1.56-2,.33.47.55.56-.13,1.6.09,1.69,0,1.21.24,1.3,2.61-5.07,2.83-5,.28.6.5.7-.7,2.94-.48,3,.47.1.7.2-.17,1.6.05,1.69.23.67.45.76.64-.27.86-.18,2-3.47,2.26-3.38.34.44.56.54-.84,3.08-.62,3.17,1.36-1.86,1.58-1.76.59-.14.81,0,.64-.24.86-.14.55,0,.77.06.35.39.57.49-.23,1.65,0,1.75,1.55-2.17,1.77-2.06-1.6,4.52-1.38,4.62.27.53.49.63,2.14-3.38,2.36-3.27-.28,1.69-.06,1.79.21.66.43.77,1.5-2,1.71-1.87-1.23,3.59-1,3.69,1.77-2.5,2-2.39.64-.2.86-.1-.53,2.13-.32,2.24,1.3-1.49,1.51-1.38-1,3.05-.8,3.16-.07,1.17.14,1.28,2.49-3.76,2.7-3.65.16.74.37.86-1.17,3.26-1,3.37,2.83-4.31,3-4.19-.62,2.18-.4,2.29-.94,2.76-.73,2.87,2.72-4,2.93-3.91-1.55,3.86-1.34,4,1.22-1.21,1.43-1.1.48.12.69.23-.72,2.29-.51,2.41,1.58-1.84,1.79-1.72.7-.28.91-.16.17.68.38.8-.57,2-.36,2.09,1.18-1.1,1.39-1,1.36-1.39,1.56-1.27-.35,1.58-.15,1.7.64-.14.85,0-1.25,3-1,3.18.89-.57,1.09-.44.34.36.54.49,2.48-3.18,2.68-3.06-1.52,3.45-1.32,3.57-.06,1,.14,1.15,2.92-3.84,3.13-3.72-1.32,3.05-1.12,3.18.37.32.57.45,1-.71,1.21-.58,1-.67,1.2-.54-.16,1.16,0,1.28,1.36-1.24,1.57-1.11-.8,2.13-.6,2.26-1,2.38-.76,2.51,1.91-2.07,2.11-1.94.16.64.36.77-.55,1.7-.35,1.83,2.67-3.16,2.87-3-.26,1.26-.06,1.4.71-.21.91-.07-.34,1.37-.14,1.51-1.15,2.54-1,2.67,3.44-4.17,3.64-4-1.31,2.76-1.12,2.9-.5,1.56-.3,1.7,2-2.08,2.23-1.94-.85,2-.65,2.18,1.58-1.41,1.77-1.27.06.76.25.9.87-.39,1.07-.25.77-.25,1-.11.43.22.63.36-.95,2.13-.75,2.27.65-.08.84.06l.59.42c.19.15-.83,1.92-.64,2.07s2.9-3.1,3.09-2.95-2.37,4-2.18,4.12.34.33.53.48,1-.48,1.15-.34,2-1.76,2.14-1.62-.79,1.82-.6,2-.05.85.14,1,3.16-3.29,3.35-3.15-3,4.64-2.81,4.79.49.14.68.29,2.08-1.87,2.26-1.72-.34,1.2-.15,1.35-.35,1.2-.16,1.35-.17,1,0,1.12,3.65-3.75,3.84-3.6.31.4.49.55-.55,1.43-.36,1.59-1.53,2.61-1.35,2.76,2.09-1.77,2.27-1.61,1.51-1.06,1.7-.9-2.25,3.43-2.07,3.59,3.06-2.89,3.24-2.73-.17.95,0,1.11-2.1,3.21-1.92,3.36,1.78-1.34,2-1.18,1.48-1,1.66-.83-2,3.1-1.86,3.26,1.29-.76,1.47-.6,1.64-1.15,1.82-1-1.61,2.56-1.43,2.72,1.57-1.06,1.75-.9,1.06-.46,1.24-.3.63,0,.81.18.89-.26,1.07-.1-3,4-2.78,4.14,3.62-3.26,3.8-3.1-2.38,3.3-2.2,3.46.15.54.32.71.12.57.29.73.16.53.33.69,3.13-2.63,3.31-2.47-.42,1.15-.24,1.31-.91,1.65-.74,1.82,2.65-2.08,2.83-1.92-.32,1-.15,1.2-.63,1.34-.46,1.51.45.23.62.4.64,0,.81.2,1.4-.73,1.57-.56-1.55,2.25-1.38,2.42-.68,1.35-.51,1.52,3.25-2.57,3.42-2.4-.76,1.44-.6,1.61-.11.78.06.95.58.11.74.28-.66,1.32-.5,1.49,1.21-.5,1.38-.33,0,.62.21.79,3-2.24,3.2-2.07-.26.92-.09,1.09.92-.2,1.09,0-3.28,3.76-3.12,3.93.48.21.64.38,3.43-2.54,3.59-2.36,0,.69.13.87-2.59,3-2.43,3.22.13.53.29.7,2.58-1.7,2.74-1.52-.95,1.5-.79,1.68,2.57-1.66,2.73-1.48,1.11-.35,1.27-.17.39.31.55.49-.32.93-.16,1.11-.31.92-.15,1.1-2.71,3-2.55,3.19,3-2,3.15-1.79-1.44,1.88-1.28,2.06,2.68-1.67,2.83-1.49,1-.24,1.19-.06-.45,1-.3,1.21,1.11-.3,1.26-.12-1,1.46-.82,1.64,1.26-.42,1.41-.23,0,.61.18.8-.75,1.24-.6,1.43-.75,1.24-.6,1.42-.45,1-.3,1.17,2-1,2.14-.81-.61,1.11-.46,1.3,1.24-.39,1.39-.2,2.24-1.16,2.39-1,.35.35.49.54-.67,1.15-.53,1.34-2.62,2.67-2.48,2.86,2.73-1.52,2.88-1.33-2.51,2.55-2.36,2.74.79,0,.94.17.61.14.75.33.93-.11,1.07.09,1.34-.42,1.49-.23,1.73-.7,1.88-.5-3.45,3.17-3.3,3.36,3.32-1.87,3.46-1.67-2.42,2.38-2.28,2.57,0,.58.16.78,2.58-1.3,2.72-1.1,2.19-1,2.33-.79-1.09,1.38-1,1.57-.66,1.07-.52,1.26-1.68,1.79-1.55,2,.44.27.58.47.83,0,1,.19,1.79-.67,1.93-.47,2.28-1,2.41-.79-4.48,3.68-4.35,3.88,3.69-2,3.83-1.76.57.2.71.39-2.71,2.42-2.57,2.62,3.71-1.92,3.84-1.73-3,2.61-2.89,2.81,2.38-1,2.51-.81-1.8,1.77-1.67,2,1.37-.33,1.5-.13,1.07-.12,1.2.08-.18.69-.05.89-.79,1.08-.66,1.28,0,.58.11.78-.64,1-.51,1.17,2.06-.74,2.19-.54-.22.71-.1.91,2.27-.85,2.4-.64,1.65-.45,1.77-.25-1.41,1.44-1.29,1.65-3,2.37-2.83,2.58,1.39-.29,1.51-.09.82.06,1,.27.91,0,1,.22,2-.65,2.14-.44-.86,1.07-.74,1.28.8.09.93.3.12.49.24.69-.52.86-.4,1.07,1.75-.45,1.87-.24,1,0,1.07.22-3.29,2.43-3.17,2.64,2.26-.73,2.38-.52-3,2.26-2.93,2.47.06.51.18.72.91,0,1,.24,1.44-.25,1.55,0,.1.49.21.7,1.64-.34,1.75-.13,1.25-.12,1.36.09,0,.55.11.76-3,2.14-2.88,2.35,1.16-.07,1.27.14.15.46.26.67,2.61-.81,2.72-.6-2.94,2.06-2.83,2.28-.55.81-.44,1,1.66-.32,1.77-.1-.76.91-.65,1.13,1.86-.41,2-.19,2.21-.57,2.31-.35-3.6,2.32-3.49,2.54,3.37-1.13,3.47-.91-1.12,1.08-1,1.3,1.73-.3,1.83-.09-2.58,1.78-2.48,2,3-.93,3.15-.71-3.65,2.26-3.54,2.48,1.88-.37,2-.15,3.18-1,3.28-.74-2.43,1.66-2.33,1.88,2.62-.67,2.72-.46-2.55,1.69-2.45,1.91-1.14,1-1,1.26,4.66-1.57,4.76-1.35-4.1,2.36-4,2.57,1.07.05,1.17.27,2.27-.48,2.37-.26.64.25.74.47-.27.64-.17.86.66.25.75.47.84.17.93.39-2.27,1.48-2.18,1.71,1,.1,1.09.32,1.83-.23,1.92,0-3.25,1.86-3.16,2.08-1.11,1-1,1.19,4.91-1.47,5-1.25-1,.92-.9,1.14,2-.26,2.06,0-4.59,2.33-4.51,2.56,1.87-.22,2,0-2.07,1.32-2,1.54,2.9-.61,3-.38-.53.71-.44.94-.47.68-.38.91,3.4-.76,3.48-.54-.11.56,0,.78-2.94,1.6-2.86,1.83,3.34-.71,3.42-.49-4.06,2-4,2.21,4.83-1.22,4.91-1-4.42,2.08-4.34,2.31,5.16-1.31,5.24-1.08-4.55,2.1-4.47,2.32.24.42.32.65,1.39,0,1.46.25,2.67-.39,2.74-.16.37.39.44.61.6.32.67.55-4.66,2-4.59,2.27,3.75-.72,3.82-.49.77.26.84.49.61.31.69.54.17.46.25.69-2.31,1.23-2.24,1.45.9.23,1,.46,2.08-.13,2.15.1-2.49,1.26-2.43,1.49.73.28.8.51,1.77,0,1.84.21-.64.69-.57.92-2.19,1.14-2.12,1.37-1.64,1-1.57,1.2,2.49-.22,2.56,0,2.87-.3,2.94-.07-2,1.07-2,1.3,1.14.18,1.21.42.11.46.18.7-3.64,1.47-3.58,1.7,5.48-1,5.54-.73-4.9,1.79-4.84,2,1.46.12,1.52.35.06.48.12.71-.73.67-.67.91-.62.64-.56.87,3-.25,3.06,0,2.42-.09,2.47.14-2.84,1.19-2.79,1.42-1.08.75-1,1,4.44-.55,4.49-.31-3.54,1.32-3.49,1.55.24.44.29.67.68.34.73.57.26.44.31.67-.83.68-.78.91,1.87.09,1.92.32-2,.92-2,1.16,4.05-.36,4.1-.13-.06.51,0,.75-.27.55-.23.79-.69.63-.64.87-3.59,1.2-3.54,1.43.81.33.86.56,1.64.17,1.69.41-1.88.84-1.83,1.08,3.85-.23,3.89,0-3.82,1.19-3.78,1.43,3.62-.17,3.66.07.3.44.34.67-.34.56-.3.79-3.61,1.11-3.57,1.34.87.34.91.58,2.49.07,2.53.3-.38.55-.34.79.63.39.67.63-.72.6-.69.83-2.57.88-2.53,1.12,1.27.29,1.3.53.4.42.44.66-.42.54-.38.78-.51.55-.47.79,4.77-.19,4.8,0-4.14,1.05-4.11,1.29,3.83,0,3.86.21-4.83,1.12-4.8,1.36,5.44-.21,5.47,0,.22.47.25.71-1.05.62-1,.85,1.19.35,1.22.59-4.24,1-4.22,1.22,1.71.29,1.73.52-2.95.81-2.93,1.05,4.33,0,4.36.25-3.11.81-3.09,1,1.21.35,1.24.59-2.28.71-2.25.94,1.74.31,1.76.55,3,.21,3,.45.25.47.27.71-.39.52-.37.76-1.35.6-1.33.83.73.43.75.67-2.35.66-2.34.9,3.83.2,3.85.44-2,.62-1.95.86,2.29.33,2.31.57.42.46.43.7-.26.51-.24.75-.33.5-.32.74-3.66.7-3.65.94.23.46.24.7.91.43.92.67,1.61.41,1.62.65.52.46.53.7-1.61.55-1.6.79,1.88.41,1.88.65-2.36.57-2.35.81,1.12.44,1.13.68.9.46.91.7-4.27.6-4.26.85,5.67.32,5.67.56-1.85.53-1.85.77.7.47.71.71.82.48.82.72-5.34.56-5.33.8,2.13.45,2.14.69.35.48.35.72,2.87.46,2.87.7-3.11.5-3.11.74S825-109.16,825-108.92Z"/></g><path class="cls-4" d="M183.38,331.27c11.2-34.71,21.09-31.68,28.88-61,4.4-16.56,9.41-43.09,5.93-69.52l-.73-.74c-3.94,28.61-23.43,70.58-47.41,86.57-29.63,18.26-49.74,53.84-49.74,94.75,0,60.15,43.49,108.88,96.95,107.74C177.66,461.11,166.49,383.65,183.38,331.27Z"/><path class="cls-5" d="M140.51,381.34c0-40.91,20.11-76.49,49.74-94.75,9-6,17.41-15.71,24.57-27,3.46-16.16,6.18-37.53,3.37-58.84l-.73-.74c-3.94,28.61-23.43,70.58-47.41,86.56-29.63,18.27-49.74,53.85-49.74,94.76,0,60.15,43.49,108.88,96.95,107.74-1.31-.92-2.58-1.9-3.82-2.92C171.56,474.83,140.51,432.16,140.51,381.34Z"/><path class="cls-4" d="M330,286.59c-24-16-43.47-57.95-47.41-86.57l-1.17,1.17c-3.36,26.29,2.63,52.62,7,69.09,2.7,10.16,5.44,19.66,12,27.91.2,0,4.44,7,4.54,7.21.95,1.65,1.86,3.32,2.68,4.9,30.6,59.33,16.38,149.4-25.17,178.77,53.52,1.38,97.3-47.35,97.3-107.73C379.69,345.41,351.5,299.87,330,286.59Z"/><path class="cls-5" d="M331.11,310.3c-.82-1.58-1.73-3.25-2.68-4.9-.09-.17-4.34-7.21-4.53-7.21-6.53-8.25-9.27-17.74-12-27.91-.17-.64-.34-1.3-.52-2-15-19.8-26-47.54-28.87-68.28l-1.16,1.17c-3.37,26.28,2.62,52.61,7,69.08,2.7,10.17,5.44,19.66,12,27.91.2,0,4.44,7,4.54,7.21.95,1.65,1.86,3.32,2.68,4.9,30.61,59.34,16.38,149.4-25.17,178.77a84.65,84.65,0,0,0,28.95-4.29C348.68,451.72,360.35,367,331.11,310.3Z"/><path class="cls-6" d="M229,94.05a315.72,315.72,0,0,1,16.61,34.81A281.08,281.08,0,0,1,255.88,96c-3.1-29.16-11.08-64.2-29.94-94.66a2.91,2.91,0,0,0-5.36,1.8Z"/><path class="cls-7" d="M246.22,91.32l-5.62-60.4A182.42,182.42,0,0,0,225.94,1.38a2.91,2.91,0,0,0-5.36,1.81L229,94.05a315.72,315.72,0,0,1,16.61,34.81c1.77-7.15,3.9-14.62,6.45-22.25q-1.51-3-3.08-5.94A24.6,24.6,0,0,1,246.22,91.32Z"/><path class="cls-6" d="M287.2,38.07c-22.84,27.64-35.52,61.3-42.56,89.78a133.63,133.63,0,0,1,7.45,25.64h14.29c1.35-8.47.37-3.56,25.88-112.9A2.9,2.9,0,0,0,287.2,38.07Z"/><path class="cls-7" d="M262.26,119.71c5.44-19.6,13.58-41,25.77-61,1.33-5.66,2.73-11.68,4.23-18.11a2.91,2.91,0,0,0-5.07-2.52c-22.83,27.64-35.51,61.29-42.55,89.77a134,134,0,0,1,7.45,25.64h14.29c.2-1.26.35-2.22.54-3.31a135.09,135.09,0,0,0-4.21-15.38A25.63,25.63,0,0,1,262.26,119.71Z"/><path class="cls-6" d="M169.33,22.05A2.91,2.91,0,0,0,165,25.71c50.7,99.27,54.33,103.7,60.59,127.78H253.1C246.31,116.83,213.61,54.82,169.33,22.05Z"/><path class="cls-7" d="M169.33,22.05A2.91,2.91,0,0,0,165,25.71c50.7,99.27,54.33,103.7,60.59,127.78h20.2c-5.79-22.29-9.34-27.75-50.06-107.2A183.1,183.1,0,0,0,169.33,22.05Z"/><path class="cls-4" d="M303.37,298.19a76.83,76.83,0,0,1-14-27.91c-7-26.22-15.48-77.4,10.6-113.66a2.6,2.6,0,0,0-2.08-4.14H201.72a2.6,2.6,0,0,0-2.08,4.14c26.08,36.26,17.57,87.44,10.6,113.66a76.84,76.84,0,0,1-14,27.91h0C145.87,371.77,181,500,249.81,500c38.68,0,70.72-43.13,76.39-99.43C332.66,336.38,303.37,298.19,303.37,298.19Z"/><path class="cls-5" d="M216.94,298.19a76.84,76.84,0,0,0,14-27.91c7-26.22,15.48-77.4-10.6-113.66a2.6,2.6,0,0,1,2.08-4.14H201.72a2.6,2.6,0,0,0-2.08,4.14c26.08,36.26,17.57,87.44,10.6,113.66a76.84,76.84,0,0,1-14,27.91C145.87,371.77,181,500,249.81,500a51.6,51.6,0,0,0,10.26-1C198.27,486.82,169.16,368,216.94,298.19Z"/></svg>