<svg id="圖層_1" data-name="圖層 1" xmlns="http://www.w3.org/2000/svg" viewBox="0 0 500 500"><defs><style>.cls-1{fill:#b78855;}.cls-2{fill:#a3764a;}.cls-3{fill:#e0b377;}.cls-4{fill:#cc9a5e;}</style></defs><path class="cls-1" d="M233.48,321.15h0a9.28,9.28,0,0,1-2.37-3c-8.69-17.66,35.41-58.11,108.44-94.09C356,216,372,206,387.13,200.16,363.81,142.83,302.35,101.8,238,101.8,156.14,101.8,0,168.15,0,250,0,377.65,156.14,398.2,238,398.2a160.76,160.76,0,0,0,62.67-13C270.25,372.09,251.38,349.74,233.48,321.15Z"/><path class="cls-2" d="M18.9,250c0-59.73,77.86-111.73,155.06-138.67C93.68,132.5,0,186.6,0,250c0,77.35,57.33,115.37,120.72,133.33C64.61,361.4,18.9,321.38,18.9,250Z"/><path class="cls-1" d="M488.53,187.36l-263.1,133.8c40.43,64.56,126.86,97.36,195.6,63.51C490.9,350.25,517.3,259.35,488.53,187.36Z"/><path class="cls-2" d="M441.25,371.27c-67.9,33.44-153,1.83-194.09-61.17l-21.73,11.06c40.43,64.56,126.86,97.36,195.6,63.51a130.86,130.86,0,0,0,24.21-15.46Q443.26,370.26,441.25,371.27Z"/><ellipse class="cls-3" cx="355.32" cy="253.05" rx="147.42" ry="35.64" transform="translate(-75.24 183.06) rotate(-26.22)"/><path class="cls-4" d="M242.61,318.16c-8.7-17.66,43.46-61.13,116.49-97.1,45.74-22.53,88.83-36.78,116.78-39.94C452.16,177,398,192.25,339.55,221.06c-73,36-125.18,79.44-116.49,97.1,3.25,6.6,14.54,8.66,31.22,6.77C248.37,323.9,244.34,321.68,242.61,318.16Z"/><path class="cls-4" d="M135.13,246.93a7.55,7.55,0,0,1-7.54-7.55v-7.5a7.55,7.55,0,1,1,15.09,0v7.5A7.55,7.55,0,0,1,135.13,246.93Z"/><path class="cls-4" d="M210.45,246.93a7.55,7.55,0,0,1-7.54-7.55v-7.5a7.55,7.55,0,1,1,15.09,0v7.5A7.55,7.55,0,0,1,210.45,246.93Z"/><path class="cls-4" d="M245.65,174a7.55,7.55,0,0,1-7.55-7.55V158.9a7.55,7.55,0,0,1,15.1,0v7.51A7.55,7.55,0,0,1,245.65,174Z"/><path class="cls-4" d="M66.86,246.93a7.55,7.55,0,0,1-7.55-7.55v-7.5a7.55,7.55,0,1,1,15.09,0v7.5A7.55,7.55,0,0,1,66.86,246.93Z"/><path class="cls-4" d="M99.94,329.29a7.55,7.55,0,0,1-7.55-7.55v-7.51a7.55,7.55,0,0,1,15.1,0v7.51A7.55,7.55,0,0,1,99.94,329.29Z"/><path class="cls-4" d="M170.33,329.29a7.54,7.54,0,0,1-7.54-7.55v-7.51a7.55,7.55,0,0,1,15.09,0v7.51A7.55,7.55,0,0,1,170.33,329.29Z"/><path class="cls-4" d="M170.33,174a7.54,7.54,0,0,1-7.54-7.55V158.9a7.55,7.55,0,0,1,15.09,0v7.51A7.55,7.55,0,0,1,170.33,174Z"/><path class="cls-3" d="M406.77,339.45l7.19-3.13a7.55,7.55,0,1,1,6,13.84l-7.19,3.13C403.54,357.33,397.74,343.39,406.77,339.45Z"/><path class="cls-3" d="M333.25,349.21a7.55,7.55,0,0,1,3.94-9.92l6.89-3a7.55,7.55,0,0,1,6,13.86l-6.89,3A7.55,7.55,0,0,1,333.25,349.21Z"/></svg>