<svg id="圖層_1" data-name="圖層 1" xmlns="http://www.w3.org/2000/svg" viewBox="0 0 500 500"><defs><style>.cls-1{fill:#0b5345;}.cls-2{fill:#e5dfdc;}</style></defs><path class="cls-1" d="M406.25,500H93.75A93.75,93.75,0,0,1,0,406.25V93.75A93.75,93.75,0,0,1,93.75,0h312.5A93.75,93.75,0,0,1,500,93.75v312.5A93.75,93.75,0,0,1,406.25,500Z"/><path class="cls-2" d="M250,130.2c-68.91,0-125,45.82-125,102.11C125,282.73,169.48,325,229.53,333c4.08.86,9.61,2.7,11,6.19,1.25,3.15.83,8,.39,11.31l-1.71,10.69c-.46,3.15-2.5,12.44,10.93,6.76s72-42.75,98.29-73.11c18-19.79,26.55-40.07,26.55-62.54C375,176,318.91,130.2,250,130.2ZM201.08,265.8H176.22a6.62,6.62,0,0,1-6.56-6.6v-50a6.56,6.56,0,1,1,13.12,0v43.4h18.3a6.61,6.61,0,0,1,0,13.21Zm25.69-6.58a6.56,6.56,0,1,1-13.11,0v-50a6.56,6.56,0,1,1,13.11,0Zm59.79,0a6.6,6.6,0,0,1-4.5,6.25,6.75,6.75,0,0,1-2.08.33,6.39,6.39,0,0,1-5.31-2.63l-25.45-34.76v30.81a6.55,6.55,0,1,1-13.09,0v-50a6.55,6.55,0,0,1,4.48-6.23,6,6,0,0,1,2-.34,6.74,6.74,0,0,1,5.15,2.65l25.64,34.91v-31a6.57,6.57,0,1,1,13.13,0v50Zm40.16-31.63a6.61,6.61,0,0,1,0,13.22H308.44v11.8h18.28a6.6,6.6,0,0,1,0,13.2H301.86a6.59,6.59,0,0,1-6.53-6.59v-50a6.61,6.61,0,0,1,6.56-6.61h24.86a6.61,6.61,0,0,1,0,13.22H308.44v11.8h18.28Z"/></svg>