<svg id="圖層_1" data-name="圖層 1" xmlns="http://www.w3.org/2000/svg" viewBox="0 0 500 500"><defs><style>.cls-1{fill:#0b5345;}.cls-2{fill:#e5dfdc;}</style></defs><path class="cls-1" d="M406.25,500H93.75A93.75,93.75,0,0,1,0,406.25V93.75A93.75,93.75,0,0,1,93.75,0h312.5A93.75,93.75,0,0,1,500,93.75v312.5A93.75,93.75,0,0,1,406.25,500Z"/><path class="cls-2" d="M250.05,185.81A64.14,64.14,0,1,0,314.19,250,64.13,64.13,0,0,0,250.05,185.81Zm0,105.78A41.64,41.64,0,1,1,291.69,250a41.64,41.64,0,0,1-41.64,41.64Z"/><path class="cls-2" d="M301.55,125.78c-23-1.08-80-1-103,0-20.24,1-38.08,5.84-52.46,20.22-24,24.05-21,56.44-21,104,0,48.63-2.7,80.28,21,104,24.13,24.12,57,21,104,21,57.54,0,120.51,5.51,124.17-73.43,1.08-23,1-80,0-103-2.06-43.89-25.63-70.5-72.67-72.69ZM337.94,338c-15.77,15.77-37.63,14.36-88.22,14.36-52.08,0-73,.77-88.22-14.52-17.56-17.47-14.37-45.53-14.37-88,0-103.91,6-102.58,102.43-102.58l.47.31c103.47,0,102.41,6.7,102.41,102.42C352.45,301.42,353.44,322.44,337.94,338Z"/><circle class="cls-2" cx="316.73" cy="183.28" r="14.98"/></svg>