<?xml version="1.0" encoding="UTF-8"?><svg id="_圖層_1" xmlns="http://www.w3.org/2000/svg" viewBox="0 0 500 500"><defs><style>.cls-1{fill:#e5dfdc;}</style></defs><path class="cls-1" d="M25.55,369.89c-.24-.02-.5-.03-.74-.07s-.39-.54-.63-.59-.82,1.3-1.06,1.23,.07-1.97-.17-2.05-1.09,1.61-1.32,1.52-.12-1.04-.35-1.14-.92,.73-1.14,.62,.2-1.44-.01-1.56-.52-.07-.73-.2-.04-.8-.24-.94-1.41,1.11-1.6,.96-.45-.28-.64-.43-.51-.21-.69-.38,1.11-1.96,.93-2.13-1.94,1.32-2.12,1.15,.82-1.51,.65-1.68-.49-.2-.66-.38,.72-1.26,.56-1.45-1.97,1.04-2.12,.85-.62-.15-.78-.34,.14-.75-.01-.94c-.15-.2,1.25-1.51,1.11-1.71s-1.25,.29-1.39,.09-.19-.47-.32-.67,.36-.81,.23-1.01-.16-.46-.28-.66-.24-.4-.36-.61-2.02,.55-2.13,.34,1.37-1.26,1.26-1.48-.22-.41-.32-.63-2,.35-2.09,.13-.29-.45-.38-.68,1.39-1.05,1.31-1.28-1.05-.17-1.12-.4,.03-.54-.03-.77-.13-.49-.18-.73-.87-.37-.9-.61,2.26-.79,2.23-1.03-2.11-.31-2.13-.55,.72-.53,.72-.77-.4-.52-.38-.76,1.95-.25,1.98-.49-1.36-.68-1.31-.92-.72-.68-.65-.91c.05-.23,1.35-.15,1.41-.39s.37-.35,.45-.58-.11-.52-.02-.75,1.17,.05,1.28-.17,.09-.41,.21-.63,.2-.37,.33-.58-.78-1.02-.64-1.22-1.02-1.3-.88-1.51,1.36,.38,1.51,.18-.29-.86-.14-1.05,.25-.45,.41-.64,1.88,1.03,2.04,.85-.93-1.51-.76-1.68,1.69,.99,1.86,.82-.07-.72,.11-.89,.25-.41,.43-.58-.18-.91,0-1.07,1.35,.83,1.53,.68-1.47-2.49-1.28-2.64,.87,.27,1.06,.12,.42-.26,.62-.41,1.43,1.07,1.62,.92-.56-1.54-.36-1.69,1.43,1.05,1.63,.91c.18-.16-1.32-2.32-1.14-2.48s1.65,1.13,1.83,.97,.9,.27,1.08,.11,.25-.45,.42-.62-.35-1.08-.17-1.25,.11-.58,.28-.75,0-.69,.17-.86,.16-.51,.33-.68,1.4,.73,1.57,.55,.63-.06,.8-.23-.45-1.11-.28-1.28,1.09,.37,1.26,.2,.06-.61,.23-.79,.51-.19,.68-.36-.52-1.13-.36-1.31,.02-.62,.18-.8,1.52,.7,1.67,.52-1.38-1.84-1.22-2.02,2.29,1.34,2.44,1.15,.27-.41,.43-.59-.2-.8-.05-.99,.33-.36,.48-.54,.59-.14,.75-.33,.37-.33,.52-.51-.02-.63,.13-.82-.33-.87-.18-1.06-.31-.85-.17-1.04,.42-.27,.57-.47,1.43,.48,1.57,.28,.82,0,.96-.19-.19-.74-.04-.94-.24-.77-.1-.97-.15-.7,0-.9,1.36,.37,1.49,.17,.04-.57,.18-.76-.33-.82-.2-1.02,.43-.29,.57-.49-.02-.59,.11-.8,1.08,.14,1.22-.06-.23-.73-.1-.93-.68-1.02-.55-1.22,1.4,.33,1.53,.13,.74-.1,.87-.31,.21-.44,.34-.65,.4-.33,.53-.53,.7-.15,.82-.35-1.87-1.71-1.74-1.92,.38-.34,.5-.54,.44,.44,.57,.23c-.2-.3-.6,.54-.89,.32s.61-1.36,.32-1.58-.93,.6-1.22,.38,.34-1.02,.06-1.24-.01-.56-.3-.79-.86,.51-1.14,.29,.3-.96,.02-1.18-.75,.37-1.04,.15,.3-.97,.02-1.19-.27-.25-.55-.47-1.35,1.14-1.64,.91,.89-1.73,.61-1.95-.86-1.09-1.22-1.04c-.26,.04-.13,1.44-.15,1.7-.07,.23-.69,.04-.8,.24-.11,.21,.45,.71,.3,.89s.04,.73-.14,.87-.69-.22-.91-.11c-.2,.1-.38,.17-.61,.24-.21,.07-.12,1.72-.36,1.76-.22,.04-.75-1.97-.99-1.95-.23,.02-.41,1.34-.65,1.34s-.55,.84-.79,.83-.26-2.62-.49-2.65-.54,.73-.77,.69-.46,.01-.69-.04-.55,.25-.77,.18,.08-1.65-.14-1.73-.54,.27-.75,.18-.73,.55-.94,.45-.2-.59-.4-.71c-.21-.11,0-.95-.21-1.06s-.45-.13-.66-.25-1,.79-1.2,.67-1.04,.8-1.24,.68,.86-2.3,.66-2.43-1.73,1.86-1.93,1.73-.6,.02-.79-.11,.8-2.07,.6-2.2-.77,.29-.96,.16-.38-.29-.57-.42-.29-.41-.48-.55-1.23,.85-1.42,.71,1.17-2.3,.98-2.45-.34-.3-.53-.44-1.39,.97-1.57,.82,.69-1.55,.51-1.7-1.42,.93-1.59,.78-1.18,.6-1.36,.44,1.18-2,1.01-2.16-.03-.63-.2-.79-.69,.05-.86-.11-1.43,.75-1.59,.58,1.25-1.84,1.09-2.01-2.24,1.43-2.4,1.25c-.16-.18-.5-.25-.66-.43s1.53-1.93,1.37-2.11-.32-.34-.47-.53-.85,.05-.99-.14-.37-.33-.5-.53-.68-.13-.81-.33,.78-1.06,.65-1.26-1.76,.46-1.88,.26-.2-.48-.31-.69,1.82-1.41,1.72-1.63-1.09-.02-1.18-.24-.65-.27-.73-.49,1.25-.87,1.18-1.1-2.11,.07-2.17-.16,2.03-.88,1.99-1.11-2.18-.17-2.21-.41-.18-.52-.18-.76,2.06-.47,2.06-.71-.84-.48-.81-.72-.92-.62-.88-.86,.31-.46,.36-.69c.05-.23,1.78-.07,1.84-.31s.05-.48,.11-.71-1.09-.75-1.03-.98,.41-.4,.47-.63-.91-.7-.86-.94-.37-.58-.32-.81,2.33,.05,2.39-.19-.47-.6-.42-.84-1.13-.75-1.08-.99,1.98-.04,2.04-.27-.96-.71-.91-.95,.52-.37,.57-.61-1.04-.73-.99-.97-.19-.54-.14-.77,1.6-.13,1.65-.36-.98-.71-.92-.95,0-.49,.05-.73-.14-.52-.08-.76,.76-.32,.81-.55-.56-.62-.51-.85,.39-.4,.44-.64-.69-.65-.64-.88,1.57-.14,1.63-.37,1.03-.26,1.09-.49-.02-.5,.03-.73-.39-.58-.33-.81,.59-.36,.64-.59-.09-.51-.04-.75-1.72-.87-1.67-1.11,1.4-.18,1.45-.42,.88-.3,.94-.53-.19-.53-.14-.77-.63-.63-.58-.87-.45-.59-.4-.83,.95-.28,1-.52-1.39-.8-1.34-1.03,.25-.44,.3-.67,.95-.28,1-.52,1.73-.11,1.78-.35-.99-.71-.94-.94,1.25-.22,1.3-.45-.62-.63-.57-.86-.03-.5,.02-.73-1.52-.82-1.47-1.05,.72-.34,.77-.57,0-.49,.06-.72,.39-.41,.44-.64,1.35-.2,1.4-.44-2.27-.98-2.22-1.21,1.88-.09,1.93-.32,.33-.42,.38-.66-.94-.69-.89-.93,.37-.41,.42-.65,1.42-.19,1.47-.42-.26-.55-.21-.78-.32-.56-.28-.8-1.12-.73-1.07-.96,1.45-.18,1.5-.42-.96-.69-.91-.93,0-.49,.04-.73,.69-.35,.73-.58,1.05-.27,1.1-.51-.28-.55-.23-.78-1.23-.75-1.18-.98,1.72-.13,1.77-.37,.41-.41,.46-.64-.77-.65-.72-.89,.19-.45,.24-.69-.05-.5,0-.74-1.04-.71-1-.94,1.14-.25,1.19-.49,.6-.37,.65-.6-1.4-.78-1.35-1.01,.45-.4,.5-.63-.1-.51-.05-.75,1.35-.22,1.4-.45-.44-.58-.39-.82,.37-.42,.41-.65-.96-.69-.91-.92-.24-.54-.19-.77,1.88-.11,1.93-.35-1.51-.79-1.46-1.03,1.86-.12,1.91-.35-1.76-.84-1.71-1.08,0-.49,.06-.72,.52-.39,.57-.62,1.1-.27,1.15-.51,.93-.31,.98-.54-.43-.58-.38-.81-1.39-.77-1.35-1,.43-.41,.48-.64-.08-.51-.04-.74,1.32-.23,1.37-.47-.09-1.21-.04-1.45c-.24-.12-.58-.54-.84-.54-.25,0-.47,.42-.71,.42s-.45-.43-.69-.44-.53,1.01-.77,1-.48-.11-.71-.13-.56,.61-.8,.58-.2-1.97-.44-2-.48,.19-.72,.15-1.01,2.49-1.24,2.44,.19-2.84-.04-2.9-.81,1.17-1.04,1.1-.02-1.4-.25-1.48-.91,1.14-1.14,1.05-.1-.94-.32-1.04-.76,.49-.97,.38-.74,.31-.95,.19,.17-1.19-.03-1.32-.08-.65-.28-.79-1.44,1.05-1.62,.9-.28-.46-.46-.63,.82-1.48,.66-1.66-1.89,1.04-2.05,.85-.14-.57-.28-.76,1.54-1.64,1.41-1.84-1.72,.54-1.84,.33,.87-1,.76-1.22-1.81,.35-1.91,.13,1-.96,.91-1.18,.19-.55,.11-.78-1.94,.13-2.01-.11,1.06-.81,1-1.05-.08-.46-.14-.7-.34-.42-.38-.66,.79-.6,.75-.84-.73-.37-.76-.61-.46-.43-.48-.68-1.35-.39-1.37-.64,1.14-.57,1.13-.81,1.61-.53,1.6-.77-.21-.46-.21-.7-.24-.47-.23-.71,.15-.46,.16-.7-1.84-.58-1.82-.82,.14-.5,.17-.73-.35-.55-.32-.79,2.51-.16,2.55-.39-1.59-.73-1.55-.97,.71-.36,.76-.59-.93-.72-.87-.95,.22-.47,.29-.7,.11-.5,.18-.73,1.95,.18,2.03-.04-.43-.65-.34-.87-1.38-1.18-1.28-1.39,0-.62,.11-.83,2.26,.73,2.39,.53-.39-.8-.26-1-.47-.97-.32-1.15,.81,0,.96-.18,1.22,.5,1.39,.33-1.06-1.79-.88-1.95,1.16,.57,1.34,.42-.16-1.01,.04-1.16,.59-.04,.79-.17,.54-.06,.75-.18,.36-.37,.57-.48,.28-.57,.51-.67,.22-.83,.44-.92,1.24,1.96,1.47,1.88,.56,.35,.8,.28-.2-2.47,.03-2.53,.52-.02,.76-.07,.48-.21,.72-.25,.61,.63,.85,.59,.45-.35,.69-.38,.45-.53,.69-.56,.53,.37,.78,.35,.56,1.53,.8,1.52,.43-1.59,.67-1.6,.5,.36,.74,.36c.34,0,.34-.14,.68-.14s.34-.29,.68-.29,.34-.76,.69-.76,.34,.12,.69,.12,.34,.98,.68,.98,.34,1.01,.68,1.01,.34,.13,.69,.13,.34-1.67,.69-1.67,.34,.28,.69,.28,.32,.56,.64,.46c.04-.23,.64-.23,.69-.46s.64-.37,.68-.6-1.38-.73-1.34-.97-.55-.58-.51-.82-.18-.51-.14-.75,2.83,.03,2.88-.21-.83-.63-.79-.87-1.28-.71-1.24-.94-.09-.5-.05-.73,.22-.44,.26-.68,.59-.38,.63-.61,.17-.45,.21-.69,.81-.34,.85-.57,.71-.36,.75-.59-1.15-.68-1.11-.91-.23-.52-.19-.75,.63-.38,.66-.61,1.33-.26,1.37-.49-.82-.62-.78-.85-1.58-.74-1.54-.97,1.68-.21,1.72-.44-.16-.51-.12-.74-.2-.51-.16-.75-.53-.57-.49-.8,.94-.33,.98-.57-.67-.59-.63-.82,.94-.33,.97-.57,.9-.34,.93-.58-2.23-.83-2.2-1.07,1.66-.23,1.7-.46,1.1-.31,1.14-.55-1.42-.7-1.38-.93-1.21-.67-1.18-.9,.46-.41,.5-.65,1.73-.22,1.77-.46-.19-.51-.16-.75-.53-.56-.5-.8-.8-.6-.77-.84-.17-.51-.13-.74,1.26-.3,1.29-.54-.99-.63-.96-.86-.04-.49,0-.72,1.55-.26,1.58-.5-1.36-.68-1.33-.92,1.58-.26,1.61-.5,.3-.44,.33-.68,.75-.38,.78-.62,.1-.47,.13-.71-1.71-.73-1.68-.97c.03-.24,.02-.5,.06-.74s.12-.49,.16-.72,.92-.31,.97-.55-1.44-.84-1.39-1.07,1.94-.01,2-.24,.81-.24,.88-.47-1.65-1.03-1.58-1.26,1.12-.11,1.2-.34-.23-.61-.14-.82,0-.53,.1-.75,.49-.3,.6-.51,.99,.02,1.11-.19-1.08-1.22-.95-1.42,1.57,.49,1.71,.3,.33-.29,.48-.47-.9-1.36-.74-1.54,.88,.16,1.05-.01-.61-1.37-.43-1.53,1.91,1.5,2.09,1.35-.99-2.08-.8-2.22,.85,.34,1.05,.21,.52-.08,.73-.2-.23-1.56-.02-1.66,1.38,1.81,1.6,1.72-.18-1.75,.05-1.83,.99,1.38,1.22,1.31,.27-.71,.5-.77,.38-.45,.62-.5,.41-.49,.64-.53,.7,1.34,.94,1.31,.51,.54,.75,.52,.4-.48,.64-.49,.36-2.04,.6-2.05,.54,2.01,.78,2.01,.48-1.89,.72-1.89,.48,.61,.72,.62,.5-.32,.75-.31,.54-.53,.79-.51,.22,2.73,.46,2.76c.24,.02,.55-.78,.79-.75s.43,.3,.66,.34,.64-1.06,.87-1.02,.32,.94,.55,.99,.31,.79,.54,.84,.9-1.84,1.13-1.79,.66-.52,.89-.46-.11,2.13,.11,2.2,1.08-1.75,1.3-1.67,.29,.69,.51,.77-.21,1.76,0,1.86,.3,.39,.51,.49,1.41-1.73,1.61-1.62,.39,.35,.6,.48-.49,1.66-.29,1.79,1.36-1.1,1.55-.96,.13,.66,.31,.81,.36,.34,.53,.5-.2,.87-.03,1.04,1.05-.3,1.21-.12-.7,1.15-.56,1.34,1.63-.54,1.76-.34,.16,.51,.28,.72-1.7,1.41-1.59,1.62,.22,.33,.31,.56,.42,.28,.5,.5,1.82-.11,1.88,.12-1.78,.96-1.72,1.19,.67,.29,.72,.52,.18,.42,.21,.66,1.24,.31,1.26,.55-.83,.56-.81,.8-1.18,.51-1.17,.75,.66,.42,.66,.66,.41,.46,.4,.69,.12,.47,.11,.71-.5,.43-.52,.67,.65,.53,.62,.77-1.12,.33-1.16,.56-.18,.43-.22,.67,1.05,.64,1,.88c-.04,.23-.61,.37-.65,.61s0,.49-.04,.73-.14,.46-.18,.7-.1,.47-.15,.71-.51,.39-.55,.63,.09,.5,.05,.74,1.61,.79,1.57,1.02,.27,.53,.23,.77-2.54,0-2.58,.25,.84,.64,.79,.88,1.22,.71,1.18,.95-.92,.31-.96,.55-1.01,.3-1.05,.54,.66,.61,.61,.85-1.38,.23-1.43,.47,1.87,.84,1.83,1.07,.55,.59,.51,.83-.29,.43-.33,.67-2.21,.08-2.25,.32,1.45,.76,1.41,1,.6,.6,.55,.84-2.26,.07-2.3,.3-.31,.43-.35,.67,1.48,.76,1.43,1,.12,.51,.08,.75-.92,.32-.96,.56,.45,.57,.41,.81-.9,.32-.95,.56-.34,.43-.39,.66,.89,.65,.84,.89-.84,.34-.88,.57,.03,.49-.01,.73-.42,.41-.46,.65-.45,.41-.49,.65,1.38,.75,1.34,.98,.79,.64,.75,.88-.89,.33-.93,.57,.27,.54,.22,.78-.95,.32-.99,.56-.33,.43-.38,.67,.8,.64,.76,.88-.5-.09-.54,.15c.33,.12,.19,1.43,.54,1.43s.36-.74,.71-.74,.36-1.29,.71-1.29,.35,1.62,.71,1.62,.35-.44,.71-.44,.35-1.21,.71-1.21,.35,1.95,.71,1.95,.35-1.18,.71-1.18,.36-.73,.71-.73,.36,1.63,.71,1.63,.36-.58,.71-.58,.36,1.31,.71,1.31,.36-1.8,.71-1.8,.36,.39,.71,.39,.36,.35,.71,.35,.36-1.11,.71-1.11,.36,.71,.71,.71,.36-.15,.71-.15,.36,.65,.71,.65,.36,.66,.71,.66,.36,.44,.71,.44,.35-2.72,.71-2.72,.35,1.48,.71,1.48,.35-1.29,.71-1.29,.36,.13,.71,.13,.36,2.24,.71,2.24,.36-.72,.71-.72,.36,.54,.71,.54,.36-1.45,.71-1.45,.36,.11,.72,.11,.36,.05,.71,.05,.36-1.19,.71-1.19,.36,.43,.72,.43,.36,.75,.72,.75,.36-.12,.71-.12,.36,1.53,.71,1.53,.36,.25,.72,.25,.36-1.29,.72-1.29,.36-.51,.72-.51,.36,.38,.72,.38c.25,0,.53-1.23,.77-1.22s.45,1.36,.69,1.37,.42,.73,.67,.75,.43,.26,.68,.29,.43,.2,.67,.24,.61-.72,.84-.67,.78-1.14,1.02-1.08-.16,2.39,.07,2.46,1.21-2.13,1.44-2.05-.24,2.01-.02,2.1,.78-.62,1-.51,.92-.69,1.14-.58,.23,.66,.44,.78,.62,0,.82,.14-.39,1.38-.2,1.53,.42,.21,.61,.37,.8-.17,.98,0,1.11-.36,1.28-.18-.92,1.5-.76,1.69c.15,.18,.84-.09,.99,.1s-.17,.7-.04,.89-.11,.6,.01,.8,.69,.11,.8,.32,.65,.19,.76,.4,.72,.21,.81,.42-.68,.8-.59,1.02,.59,.28,.67,.51,.57,.33,.63,.55,.48,.38,.54,.61-.42,.61-.37,.84-.66,.62-.62,.85,.54,.38,.57,.62,1.05,.34,1.08,.58-2.21,.72-2.18,.96,.6,.39,.62,.63-.32,.47-.31,.71,1.77,.4,1.78,.64-2.15,.49-2.15,.73,2.56,.49,2.55,.72-2.24,.41-2.24,.65,2.05,.58,2.03,.82c-.01,.24-.02,.48-.03,.72s-2.24,.34-2.26,.58,.74,.53,.72,.76-1.03,.41-1.04,.65,1.94,.61,1.92,.85,.73,.53,.71,.77-.32,.46-.33,.7-1.46,.38-1.48,.61-.18,.47-.2,.7-.84,.42-.86,.65,.92,.55,.9,.79-.07,.47-.09,.71,.2,.5,.18,.73,.62,.53,.6,.77-.94,.4-.96,.64,1.69,.62,1.67,.86-1.87,.32-1.89,.56-.71,.42-.73,.66,.24,.5,.22,.74,1.11,.58,1.09,.82-1.54,.34-1.56,.58,1.43,.61,1.4,.85-.38,.45-.4,.68-.28,.45-.3,.69-.58,.42-.61,.66,.12,.49,.1,.73-.62,.42-.65,.65,1.33,.62,1.31,.85,.85,.57,.83,.81-.97,.38-.99,.62,1.04,.59,1.01,.83-2.42,.22-2.45,.46,.85,.57,.82,.81-.39,.44-.42,.67,1.82,.69,1.79,.92-1.15,.35-1.18,.59-1.74,.28-1.77,.51,.69,.56,.67,.8,.35,.52,.32,.76,1.37,.65,1.34,.89-2.13,.22-2.16,.45-.3,.44-.33,.68-.35,.43-.38,.67,1.89,.73,1.86,.96-.12,.47-.15,.7-.57,.41-.6,.64,.88,.6,.85,.84-1.56,.27-1.59,.5,.14,.5,.11,.74,.82,.6,.79,.83-.41,.42-.45,.66-.9,.35-.94,.59,.83,.6,.79,.84,.62,.57,.59,.81-1.23,.3-1.26,.53,1.38,.69,1.34,.93-1.63,.23-1.67,.46,.97,.63,.94,.87-.16,.46-.2,.69-.27,.44-.31,.67-1.16,.29-1.2,.53-.54,.39-.58,.62,.78,.61,.75,.84,1.34,.71,1.3,.94-1.9,.16-1.94,.39-.83,.33-.87,.57,1.22,.69,1.18,.92,1.18,.68,1.14,.91c-.04,.24-2.48,.06-2.52,.3s1.49,.75,1.45,.99-.97,.32-1.02,.56,.15,.52,.1,.75,1.45,.75,1.41,.99-2.55,.03-2.59,.26,1.92,.85,1.88,1.08-.5,.4-.54,.64-.74,.35-.78,.59,.18,.52,.13,.76,.52,.59,.47,.83-.78,.34-.83,.58-.65,.36-.69,.6,1.32,.76,1.28,.99-.29,.44-.34,.67-1.58,.17-1.63,.41-.33,.42-.38,.66,.33,.56,.28,.79,2.02,.92,1.97,1.15-.95,.29-1,.53,.64,.63,.59,.87-1.76,.11-1.81,.35,1.4,.8,1.34,1.04-.92,.29-.97,.53-1.77,.09-1.82,.33,1.59,.85,1.54,1.09-1.1,.24-1.16,.47,.02,.5-.04,.73,.7,.66,.64,.89-.73,.32-.79,.55,1.5,.85,1.44,1.09-2.67-.15-2.73,.08,1.52,.87,1.46,1.1-1.67,.08-1.73,.31,1.13,.78,1.08,1.01-1.05,.23-1.11,.46,1.61,.91,1.55,1.14-.08,.48-.15,.71-2.33-.11-2.39,.12-.1,.47-.16,.7,1.57,.92,1.51,1.15-1.66,.05-1.72,.28,1.11,.8,1.04,1.03-1.3,.14-1.36,.37,1.54,.93,1.47,1.16-1.69,.03-1.75,.26,1.43,.9,1.36,1.13-1.66,.02-1.73,.25-.36,.39-.43,.62,2.13,1.12,2.06,1.35-1.56,.04-1.63,.27,1.66,1,1.6,1.23-2.75-.33-2.82-.1-.06,.48-.13,.71,1.14,.85,1.07,1.08-.37,.39-.44,.62-.9,.22-.97,.45,1.45,.96,1.38,1.19-.24,.43-.32,.66-.77,.26-.84,.49-.51,.34-.58,.57,.79,.77,.71,.99-1.01,.17-1.09,.4,.29,.6,.21,.83,0,.51-.08,.73-.73,.26-.81,.48-.01,.5-.09,.73-.1,.47-.17,.7,.95,.85,.87,1.07-1.92-.18-2,.05-.1,.47-.18,.69-.5,.32-.58,.55,.87,.83,.79,1.05-.72,.24-.8,.46-.43,.81-.51,1.03c.19,.16,1.7-.6,1.88-.44s-1.19,2.14-1,2.3,1.82-1.38,2-1.22,.13,.6,.31,.76-.09,.85,.1,1-.12,.88,.06,1.04,.54,.12,.72,.28,.59,.06,.77,.22-.29,1.06-.1,1.22,1.92-1.44,2.1-1.28-1.15,2.03-.97,2.19,1.68-1.16,1.86-1,.38,.31,.56,.47-.72,1.53-.54,1.69,1.97-1.46,2.15-1.3-.47,1.24-.29,1.4,.3,.4,.47,.56,.26,.44,.43,.6,.51,.16,.69,.33-.69,1.47-.52,1.63,1.06-.43,1.23-.26,.46,.22,.63,.39-.37,1.1-.19,1.27,.67,0,.84,.16,.8-.14,.97,.02-.36,1.08-.19,1.25,1.49-.87,1.67-.7-.97,1.71-.8,1.88,1.67-1.04,1.85-.87,.31,.38,.48,.55,.99-.32,1.16-.15-.74,1.45-.57,1.62-.45,1.13-.27,1.3,1.16-.49,1.33-.32,.81-.11,.98,.05c.16,.18,.29,.42,.44,.6s.06,.58,.2,.76-.37,.86-.24,1.05,1.16-.23,1.29-.03-.81,1.07-.69,1.27,1.9-.56,2.02-.35,.3,.43,.4,.64-1.01,1.03-.92,1.25-.02,.51,.07,.73-.34,.6-.27,.82,1.26,.08,1.33,.3-.71,.66-.65,.89-.57,.55-.53,.78,.79,.3,.82,.54,.5,.4,.52,.64,.32,.45,.32,.69,1.19,.5,1.18,.74-.38,.51-.4,.75-.62,.44-.65,.68-1.51,.24-1.55,.48,.54,.55,.49,.78-.81,.25-.87,.48-.12,.4-.19,.63,.45,.6,.38,.83,1.13,.92,1.05,1.14-.69,.24-.79,.46,.21,.62,.11,.84-1.37-.14-1.47,.07-.69,.14-.81,.35,.09,.56-.03,.76,1.64,1.53,1.51,1.74-2.41-.96-2.54-.76,1.71,1.7,1.57,1.89-.95-.07-1.09,.13-.17,.47-.31,.67c-.15,.2,.38,.91,.24,1.1s-.77,.04-.92,.22-.99-.17-1.14,.02,.47,1.03,.32,1.22-.77-.01-.93,.17-.6,.11-.77,.29-1.22-.5-1.38-.33,.09,.74-.08,.91-.19,.47-.37,.64,.95,1.76,.77,1.92-1.11-.51-1.3-.35-.38,.31-.57,.46-.68-.09-.87,.05-.74-.25-.94-.11,.14,1.07-.06,1.19,.26,1.44,.05,1.55-1.49-1.71-1.7-1.6,.28,1.71,.07,1.81-1.04-1.21-1.26-1.12-.5-.1-.73-.02-.12,1.22-.35,1.28-.25,1.26-.49,1.31-.83-1.91-1.07-1.88-.34,1.46-.58,1.47-.53-1.31-.77-1.31-.53,1.42-.77,1.4-.43-.81-.67-.85-.3-.99-.54-1.04-.54,.38-.77,.32-.51,.11-.74,.03-1,1.29-1.22,1.21-.24-.82-.46-.92-.35-.44-.57-.54,.18-1.34-.03-1.46-1.05,.87-1.26,.74-.73,.2-.93,.07,.91-2.13,.71-2.28-.4-.2-.59-.35-.17-.49-.35-.65-1.13,.63-1.32,.47-.39-.28-.57-.44-.77,.12-.94-.05,.69-1.37,.52-1.54-.09-.55-.25-.72-.59-.07-.76-.25-.08-.54-.24-.73-1.71,.85-1.86,.66c-.15-.17-.3-.33-.47-.51-.15-.17-.61-.06-.78-.24-.15-.17,.98-1.54,.81-1.72-.16-.17-1.78,1.04-1.94,.87-.16-.17,.2-.83,.03-1s.79-1.41,.62-1.59-.56-.12-.73-.29-1.27,.59-1.44,.41,.91-1.54,.74-1.71-1.61,.92-1.78,.75-.12-.54-.29-.71,.57-1.22,.4-1.39-1.58,.9-1.75,.73,1.21-1.86,1.04-2.03-1.25,.87-1.42,.7c-.13,.2-.32,.11-.45,.31s-.61,.18-.74,.39-1.03-.09-1.16,.11,1.1,1.28,.97,1.48-.97-.06-1.1,.14-.63,.16-.76,.36,.89,1.17,.76,1.37-.85,0-.98,.21-.91-.04-1.04,.16,.81,1.14,.67,1.34-.06,.55-.2,.74,.51,.96,.37,1.15-1.09-.18-1.24,.01-.03,.58-.17,.77,.11,.68-.03,.88-.69,.1-.83,.29-.11,.53-.25,.72-1.9-.83-2.04-.63,1.52,1.77,1.38,1.96-.61,.15-.75,.34-.53,.2-.68,.39-.79,0-.93,.18,.45,.97,.29,1.16-1.61-.68-1.76-.49-.69,.05-.84,.24,.53,1.05,.37,1.24,.66,1.18,.51,1.36-1.68-.78-1.84-.6-.11,.53-.27,.72,1.16,1.63,1,1.81-.6,.12-.76,.3-1-.24-1.16-.06-.64,.08-.8,.26-.05,.6-.21,.78,.6,1.2,.44,1.38-2.02-1.19-2.18-1.02-.58,.11-.74,.29,.83,1.42,.66,1.6-1.52-.78-1.69-.6,.46,1.1,.29,1.27,.63,1.28,.46,1.45-1.23-.53-1.4-.36,.05,.72-.12,.9-.87-.18-1.04-.01,.16,.84-.01,1.01-.8-.13-.97,.04,.73,1.44,.56,1.61-1.23-.58-1.4-.41,.46,1.19,.29,1.35-2.01-1.43-2.18-1.26-.08,.61-.25,.78-.55,.1-.73,.26,0,.7-.18,.86-.12,.58-.29,.75-.26,.43-.44,.59-.19,.51-.37,.67-1.28-.74-1.47-.58,.62,1.45,.44,1.6-.16,.55-.34,.71-.05,.69-.23,.85-.19,.53-.37,.69-.47,.19-.66,.35-.92-.34-1.1-.18c-.19,.14-.42,.26-.61,.39s-.75-.23-.94-.09,.03,.89-.17,1.02,.05,.96-.15,1.09-.32,.42-.52,.55-1.05-.77-1.25-.64-.03,.9-.24,1.02-1.07-.91-1.27-.8-.47,.1-.68,.21-.75-.48-.96-.38-.4,.19-.61,.28,.27,1.76,.05,1.85-.33,.5-.55,.59-.73-.57-.95-.49-.5,0-.72,.07-.34,.53-.57,.59-.48,.08-.7,.13-.66-.99-.89-.95-.34,.75-.57,.78-.54-1.1-.78-1.08-.37,1.05-.61,1.06-.48,.56-.71,.55Zm30.59-97.37c.08-.22,.06-.37,.14-.6s.61-.3,.69-.52-1.21-.91-1.14-1.14,1.97,.16,2.05-.07-1.63-1.04-1.56-1.27,1.02-.17,1.09-.4-.86-.77-.79-1,1.45-.05,1.52-.28-.06-.52,.01-.75,.76-.27,.83-.5-1.51-.95-1.44-1.18,.08-.47,.15-.7-.02-.5,.05-.73,2.25,.14,2.32-.09-2.08-1.08-2.01-1.31,1.71-.02,1.78-.26-.09-.52-.02-.75,1.46-.11,1.52-.34-1.98-1.02-1.92-1.25-.26-.56-.19-.79,.67-.32,.73-.55,1.96,0,2.02-.23-1.04-.76-.98-.99,.22-.44,.28-.68,.84-.29,.89-.53,.22-.45,.27-.68,.11-.47,.17-.71-1.86-.93-1.81-1.17,1.86-.06,1.92-.3,.09-.47,.15-.71-1.81-.9-1.76-1.14,.02-.49,.07-.72,1.74-.11,1.79-.35-.82-.67-.76-.91,.28-.43,.33-.67,.1-.47,.15-.71-.66-.63-.61-.87,2.4,0,2.45-.23-1.94-.89-1.89-1.13,.82-.33,.87-.56-.31-.56-.26-.8,1.97-.09,2.02-.33c.05-.24-1.32-.78-1.26-1.01s-.72-.66-.67-.9,1.35-.21,1.41-.44,.36-.42,.41-.66-.17-.54-.12-.77,1.17-.25,1.22-.49,0-.5,.05-.74,.1-.48,.15-.72-1.07-.72-1.02-.96-1.45-.79-1.4-1.03,1.4-.22,1.44-.46-.65-.62-.61-.86,0-.5,.04-.73,2.15-.09,2.19-.33-1.58-.79-1.54-1.03,1.96-.14,2.01-.38-.46-.58-.42-.82-.04-.5,0-.74-.69-.62-.65-.86,1.58-.22,1.62-.46-2.73-.95-2.69-1.19,.83-.35,.87-.59,.14-.47,.18-.71,1.77-.21,1.81-.45-1.47-.72-1.44-.96,1.75-.23,1.79-.47-2.52-.87-2.48-1.11,1.99-.2,2.03-.44,.87-.37,.9-.61-.1-.51-.06-.75-.95-.62-.92-.86-.28-.52-.25-.76-.43-.54-.4-.78-.19-.51-.16-.75,1.55-.3,1.58-.53,.46-.43,.48-.66c.03-.25-1.04-.61-1.02-.85,.02-.25,1.07-.5,1.06-.73,0-.25-.39-.54-.41-.78-.02-.25,.18-.6,.13-.83-.05-.25-1.23-.21-1.31-.43-.08-.24-.51-.22-.62-.43s1.07-1.31,.92-1.5-1.89,1.23-2.08,1.07,1.13-2.4,.92-2.53-.61-.25-.84-.35c-.22-.09-.76,.45-1,.38-.23-.06-.51-.14-.76-.18-.23-.03-.49-.44-.74-.45-.23-.02-.54-.11-.79-.11-.37,0-.37,.41-.74,.41s-.37,.79-.75,.79-.37,.77-.75,.77-.37-.17-.75-.17-.37-1.42-.75-1.42-.37-.65-.75-.65-.37,.59-.75,.59-.37,.65-.74,.65-.37,.53-.75,.53-.38-1.32-.75-1.32-.38,.29-.75,.29-.33,.63-.69,.73c-.04,.23-.13,.27-.17,.5s.26,.53,.21,.77-1.05,.28-1.09,.52,.5,.58,.45,.81,1.02,.68,.97,.91-1.42,.21-1.47,.45-.65,.36-.69,.59-.04,.48-.08,.71-.25,.43-.3,.67-.6,.37-.64,.6,2.35,.95,2.3,1.19-.24,.44-.29,.67-.29,.43-.34,.66,.65,.62,.61,.85-1.51,.18-1.55,.42,.94,.68,.89,.91-1.09,.27-1.14,.5-.52,.38-.57,.61,.82,.65,.77,.88-1.02,.27-1.07,.51,.65,.62,.6,.85-1.02,.27-1.07,.51-.12,.46-.17,.69,1.6,.82,1.55,1.05-1.97,.08-2.02,.31-.53,.38-.57,.61,.78,.65,.73,.88-.72,.33-.77,.57,.63,.62,.58,.85,.42,.58,.37,.81-.67,.35-.72,.58-.1,.47-.15,.7,1.5,.81,1.45,1.04-2.12,.04-2.17,.27,1.19,.74,1.14,.98,.73,.65,.68,.88-2.64-.08-2.69,.16,.68,.63,.62,.87,0,.49-.06,.72,.26,.55,.21,.78-1.67,.13-1.72,.36,.33,.56,.28,.8,.68,.63,.63,.87-.54,.37-.59,.6-.91,.29-.96,.52,0,.49-.05,.72,1.05,.72,1,.95,1.09,.73,1.04,.96-2.46-.05-2.51,.18,2.34,1,2.29,1.24,.22,.54,.17,.77-2.22,0-2.27,.24,.56,.61,.51,.85-.12,.46-.17,.7-.26,.43-.32,.67,1.28,.78,1.23,1.01-2.58-.08-2.63,.15-.12,.46-.18,.7,1.48,.82,1.43,1.06-1.7,.11-1.75,.35,1.49,.82,1.43,1.06,1.1,.74,1.05,.97-2.32-.03-2.38,.21-.53,.38-.58,.61,.4,.58,.35,.82,1.4,.81,1.35,1.04-2.23,0-2.28,.23,2.44,1.05,2.39,1.28,.1,.52,.05,.75-2.46-.06-2.51,.18-.08,.51-.13,.75c-.05,.29,.59,.69,.55,.93-.06,.29-.01,.57-.07,.81-.07,.3,.32,.44,.25,.65,.2,.12-.4,1.1-.2,1.22s1.34-1.23,1.54-1.1,.38,.3,.58,.43-.82,2.16-.62,2.29,.93-.57,1.13-.44,.68-.16,.88-.03-.42,1.48-.22,1.61,1.55-1.44,1.74-1.3-.83,2.06-.64,2.2,1.6-1.48,1.8-1.35,.47,.17,.66,.31-.8,1.96-.61,2.1,.88-.42,1.08-.29,.97-.53,1.16-.39,.26,.45,.46,.6-.64,1.67-.45,1.81,.41,.24,.6,.38,1.12-.69,1.31-.55,.19,.54,.38,.68,1.02-.54,1.21-.39,.68-.09,.87,.06-1.03,2.09-.85,2.24,1.04-.71,1.23-.56Zm71.43,87.52c-.08-.22-.18-.44-.25-.66s.29-.6,.22-.82-1.52-.01-1.59-.24,1.69-1.02,1.62-1.24-1.93,.05-1.99-.18,.75-.71,.7-.94-1.14-.23-1.19-.46,1.22-.77,1.18-1-.29-.43-.33-.66,.56-.57,.53-.8-1.76-.26-1.79-.49-.11-.51-.13-.74-.19-.51-.2-.74,2.18-.53,2.18-.76-2.28-.53-2.27-.77,1.66-.39,1.68-.62-.17-.49-.14-.72,1.42-.19,1.47-.42-2-.94-1.94-1.17-.22-.63-.14-.85,.71-.3,.8-.51,1.89,.4,2,.19-.83-.95-.71-1.15,.34-.33,.47-.51,.84,.12,.99-.06,.34-.22,.51-.39c.16-.17,.28-.28,.46-.43s-.92-1.86-.73-2.01,1.43,1.17,1.62,1.04,.34-.24,.55-.37-.55-1.94-.34-2.05,.42-.32,.64-.42,1.12,1.31,1.34,1.22,.08-1.05,.31-1.13,.51,0,.74-.07,.45-.15,.68-.22,.26-.88,.49-.94,1.03,2.15,1.26,2.09,0-2.12,.22-2.17,.61,.62,.84,.58,.39-.49,.63-.53,.75,1.81,.98,1.78,.25-1.5,.49-1.53,.37-.9,.61-.92,.6,1.22,.84,1.2,.48,.22,.72,.2,.44-.31,.67-.33,.52,1.06,.75,1.05,.45-.12,.69-.13,.45-.01,.69-.02,.44-1.2,.68-1.2,.47-1.57,.71-1.57,.47,1.32,.71,1.32,.49-.75,.73-.75c.24,0,.45-.09,.65-.09,.24,0,.46,2.08,.66,2.08,.26,0,.47-1.7,.71-1.71,.26-.02,.72,1.84,.96,1.81,.26-.03,.5-.65,.73-.7,.25-.06,.54-.27,.76-.36,.24-.09,.18-.92,.39-1.04,.22-.12,1.38,.9,1.57,.75s-1.67-2.29-1.52-2.48,.81,.18,.92-.05,.21-.32,.27-.56c.06-.23,1.79-.19,1.82-.44,.03-.24-1.51-.61-1.51-.87,0-.36,1.69-.36,1.69-.72s-2.61-.36-2.61-.72,1.93-.36,1.93-.72,.8-.36,.8-.72-.17-.36-.17-.72-1.02-.36-1.02-.72-.34-.36-.34-.72-.49-.36-.49-.72-.25-.36-.25-.72,1.5-.36,1.5-.72,.4-.36,.4-.72-1.09-.36-1.09-.72,1.04-.36,1.04-.72-.37-.36-.37-.72,.25-.36,.25-.72-1.14-.36-1.14-.72-.4-.36-.4-.72,1.59-.36,1.59-.72-2.24-.36-2.24-.72,2.59-.36,2.59-.72-.06-.36-.06-.72-.67-.36-.67-.72,.02-.36,.02-.72,.37-.36,.37-.72,.08-.36,.08-.72-.41-.36-.41-.72-.79-.36-.79-.72-.76-.36-.76-.72,.17-.36,.17-.72,1.42-.36,1.42-.72,.65-.36,.65-.72-.59-.36-.59-.71-.64-.36-.64-.71-.53-.36-.53-.71,1.31-.36,1.31-.71-.29-.36-.29-.71-.74-.36-.74-.72,.19-.36,.19-.72-.35-.36-.35-.72,.97-.36,.97-.72-.59-.36-.59-.72-1.12-.36-1.12-.72,1.35-.36,1.35-.72,.57-.36,.57-.71-.06-.36-.06-.71,.16-.36,.16-.71,.51-.36,.51-.71-2.48-.36-2.48-.71,.15-.36,.15-.71,.2-.36,.2-.71-.76-.36-.76-.71,1.43-.36,1.43-.72-1.05-.36-1.05-.72,1.01-.36,1.01-.72,.43-.36,.43-.72-.93-.36-.93-.72,.94-.36,.94-.72-.75-.36-.75-.72,.94-.36,.94-.72,.03-.36,.03-.72-1.72-.36-1.72-.72,1.9-.36,1.9-.72,.44-.36,.44-.72-.89-.36-.89-.72,.64-.36,.64-.72-.74-.36-.74-.72-.53-.36-.53-.72,.58-.36,.58-.72,0-.36,0-.72-1.63-.36-1.63-.72,2.06-.36,2.06-.72-1.31-.36-1.31-.72-.85-.36-.85-.72,2.58-.36,2.58-.72-.79-.36-.79-.72-.1-.36-.1-.72-.37-.36-.37-.72,1.59-.36,1.59-.71-.44-.36-.44-.71-.79-.36-.79-.72,.44-.36,.44-.72,.83-.36,.83-.72-.11-.36-.11-.72-1.18-.36-1.18-.72-1.22-.36-1.22-.72,2.41-.36,2.41-.72-2.49-.36-2.49-.72-.33-.36-.33-.72,2.16-.36,2.16-.72-.67-.36-.67-.72,.02-.36,.02-.72,.16-.36,.16-.72-1.41-.36-1.41-.72,2.53-.36,2.53-.73,.02-.36,.02-.73-1.3-.3-1.55-.56-.18-1.55-.54-1.55-.36,1.62-.71,1.62-.36,1.23-.71,1.23-.36-2.26-.72-2.26-.36-.43-.72-.43-.36,.52-.72,.52-.36,1.54-.72,1.54-.36-2.16-.72-2.16-.36,2.6-.72,2.6-.36,.21-.72,.21-.36-2.4-.72-2.4-.36,.03-.72,.03-.36,.7-.72,.7-.36,.1-.72,.1-.36,.49-.72,.49-.36-1.22-.72-1.22-.36,1.75-.72,1.75-.36-.05-.72-.05-.36-2.25-.72-2.25-.36,.98-.72,.98-.36,.51-.72,.51-.36-1.46-.72-1.46-.36,2.05-.72,2.05-.36-2.16-.72-2.16-.36,2.12-.72,2.12-.36,.13-.72,.13-.36-2.06-.72-2.06-.36,.86-.72,.86-.36,.99-.71,.99-.36-.21-.71-.21-.36-1.71-.72-1.71-.36,.06-.72,.06-.36,1.22-.72,1.22-.36-.31-.72-.31-.36,1.04-.72,1.04-.36,.49-.72,.49-.36-2.27-.72-2.27-.36,.59-.72,.59-.36,1.26-.72,1.26-.36-1.92-.72-1.92-.36,1.09-.72,1.09-.36-.42-.72-.42-.36,1.18-.72,1.18-.36,.3-.72,.3-.36-1.53-.73-1.53-.36,1.11-.73,1.11-.36,.11-.73,.11c-.24,0-.5,.24-.74,.24s-.47-.68-.71-.69-.53,.66-.77,.64-.48-.33-.71-.35-.59,.76-.83,.73-.3-1.55-.53-1.58-.31-1.01-.54-1.05-.47,.05-.7,0-.56,.39-.79,.33-.31-.59-.54-.66-.49,.06-.71-.01-1.09,1.59-1.31,1.51,.03-1.41-.19-1.5-.08-.91-.3-1.01-.53,.07-.74-.04-.79,.42-.99,.29-.73,.2-.93,.07,.11-.98-.08-1.13-1.36,.85-1.54,.7-.31-.47-.48-.64,.25-.97,.09-1.15,.95-1.42,.8-1.61-1.15,.34-1.29,.15,.71-1.02,.58-1.22-.86,.03-.98-.18-.34-.32-.45-.54-1.7,.29-1.8,.07,.37-.72,.28-.94-.27-.43-.35-.65,.12-.56,.05-.79,1.08-.8,1.02-1.03-2.46,.13-2.52-.1,1.66-.87,1.61-1.11,.14-.49,.1-.73-1.12-.3-1.16-.54,.21-.51,.18-.75,1.29-.6,1.27-.84-.41-.42-.42-.66-.46-.44-.47-.68-1.25-.44-1.26-.68,1.37-.5,1.37-.75-1.07-.5-1.07-.74-.09-.51-.08-.75,.62-.47,.64-.71,1-.4,1.03-.64-.33-.51-.3-.75-1.27-.67-1.24-.91,1.7-.21,1.75-.45,.39-.39,.45-.62-.76-.66-.7-.89,.22-.44,.28-.67,0-.5,.07-.73-.92-.87-.84-1.1,1.17-.07,1.27-.29,.66-.21,.77-.43-1.12-1.15-1-1.36,.58-.27,.7-.48,.12-.55,.26-.75,1.31,.36,1.46,.18-.12-.72,.04-.9,.52-.16,.7-.34-.37-1.13-.19-1.29,.19-.61,.38-.76,1.48,1.15,1.68,1.01-.49-1.63-.29-1.76,1.33,1.29,1.54,1.17-.44-1.9-.23-2.01,.45-.31,.67-.41,.65,.2,.88,.11,.81,.79,1.04,.71,.69,.67,.92,.6,.29-.63,.53-.69,.13-1.58,.37-1.64,.56,.23,.8,.19,.46-.26,.7-.3,.65,1.17,.89,1.14,.49,.16,.73,.13,.5,.43,.74,.41,.43-.45,.68-.46,.48,.39,.72,.39,.46-1.04,.71-1.04c.36,0,.36,.07,.71,.07s.36-.66,.71-.66,.36,1.92,.71,1.92,.36-.26,.72-.26,.36-2.63,.72-2.63,.36,2.8,.72,2.8,.36-1.34,.72-1.34,.36,1.32,.72,1.32,.36-1.38,.72-1.38,.36,.83,.72,.83,.36-.76,.72-.76,.36-.62,.72-.62,.36,1.1,.72,1.1,.36,.49,.72,.49,.36-1.7,.72-1.7,.36,.17,.72,.17,.36,1.63,.72,1.63,.36-2.09,.72-2.09,.36,.25,.72,.25,.36,2.2,.72,2.2,.36-1.73,.72-1.73,.36,1.24,.72,1.24,.36-1.77,.72-1.77,.36,1.3,.72,1.3,.36,.37,.72,.37,.36-1.87,.72-1.87,.36,1.24,.72,1.24,.36,.03,.72,.03,.36-.24,.71-.24,.36,.88,.71,.88,.36-.66,.72-.66,.36-.4,.72-.4,.36-1.31,.72-1.31,.36,1.17,.72,1.17,.36,1.62,.72,1.62,.36-.2,.72-.2,.36-.24,.72-.24,.36,.14,.72,.14,.36-1.85,.72-1.85,.36,.11,.72,.11,.36-.4,.72-.4,.36,2.46,.72,2.46,.36-1.67,.72-1.67,.36,.63,.72,.63,.36-1.06,.73-1.06,.36,.1,.73,.1-.03,.42,.23,.17,1.68,.15,1.68-.21-.63-.36-.63-.72-1.73-.36-1.73-.72-.28-.36-.28-.72,2.32-.36,2.32-.72-.76-.36-.76-.72-.94-.36-.94-.71,.63-.36,.63-.71,1.24-.36,1.24-.71-2.01-.36-2.01-.72,1.19-.36,1.19-.72-.89-.36-.89-.72,.31-.36,.31-.72,.24-.36,.24-.72-.15-.36-.15-.72-.38-.36-.38-.72-.67-.36-.67-.72,2.26-.36,2.26-.72,.5-.36,.5-.72-2.42-.36-2.42-.72,.11-.36,.11-.72-.1-.36-.1-.72,.72-.36,.72-.72-.28-.36-.28-.72-.48-.36-.48-.72c0-.25,.42-.53,.43-.78s1.58-.38,1.61-.62-1.5-.7-1.46-.94,.45-.45,.51-.69,0-.55,.07-.78-.11-.61-.02-.84-.47-.84-.36-1.06,.39-.49,.51-.7,1.12,.05,1.26-.16,1.08,.22,1.24,.03,.38-.24,.56-.42-.76-1.57-.57-1.73,.61-.14,.81-.28,.68,.08,.9-.05,.73,.35,.96,.24,.61,.33,.85,.24-.04-1.56,.2-1.64,.36-.77,.61-.83,.51-.38,.76-.42,.85,2.68,1.1,2.66,.37-.96,.63-.97,.47-1.39,.72-1.39c.4,0,.21-.08,.6-.15,.15-.18-.17,.07-.02-.12s.7-.03,.86-.21,.37-.31,.53-.49,.88,.1,1.03-.08,.8,.03,.95-.16-.66-1.15-.51-1.34,.06-.56,.21-.75,.73-.03,.88-.22,1.3,.4,1.44,.21-.42-.94-.27-1.13-1.03-1.4-.89-1.59,1.58,.6,1.72,.41,.1-.52,.25-.72,.07-.55,.21-.74-.2-.75-.06-.94,.99,.14,1.13-.06-.32-.83-.18-1.03,.99,.12,1.13-.07,.95,.09,1.09-.1-1.61-1.74-1.47-1.94,1.58,.54,1.72,.34,1.12,.2,1.26,0-.95-1.25-.81-1.45-.79-1.13-.65-1.33,.59-.17,.73-.37,1.65,.55,1.79,.35,.05-.55,.19-.75-.23-.74-.1-.94-.46-.89-.33-1.09,.07-.53,.2-.73,1.26,.26,1.4,.06-.62-.99-.49-1.19,.17-.46,.3-.66,1.51,.41,1.64,.21-.95-1.19-.81-1.39,1.54,.42,1.67,.22,.46-.28,.59-.48,.84-.04,.97-.24,.29-.39,.42-.6-1.25-1.37-1.12-1.57,.21-.44,.34-.64,.28-.39,.41-.6,.97,.03,1.1-.17-1.09-1.24-.96-1.45,1.85,.57,1.97,.36,.86-.04,.99-.25-1.03-.51-.9-.72c-.34-.12-.16-.98-.51-.98s-.36,.43-.72,.43-.36,.21-.72,.21-.36-.31-.72-.31-.36-.88-.72-.88-.36,1.54-.72,1.54-.36-1.58-.72-1.58-.36-.1-.72-.1-.36,1.55-.72,1.55-.36-.76-.72-.76-.36,1.4-.72,1.4-.36-2.38-.72-2.38-.36,2.24-.72,2.24-.36-.76-.71-.76-.36-.2-.72-.2-.36,1.47-.72,1.47-.36-2.22-.72-2.22-.36,1.68-.72,1.68-.36-1.63-.72-1.63-.36,.6-.72,.6-.36,.33-.72,.33-.36,.39-.72,.39-.36-1.44-.72-1.44-.36-.6-.72-.6-.36,.43-.72,.43-.36,2.01-.72,2.01-.36-2.02-.72-2.02-.36,1.88-.72,1.88-.36-.59-.72-.59-.36,.34-.72,.34-.36,.57-.72,.57-.36-2.69-.72-2.69-.36,.83-.72,.83-.36-.25-.72-.25-.36,1.13-.72,1.13-.36-.87-.72-.87-.36-.71-.72-.71-.36,1.99-.72,1.99-.36,.66-.72,.66-.36-2.07-.72-2.07-.36,1.99-.72,1.99-.36-.55-.72-.55-.36-1.71-.72-1.71-.36-.23-.72-.23-.36,2.17-.72,2.17-.36-.12-.72-.12-.36-1.67-.72-1.67-.36,1.67-.72,1.67-.36-.44-.72-.44-.36-.02-.72-.02-.36-.75-.72-.75-.36,.97-.72,.97-.36-1.26-.72-1.26-.36,1.64-.72,1.64-.36-.13-.72-.13-.36-2.15-.72-2.15-.36,.05-.72,.05-.36,.28-.72,.28-.36,1.75-.72,1.75-.36-1.96-.72-1.96-.36,.59-.72,.59-.36,.1-.72,.1-.36,1.18-.72,1.18-.36-.88-.72-.88-.36-1.2-.72-1.2-.36,.65-.72,.65-.36,.41-.72,.41-.36,.14-.73,.14-.36-.47-.72-.47-.36,.69-.72,.69-.36-1.07-.73-1.07-.36-.12-.73-.12-.36,1.13-.72,1.13-.36-.53-.72-.53-.36,.1-.73,.1-.36-.05-.73-.05-.37-.01-.73-.01-.37-.43-.73-.43c-.24,0-.46,.18-.7,.18s-.54,1.71-.77,1.7-.52,.34-.76,.32-.27-2.51-.51-2.53-.56,.89-.79,.86-.67,1.25-.9,1.22-.35-.91-.58-.95-.27-1-.5-1.06-.63,.63-.86,.57-.08-1.38-.31-1.45-1.05,1.75-1.28,1.67-.71,.43-.93,.34-.41-.39-.63-.49,.49-2.14,.28-2.24-1.15,1.16-1.36,1.04-.81,.32-1.01,.19,.84-2.08,.65-2.22-.19-.43-.38-.58-1.38,.91-1.56,.75-.51-.19-.68-.36,.29-.92,.13-1.1-.73-.02-.88-.21,.39-.86,.25-1.06-.03-.51-.15-.71-1.09,.1-1.2-.11,.46-.76,.35-.97-.3-.36-.39-.58,.14-.53,.06-.76,.2-.53,.12-.75-1.56,0-1.63-.23-.99-.26-1.05-.49,.67-.67,.62-.9-.45-.41-.49-.65,.78-.61,.75-.85,.18-.49,.15-.73-.95-.38-.97-.62,.05-.49,.03-.73,1.43-.54,1.42-.78-.76-.44-.76-.68-1.29-.47-1.29-.71,1.62-.48,1.62-.72-.42-.49-.41-.73-1.18-.57-1.16-.81,1.97-.33,2-.57-1.12-.61-1.09-.84-.66-.6-.62-.84,1.67-.22,1.72-.45-.47-.58-.42-.82,1.37-.14,1.43-.37-1.6-.94-1.53-1.17,.52-.35,.6-.58,.49-.33,.58-.55-.82-.9-.72-1.11,.86-.15,.97-.36,.11-.51,.23-.72,.8-.07,.93-.27,.79,.01,.93-.18,.6-.05,.75-.24-1.7-2.16-1.54-2.33,1.4,.68,1.57,.51-.48-1.3-.29-1.46,.5-.24,.69-.38,1.66,1.55,1.86,1.42-.02-.84,.19-.96,.64,.26,.85,.15-.22-1.5,0-1.61,.49-.1,.72-.19,.47-.13,.7-.21,.12-1.29,.35-1.36,.62,.27,.86,.2,.66,.6,.9,.55,.45-.22,.69-.26,.71,1.42,.95,1.38,.47,.19,.71,.16,.31-1.33,.56-1.36,.44-.55,.68-.57,.5,.35,.75,.34,.46-1.25,.7-1.25,.51,1.33,.75,1.33c.36,0,.36,.69,.72,.69s.36,.21,.72,.21,.36,.14,.72,.14,.36-.81,.72-.81,.36-1.27,.72-1.27,.36,2.34,.72,2.34,.36-2.39,.72-2.39,.36,1.96,.72,1.96,.36-.87,.72-.87,.36-1.02,.72-1.02,.36,.46,.72,.46,.36-.33,.72-.33,.36,1.35,.72,1.35,.36-.1,.72-.1,.36-.65,.72-.65,.36-1.04,.72-1.04,.36,1.68,.72,1.68,.36-.7,.72-.7,.36,.55,.72,.55,.36,.42,.72,.42,.36-.53,.73-.53,.36-.48,.72-.48,.36-.55,.72-.55,.36,.94,.72,.94,.36-.45,.72-.45,.36-.43,.72-.43,.36-.35,.72-.35,.36,.55,.72,.55,.36,.77,.73,.77,.36-.46,.72-.46,.36-.98,.72-.98,.36,2.27,.72,2.27,.36-.56,.73-.56,.36,.35,.73,.35,.36-1.74,.73-1.74,.36,2.15,.73,2.15,.36-2.55,.73-2.55,.36,2.22,.73,2.22,.36-2.06,.73-2.06,.36-.01,.73-.01,.37,2.21,.73,2.21,.37-.77,.73-.77,.37,.99,.73,.99,.36-1.96,.72-1.96,.36-.76,.72-.76,.36,.28,.72,.28,.36,1.42,.72,1.42,.36,.15,.72,.15,.36,.8,.72,.8,.36-.96,.72-.96,.36,.04,.72,.04,.36-.24,.72-.24,.36-.66,.72-.66,.36,.9,.72,.9,.36-1.73,.72-1.73,.36,1.82,.72,1.82,.36,.67,.72,.67,.36-.28,.72-.28,.36-1.15,.72-1.15,.36,1.5,.72,1.5,.36-1.47,.72-1.47,.36,.33,.72,.33,.36,.23,.71,.23,.36,.54,.71,.54,.36-.17,.71-.17,.36,.58,.72,.58,.36-1.38,.72-1.38,.36-.9,.72-.9,.36,.92,.72,.92,.36-1.09,.72-1.09,.36,2.38,.72,2.38,.36-.9,.72-.9,.36,.34,.72,.34,.36-1.87,.72-1.87,.36,1.1,.72,1.1,.36,1.69,.72,1.69,.36-.75,.72-.75,.36-.41,.72-.41,.36-1.43,.72-1.43,.36,2.08,.72,2.08,.36,.24,.72,.24,.36,.29,.72,.29,.36-1.96,.72-1.96,.36,.06,.72,.06,.36,.51,.72,.51,.36-.95,.72-.95,.36,1.5,.72,1.5,.36-.21,.72-.21,.36-.89,.72-.89,.36,.35,.72,.35,.36,.84,.72,.84,.36-.9,.72-.9,.36-.69,.72-.69,.36,1.16,.72,1.16,.36-1.46,.72-1.46,.36,1.57,.72,1.57,.36-1.05,.72-1.05,.36,.09,.72,.09,.36,.2,.72,.2,.36,1.09,.72,1.09,.36,.47,.72,.47,.36-.87,.72-.87,.36-1.44,.72-1.44,.36,1.83,.72,1.83,.36,.76,.72,.76,.36-1.31,.72-1.31,.36-1.27,.72-1.27,.36,2.42,.72,2.42,.36-1.59,.72-1.59,.36,.9,.72,.9,.36-.23,.72-.23,.36-1.56,.72-1.56,.36,2.49,.72,2.49,.36-2.04,.72-2.04,.36,.41,.72,.41,.36,.65,.72,.65,.36-.27,.72-.27,.36-.62,.72-.62,.36,.7,.72,.7,.36,.56,.73,.56,.36-1.44,.72-1.44,.36,.2,.72,.2,.36,1.51,.72,1.51,.36,.24,.73,.24,.36-.43,.73-.43,.36-2.15,.73-2.15,.36,.87,.73,.87c.25,0,.53-.75,.77-.75s.44,1.7,.68,1.72,.6-1.49,.84-1.48,.43,.87,.67,.9,.25,1.74,.49,1.77,.75-1.64,.99-1.59,.27,1.09,.5,1.14,.48-.02,.71,.05,.7-.66,.93-.58,.25,.76,.47,.84,1.12-1.32,1.34-1.22-.72,2.55-.51,2.67,1.23-1.23,1.44-1.1-.51,1.57-.31,1.71,1.14-.75,1.33-.59-.3,1-.13,1.17,1.63-.88,1.79-.7,.38,.4,.53,.59-1.59,1.67-1.46,1.88,.22,.31,.34,.53c.12,.21,1.77-.38,1.87-.16s-1.29,1.01-1.21,1.24,1.35,.02,1.42,.26-1.06,.73-1,.97,1.78,.13,1.82,.38-1.53,.67-1.5,.91,1.65,.34,1.66,.59-1.56,.51-1.56,.76-.24,.43-.25,.67,2.32,.61,2.3,.85-1.51,.35-1.54,.6,1.8,.73,1.76,.97-2.75,.05-2.79,.29,0,.46-.05,.7,1.21,.74,1.15,.98-.34,.42-.4,.66-.88,.26-.95,.49,1.47,.92,1.4,1.15-.24,.44-.31,.68-.77,.27-.84,.5-.51,.33-.59,.57,.76,.79,.67,1.02-1.02,.14-1.11,.37,.25,.63,.16,.86c-.1,.22-.07,.51-.17,.72s-.75,.17-.86,.39-.07,.5-.18,.71-.15,.46-.26,.68,.84,.95,.73,1.17-1.88-.39-1.98-.18-.15,.46-.26,.67-.54,.27-.64,.48,.76,.92,.65,1.14-.74,.16-.85,.37-.45,.31-.56,.52,1.27,1.2,1.16,1.41-2.34-.68-2.45-.47,1.74,1.46,1.63,1.67-.55,.25-.67,.46-.84,.1-.95,.31-.88,.07-1,.28,0,.55-.11,.76,.06,.58-.05,.79-1.09-.06-1.2,.15,1.81,1.56,1.7,1.77-2.22-.69-2.34-.48,1.49,1.39,1.37,1.6-.22,.43-.34,.64-1.64-.38-1.76-.18,1.83,1.61,1.71,1.82-1.3-.2-1.43,0-.32,.37-.44,.57-.37,.34-.5,.54-.05,.53-.18,.73-1.57-.38-1.69-.18,.63,.94,.51,1.14-.12,.49-.25,.69-1.15-.14-1.27,.06,.14,.65,.02,.85,.3,.75,.17,.95-1.12-.14-1.25,.06,1.14,1.28,1.01,1.49-1.86-.62-1.99-.41,1.34,1.43,1.21,1.63-.31,.37-.44,.57,.5,.9,.37,1.1-1.56-.44-1.69-.24-1.19-.22-1.33-.02,.7,1.04,.57,1.24,.28,.76,.14,.96-.31,.37-.44,.57-.53,.22-.67,.42-.94-.06-1.08,.13,.61,1,.48,1.2-1.31-.32-1.44-.13,1.29,1.49,1.15,1.68-.24,.43-.37,.62-1.39-.39-1.53-.2-.46,.26-.6,.46-.71,.08-.85,.27,.67,1.07,.52,1.27-.97-.12-1.12,.08-.83-.02-.97,.18,.3,.81,.16,1.01,.07,.65-.07,.84-.06,.55-.2,.74,.65,1.09,.5,1.28-.58,.16-.73,.35-.75,.03-.9,.22-1.44-.51-1.59-.32,.2,.76,.05,.95-.87-.08-1.02,.11-.3,.37-.45,.56,.18,.75,.03,.94,.77,1.23,.62,1.42-.73,.03-.88,.21,.04,.65-.11,.84-1.3-.44-1.45-.26-.73,.02-.88,.2-.04,.59-.19,.77,1.37,1.77,1.21,1.95-2.26-1.27-2.41-1.09,1.48,1.88,1.32,2.06-.94-.17-1.09,.02-.21,.45-.36,.64,.32,.92,.17,1.1-.76-.02-.91,.16-.97-.21-1.13-.03,.45,1.04,.29,1.21-.76-.03-.92,.14-.6,.11-.76,.29-1.23-.47-1.39-.29,.11,.74-.05,.92-.17,.49-.34,.66,1.09,1.66,.93,1.83-1.14-.41-1.31-.23-.33,.35-.49,.52-.68,.02-.84,.19-.79-.09-.95,.08,.36,1.01,.2,1.18,1.02,.56,.85,.73c-.07,.36-2.19,.12-2.19,.48s1.65,.37,1.65,.74-1.52,.37-1.52,.73-.26,.37-.26,.74,1.12,.37,1.12,.74,1.16,.37,1.16,.74-2.02,.37-2.02,.74,1.4,.37,1.4,.74-1.33,.37-1.33,.74,1.42,.37,1.42,.74-.77,.37-.77,.74-.94,.37-.94,.74,.48,.37,.48,.74,.24,.37,.24,.74,.89-.48,1.15-.21-.63,.25-.27,.25,.36,.25,.72,.25,.36,1.27,.72,1.27,.36-1.27,.72-1.27,.36-.56,.72-.56,.36,2.27,.72,2.27,.36-.08,.72-.08,.36,.28,.72,.28,.36-1.21,.72-1.21,.36-.05,.72-.05,.36-.61,.72-.61,.36,1.46,.72,1.46,.36,.32,.72,.32,.36-.38,.72-.38,.36,.3,.72,.3,.36-1.84,.72-1.84,.36,0,.72,0,.36-.41,.72-.41,.36,1.76,.72,1.76,.36-2,.72-2,.36,.71,.72,.71,.36,1.54,.73,1.54,.36-.32,.72-.32,.36-1.32,.72-1.32,.36,1.72,.72,1.72,.36-1.79,.72-1.79,.36,.29,.72,.29,.36,1.26,.73,1.26,.36-1.75,.73-1.75,.36,2.16,.73,2.16,.36-1.59,.72-1.59,.36,.32,.73,.32,.36,.42,.72,.42,.36,.92,.72,.92,.36-1.61,.72-1.61,.36,.84,.73,.84,.36,.43,.73,.43,.36-1.38,.72-1.38,.36,.7,.72,.7,.36,.77,.73,.77,.36-1.31,.73-1.31,.36-.26,.73-.26,.36-.96,.73-.96,.36,.99,.73,.99,.36-.31,.73-.31,.36-.49,.73-.49,.36,.5,.73,.5,.37-.23,.73-.23,.37,2,.73,2,.37-2.27,.73-2.27,.37,.39,.73,.39c.25,0,.5,.3,.74,.31s.48,.63,.72,.64,.55-.92,.79-.91,.36,1.7,.6,1.73,.41,.54,.64,.57,.61-1,.84-.96,.7-1.16,.94-1.11,.14,1.84,.37,1.89,.51-.15,.75-.09,1-1.73,1.23-1.66,.4,.51,.63,.59,.18,1.02,.4,1.11,.29,.57,.51,.67,.59-.13,.81-.02,1.05-.86,1.26-.75-.74,2.21-.53,2.34,.16,.52,.36,.66,1.31-.98,1.5-.83-.7,1.54-.52,1.7,1.07-.49,1.24-.32,1.32-.55,1.48-.37-.62,1.19-.47,1.38,.73,.06,.87,.26-.34,.81-.21,1.01,.85,.05,.97,.27-.35,.73-.24,.94,1.61-.2,1.71,.03-.97,.94-.88,1.17,1.28,.07,1.35,.31-2.15,1.17-2.08,1.41,.5,.32,.56,.56-.19,.5-.14,.74,.59,.34,.63,.58,.43,.4,.46,.64,.21,.45,.24,.69,.31,.45,.33,.69-1.35,.58-1.34,.82,1.52,.38,1.53,.63,.33,.48,.34,.73,.5,.5,.5,.74,.28,.51,.28,.74-.17,.5-.18,.74-.86,.45-.88,.69-.08,.48-.1,.72-.66,.41-.69,.65,.68,.57,.65,.8,.74,.62,.7,.86,.09,.54,.04,.77-1.27,.23-1.33,.46,.61,.67,.55,.9-1.39,.09-1.47,.32-.27,.39-.35,.61-.87,.13-.96,.35-.17,.38-.27,.6,1.34,1.17,1.23,1.38,.06,.61-.06,.81-.92,0-1.05,.21-.39,.3-.53,.49,.03,.63-.12,.81-.34,.34-.5,.52-1.1-.44-1.27-.27,.14,.8-.04,.96-1.05-.61-1.24-.46,.26,1.08,.07,1.22-.62-.15-.83-.02,.68,2.13,.47,2.25-1.5-1.86-1.71-1.75,.35,1.9,.14,1.99-.53,.04-.75,.13-.52,.03-.74,.11-.37,.49-.6,.56-1.03-2.03-1.26-1.98,.09,2.47-.14,2.52-.79-1.51-1.02-1.47-.47-.09-.71-.06-.2,2.14-.44,2.16-.66-1.59-.9-1.57-.5-.51-.74-.49-.47-.5-.72-.49-.43,.91-.67,.92-.47-.26-.71-.26c-.36,0-.36-.1-.72-.1s-.36,1.54-.72,1.54-.36-1.32-.72-1.32-.36,2.15-.72,2.15-.36-.82-.72-.82-.36-.25-.72-.25-.36-.28-.72-.28-.36,.19-.72,.19-.36-1.5-.72-1.5-.36,1.02-.72,1.02-.36-.6-.72-.6-.36,.69-.72,.69-.36-.18-.72-.18-.36-.12-.72-.12-.36-.24-.72-.24-.36,1.95-.72,1.95-.36-1.51-.72-1.51-.36-.79-.72-.79-.36,1.52-.72,1.52-.36-.42-.72-.42-.36-.94-.72-.94-.36,.89-.73,.89-.36-1.2-.72-1.2-.36,2.44-.72,2.44-.36-.02-.72-.02-.36,.18-.72,.18-.36-2.96-.72-2.96-.36,2.83-.73,2.83-.36-2.19-.73-2.19-.36-.02-.73-.02-.36,.33-.72,.33-.36,.74-.73,.74-.36-1.59-.72-1.59-.36,1.26-.72,1.26-.36,.17-.72,.17-.36-.42-.73-.42-.36-.96-.73-.96-.36,.71-.72,.71-.36,1.52-.72,1.52-.36-1.54-.73-1.54-.36,.61-.73,.61-.36-.48-.73-.48-.36,1.84-.73,1.84-.36,.03-.73,.03-.36-.87-.73-.87-.36,.84-.73,.84-.36-2.33-.73-2.33-.37,2.13-.73,2.13-.37-2.53-.73-2.53-.37,2.69-.73,2.69-1.52-2.61-1.78-2.35,.84,1.42,.84,1.78,1.64,.36,1.64,.72-.42,.36-.42,.72,.04,.36,.04,.72,.2,.36,.2,.72-2.15,.36-2.15,.72-.14,.36-.14,.72-.13,.36-.13,.72,2.39,.36,2.39,.72-.25,.36-.25,.72,.28,.36,.28,.72-1.44,.36-1.44,.72,1.22,.36,1.22,.72-1.68,.36-1.68,.72-.7,.36-.7,.72,.66,.36,.66,.72,0,.36,0,.72,1.91,.36,1.91,.72-.19,.36-.19,.72-2.49,.36-2.49,.72,1.92,.36,1.92,.72-.84,.36-.84,.72-.9,.36-.9,.72-.22,.36-.22,.72,.47,.36,.47,.72,2.36,.36,2.36,.72-2.74,.36-2.74,.72,2.11,.36,2.11,.72-1.44,.36-1.44,.72,.96,.36,.96,.72,1.14,.36,1.14,.72-1.49,.36-1.49,.72,.59,.36,.59,.72,.83,.36,.83,.72-1.82,.36-1.82,.72,.57,.36,.57,.72-.33,.36-.33,.72-.3,.36-.3,.72-.34,.36-.34,.72,1.4,.36,1.4,.72-.35,.36-.35,.72-.1,.36-.1,.72-.58,.36-.58,.72,1.27,.36,1.27,.72-1.3,.36-1.3,.72,1.27,.36,1.27,.72-1.81,.36-1.81,.72,2.06,.36,2.06,.72-1.88,.36-1.88,.72,.84,.36,.84,.72-.63,.36-.63,.72,0,.36,0,.72,1.67,.36,1.67,.72-1.31,.36-1.31,.72,1.08,.36,1.08,.72,.26,.36,.26,.72-2.27,.36-2.27,.72,.96,.36,.96,.72,.67,.36,.67,.72-.79,.36-.79,.72-.24,.36-.24,.72,1.46,.36,1.46,.72,.64,.36,.64,.72-.35,.36-.35,.72,.2,.36,.2,.72-1.6,.36-1.6,.72-.44,.36-.44,.73,2.04,.36,2.04,.72-.01,.36-.01,.72-2.06,.36-2.06,.72,1.47,.36,1.47,.72-1.97,.36-1.97,.72,1.34,.36,1.34,.73,1.43,.36,1.43,.73-2.42,.36-2.42,.72,1.86,.36,1.86,.72-2.17,.36-2.17,.72,2.59,.36,2.59,.72-1.38,.36-1.38,.72-.07,.36-.07,.72-1.32,.36-1.32,.73,.4,.36,.4,.73-.16,.36-.16,.72,.04,.36,.04,.72,1.87,.36,1.87,.73,.37,.36,.37,.73-1.01,.36-1.01,.73,.99,.36,.99,.73-2.4,.36-2.4,.73,.91,.36,.91,.73-.13,.36-.13,.73,1.53,.36,1.53,.73,.47,.37,.47,.73,.08,.37,.08,.73-.53,.37-.53,.73,.51,.37,.51,.73c0,.25-2.02,.49-2.02,.73s1.74,.51,1.74,.75-1.24,.47-1.24,.71-.2,.48-.21,.72,1.37,.53,1.37,.77-.47,.48-.48,.72-.66,.46-.68,.7,.68,.53,.66,.77,.34,.52,.32,.76-1.81,.37-1.83,.61,1.97,.64,1.95,.88-.76,.43-.79,.67-1.68,.32-1.7,.56,.13,.49,.1,.73-.64,.4-.66,.64,1.34,.65,1.3,.89-1.41,.28-1.45,.52,1.73,.76,1.7,.99-.26,.45-.31,.69,.15,.53,.11,.76-1.23,.25-1.28,.48,1.91,.91,1.86,1.15-.72,.35-.77,.58-.79,.31-.85,.54,.85,.75,.78,.98-1.22,.16-1.29,.38-.43,.36-.51,.59,.23,.59,.15,.81-.59,.29-.67,.51,.3,.64,.21,.85c-.09,.23-.2,.44-.29,.66s.32,.68,.22,.9-1.22-.04-1.33,.18-.22,.41-.34,.63,.58,.87,.46,1.08,.4,.83,.27,1.03-.89,.04-1.03,.24-.95-.06-1.09,.14,.07,.65-.07,.84-.98-.16-1.13,.03-.49,.18-.65,.37,.93,1.45,.77,1.63-.18,.52-.35,.69-1.68-1-1.86-.83,.48,1.19,.3,1.35,0,.75-.18,.91-.06,.72-.25,.87-1.42-1-1.61-.86-.95-.52-1.15-.37-.35,.27-.55,.41,.71,1.91,.5,2.04-.5,.14-.7,.26-.93-.63-1.14-.5,.16,1.28-.05,1.39c-.21,.11-1.33-1.58-1.55-1.47s.08,1.23-.14,1.33,.02,1.19-.2,1.29-.41,.29-.63,.39-.4,.32-.62,.41-.93-1-1.15-.91-.47,.11-.69,.2-.4,.29-.63,.37-.55-.14-.78-.06,.16,1.97-.07,2.04-.47,.17-.7,.24-.55-.09-.78-.02-.38,.45-.62,.51-.62-.35-.85-.29-.71-.76-.94-.7-.45,.18-.68,.25-.22,1.1-.46,1.16-1.04-2.28-1.28-2.23-.33,.65-.57,.71-.06,1.95-.3,2-.74-1.18-.98-1.13-.56-.37-.8-.32-.58-.5-.81-.46-.31,.96-.54,1.01-.48,.06-.71,.1-.46,.13-.7,.17-.62-.94-.86-.9-.26,1.48-.5,1.52-.32,1.24-.56,1.27-.77-2.17-1.02-2.14-.37,.91-.61,.94-.39,.87-.63,.9-.42,.68-.66,.71-.48,.13-.72,.15-.68-1.93-.92-1.91-.44,.54-.68,.57c-.24,0-.48-.68-.72-.68s-.47,1.99-.71,1.99-.5-.28-.73-.28-.46-1.12-.7-1.12-.49,.18-.73,.17-.5,.28-.74,.26-.45-.41-.69-.43-.62,1.28-.86,1.26-.29-1.71-.53-1.74-.34-.89-.58-.93-.69,1.34-.93,1.3-.3-.96-.54-1.01-.78,1.36-1.01,1.31-.44-.31-.67-.36-.25-.96-.48-1.02-.63,.45-.86,.38-.18-.98-.41-1.06-.93,1.18-1.16,1.09-.13-1.03-.35-1.12-.84,.7-1.05,.61-.46-.22-.67-.33,.63-2.27,.42-2.38-1.28,1.36-1.48,1.24-.53-.08-.73-.21-.07-.78-.27-.91-1.21,.84-1.4,.7,.71-1.74,.53-1.89-.77,.2-.95,.04,.1-.81-.08-.98-1.26,.61-1.43,.44,.33-.99,.17-1.17-1.53,.69-1.68,.5,.1-.76-.05-.94-.63-.17-.77-.36,1.24-1.47,1.11-1.67,.26-.7,.13-.9-1.34,.28-1.46,.07-.3-.38-.42-.59-.27-.4-.37-.62,.96-.97,.86-1.19-.61-.22-.7-.45,.21-.58,.13-.8-1.29-.01-1.37-.24Z"/><path class="cls-1" d="M292.62,356c-.24,0-.45-1.69-.69-1.7s-.43-.41-.67-.42-.48,.43-.72,.4-.73,2.1-.96,2.07-.34-1.19-.57-1.23-.57,.34-.8,.29-.26-1.06-.49-1.12-.83,1.17-1.06,1.11-.22-.96-.45-1.04-.67,.39-.9,.3-.69,.28-.9,.19-.23-.74-.44-.85-.7,.21-.91,.09,.41-1.66,.2-1.78-.1-.66-.3-.79-.28-.34-.47-.49-1.5,1.13-1.69,.97-.66-.03-.84-.19,.79-1.53,.62-1.7c-.17-.17-.5-.17-.66-.34s-.41-.26-.57-.44-.17-.46-.32-.65-.1-.5-.23-.69-1.53,.42-1.66,.22,.25-.74,.13-.95,.64-.87,.53-1.09-1.87,.34-1.96,.12,.89-.92,.81-1.14-1.34-.05-1.42-.28,.52-.71,.46-.94,1.05-.78,.99-1.01-.97-.26-1.02-.49-.4-.42-.44-.66-.02-.5-.05-.74-.08-.49-.1-.73-.52-.46-.53-.7,1.24-.55,1.23-.79-1.02-.47-1.02-.71c0-.36,1.96-.36,1.96-.72s-2.59-.36-2.59-.72,2.43-.36,2.43-.72-1.17-.36-1.17-.72,.93-.36,.93-.72-.19-.36-.19-.72-1.22-.36-1.22-.71,1.24-.36,1.24-.71,.43-.36,.43-.71-1.69-.36-1.69-.71,1.57-.36,1.57-.71-.81-.36-.81-.71-.6-.36-.6-.72,.05-.36,.05-.72-.92-.36-.92-.72,.54-.36,.54-.72,.48-.36,.48-.72-.4-.36-.4-.72,.94-.36,.94-.72-1.42-.36-1.42-.72-.13-.36-.13-.72,1.99-.36,1.99-.72-1.31-.36-1.31-.72-.03-.36-.03-.72,.57-.36,.57-.72,.64-.36,.64-.72-.71-.36-.71-.72,.43-.36,.43-.72-.28-.36-.28-.72-.9-.36-.9-.72-.44-.36-.44-.72,2.26-.36,2.26-.72,.05-.36,.05-.72-.94-.36-.94-.72-.49-.36-.49-.72-.86-.36-.86-.72,1.47-.36,1.47-.72,.72-.36,.72-.72,.13-.36,.13-.72-1.92-.36-1.92-.72,1.35-.36,1.35-.72-.47-.36-.47-.72,.49-.36,.49-.72-1.47-.36-1.47-.72,2.35-.36,2.35-.72-1.36-.36-1.36-.72,1.36-.36,1.36-.72-1.38-.36-1.38-.71,.18-.36,.18-.71-.3-.36-.3-.71,.97-.36,.97-.71-.53-.36-.53-.71-1.58-.36-1.58-.71,1.92-.36,1.92-.71,.46-.36,.46-.71-.25-.36-.25-.71-1.59-.36-1.59-.71,1.65-.36,1.65-.71-.51-.36-.51-.71-.36-.36-.36-.71,.94-.36,.94-.71-1.85-.36-1.85-.71-.44-.36-.44-.71,1.19-.36,1.19-.71-.34-.36-.34-.71,.56-.36,.56-.71,.88-.36,.88-.71-.11-.36-.11-.71,.38-.36,.38-.71-1.03-.36-1.03-.71-.5-.36-.5-.71,.15-.36,.15-.71,.72-.36,.72-.71-1.2-.36-1.2-.72,.11-.36,.11-.72,1.26-.36,1.26-.72-1.21-.36-1.21-.72,1.31-.36,1.31-.72,.39-.36,.39-.72-.22-.36-.22-.72-2.13-.36-2.13-.72-.09-.36-.09-.72,2.26-.36,2.26-.72-1.96-.36-1.96-.72,.6-.36,.6-.72,.82-.36,.82-.72-1.84-.36-1.84-.72,.16-.36,.16-.72,2.44-.36,2.44-.72-1.32-.36-1.32-.72,.93-.36,.93-.72-1.14-.36-1.14-.72-.52-.36-.52-.72,1.28-.36,1.28-.72-1.54-.36-1.54-.72,1.33-.36,1.33-.72-1.16-.36-1.16-.72,1.87-.36,1.87-.72-1.78-.36-1.78-.72,.97-.36,.97-.72-1.41-.36-1.41-.72,1.24-.36,1.24-.72-.17-.36-.17-.72-.32-.36-.32-.72,.36-.36,.36-.72-.5-.36-.5-.72,1.95-.36,1.95-.72-2.01-.36-2.01-.72,.14-.36,.14-.72,.78-.36,.78-.72-.45-.36-.45-.72-.97-.36-.97-.72,1.82-.36,1.82-.72-.96-.36-.96-.72,.04-.36,.04-.72-.31-.36-.31-.72,1.51-.36,1.51-.72-1.14-.36-1.14-.72,.95-.36,.95-.72-1.04-.36-1.04-.72,.56-.36,.56-.72-.69-.36-.69-.72,.6-.36,.6-.72-.45-.36-.45-.72,.87-.36,.87-.72,.05-.36,.05-.72,.49-.36,.49-.72-2.15-.36-2.15-.72-.01-.36-.01-.72,.6-.36,.6-.72,1.01-.36,1.01-.72-.05-.36-.05-.72-1.3-.36-1.3-.72,1.19-.36,1.19-.72,.41-.36,.41-.72-.04-.36-.04-.72-1.62-.36-1.62-.72,.02-.36,.02-.72,1.13-.36,1.13-.72-1.58-.36-1.58-.72,.7-.36,.7-.72,.83-.36,.83-.72-1.46-.36-1.46-.72,2.42-.36,2.42-.72-2.16-.36-2.16-.72,1.55-.36,1.55-.72-.77-.36-.77-.72-.52-.36-.52-.72,.55-.36,.55-.72-.79-.36-.79-.72,.9-.36,.9-.72-.39-.36-.39-.72,1.12-.36,1.12-.72-1.95-.36-1.95-.72,2.52-.36,2.52-.72-1.79-.36-1.79-.72,1.61-.36,1.61-.72-.28-.36-.28-.72-1.87-.36-1.87-.72,2.32-.36,2.32-.72-.86-.36-.86-.72,.07-.36,.07-.72-1.07-.36-1.07-.72,.06-.36,.06-.72-.36-.36-.36-.72,.82-.36,.82-.72-.49-.36-.49-.72-.75-.36-.75-.72,2.64-.36,2.64-.72-.95-.36-.95-.72-.17-.36-.17-.72-.82-.36-.82-.72,1.83-.36,1.83-.72-2.49-.36-2.49-.72,1.41-.36,1.41-.72,.25-.36,.25-.72,.22-.36,.22-.72-1.13-.36-1.13-.72,1.08-.36,1.08-.72-1.86-.36-1.86-.72,1.52-.36,1.52-.72,.05-.36,.05-.72-.18-.36-.18-.72,.55-.36,.55-.72-1.94-.36-1.94-.72,.48-.36,.48-.72,1.64-.36,1.64-.72-.35-.36-.35-.72-.13-.36-.13-.72,.55-.36,.55-.72-1.05-.36-1.05-.72-.12-.36-.12-.72-.63-.36-.63-.72,1.23-.36,1.23-.72-.58-.36-.58-.72-.46-.36-.46-.72,2-.36,2-.72-.19-.36-.19-.72-.22-.36-.22-.72-1.16-.36-1.16-.72,1.21-.36,1.21-.72-1.69-.36-1.69-.72,1.89-.36,1.89-.72-.08-.36-.08-.72-1.48-.36-1.48-.72,.63-.36,.63-.72,.5-.36,.5-.72-.75-.36-.75-.72,.82-.36,.82-.72-1.16-.36-1.16-.72,.49-.36,.49-.72-.58-.36-.58-.72,1.83-.36,1.83-.72-.14-.36-.14-.72-1.52-.36-1.52-.72,.53-.36,.53-.72,.4-.36,.4-.72-.9-.36-.9-.72-.02-.36-.02-.72,1.01-.36,1.01-.72-1.83-.36-1.83-.72,.46-.36,.46-.72,1.49-.36,1.49-.72,.08-.36,.08-.72,.05-.36,.05-.72,.03-.36,.03-.72-1.79-.36-1.79-.72-.38-.36-.38-.72,.03-.36,.03-.72,.83-.36,.83-.72,.14-.36,.14-.72,.33-.36,.33-.72-.06-.36-.06-.72-.14-.36-.14-.72-.57-.36-.57-.72,.61-.36,.61-.73,.83-.36,.83-.72-1.11-.36-1.11-.72,.52-.36,.52-.72,1.12-.36,1.12-.73-1.49-.36-1.49-.73-1.1-.36-1.1-.73,2.04-.36,2.04-.73-.64-.36-.64-.73,.58-.36,.58-.73,.16-.36,.16-.72-.65-.36-.65-.73-1.33-.36-1.33-.73,.06-.37,.06-.73,.16-.37,.16-.73c0-.24,1.2-.47,1.21-.71s-.21-.49-.2-.72,.76-.41,.78-.65,.4-.41,.43-.64-2-.78-1.96-1.02,2.16-.08,2.21-.31-.32-.53-.27-.76-1.7-.97-1.64-1.2,.86-.27,.93-.5-.58-.76-.5-.99,.53-.35,.62-.57,1.59,.22,1.7,0-1.07-1.11-.95-1.32,.54-.27,.67-.48,1.05,.12,1.19-.08,.85,.07,.99-.12-.02-.56,.14-.75-.53-1.08-.37-1.26-.33-1.02-.16-1.19c.17-.17,.43-.32,.61-.48s.29-.48,.47-.64,1.95,1.67,2.14,1.52-.11-.91,.08-1.04,.12-.68,.32-.8,1.04,.87,1.25,.76,.24-.46,.45-.57-.21-1.54,.01-1.64,.5-.1,.72-.18,.86,.97,1.08,.9,.35-.37,.58-.44,.12-1.39,.36-1.44,.39-.6,.63-.64,.5-.16,.74-.2,.75,1.67,.99,1.64,.46-.05,.7-.08,.39-1.21,.63-1.22,.52,.77,.77,.77,.48,.13,.72,.13c.36,0,.36,.67,.72,.67s.36,.11,.72,.11,.36-1.97,.72-1.97,.36,.17,.72,.17,.36,.55,.72,.55,.36-.07,.72-.07,.36-.05,.72-.05,.36,1.11,.72,1.11,.36,.05,.72,.05,.36-1.71,.72-1.71,.36,.68,.72,.68,.36,.79,.72,.79,.36-1.41,.72-1.41,.36,1.59,.72,1.59,.36-1.53,.72-1.53,.36,.48,.72,.48,.36-.21,.72-.21,.36,1.47,.72,1.47,.36-1.85,.72-1.85,.36-.14,.72-.14,.36,.79,.72,.79,.36-.79,.72-.79,.36,1.84,.72,1.84,.36-1.8,.72-1.8,.36,2.31,.72,2.31,.36-1.29,.72-1.29,.36,.55,.72,.55,.36-.22,.72-.22,.36,.87,.72,.87,.36-2.53,.72-2.53,.36,.31,.72,.31,.36,2.06,.72,2.06,.36-.29,.72-.29,.36,.3,.72,.3,.36-1.13,.72-1.13,.36-.57,.72-.57,.36-.11,.72-.11,.36-.3,.72-.3,.36,.32,.72,.32,.36-.07,.72-.07,.36,.05,.72,.05,.36,.94,.72,.94,.36-.31,.72-.31,.36-.77,.72-.77,.36,1.09,.72,1.09,.36-1.49,.72-1.49,.36,.83,.72,.83,.36,.38,.72,.38,.36-1.2,.72-1.2,.36,.55,.72,.55,.36-.44,.72-.44,.36,2.22,.72,2.22,.36-1.91,.72-1.91,.36-.02,.72-.02,.36,.67,.72,.67,.36-.52,.72-.52,.36-.19,.72-.19,.36-.36,.72-.36,.36,1.01,.72,1.01,.36,.32,.72,.32,.36-.85,.72-.85,.36,.88,.72,.88,.36-1,.72-1,.36,.02,.72,.02,.36,.09,.72,.09,.36,1.33,.72,1.33,.36,.33,.72,.33,.36-.45,.72-.45,.36-.71,.72-.71,.36-.5,.72-.5,.36-.09,.72-.09,.36-.24,.72-.24,.36,.07,.72,.07,.36,1.37,.72,1.37,.36,.84,.72,.84,.36-1.77,.72-1.77,.36,1.9,.72,1.9,.36-.39,.72-.39,.36-.42,.72-.42,.36-.12,.72-.12,.36-.85,.72-.85,.36,.91,.72,.91,.36,.74,.72,.74,.36-1.18,.72-1.18,.36-1.09,.72-1.09,.36-.1,.72-.1,.36,1.52,.72,1.52,.36-1.33,.72-1.33,.36,.56,.72,.56,.36,1.84,.72,1.84,.36-1.71,.72-1.71,.36-.47,.72-.47,.36,.4,.72,.4,.36,.62,.72,.62,.36,1.07,.72,1.07,.36-.1,.72-.1,.36-1.13,.72-1.13,.36,.8,.72,.8,.36-1.55,.72-1.55,.36,.76,.72,.76,.36-1.31,.72-1.31,.36,1.01,.72,1.01,.36,.7,.72,.7,.36-1.49,.72-1.49,.36,.94,.72,.94,.36,.63,.72,.63,.36-.72,.72-.72,.36-.56,.72-.56,.36,.7,.73,.7,.36,.64,.72,.64,.36-.24,.72-.24,.36-.31,.72-.31,.36,.05,.72,.05,.36-1.01,.72-1.01,.36,1.26,.72,1.26,.36,.77,.72,.77,.36-.02,.73-.02,.36-.51,.72-.51,.36-.87,.72-.87,.36-.77,.72-.77,.36,2.17,.73,2.17,.36-.16,.73-.16,.36-.9,.73-.9,.36-.78,.73-.78,.36,1.1,.73,1.1,.36-.72,.73-.72,.36,1.72,.73,1.72,.36-.11,.73-.11,.37,.1,.73,.1,.37-.64,.73-.64,.37-.99,.73-.99,.36,.96,.72,.96,.36-.3,.72-.3,.36,.89,.72,.89,.36-1.73,.72-1.73,.36-.19,.72-.19,.36-.22,.72-.22,.36,.09,.72,.09,.36-.15,.72-.15,.36,2.16,.72,2.16,.36-1.18,.72-1.18,.36,.34,.72,.34,.36,.08,.72,.08,.36,.84,.72,.84,.36-.29,.72-.29,.36-.4,.72-.4,.36-.3,.72-.3,.36,.78,.72,.78,.36-.27,.72-.27,.36-.43,.72-.43,.36,.67,.72,.67,.36-.41,.72-.41,.36-1.4,.72-1.4,.36,1.87,.72,1.87,.36-1.61,.72-1.61,.36,1.55,.72,1.55,.36-.58,.72-.58,.36-.21,.72-.21,.36,.46,.72,.46,.36-1.49,.72-1.49,.36,1.51,.72,1.51,.36,.63,.72,.63,.36-1.27,.72-1.27,.36,1.04,.72,1.04,.36,.23,.72,.23,.36-1.2,.72-1.2,.36,.62,.72,.62,.36-.41,.72-.41,.36,.73,.72,.73,.36-1.19,.72-1.19,.36,1.04,.72,1.04,.36-1.97,.72-1.97,.36,1.99,.72,1.99,.36-2.21,.72-2.21,.36,.9,.72,.9,.36-.68,.72-.68,.36,.71,.72,.71,.36-.14,.72-.14,.36,1.65,.72,1.65,.36-.09,.72-.09,.36-1.74,.72-1.74,.36,1.33,.72,1.33,.36-1.12,.72-1.12,.36,1.19,.72,1.19,.36-1.15,.72-1.15,.36,.46,.72,.46,.36,.84,.72,.84,.36-1.7,.72-1.7,.36,.57,.72,.57,.36,.06,.72,.06,.36,1.19,.72,1.19,.36-.04,.72-.04,.36-.2,.72-.2,.36,.58,.72,.58,.36-1.3,.72-1.3,.36-.43,.72-.43,.36-.13,.72-.13,.36,.1,.72,.1,.36,1.33,.72,1.33,.36-.55,.72-.55,.36-1.07,.72-1.07,.36,1.51,.72,1.51,.36,.32,.72,.32,.36-2.28,.72-2.28,.36,1.51,.72,1.51,.36,.44,.72,.44,.36-1.09,.72-1.09,.36-.48,.72-.48,.36,1.92,.72,1.92,.36-.1,.72-.1,.36-1.69,.72-1.69,.36-.44,.72-.44,.36,.01,.72,.01,.36,.93,.72,.93,.36-1.1,.72-1.1,.36,.47,.72,.47,.36,.21,.72,.21,.36,1.84,.72,1.84,.36-.58,.72-.58,.36,.34,.72,.34,.36-1.96,.72-1.96,.36,1.01,.72,1.01,.36-1.25,.72-1.25,.36,.76,.72,.76,.36,1.39,.72,1.39,.36-1.86,.72-1.86,.36,1.67,.72,1.67,.36-1.89,.72-1.89,.36-.09,.72-.09,.36,2.46,.72,2.46,.36-1.65,.72-1.65,.36,1.35,.72,1.35,.36-.81,.72-.81,.36-.14,.72-.14,.36-.46,.72-.46,.36,1.55,.72,1.55,.36-1.61,.72-1.61,.36,.01,.72,.01,.36,.51,.72,.51,.36,.79,.73,.79,.36-1.46,.72-1.46,.36,.17,.72,.17,.36,1.32,.72,1.32,.36-1.19,.72-1.19,.36,.4,.72,.4,.36,.19,.72,.19,.36-.49,.72-.49,.36-.46,.73-.46,.36,1.66,.72,1.66,.36-.81,.72-.81,.36-.52,.72-.52,.36,.11,.73,.11,.36,.37,.73,.37,.36,1.23,.73,1.23,.36-2.3,.73-2.3,.36,.41,.73,.41,.36,.97,.73,.97,.36,.66,.73,.66,.36-1.33,.73-1.33,.37,1.26,.73,1.26,.37-2.09,.73-2.09,.37,1.18,.73,1.18c.24,0,.5-.68,.74-.67s.53-.44,.77-.43,.52,.02,.76,.04,.26,1.99,.5,2.02,.53-.41,.76-.37,.57-.44,.8-.39,.31,.77,.54,.83,.65-.59,.88-.52,.35,.49,.58,.57,.4,.28,.62,.37,.09,.94,.31,1.04,.92-.89,1.14-.78,.49,.11,.7,.23,.57,0,.77,.13,.89-.4,1.08-.27-.35,1.35-.16,1.49-.37,1.19-.19,1.34,1.56-1.08,1.74-.91-.45,1.17-.28,1.34c.17,.17,.75-.06,.91,.11s.32,.37,.47,.55-.57,1.05-.43,1.24,1.05-.2,1.19,0,.58,.2,.71,.4-1.12,1.19-1,1.4,1.29-.18,1.39,.04-.04,.54,.06,.76,.45,.32,.54,.54-.94,.82-.86,1.05,2.19-.2,2.26,.03-1.01,.78-.95,1.02,.15,.45,.2,.68-.09,.49-.05,.73,.76,.37,.8,.61-1.37,.62-1.35,.86-.09,.44-.07,.69-.06,.44-.05,.68,2.2,.44,2.2,.68c0,.36-2.05,.36-2.05,.72s1.37,.36,1.37,.72-.19,.36-.19,.72-.26,.36-.26,.72,.67,.36,.67,.72,.39,.36,.39,.72-.9,.36-.9,.71,.65,.36,.65,.71-.48,.36-.48,.71,1.25,.36,1.25,.71-.63,.36-.63,.71-1.82,.36-1.82,.71,1.67,.36,1.67,.72-1.74,.36-1.74,.72,1.02,.36,1.02,.72,.87,.36,.87,.72-.59,.36-.59,.72-.81,.36-.81,.72,.46,.36,.46,.72,1.25,.36,1.25,.72-.02,.36-.02,.72-.63,.36-.63,.72-.87,.36-.87,.72,1.48,.36,1.48,.72,.06,.36,.06,.72-.13,.36-.13,.72-1.21,.36-1.21,.72-.92,.36-.92,.72-.02,.36-.02,.72,2.23,.36,2.23,.72-.05,.36-.05,.72-.58,.36-.58,.72-.49,.36-.49,.72,1.15,.36,1.15,.72-.69,.36-.69,.72-1.53,.36-1.53,.72,.4,.36,.4,.72,1.3,.36,1.3,.72,.38,.36,.38,.72-.43,.36-.43,.72,.64,.36,.64,.72-.72,.36-.72,.72,.97,.36,.97,.72-.22,.36-.22,.72,.14,.36,.14,.72-.33,.36-.33,.72-1.41,.36-1.41,.72,1.65,.36,1.65,.71,.16,.36,.16,.71-1.69,.36-1.69,.71,1.51,.36,1.51,.71-.83,.36-.83,.71,.06,.36,.06,.71-1.01,.36-1.01,.71,.82,.36,.82,.71-.8,.36-.8,.71,.52,.36,.52,.71-.69,.36-.69,.71,.98,.36,.98,.71,.35,.36,.35,.71,.79,.36,.79,.71-1.29,.36-1.29,.71,.08,.36,.08,.71-1.39,.36-1.39,.71,1.65,.36,1.65,.71-1.03,.36-1.03,.71,1.11,.36,1.11,.71,.73,.36,.73,.71-.86,.36-.86,.71-.54,.36-.54,.71-.98,.36-.98,.71,1.98,.36,1.98,.71-.62,.36-.62,.71,.29,.36,.29,.72,.83,.36,.83,.72-2.19,.36-2.19,.72,1.99,.36,1.99,.72-.42,.36-.42,.72-.6,.36-.6,.72-.59,.36-.59,.72,1.35,.36,1.35,.72,.5,.36,.5,.72-1.63,.36-1.63,.72-.52,.36-.52,.72,1.26,.36,1.26,.72-1.5,.36-1.5,.72,.8,.36,.8,.72,.1,.36,.1,.72,1.29,.36,1.29,.72-.98,.36-.98,.72,.08,.36,.08,.72,.88,.36,.88,.72-1.49,.36-1.49,.72,1.32,.36,1.32,.72-1.86,.36-1.86,.72,.44,.36,.44,.72,.33,.36,.33,.72,1.45,.36,1.45,.72-1.51,.36-1.51,.72,.12,.36,.12,.72,1.36,.36,1.36,.72-1.93,.36-1.93,.72,1.83,.36,1.83,.72-.88,.36-.88,.72,.02,.36,.02,.72,.79,.36,.79,.72-.15,.36-.15,.72-.8,.36-.8,.72-.11,.36-.11,.72,.45,.36,.45,.72,.45,.36,.45,.72,.04,.36,.04,.72-.56,.36-.56,.72,.15,.36,.15,.72-.47,.36-.47,.72,.97,.36,.97,.72-2.17,.36-2.17,.72,2.29,.36,2.29,.72-.33,.36-.33,.72-2.1,.36-2.1,.72,1.76,.36,1.76,.72-.66,.36-.66,.72,1.5,.36,1.5,.72-.59,.36-.59,.72-.31,.36-.31,.72,.31,.36,.31,.72-1.68,.36-1.68,.72-.09,.36-.09,.72,.57,.36,.57,.72,1.47,.36,1.47,.72-.89,.36-.89,.72,.65,.36,.65,.72-.87,.36-.87,.72,.03,.36,.03,.72,.51,.36,.51,.72,.63,.36,.63,.72-.24,.36-.24,.72-.41,.36-.41,.72-.08,.36-.08,.72-.18,.36-.18,.72,.89,.36,.89,.72-.95,.36-.95,.72-.27,.36-.27,.72,1.04,.36,1.04,.72-.04,.36-.04,.72-.65,.36-.65,.72,1.11,.36,1.11,.72-.56,.36-.56,.72-1.58,.36-1.58,.72,1.04,.36,1.04,.72-.97,.36-.97,.72,2.1,.36,2.1,.72-.34,.36-.34,.72,.26,.36,.26,.72-1.74,.36-1.74,.72-.33,.36-.33,.72,1.18,.36,1.18,.72-1.03,.36-1.03,.72,.47,.36,.47,.72-.29,.36-.29,.72,.33,.36,.33,.72-.39,.36-.39,.72,.93,.36,.93,.72,.61,.36,.61,.72-1.07,.36-1.07,.72-.16,.36-.16,.72,1.2,.36,1.2,.72-.25,.36-.25,.72-.48,.36-.48,.72,.54,.36,.54,.72-1.42,.36-1.42,.72,.57,.36,.57,.72-.34,.36-.34,.72-.14,.36-.14,.72,1.61,.36,1.61,.72-.43,.36-.43,.72-1.29,.36-1.29,.72-.15,.36-.15,.72,.23,.36,.23,.72,1.06,.36,1.06,.72-.71,.36-.71,.72,1.14,.36,1.14,.72-1.2,.36-1.2,.72,.39,.36,.39,.72-.92,.36-.92,.72,1.44,.36,1.44,.72,.46,.36,.46,.72-.28,.36-.28,.72-1.84,.36-1.84,.72,.29,.36,.29,.72,.07,.36,.07,.72-.46,.36-.46,.72,1.28,.36,1.28,.72-1.19,.36-1.19,.72,.23,.36,.23,.72,.66,.36,.66,.72,.19,.36,.19,.72-.27,.36-.27,.72,.29,.36,.29,.72,.1,.36,.1,.72,1.21,.36,1.21,.72-.89,.36-.89,.72-.28,.36-.28,.72-.66,.36-.66,.72-.08,.36-.08,.72,1.66,.36,1.66,.72-1.94,.36-1.94,.72,.52,.36,.52,.72,.53,.36,.53,.72,.4,.36,.4,.72,.38,.36,.38,.72-1.73,.36-1.73,.72,.39,.36,.39,.72,.62,.36,.62,.72-.09,.36-.09,.72-1.08,.36-1.08,.72-.25,.36-.25,.72,2.22,.36,2.22,.72-2.25,.36-2.25,.72-.06,.36-.06,.72,.2,.36,.2,.72,1.53,.36,1.53,.72-1.02,.36-1.02,.72,1.41,.36,1.41,.72-1.95,.36-1.95,.72,1.64,.36,1.64,.72-.34,.36-.34,.72,1.1,.36,1.1,.72-1.99,.36-1.99,.72,1.58,.36,1.58,.72-2.13,.36-2.13,.72,2.28,.36,2.28,.72-.29,.36-.29,.72-1.5,.36-1.5,.72,.21,.36,.21,.72,1.7,.36,1.7,.73-1.66,.36-1.66,.72,.23,.36,.23,.72,.8,.36,.8,.72,.39,.36,.39,.73-2.14,.36-2.14,.73,2.07,.36,2.07,.73-2.01,.36-2.01,.73,1.93,.36,1.93,.73-.02,.36-.02,.73-.14,.36-.14,.72-1.06,.36-1.06,.73,.8,.36,.8,.73-.26,.37-.26,.73-1.09,.37-1.09,.73c0,.24,2.25,.52,2.24,.76s-2.29,.38-2.3,.62,1.76,.62,1.74,.85-.42,.46-.45,.69-.03,.5-.07,.73-1.08,.28-1.13,.52-.42,.37-.47,.6-.43,.34-.5,.56,.05,.47-.02,.7,1.63,1.1,1.54,1.33-.92,.16-1.02,.38-1.2-.06-1.3,.15,.16,.58,.05,.79,.79,1.02,.67,1.23-1.15-.18-1.28,.02,.96,1.3,.81,1.49-1.91-.91-2.06-.73,1.35,1.82,1.18,2-1.79-1.04-1.96-.87c-.17,.17,.84,1.58,.67,1.74s-1.38-.83-1.56-.68,.07,.84-.12,.98-.25,.49-.44,.63-.27,.5-.47,.63-1.13-.98-1.34-.86,.12,1.22-.09,1.33-.43,.24-.65,.34-.86-.84-1.08-.75,.07,1.57-.16,1.65-1.02-1.67-1.25-1.61-.22,.88-.45,.94-.27,.97-.5,1.02-.44,.37-.67,.41-.74-1.75-.98-1.72-.33,1.2-.57,1.22-.52-.7-.76-.69-.4,1.78-.65,1.79-.51-1.02-.75-1.02c-.36,0-.36,.1-.72,.1s-.36,.16-.72,.16-.36-1.57-.72-1.57-.36,.04-.72,.04-.36,.86-.72,.86-.36,.91-.72,.91-.36-.71-.72-.71-.36-.52-.72-.52-.36,1.15-.72,1.15-.36,0-.72,0-.36-.2-.72-.2-.36,.4-.72,.4-.36,.19-.72,.19-.36-1.46-.72-1.46-.36-.58-.72-.58-.36-.04-.72-.04-.36,2.14-.72,2.14-.36-1.91-.72-1.91-.36,.58-.72,.58-.36,.72-.72,.72-.36,.81-.72,.81-.36,.1-.72,.1-.36-1.86-.72-1.86-.36,1.28-.72,1.28-.36,.29-.72,.29-.36-1.58-.72-1.58-.36,.59-.72,.59-.36,.62-.72,.62-.36,.12-.72,.12-.36-.66-.72-.66-.36,.95-.72,.95-.36-.27-.72-.27-.36-.35-.72-.35-.36-.66-.72-.66-.36,.05-.72,.05-.36,.18-.72,.18-.36,1.09-.72,1.09-.36-2.19-.72-2.19-.36,.29-.72,.29-.36,2.07-.72,2.07-.36-1.12-.72-1.12-.36-1.22-.72-1.22-.36,.33-.72,.33-.36,.87-.72,.87-.36-.68-.72-.68-.36,1.54-.72,1.54-.36-.33-.72-.33-.36-.97-.72-.97-.36,1.7-.72,1.7-.36-1.72-.72-1.72-.36,.79-.72,.79-.36-.19-.72-.19-.36,.93-.72,.93-.36,.19-.72,.19-.36-.84-.72-.84-.36-.92-.72-.92-.36-.68-.72-.68-.36,.23-.72,.23-.36,2.23-.72,2.23-.36-1.19-.72-1.19-.36-1.09-.72-1.09-.36,1.17-.72,1.17-.36,.83-.72,.83-.36-.75-.72-.75-.36-.34-.72-.34-.36,1.15-.72,1.15-.36-1.7-.72-1.7-.36,1.29-.72,1.29-.36-1.01-.72-1.01-.36,.83-.72,.83-.36-.52-.72-.52-.36,.21-.72,.21-.36-.95-.72-.95-.36-.31-.72-.31-.36,.41-.72,.41-.36-.18-.72-.18-.36,1.41-.72,1.41-.36-.22-.72-.22-.36-1.12-.72-1.12-.36,1.11-.72,1.11-.36,.74-.72,.74-.36-2.08-.72-2.08-.36,2.36-.72,2.36-.36-.09-.72-.09-.36,0-.72,0-.36-1.83-.72-1.83-.36-.19-.72-.19-.36,1.3-.72,1.3-.36-.05-.72-.05-.36-1.39-.72-1.39-.36-.11-.72-.11-.36,2.18-.72,2.18-.36-1.29-.72-1.29-.36,.37-.72,.37-.36,.21-.72,.21-.36,.58-.72,.58-.36-.22-.72-.22-.36-1.53-.72-1.53-.36,.87-.72,.87-.36-.68-.72-.68-.36,.04-.72,.04-.36-.52-.72-.52-.36,1.98-.72,1.98-.36-1.83-.72-1.83-.36,1.58-.72,1.58-.36-1.11-.72-1.11-.36-.74-.72-.74-.36,1.16-.72,1.16-.36,.14-.72,.14-.36,.76-.72,.76-.36,.4-.72,.4-.36-1.66-.72-1.66-.36-.58-.72-.58-.36,1.78-.72,1.78-.36-1.28-.72-1.28-.36-.53-.72-.53-.36,1.31-.72,1.31-.36,.8-.72,.8-.36-1-.72-1-.36-1.33-.72-1.33-.36-.08-.72-.08-.36,1.59-.72,1.59-.36-.01-.72-.01-.36-1.62-.72-1.62-.36,1.73-.72,1.73-.36,.23-.72,.23-.36-1.06-.72-1.06-.36,1.05-.72,1.05-.36,.66-.72,.66-.36-.07-.72-.07-.36-2.33-.72-2.33-.36,.62-.72,.62-.36,0-.72,0-.36,1.66-.72,1.66-.36-2.17-.72-2.17-.36-.08-.72-.08-.36,2.02-.72,2.02-.36,.21-.72,.21-.36-.23-.72-.23-.36-2.24-.72-2.24-.36,.9-.72,.9-.36,.92-.72,.92-.36,.56-.72,.56-.36-1.38-.72-1.38-.36,1.58-.72,1.58-.36-1.79-.72-1.79-.36,.38-.72,.38-.36-.68-.72-.68-.36,1.12-.72,1.12-.36-1.6-.72-1.6-.36,2.01-.72,2.01-.36,.34-.72,.34-.36-2.05-.72-2.05-.36,.79-.72,.79-.36-.79-.72-.79-.36,1.54-.72,1.54-.36,.47-.72,.47-.36-1.63-.72-1.63-.36,.54-.72,.54-.36,.35-.72,.35-.36-1.39-.72-1.39-.36,.4-.72,.4-.36,1.05-.72,1.05-.36,.47-.72,.47-.36-1.69-.72-1.69-.36,1.55-.72,1.55-.36-.48-.72-.48-.36,1.03-.72,1.03-.36-.41-.72-.41-.36-.86-.72-.86-.36,.49-.72,.49-.36-1.79-.72-1.79-.36,2.03-.72,2.03-.36-.97-.72-.97-.36-.62-.72-.62-.36,1.46-.72,1.46-.36-1.34-.72-1.34-.36,2.03-.72,2.03-.36-2.56-.72-2.56-.36,2.6-.72,2.6-.36-.62-.72-.62-.36-.29-.72-.29-.36-.95-.72-.95-.36,1.72-.72,1.72-.36-.86-.72-.86-.36,.91-.72,.91-.36-2.04-.72-2.04-.36,1.35-.72,1.35-.36-.85-.72-.85-.36,.1-.72,.1-.36,1.51-.72,1.51-.36-2.17-.72-2.17-.36,1.65-.72,1.65-.36-.2-.72-.2-.36,.27-.72,.27-.36-.81-.72-.81-.36,.78-.72,.78-.36-1.65-.72-1.65-.36,1.79-.72,1.79-.36-.56-.72-.56-.36-.1-.72-.1-.36-1.15-.72-1.15-.36,.95-.72,.95-.36,.07-.72,.07-.36,.22-.72,.22-.36-1.09-.72-1.09-.36,.53-.72,.53-.36,.69-.72,.69-.36-.8-.72-.8-.36,.93-.72,.93-.36-.27-.72-.27-.36-1.25-.72-1.25-.36-.28-.72-.28-.36,2.43-.72,2.43-.36-2.57-.72-2.57-.36,.57-.72,.57-.36,1.55-.72,1.55-.36-1.75-.72-1.75-.36,.29-.72,.29-.36,.54-.72,.54-.36,.29-.72,.29-.36-.33-.73-.33-.36-.66-.73-.66-.36,.52-.72,.52-.36,.06-.72,.06-.36,.4-.72,.4-.36-1.02-.72-1.02-.36,2.1-.72,2.1-.36-1.86-.72-1.86-.36,1.65-.72,1.65-.36-2.32-.72-2.32-.36,.76-.73,.76-.36,1.5-.73,1.5-.36-.48-.73-.48-.36-.95-.73-.95-.36,.54-.72,.54-.36,1.18-.72,1.18-.36-1.32-.73-1.32-.36,.69-.73,.69-.36,.5-.73,.5-.36-.68-.73-.68-.36-1.65-.73-1.65-.36,2.04-.73,2.04-.36-1.7-.72-1.7-.36,1.41-.72,1.41-.36-1.44-.72-1.44-.36,.07-.73,.07-.36-.34-.73-.34-.36,1.57-.73,1.57-.36-.48-.73-.48-.36,.56-.73,.56-.36-1.17-.73-1.17-.36-.59-.73-.59-.36,1.75-.73,1.75-.37,.56-.73,.56-.36-.91-.73-.91-.36,1.19-.73,1.19-.36-1.24-.73-1.24-.37-.86-.73-.86-.37,.82-.73,.82,.06,.52-.24,.73c-.45,.31-.86,.04-1.22,.04Zm21.39-128.48c.25,.26-.18,1.46,.17,1.46s.36,.39,.71,.39,.36-.46,.72-.46,.36-2.17,.72-2.17,.36,1.13,.72,1.13,.36-.43,.72-.43,.36,.98,.72,.98,.36-1.35,.72-1.35,.36,.85,.72,.85,.36-.59,.72-.59,.36-.52,.72-.52,.36,.58,.72,.58,.36-.51,.72-.51,.36,1.64,.72,1.64,.36,.5,.72,.5,.36,.12,.72,.12,.36-1.81,.72-1.81,.36-.41,.71-.41,.36,1.66,.71,1.66,.36-.24,.72-.24,.36-.13,.72-.13,.36,.16,.72,.16,.36,.22,.72,.22,.36-1.51,.72-1.51,.36,.6,.72,.6,.36,.98,.72,.98,.36-1.83,.72-1.83,.36,1.18,.72,1.18,.36-1.24,.72-1.24,.36,.72,.72,.72,.36,1.23,.72,1.23,.36-.88,.72-.88,.36-.31,.72-.31,.36,.06,.72,.06,.36-.02,.73-.02,.36-.48,.73-.48,.36,1.26,.72,1.26,.36-1.01,.72-1.01,.36,1.96,.72,1.96,.36-2.59,.72-2.59,.36,2.43,.72,2.43,.36-1.17,.72-1.17,.36,.93,.73,.93,.36-.19,.72-.19,.36-1.22,.72-1.22,.36,1.24,.72,1.24,.36,.43,.72,.43,.36-1.69,.72-1.69,.36,1.57,.73,1.57,.36-.81,.73-.81,.36-.6,.73-.6,.36,.05,.72,.05,.36-.92,.73-.92,.36,.54,.72,.54,.36,.48,.72,.48,.36-.4,.72-.4,.36,.94,.73,.94,.36-1.42,.73-1.42,.36-.13,.73-.13,.36,1.99,.72,1.99,.36-1.31,.73-1.31,.36-.03,.73-.03,.36,.57,.73,.57,.36,.64,.73,.64,.36-.71,.73-.71,.36,.43,.73,.43,.36-.28,.73-.28,.36-.9,.73-.9,.37-.44,.73-.44,.37,2.26,.73,2.26,.37,.05,.73,.05,.5-.69,.76-.95-.48-.39-.48-.75-.86-.36-.86-.72,1.47-.36,1.47-.72,.72-.36,.72-.72,.13-.36,.13-.72-1.92-.36-1.92-.72,1.35-.36,1.35-.72-.47-.36-.47-.72,.49-.36,.49-.72-1.47-.36-1.47-.72,2.35-.36,2.35-.72-1.36-.36-1.36-.72,1.36-.36,1.36-.72-1.38-.36-1.38-.72,.18-.36,.18-.72-.3-.36-.3-.72,.97-.36,.97-.72-.53-.36-.53-.72-1.58-.36-1.58-.72,1.92-.36,1.92-.72,.46-.36,.46-.72-.25-.36-.25-.72-1.59-.36-1.59-.72,1.65-.36,1.65-.72-.51-.36-.51-.72-.36-.36-.36-.72,.94-.36,.94-.72-1.85-.36-1.85-.72-.44-.36-.44-.72,1.19-.36,1.19-.72-.34-.36-.34-.72,.56-.36,.56-.72,.88-.36,.88-.72-.11-.36-.11-.72,.38-.36,.38-.72-1.03-.36-1.03-.72-.5-.36-.5-.72,.15-.36,.15-.72,.72-.36,.72-.72-1.2-.36-1.2-.73,.11-.36,.11-.72,1.26-.36,1.26-.72-1.21-.36-1.21-.72,1.31-.36,1.31-.72,.39-.36,.39-.72-.22-.36-.22-.72-2.13-.36-2.13-.73-.09-.36-.09-.72,2.26-.36,2.26-.72-1.96-.36-1.96-.72,.6-.36,.6-.72,.82-.36,.82-.72-1.84-.36-1.84-.72,.16-.36,.16-.72,2.44-.36,2.44-.73-1.32-.36-1.32-.72,.93-.36,.93-.72-1.14-.36-1.14-.72-.52-.36-.52-.73,1.28-.36,1.28-.73-1.54-.36-1.54-.73,1.33-.36,1.33-.73-1.16-.36-1.16-.73,1.87-.36,1.87-.73-1.78-.36-1.78-.73,.97-.36,.97-.73-1.41-.37-1.41-.73,1.24-.37,1.24-.73,.13-.37-.13-.63-.25,.37-.61,.37-.36-.36-.72-.36-.36,.5-.72,.5-.36-1.95-.72-1.95-.36,2.01-.72,2.01-.36-.14-.72-.14-.36-.78-.72-.78-.36,.45-.72,.45-.36,.97-.72,.97-.36-1.82-.72-1.82-.36,.96-.72,.96-.36-.04-.72-.04-.36,.31-.72,.31-.36-1.51-.72-1.51-.36,1.14-.72,1.14-.36-.95-.72-.95-.36,1.04-.72,1.04-.36-.56-.72-.56-.36,.69-.72,.69-.36-.6-.72-.6-.36,.45-.72,.45-.36-.87-.72-.87-.36-.05-.73-.05-.36-.49-.73-.49-.36,2.15-.72,2.15-.36,.01-.72,.01-.36-.6-.72-.6-.36-1.01-.72-1.01-.36,.05-.72,.05-.36,1.3-.72,1.3-.36-1.19-.72-1.19-.36-.41-.72-.41-.36,.04-.73,.04-.36,1.62-.73,1.62-.36-.02-.73-.02-.36-1.13-.72-1.13-.36,1.58-.72,1.58-.36-.7-.72-.7-.36-.83-.73-.83-.36,1.46-.73,1.46-.36-2.42-.73-2.42-.36,2.16-.73,2.16-.36-1.55-.73-1.55-.36,.77-.73,.77-.36,.52-.72,.52-.36-.55-.72-.55-.36,.79-.72,.79-.36-.9-.73-.9-.36,.39-.73,.39-.36-1.12-.73-1.12-.36,1.95-.72,1.95-.36-2.52-.73-2.52-.36,1.79-.73,1.79-.36-1.61-.73-1.61-.36,.28-.73,.28-.37,1.87-.73,1.87-.36-2.32-.73-2.32-.36,.86-.73,.86-.36-.07-.73-.07-.37,1.07-.73,1.07-.37-.06-.73-.06-.37,.36-.73,.36-.37-.82-.73-.82c-.25,0-.46,.49-.7,.51-.25,.02-.35,.78-.58,.81-.25,.04-.98-2.51-1.21-2.46-.25,.06-.3,1.06-.52,1.14-.24,.08-.43,.35-.64,.46s.02,.92-.17,1.06-1.6-1.06-1.77-.88,1.57,1.96,1.42,2.16-1.42-.41-1.54-.18-.44,.37-.53,.6c-.08,.22-.38,.45-.43,.69-.05,.23,1.01,.68,.97,.93-.03,.24-1.13,.37-1.15,.62-.02,.24,1.84,.52,1.84,.77,0,.36-1.52,.36-1.52,.72s-.05,.36-.05,.72,.18,.36,.18,.73-.55,.36-.55,.73,1.94,.36,1.94,.72-.48,.36-.48,.72-1.64,.36-1.64,.72,.35,.36,.35,.72,.13,.36,.13,.72-.55,.36-.55,.72,1.05,.36,1.05,.72,.12,.36,.12,.72,.63,.36,.63,.72-1.23,.36-1.23,.72,.58,.36,.58,.72,.46,.36,.46,.72-2,.36-2,.72,.19,.36,.19,.72,.22,.36,.22,.72,1.16,.36,1.16,.73-1.21,.36-1.21,.73,1.69,.36,1.69,.73-1.89,.36-1.89,.72,.08,.36,.08,.72,1.48,.36,1.48,.72-.63,.36-.63,.72-.5,.36-.5,.72,.75,.36,.75,.72-.82,.36-.82,.73,1.16,.36,1.16,.73-.49,.36-.49,.73,.58,.36,.58,.73-1.83,.36-1.83,.73,.14,.36,.14,.73,1.52,.36,1.52,.73-.53,.36-.53,.73-.4,.36-.4,.73,.9,.36,.9,.73,.02,.36,.02,.73-1.01,.36-1.01,.73,1.83,.36,1.83,.73-.46,.36-.46,.72-1.49,.36-1.49,.72-.08,.36-.08,.72-.05,.36-.05,.73-.03,.36-.03,.73,1.79,.36,1.79,.73,.38,.36,.38,.73-.03,.36-.03,.73-.83,.37-.83,.73-.14,.36-.14,.73-.33,.36-.33,.73,.06,.37,.06,.73,.14,.36,.14,.73,.57,.36,.57,.73-.61,.36-.61,.73-.83,.37-.83,.73,1.11,.37,1.11,.73-.64,.47-.5,.8c.12,.28,.45-.12,.71,.14Zm0,88.4c.25,.26-.18,1.47,.18,1.47s.36,.39,.72,.39,.36-.46,.72-.46,.36-2.17,.72-2.17,.36,1.13,.72,1.13,.36-.43,.72-.43,.36,.98,.72,.98,.36-1.35,.72-1.35,.36,.85,.72,.85,.36-.59,.72-.59,.36-.52,.72-.52,.36,.58,.72,.58,.36-.51,.72-.51,.36,1.64,.72,1.64,.36,.5,.72,.5,.36,.12,.72,.12,.36-1.81,.72-1.81,.36-.41,.72-.41,.36,1.66,.72,1.66,.36-.24,.72-.24,.36-.13,.72-.13,.36,.16,.72,.16,.36,.22,.72,.22,.36-1.51,.72-1.51,.36,.6,.72,.6,.36,.98,.72,.98,.36-1.83,.72-1.83,.36,1.18,.72,1.18,.36-1.24,.72-1.24,.36,.72,.72,.72,.36,1.23,.72,1.23,.36-.88,.72-.88,.36-.31,.72-.31,.36,.06,.72,.06,.36-.02,.72-.02,.36-.48,.72-.48,.36,1.26,.72,1.26,.36-1.01,.72-1.01,.36,1.96,.72,1.96,.36-2.59,.72-2.59,.36,2.43,.72,2.43,.36-1.17,.72-1.17,.36,.93,.72,.93,.36-.19,.72-.19,.36-1.22,.72-1.22,.36,1.24,.72,1.24,.36,.43,.72,.43,.36-1.69,.72-1.69,.36,1.57,.72,1.57,.36-.81,.72-.81,.36-.6,.72-.6,.36,.05,.72,.05,.36-.92,.72-.92,.36,.54,.72,.54,.36,.48,.72,.48,.36-.4,.72-.4,.36,.94,.72,.94,.36-1.42,.73-1.42,.36-.13,.72-.13,.36,1.99,.72,1.99,.36-1.31,.72-1.31,.36-.03,.73-.03,.36,.57,.73,.57,.36,.64,.73,.64,.36-.71,.73-.71,.36,.43,.73,.43,.36-.28,.73-.28,.36-.9,.72-.9,.36-.44,.73-.44,.36,2.26,.73,2.26,.37,.05,.73,.05,.5-.69,.76-.95-.48-.39-.48-.75-.86-.36-.86-.72,1.47-.36,1.47-.72,.72-.36,.72-.72,.13-.36,.13-.72-1.92-.36-1.92-.72,1.35-.36,1.35-.72-.47-.36-.47-.72,.49-.36,.49-.72-1.47-.36-1.47-.72,2.35-.36,2.35-.72-1.36-.36-1.36-.72,1.36-.36,1.36-.72-1.38-.36-1.38-.72,.18-.36,.18-.72-.3-.36-.3-.72,.97-.36,.97-.72-.53-.36-.53-.72-1.58-.36-1.58-.72,1.92-.36,1.92-.72,.46-.36,.46-.72-.25-.36-.25-.72-1.59-.36-1.59-.72,1.65-.36,1.65-.72-.51-.36-.51-.72-.36-.36-.36-.72,.94-.36,.94-.72-1.85-.36-1.85-.72-.44-.36-.44-.72,1.19-.36,1.19-.72-.34-.36-.34-.72,.56-.36,.56-.72,.88-.36,.88-.72-.11-.36-.11-.72,.38-.36,.38-.72-1.03-.36-1.03-.72-.5-.36-.5-.72,.15-.36,.15-.72,.72-.36,.72-.72-1.2-.36-1.2-.73,.11-.36,.11-.72,1.26-.36,1.26-.72-1.21-.36-1.21-.72,1.31-.36,1.31-.72,.39-.36,.39-.72-.22-.36-.22-.72-2.13-.36-2.13-.73-.09-.36-.09-.72,2.26-.36,2.26-.72-1.96-.36-1.96-.72,.6-.36,.6-.72,.82-.36,.82-.72-1.84-.36-1.84-.72,.16-.36,.16-.72,2.44-.36,2.44-.73-1.32-.36-1.32-.72,.93-.36,.93-.72-1.14-.36-1.14-.72-.52-.36-.52-.73,1.28-.36,1.28-.73-1.54-.36-1.54-.73,1.33-.36,1.33-.73-1.16-.36-1.16-.73,1.87-.36,1.87-.73-1.78-.36-1.78-.73,.97-.36,.97-.73-1.41-.37-1.41-.73,1.24-.37,1.24-.73,.13-.37-.13-.63-.25,.37-.61,.37-.36-.36-.72-.36-.36,.5-.72,.5-.36-1.95-.72-1.95-.36,2.01-.72,2.01-.36-.14-.72-.14-.36-.78-.73-.78-.36,.45-.72,.45-.36,.97-.72,.97-.36-1.82-.72-1.82-.36,.96-.72,.96-.36-.04-.72-.04-.36,.31-.73,.31-.36-1.51-.73-1.51-.36,1.14-.73,1.14-.36-.95-.72-.95-.36,1.04-.73,1.04-.36-.56-.72-.56-.36,.69-.72,.69-.36-.6-.72-.6-.36,.45-.73,.45-.36-.87-.73-.87-.36-.05-.73-.05-.36-.49-.72-.49-.36,2.15-.73,2.15-.36,.01-.73,.01-.36-.6-.73-.6-.36-1.01-.73-1.01-.36,.05-.73,.05-.36,1.3-.73,1.3-.36-1.19-.73-1.19-.36-.41-.73-.41-.37,.04-.73,.04-.37,1.62-.73,1.62-.37-.02-.73-.02-.37-1.13-.73-1.13-.36,1.58-.71,1.58-.36-.7-.71-.7-.36-.83-.72-.83-.36,1.46-.72,1.46-.36-2.42-.72-2.42-.36,2.16-.72,2.16-.36-1.55-.72-1.55-.36,.77-.72,.77-.36,.52-.72,.52-.36-.55-.72-.55-.36,.79-.72,.79-.36-.9-.72-.9-.36,.39-.72,.39-.36-1.12-.72-1.12-.36,1.95-.72,1.95-.36-2.52-.72-2.52-.36,1.79-.72,1.79-.36-1.61-.71-1.61-.36,.28-.71,.28-.36,1.87-.72,1.87-.36-2.32-.72-2.32-.36,.86-.72,.86-.36-.07-.72-.07-.36,1.07-.72,1.07-.36-.06-.72-.06-.36,.36-.72,.36-.36-.82-.72-.82-.36,.49-.72,.49-.36,.75-.72,.75-.36-2.64-.72-2.64-.36,.95-.72,.95-.36,.17-.72,.17-.36,.82-.72,.82-.36-1.83-.72-1.83-.36,2.49-.73,2.49-.55-1.63-.81-1.38-.28,.44-.28,.8-.22,.36-.22,.72,1.13,.36,1.13,.72-1.08,.36-1.08,.72,1.86,.36,1.86,.72-1.52,.36-1.52,.72-.05,.36-.05,.72,.18,.36,.18,.72-.55,.36-.55,.72,1.94,.36,1.94,.72-.48,.36-.48,.72-1.64,.36-1.64,.72,.35,.36,.35,.72,.13,.36,.13,.72-.55,.36-.55,.72,1.05,.36,1.05,.72,.12,.36,.12,.72,.63,.36,.63,.72-1.23,.36-1.23,.72,.58,.36,.58,.72,.46,.36,.46,.72-2,.36-2,.72,.19,.36,.19,.72,.22,.36,.22,.72,1.16,.36,1.16,.72-1.21,.36-1.21,.72,1.69,.36,1.69,.72-1.89,.36-1.89,.72,.08,.36,.08,.72,1.48,.36,1.48,.72-.63,.36-.63,.72-.5,.36-.5,.72,.75,.36,.75,.72-.82,.36-.82,.72,1.16,.36,1.16,.72-.49,.36-.49,.72,.58,.36,.58,.72-1.83,.36-1.83,.72,.14,.36,.14,.72,1.52,.36,1.52,.73-.53,.36-.53,.72-.4,.36-.4,.72,.9,.36,.9,.72,.02,.36,.02,.72-1.01,.36-1.01,.72,1.83,.36,1.83,.72-.46,.36-.46,.73-1.49,.36-1.49,.72-.08,.36-.08,.72-.05,.36-.05,.72-.03,.36-.03,.72,1.79,.36,1.79,.72,.38,.36,.38,.72-.03,.36-.03,.72-.83,.36-.83,.73-.14,.36-.14,.72-.33,.36-.33,.72,.06,.36,.06,.72,.14,.36,.14,.73,.57,.36,.57,.73-.61,.36-.61,.73-.83,.36-.83,.73,1.11,.36,1.11,.73-.52,.36-.52,.73-1.12,.36-1.12,.73,1.49,.36,1.49,.73,1.1,.37,1.1,.73-2.12,.68-1.98,1.01c.12,.28,.96-.34,1.21-.08Zm90.52-88.4c.25,.26-.18,1.47,.18,1.47s.36,.39,.72,.39,.36-.46,.72-.46,.36-2.17,.72-2.17,.36,1.13,.72,1.13,.36-.43,.72-.43,.36,.98,.72,.98,.36-1.35,.72-1.35,.36,.85,.72,.85,.36-.59,.72-.59,.36-.52,.72-.52,.36,.58,.72,.58,.36-.51,.72-.51,.36,1.64,.72,1.64,.36,.5,.72,.5,.36,.12,.72,.12,.36-1.81,.72-1.81,.36-.41,.72-.41,.36,1.66,.72,1.66,.36-.24,.72-.24,.36-.13,.72-.13,.36,.16,.72,.16,.36,.22,.72,.22,.36-1.51,.72-1.51,.36,.6,.72,.6,.36,.98,.72,.98,.36-1.83,.72-1.83,.36,1.18,.73,1.18,.36-1.24,.72-1.24,.36,.72,.72,.72,.36,1.23,.73,1.23,.36-.88,.72-.88,.36-.31,.72-.31,.36,.06,.72,.06,.36-.02,.73-.02,.36-.48,.73-.48,.37,1.26,.73,1.26,.37-1.01,.73-1.01,.36,1.96,.72,1.96,.36-2.59,.72-2.59,.36,2.43,.72,2.43,.36-1.17,.72-1.17,.36,.93,.72,.93,.36-.19,.72-.19,.36-1.22,.72-1.22,.36,1.24,.72,1.24,.36,.43,.72,.43,.36-1.69,.72-1.69,.36,1.57,.72,1.57,.36-.81,.72-.81,.36-.6,.72-.6,.36,.05,.72,.05,.36-.92,.72-.92,.36,.54,.72,.54,.36,.48,.72,.48,.36-.4,.72-.4,.36,.94,.72,.94,.36-1.42,.72-1.42,.36-.13,.72-.13,.36,1.99,.72,1.99,.36-1.31,.72-1.31,.36-.03,.72-.03,.36,.57,.72,.57,.36,.64,.72,.64,.36-.71,.72-.71,.36,.43,.73,.43,.36-.28,.72-.28,.36-.9,.72-.9,.36-.44,.73-.44,.36,2.26,.72,2.26,.36,.05,.72,.05,.36-.94,.72-.94,.36-.49,.73-.49,.36-.86,.73-.86,.37,1.47,.73,1.47,1.09,.72,1.35,.47,.4-.99,.4-1.35-1.92-.36-1.92-.72,1.35-.36,1.35-.72-.47-.36-.47-.72,.49-.36,.49-.72-1.47-.36-1.47-.72,2.35-.36,2.35-.72-1.36-.36-1.36-.72,1.36-.36,1.36-.72-1.38-.36-1.38-.72,.18-.36,.18-.72-.3-.36-.3-.72,.97-.36,.97-.72-.53-.36-.53-.72-1.58-.36-1.58-.72,1.92-.36,1.92-.72,.46-.36,.46-.72-.25-.36-.25-.72-1.59-.36-1.59-.72,1.65-.36,1.65-.72-.51-.36-.51-.72-.36-.36-.36-.72,.94-.36,.94-.72-1.85-.36-1.85-.72-.44-.36-.44-.72,1.19-.36,1.19-.72-.34-.36-.34-.72,.56-.36,.56-.72,.88-.36,.88-.72-.11-.36-.11-.72,.38-.36,.38-.72-1.03-.36-1.03-.72-.5-.36-.5-.72,.15-.36,.15-.72,.72-.36,.72-.72-1.2-.36-1.2-.72,.11-.36,.11-.72,1.26-.36,1.26-.72-1.21-.36-1.21-.72,1.31-.36,1.31-.73,.39-.36,.39-.72-.22-.36-.22-.72-2.13-.36-2.13-.72-.09-.36-.09-.72,2.26-.36,2.26-.72-1.96-.36-1.96-.72,.6-.36,.6-.73,.82-.36,.82-.72-1.84-.36-1.84-.72,.16-.36,.16-.72,2.44-.36,2.44-.72-1.32-.36-1.32-.72,.93-.36,.93-.72-1.14-.36-1.14-.72-.52-.36-.52-.73,1.28-.36,1.28-.72-1.54-.36-1.54-.72,1.33-.36,1.33-.72-1.16-.36-1.16-.73,1.87-.36,1.87-.73-1.78-.36-1.78-.73,.97-.36,.97-.73-1.41-.36-1.41-.73,1.24-.36,1.24-.73-.17-.36-.17-.73-.32-.36-.32-.73,.36-.37,.36-.73-.5-.37-.5-.73,1.82-1.41,1.57-1.67-1.31,1.61-1.67,1.61-.36-.14-.72-.14-.36-.78-.72-.78-.36,.45-.72,.45-.36,.97-.72,.97-.36-1.82-.72-1.82-.36,.96-.72,.96-.36-.04-.72-.04-.36,.31-.72,.31-.36-1.51-.72-1.51-.36,1.14-.72,1.14-.36-.95-.72-.95-.36,1.04-.72,1.04-.36-.56-.72-.56-.36,.69-.72,.69-.36-.6-.72-.6-.36,.45-.72,.45-.36-.87-.72-.87-.36-.05-.72-.05-.36-.49-.72-.49-.36,2.15-.72,2.15-.36,.01-.72,.01-.36-.6-.72-.6-.36-1.01-.72-1.01-.36,.05-.72,.05-.36,1.3-.72,1.3-.36-1.19-.72-1.19-.36-.41-.72-.41-.36,.04-.72,.04-.36,1.62-.72,1.62-.36-.02-.72-.02-.36-1.13-.72-1.13-.36,1.58-.72,1.58-.36-.7-.72-.7-.36-.83-.72-.83-.36,1.46-.72,1.46-.36-2.42-.72-2.42-.36,2.16-.72,2.16-.36-1.55-.72-1.55-.36,.77-.72,.77-.36,.52-.72,.52-.36-.55-.72-.55-.36,.79-.72,.79-.36-.9-.72-.9-.36,.39-.72,.39-.36-1.12-.72-1.12-.36,1.95-.72,1.95-.36-2.52-.72-2.52-.36,1.79-.72,1.79-.36-1.61-.72-1.61-.36,.28-.72,.28-.36,1.87-.72,1.87-.36-2.32-.72-2.32-.36,.86-.72,.86-.36-.07-.72-.07-.36,1.07-.72,1.07-.36-.06-.72-.06-.36,.36-.72,.36-.36-.82-.72-.82-.36,.49-.72,.49-.36,.75-.72,.75-.36-2.64-.73-2.64-.36,.95-.72,.95-.36,.17-.72,.17-.36,.82-.72,.82-.36-1.83-.73-1.83-.36,2.49-.73,2.49-.36-1.41-.73-1.41-.36-.25-.73-.25-.36-.22-.73-.22-.36,1.13-.73,1.13-.36-1.08-.73-1.08-.36,1.86-.73,1.86-.37-1.52-.73-1.52-.37-.05-.73-.05-.52-.05-.78,.2-.57,.41-.57,.77,1.94,.36,1.94,.72-.48,.36-.48,.72-1.64,.36-1.64,.72,.35,.36,.35,.72,.13,.36,.13,.72-.55,.36-.55,.72,1.05,.36,1.05,.72,.12,.36,.12,.72,.63,.36,.63,.72-1.23,.36-1.23,.72,.58,.36,.58,.72,.46,.36,.46,.72-2,.36-2,.72,.19,.36,.19,.72,.22,.36,.22,.72,1.16,.36,1.16,.72-1.21,.36-1.21,.72,1.69,.36,1.69,.72-1.89,.36-1.89,.72,.08,.36,.08,.72,1.48,.36,1.48,.72-.63,.36-.63,.72-.5,.36-.5,.72,.75,.36,.75,.72-.82,.36-.82,.72,1.16,.36,1.16,.72-.49,.36-.49,.72,.58,.36,.58,.72-1.83,.36-1.83,.72,.14,.36,.14,.72,1.52,.36,1.52,.72-.53,.36-.53,.72-.4,.36-.4,.72,.9,.36,.9,.72,.02,.36,.02,.72-1.01,.36-1.01,.72,1.83,.36,1.83,.72-.46,.36-.46,.72-1.49,.36-1.49,.73-.08,.36-.08,.72-.05,.36-.05,.72-.03,.36-.03,.72,1.79,.36,1.79,.72,.38,.36,.38,.72-.03,.36-.03,.72-.83,.36-.83,.73-.14,.36-.14,.72-.33,.36-.33,.72,.06,.36,.06,.72,.14,.36,.14,.72,.57,.36,.57,.72-.61,.36-.61,.72-.83,.36-.83,.72,1.11,.36,1.11,.73-.52,.36-.52,.72-1.12,.36-1.12,.72,1.49,.36,1.49,.72,1.1,.36,1.1,.73-2.04,.36-2.04,.73,.64,.36,.64,.73-.58,.36-.58,.73-.16,.36-.16,.73,.65,.36,.65,.73,1.33,.36,1.33,.73-.06,.36-.06,.73-.16,.37-.16,.73-1.32,.5-1.18,.84c.12,.28,.53-.16,.79,.1Zm0,88.4c.25,.26-.18,1.47,.18,1.47s.36,.39,.72,.39,.36-.46,.72-.46,.36-2.17,.72-2.17,.36,1.13,.72,1.13,.36-.43,.72-.43,.36,.98,.72,.98,.36-1.35,.72-1.35,.36,.85,.72,.85,.36-.59,.72-.59,.36-.52,.72-.52,.36,.58,.72,.58,.36-.51,.72-.51,.36,1.64,.72,1.64,.36,.5,.72,.5,.36,.12,.72,.12,.36-1.81,.72-1.81,.36-.41,.72-.41,.36,1.66,.72,1.66,.36-.24,.72-.24,.36-.13,.72-.13,.36,.16,.72,.16,.36,.22,.72,.22,.36-1.51,.72-1.51,.36,.6,.72,.6,.36,.98,.72,.98,.36-1.83,.72-1.83,.36,1.18,.72,1.18,.36-1.24,.72-1.24,.36,.72,.72,.72,.36,1.23,.72,1.23,.36-.88,.72-.88,.36-.31,.72-.31,.36,.06,.72,.06,.36-.02,.72-.02,.36-.48,.72-.48,.36,1.26,.72,1.26,.36-1.01,.72-1.01,.36,1.96,.72,1.96,.36-2.59,.72-2.59,.36,2.43,.72,2.43,.36-1.17,.72-1.17,.36,.93,.72,.93,.36-.19,.72-.19,.36-1.22,.72-1.22,.36,1.24,.72,1.24,.36,.43,.72,.43,.36-1.69,.72-1.69,.36,1.57,.72,1.57,.36-.81,.72-.81,.36-.6,.72-.6,.36,.05,.72,.05,.36-.92,.72-.92,.36,.54,.72,.54,.36,.48,.72,.48,.36-.4,.72-.4,.36,.94,.72,.94,.36-1.42,.72-1.42,.36-.13,.72-.13,.36,1.99,.72,1.99,.36-1.31,.72-1.31,.36-.03,.73-.03,.36,.57,.72,.57,.36,.64,.72,.64,.36-.71,.72-.71,.36,.43,.73,.43,.36-.28,.73-.28,.36-.9,.73-.9,.36-.44,.73-.44,.36,2.26,.73,2.26,.36,.05,.73,.05,.36-.94,.73-.94,.36-.49,.73-.49,.37-.86,.73-.86,.37,1.47,.73,1.47,1.09,.72,1.35,.47,.4-.99,.4-1.35-1.92-.36-1.92-.72,1.35-.36,1.35-.72-.47-.36-.47-.72,.49-.36,.49-.72-1.47-.36-1.47-.72,2.35-.36,2.35-.72-1.36-.36-1.36-.72,1.36-.36,1.36-.72-1.38-.36-1.38-.72,.18-.36,.18-.72-.3-.36-.3-.72,.97-.36,.97-.72-.53-.36-.53-.72-1.58-.36-1.58-.72,1.92-.36,1.92-.72,.46-.36,.46-.72-.25-.36-.25-.72-1.59-.36-1.59-.72,1.65-.36,1.65-.72-.51-.36-.51-.72-.36-.36-.36-.72,.94-.36,.94-.72-1.85-.36-1.85-.72-.44-.36-.44-.72,1.19-.36,1.19-.72-.34-.36-.34-.72,.56-.36,.56-.72,.88-.36,.88-.72-.11-.36-.11-.72,.38-.36,.38-.72-1.03-.36-1.03-.72-.5-.36-.5-.72,.15-.36,.15-.72,.72-.36,.72-.72-1.2-.36-1.2-.72,.11-.36,.11-.72,1.26-.36,1.26-.72-1.21-.36-1.21-.72,1.31-.36,1.31-.73,.39-.36,.39-.72-.22-.36-.22-.72-2.13-.36-2.13-.72-.09-.36-.09-.72,2.26-.36,2.26-.72-1.96-.36-1.96-.72,.6-.36,.6-.73,.82-.36,.82-.72-1.84-.36-1.84-.72,.16-.36,.16-.72,2.44-.36,2.44-.72-1.32-.36-1.32-.72,.93-.36,.93-.72-1.14-.36-1.14-.72-.52-.36-.52-.73,1.28-.36,1.28-.72-1.54-.36-1.54-.72,1.33-.36,1.33-.72-1.16-.36-1.16-.73,1.87-.36,1.87-.73-1.78-.36-1.78-.73,.97-.36,.97-.73-1.41-.36-1.41-.73,1.24-.36,1.24-.73-.17-.36-.17-.73-.32-.36-.32-.73,.36-.37,.36-.73-.5-.37-.5-.73,1.82-1.41,1.57-1.67-1.31,1.61-1.67,1.61-.36-.14-.72-.14-.36-.78-.72-.78-.36,.45-.72,.45-.36,.97-.72,.97-.36-1.82-.72-1.82-.36,.96-.72,.96-.36-.04-.72-.04-.36,.31-.72,.31-.36-1.51-.72-1.51-.36,1.14-.72,1.14-.36-.95-.72-.95-.36,1.04-.72,1.04-.36-.56-.72-.56-.36,.69-.72,.69-.36-.6-.72-.6-.36,.45-.72,.45-.36-.87-.72-.87-.36-.05-.72-.05-.36-.49-.72-.49-.36,2.15-.72,2.15-.36,.01-.72,.01-.36-.6-.72-.6-.36-1.01-.72-1.01-.36,.05-.72,.05-.36,1.3-.72,1.3-.36-1.19-.72-1.19-.36-.41-.73-.41-.36,.04-.72,.04-.36,1.62-.72,1.62-.36-.02-.73-.02-.36-1.13-.72-1.13-.36,1.58-.72,1.58-.36-.7-.72-.7-.36-.83-.73-.83-.36,1.46-.73,1.46-.37-2.42-.73-2.42-.37,2.16-.73,2.16-.36-1.55-.72-1.55-.36,.77-.72,.77-.36,.52-.72,.52-.36-.55-.72-.55-.36,.79-.72,.79-.36-.9-.72-.9-.36,.39-.72,.39-.36-1.12-.72-1.12-.36,1.95-.72,1.95-.36-2.52-.72-2.52-.36,1.79-.72,1.79-.36-1.61-.72-1.61-.36,.28-.72,.28-.36,1.87-.72,1.87-.36-2.32-.72-2.32-.36,.86-.72,.86-.36-.07-.72-.07-.36,1.07-.72,1.07-.36-.06-.72-.06-.36,.36-.72,.36-.36-.82-.72-.82-.36,.49-.72,.49-.36,.75-.72,.75-.36-2.64-.72-2.64-.36,.95-.72,.95-.36,.17-.72,.17-.36,.82-.72,.82-.36-1.83-.73-1.83-.36,2.49-.72,2.49-.36-1.41-.72-1.41-.36-.25-.73-.25-.36-.22-.72-.22-.36,1.13-.72,1.13-.36-1.08-.72-1.08-.36,1.86-.73,1.86-.36-1.52-.73-1.52-.37-.05-.73-.05-.52-.05-.78,.2-.57,.41-.57,.77,1.94,.36,1.94,.72-.48,.36-.48,.72-1.64,.36-1.64,.72,.35,.36,.35,.72,.13,.36,.13,.72-.55,.36-.55,.72,1.05,.36,1.05,.72,.12,.36,.12,.72,.63,.36,.63,.72-1.23,.36-1.23,.72,.58,.36,.58,.72,.46,.36,.46,.72-2,.36-2,.72,.19,.36,.19,.72,.22,.36,.22,.72,1.16,.36,1.16,.72-1.21,.36-1.21,.72,1.69,.36,1.69,.72-1.89,.36-1.89,.72,.08,.36,.08,.72,1.48,.36,1.48,.72-.63,.36-.63,.72-.5,.36-.5,.72,.75,.36,.75,.72-.82,.36-.82,.72,1.16,.36,1.16,.72-.49,.36-.49,.72,.58,.36,.58,.72-1.83,.36-1.83,.72,.14,.36,.14,.72,1.52,.36,1.52,.72-.53,.36-.53,.72-.4,.36-.4,.72,.9,.36,.9,.72,.02,.36,.02,.72-1.01,.36-1.01,.72,1.83,.36,1.83,.72-.46,.36-.46,.72-1.49,.36-1.49,.73-.08,.36-.08,.72-.05,.36-.05,.72-.03,.36-.03,.72,1.79,.36,1.79,.72,.38,.36,.38,.72-.03,.36-.03,.72-.83,.36-.83,.73-.14,.36-.14,.72-.33,.36-.33,.72,.06,.36,.06,.72,.14,.36,.14,.72,.57,.36,.57,.72-.61,.36-.61,.72-.83,.36-.83,.72,1.11,.36,1.11,.73-.52,.36-.52,.72-1.12,.36-1.12,.72,1.49,.36,1.49,.72,1.1,.36,1.1,.73-2.04,.36-2.04,.73,.64,.36,.64,.73-.58,.36-.58,.73-.16,.36-.16,.73,.65,.36,.65,.73,1.33,.36,1.33,.73-.06,.36-.06,.73-.16,.37-.16,.73-1.32,.5-1.18,.84c.12,.28,.53-.16,.79,.1Z"/></svg>