<?xml version="1.0" encoding="UTF-8"?><svg id="_圖層_1" xmlns="http://www.w3.org/2000/svg" viewBox="0 0 500 500"><defs><style>.cls-1{fill:#f18f01;}</style></defs><path class="cls-1" d="M25.62,368.72c-.24-.02-.65,1.72-.89,1.69s-.18-1.77-.42-1.82-.53,.33-.77,.27-.33-.46-.56-.54-1.01,1.39-1.23,1.31-.25-.72-.47-.82-.77,.43-.99,.32-.31-.51-.52-.64,.09-1.09-.12-1.22,.1-.97-.1-1.11-.65,.15-.85,0-.74,.19-.93,.04,.16-.92-.02-1.08-.56-.06-.74-.22-.38-.27-.56-.44-1.68,.97-1.85,.79-.5-.24-.66-.43,1.2-1.72,1.03-1.91-1.37,.53-1.53,.34-.68-.11-.83-.3,.39-.94,.24-1.14c-.15-.2,0-.62-.13-.82s.48-.93,.35-1.13-2.19,.87-2.32,.66,.24-.77,.11-.97-.49-.3-.61-.51,.54-.9,.42-1.11-.57-.26-.68-.47,.41-.77,.3-.98-.27-.41-.37-.62-.62-.26-.71-.48,.14-.59,.05-.81,1.1-.9,1.02-1.13-2.76,.39-2.83,.16,1.68-1,1.62-1.23-1.85-.08-1.9-.32,1.89-.86,1.85-1.1,.59-.51,.57-.75-1.75-.32-1.76-.56-.14-.5-.13-.74,0-.51,.02-.75-.38-.57-.35-.81-.03-.56,.02-.79,.55-.4,.62-.63c.05-.23,.08-.49,.15-.73s.71-.29,.79-.52-.68-.79-.59-1.02,2.07,.41,2.18,.19-1.39-1.22-1.28-1.44,1.81,.49,1.93,.28,.33-.3,.46-.5-.33-.76-.19-.96-.11-.66,.04-.85,.83,.07,.98-.12-.38-.93-.22-1.11,.89,.16,1.05-.02,.66,0,.83-.18-1.66-2.3-1.49-2.47,1.9,1.24,2.08,1.07,.6-.03,.79-.2,.56-.06,.74-.23-.64-1.45-.46-1.61,.32-.37,.51-.52,.67,.06,.86-.09,.2-.52,.39-.68,1.21,.8,1.41,.65-.72-1.76-.53-1.91,.56-.05,.76-.2c.18-.16,1.04,.46,1.22,.3s-.81-1.63-.63-1.79,.53-.12,.71-.28,1.21,.61,1.39,.44,.55-.13,.72-.29,.64-.04,.81-.21-.54-1.26-.37-1.43-.15-.83,.02-1-.24-.91-.07-1.08,1.53,.84,1.7,.67-.2-.87-.04-1.04,.69,0,.85-.18,.85,.13,1.01-.04-.26-.9-.1-1.08-.75-1.33-.59-1.51,.89,.16,1.05-.02,1.49,.67,1.65,.49,.4-.3,.56-.48-1.1-1.58-.94-1.76,1.6,.73,1.76,.55-.64-1.16-.48-1.35-.19-.77-.04-.96,2.29,1.24,2.44,1.06,.2-.46,.36-.65,.34-.36,.49-.54-1.22-1.57-1.07-1.76,.71-.05,.86-.25,1.29,.38,1.43,.18-1.28-1.57-1.14-1.76,.04-.56,.18-.76,.29-.38,.43-.57,1.01,.15,1.15-.05,.26-.4,.4-.6-.06-.63,.08-.83-.41-.87-.28-1.07,.57-.18,.7-.38,1.15,.21,1.28,0,1.17,.21,1.31,0,.18-.46,.32-.67,.37-.34,.5-.54-.55-.94-.42-1.14-.77-1.07-.64-1.27,.31-.37,.44-.57,.77-.08,.9-.29,1.09,.11,1.22-.1,1.06,.08,1.19-.13-.62-.95-.49-1.16,.22-.44,.34-.65,.67-1.14,.79-1.35c-.2-.3-1.07,.33-1.36,.1s-.07-.49-.35-.71,.34-1.02,.06-1.25-1.16,.9-1.45,.67,.38-1.07,.09-1.29-.73,.34-1.02,.12,.28-.94,0-1.16-1.3,1.07-1.58,.85,.16-.79-.12-1.01-.02-.56-.31-.78-.53,.09-.82-.14-.35-.14-.64-.37-.21,.3-.57,.35c-.26,.04,.58-.35,.56-.09-.07,.23-.91,.34-1.02,.54-.11,.21,.32,.83,.17,1.01s.01,.97-.17,1.12-1.82-2.06-2.03-1.95c-.2,.1-.02,.67-.25,.74-.21,.07-.41-.31-.65-.26-.22,.04-.3,.39-.55,.41-.23,.02-.39-.18-.63-.18s-.49,1.54-.73,1.53-.28-1.92-.51-1.94-.88,2.81-1.11,2.77-.53-.13-.76-.19-.25-1.1-.47-1.17-.28-.68-.5-.76-.73,.56-.95,.47-.7,.31-.91,.2,.62-2.22,.41-2.34c-.21-.11-1.48,1.7-1.69,1.58s.23-1.38,.03-1.49,.09-1.08-.11-1.2-.56,.04-.76-.09-.96,.66-1.16,.54-.08-.76-.28-.88-.07-.74-.27-.87-1.63,1.6-1.83,1.46,.52-1.61,.32-1.74-.46-.16-.66-.3-.05-.73-.24-.87-1.09,.67-1.28,.53,.72-1.7,.53-1.85-1.53,1.19-1.71,1.04,.67-1.57,.49-1.72-1.66,1.25-1.84,1.1,.51-1.33,.34-1.48-1.39,.84-1.56,.68-.56-.12-.73-.28,.34-1.07,.17-1.23,.54-1.22,.38-1.39-2.08,1.38-2.24,1.22,.59-1.24,.43-1.41-.9,.17-1.06,0c-.16-.18-.25-.46-.4-.64s1.42-1.82,1.26-2-.64-.08-.79-.27-2.14,1.01-2.29,.81-.42-.35-.55-.55,.98-1.28,.85-1.48-.44-.3-.56-.51,1.03-1.14,.91-1.35-.51-.23-.62-.44-.97-.04-1.07-.26-.05-.5-.14-.72-1.11-.11-1.19-.34,.53-.7,.46-.93-.56-.37-.62-.6,1.45-.76,1.41-1-.03-.41-.05-.65,.06-.41,.05-.65-1.71-.45-1.7-.69,.81-.43,.83-.67-.41-.54-.36-.77-.81-.7-.75-.93c.05-.23,1.35-.17,1.41-.4s1.26-.2,1.31-.43,.06-.48,.12-.71-1.52-.85-1.47-1.08,1.44-.16,1.5-.39-1.26-.78-1.2-1.02-.66-.64-.6-.88,2.47,.08,2.52-.16-.32-.57-.26-.8-2.14-.98-2.09-1.22,1.8-.08,1.85-.31-.02-.5,.03-.73-.63-.64-.58-.87,.97-.27,1.03-.5-.9-.7-.85-.93,1.26-.21,1.31-.44,.9-.29,.95-.52-1.07-.73-1.01-.97,.78-.32,.84-.55-.61-.63-.55-.86,.21-.45,.26-.68-.04-.5,.02-.73,.76-.32,.82-.56,.79-.32,.84-.55,.04-.48,.09-.72-.63-.63-.58-.87-.18-.53-.12-.77,.97-.28,1.02-.51-.7-.65-.65-.88-.11-.52-.06-.75-.09-.51-.04-.75,1.04-.26,1.09-.5-1.13-.74-1.07-.97-.08-.51-.03-.74-.33-.56-.28-.8,2.36,.03,2.41-.21-2-.93-1.95-1.16,.9-.29,.95-.53,.47-.39,.52-.62-1.25-.76-1.19-1,1.95-.07,2-.3-2.03-.93-1.98-1.17,2.71,.1,2.76-.14,.3-.43,.35-.66-2.43-1.02-2.38-1.25,2.23,0,2.29-.24-1.29-.77-1.24-1-.23-.54-.18-.77-.57-.61-.52-.85,.17-.46,.22-.69,.56-.37,.61-.61,.72-.34,.77-.57,.23-.44,.28-.68,1.01-.28,1.06-.51-2.09-.93-2.04-1.17,.58-.37,.63-.6,1.18-.24,1.22-.48-1.47-.8-1.42-1.04,1.23-.23,1.28-.47,1.06-.27,1.11-.5,.14-.46,.19-.7-1.73-.85-1.68-1.09,1.1-.26,1.15-.5,.63-.36,.68-.59-.93-.68-.88-.92,.68-.35,.73-.58-.9-.68-.85-.91,.37-.41,.42-.65,2.06-.07,2.11-.3-2.18-.94-2.13-1.18,2.29-.02,2.34-.25-1.47-.79-1.43-1.03,1.17-.25,1.21-.49,.03-.49,.08-.72-.82-.66-.77-.89-.84-.66-.8-.9,.55-.38,.59-.61,.54-.38,.59-.62-.28-.55-.24-.78,1.42-.2,1.47-.44-.2-.53-.15-.77,.2-.45,.25-.69-1.18-.73-1.13-.96,.74-.34,.79-.58,1.61-.17,1.66-.4,.2-.45,.25-.69-1.18-.73-1.13-.96,.69-.35,.74-.59-.09-.51-.04-.75-.13-.52-.08-.75,.2-.45,.25-.69-.63-.62-.58-.85-1.07-.7-1.02-.94,1.45-.02,1.5-.26c-.24-.12-.18,1.02-.45,1.02-.25,0-.47-1.82-.71-1.82s-.53,1.22-.77,1.21-.54,.49-.78,.47-.44-.85-.68-.87-.61,.88-.85,.85-.31-1.41-.55-1.45-.41-.41-.65-.45-.47-.05-.7-.1-.41-.3-.64-.36-.42-.21-.65-.28-1.03,1.55-1.25,1.47-.37-.51-.59-.6,.43-2.19,.21-2.29-1.51,2.01-1.72,1.9-.18-.75-.39-.87-.68,.11-.88-.02,.85-2.04,.66-2.18-.97,.52-1.16,.37-.16-.52-.33-.68-.59-.06-.76-.23,.54-1.06,.38-1.25-1.81,.84-1.95,.64,1.38-1.53,1.24-1.73-2.54,1.01-2.66,.8,.12-.68,0-.89,1.75-1.37,1.65-1.59-.21-.36-.3-.59-1.39,.04-1.47-.19-.67-.3-.74-.53-.34-.43-.4-.67,1.41-.84,1.36-1.07-1.21-.24-1.25-.48,1.52-.73,1.48-.97-1.67-.24-1.69-.48,.22-.51,.19-.76-1.03-.41-1.05-.66,1.32-.57,1.31-.81-1.22-.45-1.22-.7,.84-.5,.84-.75,1.01-.47,1.02-.71-1.63-.54-1.62-.78,2.22-.36,2.24-.6-2.29-.66-2.27-.9,1.37-.35,1.4-.59-.6-.56-.57-.8-.83-.64-.79-.88,.42-.44,.47-.68,2.28,.04,2.33-.2,0-.45,.07-.67-2.16-1.16-2.09-1.39,.98-.2,1.06-.42-.82-.88-.72-1.1,2.6,.65,2.71,.44-.92-.97-.8-1.18,1.19,.17,1.31-.04,.04-.48,.18-.68-1.15-1.43-1-1.62,.11-.6,.26-.78,.66-.11,.83-.29-.06-.84,.11-1,1.16,.55,1.35,.4-.42-1.4-.22-1.54,1.65,1.52,1.85,1.39,.46-.09,.67-.21-.22-1.38,0-1.49,1.02,1.06,1.24,.96,.27-.49,.5-.58,.38-.26,.61-.34,.36-.38,.59-.45,.59,.43,.83,.37,.25-.95,.49-1,.7,1.16,.94,1.12,.13-1.99,.37-2.03,.38-.95,.62-.98,.73,2.14,.97,2.12,.47,.13,.72,.12,.46-.01,.7-.02,.42-2.03,.66-2.04,.51,2.33,.75,2.33c.34,0,.34-.11,.68-.11s.34,.19,.68,.19,.34-.73,.69-.73,.34-2.04,.69-2.04,.34,1.57,.68,1.57,.34-1.21,.68-1.21,.34,1.03,.69,1.03,.34-.21,.69-.21,.34,.67,.69,.67,.52,.19,.84,.09c.04-.23-.3-.99-.25-1.23s1.55-.2,1.6-.43-.89-.65-.85-.88,.02-.48,.07-.71,.47-.4,.51-.63-.67-.6-.63-.84-.09-.5-.05-.73-.3-.54-.26-.77-.13-.5-.09-.74,2.25-.09,2.29-.32-1.71-.78-1.67-1.01,.8-.34,.84-.58,1.4-.24,1.44-.47,.07-.47,.11-.7-2.84-.96-2.8-1.19,.45-.4,.49-.64,.93-.32,.97-.56-.28-.53-.25-.76,1.49-.24,1.53-.47-2.21-.84-2.17-1.08,2.49-.07,2.53-.31-.77-.61-.73-.84,.18-.45,.22-.69-1.3-.69-1.26-.92,2.23-.13,2.27-.36-1.35-.7-1.31-.93,1.07-.31,1.1-.55,0-.48,.03-.72-.16-.51-.12-.74-.67-.59-.63-.82,1-.33,1.03-.56-.82-.61-.79-.84-.84-.61-.81-.84,2.46-.11,2.49-.35-2.04-.79-2.01-1.03,2.12-.16,2.16-.4-1.43-.7-1.4-.93-.29-.52-.26-.76,1.16-.31,1.19-.55,.92-.35,.95-.59-2.03-.78-2-1.01,2.37-.14,2.41-.38-1.96-.77-1.93-1,.66-.39,.69-.63-.83-.6-.8-.84,1.14-.32,1.18-.56-.04-.49,0-.73-.67-.58-.64-.82-.03-.49,0-.73c.03-.24,.64-.41,.68-.65s1.09-.3,1.14-.53-.29-.54-.24-.77,.19-.45,.25-.68,.21-.43,.28-.66-.96-.78-.89-1.01,1.61,.01,1.68-.21-.9-.83-.82-1.05-.24-.64-.15-.86,.18-.48,.28-.7,.52-.31,.63-.52-.52-.88-.4-1.09,2.47,.94,2.6,.74-.68-1-.54-1.19-.45-.96-.3-1.15,.92,.11,1.07-.07,1.22,.53,1.39,.36-.03-.64,.15-.8-1.02-1.95-.83-2.1,1.41,1.02,1.61,.88,.5-.07,.7-.2-.27-1.4-.06-1.51,.81,.47,1.03,.36,.58,.14,.8,.04,.2-.76,.43-.85,.66,.45,.89,.38,.59,.42,.82,.36,.03-1.85,.27-1.9,.85,1.83,1.09,1.78,.12-2.2,.36-2.23,.45-.56,.7-.59,.6,.97,.84,.96,.47-.45,.71-.47,.52,1.25,.76,1.24,.47,0,.71,0,.47-.1,.72-.09,.56-1.47,.81-1.46,.38,1.53,.62,1.55,.55-.66,.79-.64c.24,.02,.46,.26,.69,.29s.53-.26,.76-.23,.23,1.66,.46,1.7,.6-.75,.84-.71,.32,.78,.55,.82,.48-.03,.7,.02,.65-.66,.88-.6,.53-.09,.75-.02,.34,.5,.56,.58,.08,1.11,.3,1.19,.8-.76,1.01-.66,.27,.53,.48,.63,1.27-1.42,1.48-1.3-.92,2.59-.72,2.71,.59-.16,.79-.02,.56-.04,.75,.1,.11,.56,.29,.71-.02,.64,.15,.8,.92-.34,1.09-.17-.28,.8-.13,.99,2.28-1.19,2.42-1-.57,1.02-.44,1.22,0,.55,.12,.76,1.27-.11,1.38,.11-.17,.65-.08,.87-1.73,1.15-1.65,1.37,1.26,.04,1.33,.27-.75,.66-.7,.89,.88,.25,.93,.48,1.59,.22,1.63,.45-1.66,.7-1.63,.94,1.02,.38,1.04,.62,.53,.47,.54,.71,.45,.5,.45,.74-.46,.5-.47,.74-.43,.47-.45,.71-.46,.45-.48,.69-.89,.38-.92,.62,1.98,.72,1.95,.96,.07,.52,.04,.76-.3,.47-.34,.7c-.04,.23-.59,.38-.64,.62s-.72,.35-.76,.59-.72,.35-.76,.59-.55,.38-.6,.62,1.21,.71,1.17,.95,.72,.62,.68,.85,.39,.56,.35,.79-.43,.4-.48,.64,.13,.51,.09,.75-1.61,.18-1.65,.42-.17,.45-.21,.69,.89,.65,.84,.89-1.7,.17-1.74,.41,.93,.66,.88,.9,.12,.51,.07,.75-.74,.35-.78,.59-.32,.43-.37,.67,.17,.52,.13,.76-.33,.43-.37,.67,1.14,.7,1.1,.94-.12,.47-.16,.71,.22,.53,.18,.76-.83,.33-.87,.57,.53,.58,.48,.82-1.77,.16-1.82,.4-.47,.4-.51,.64,1.85,.83,1.81,1.07-.72,.36-.76,.59,.57,.59,.52,.83-.66,.37-.7,.61,.09,.51,.05,.75-.16,.46-.2,.7-.54,.39-.58,.63-.27,.44-.32,.68-.59,.38-.63,.62-.61,.38-.66,.62,.35,.56,.31,.8,.59,.6,.54,.84,1.52,.77,1.48,1.01-.22,.45-.26,.69-2.19,.09-2.24,.33,1,.15,.95,.39c.33,.12,.17-.63,.53-.63s.36,2.31,.71,2.31,.36-.09,.71-.09,.35-1.99,.71-1.99,.35,.84,.71,.84,.35-1.34,.71-1.34,.35,.34,.71,.34,.35,1.44,.71,1.44,.36,.83,.71,.83,.36-.36,.71-.36,.36-.93,.71-.93,.36-1.19,.71-1.19,.36,.42,.71,.42,.36-.14,.71-.14,.36,1.5,.71,1.5,.36-.32,.71-.32,.36-.26,.71-.26,.36,1.03,.71,1.03,.36-.11,.71-.11,.36-2.09,.71-2.09,.36,2.03,.71,2.03,.35,.04,.71,.04,.35,.46,.71,.46,.35-.25,.71-.25,.36-2.27,.71-2.27,.36,2.62,.71,2.62,.36-2.31,.71-2.31,.36,2.12,.71,2.12,.36-.96,.71-.96,.36-.06,.72-.06,.36-.59,.71-.59,.36-.95,.71-.95,.36,1.42,.72,1.42,.36,1.3,.72,1.3,.36-.11,.71-.11,.36-1.09,.71-1.09,.36-.7,.72-.7,.36,.72,.72,.72,.36-1.63,.72-1.63,.36,1.73,.72,1.73c.25,0,.54-1.66,.78-1.65s.52,.37,.76,.39,.31,2.36,.55,2.39,.45-.01,.69,.02,.64-1.11,.88-1.07,.2,1.43,.44,1.48,.63-.71,.86-.65,.46,.1,.69,.17,.38,.34,.61,.42,.93-1.07,1.16-.98,.47,.23,.69,.33,.88-.55,1.1-.44-.43,1.79-.22,1.92,.05,.76,.25,.9,.97-.55,1.17-.4,1.15-.59,1.34-.43-.21,1.02-.03,1.19,.78-.04,.95,.14-1.37,1.86-1.21,2.04c.15,.18,1.73-.82,1.87-.63s.05,.56,.19,.75-.03,.58,.09,.78,0,.52,.12,.73-.14,.57-.04,.78,1.35-.12,1.44,.09,.92,.16,1.01,.38-1.24,.97-1.16,1.19-.4,.59-.33,.82-.22,.51-.16,.74,1.52,.09,1.58,.32-1.1,.69-1.06,.92,1.27,.24,1.31,.48,.75,.38,.78,.62,.31,.46,.34,.7-.45,.53-.44,.77-1.28,.55-1.27,.78,1.45,.42,1.46,.65-1.67,.49-1.67,.72,.15,.45,.15,.69-.31,.44-.32,.68,1.01,.51,1,.75c-.01,.24-.04,.48-.06,.72s.88,.54,.87,.77-1.8,.36-1.81,.6,.8,.53,.78,.77,.28,.5,.26,.74,.59,.52,.57,.76-.29,.46-.3,.7,.43,.51,.41,.75-2,.33-2.01,.57-.41,.45-.43,.69,.68,.53,.66,.77,.26,.5,.24,.74,.62,.53,.6,.77-.3,.46-.32,.69-.33,.45-.34,.69-.81,.41-.83,.65,.27,.5,.25,.74-.6,.43-.62,.66,.74,.54,.72,.78,.87,.56,.85,.79,.78,.55,.76,.79-2.72,.23-2.74,.47-.2,.46-.23,.7,2.75,.74,2.72,.98-.09,.47-.11,.71-1.1,.37-1.12,.61-1.57,.32-1.6,.56,1.7,.65,1.67,.89-1.97,.28-1.99,.51,1.41,.63,1.38,.86-.09,.47-.11,.71-.44,.43-.47,.67,.07,.49,.04,.73,1.63,.66,1.6,.9-.87,.38-.9,.62,.72,.57,.7,.8-1.53,.3-1.56,.54-.89,.37-.92,.61,1.64,.68,1.61,.91-.05,.48-.08,.71-.73,.39-.76,.63,.95,.6,.92,.84,.12,.5,.09,.73-2.78,.12-2.81,.36,1.68,.7,1.65,.94,.08,.49,.05,.73,.13,.5,.09,.74-.96,.35-1,.59-.8,.37-.83,.61,2.18,.79,2.15,1.02-.55,.4-.58,.64-1.47,.27-1.51,.5,1.86,.75,1.83,.99-1.48,.26-1.52,.5,1.14,.65,1.11,.89-2.32,.13-2.35,.36,2.04,.8,2.01,1.03-1.45,.26-1.49,.49,.36,.54,.32,.77-1.31,.27-1.35,.5,2.23,.84,2.19,1.08-1.16,.29-1.2,.52,.95,.64,.91,.87-1.83,.17-1.87,.41,.45,.56,.41,.79-.86,.33-.9,.56,2.3,.88,2.26,1.11-2.83-.02-2.88,.21c-.04,.24,1.26,.71,1.22,.95s1.41,.74,1.37,.97-2.59,.04-2.63,.27,1.38,.74,1.34,.97-1.4,.24-1.44,.48,1.99,.86,1.95,1.09-.5,.4-.54,.64-1.84,.15-1.89,.38,1.12,.7,1.08,.94-1.4,.22-1.44,.46-.5,.39-.54,.63,2.52,.98,2.48,1.22-.83,.33-.88,.57-1.6,.17-1.65,.41,1.48,.79,1.43,1.03-.28,.44-.33,.67-.07,.48-.12,.72-1.04,.28-1.09,.51-.02,.49-.07,.72,.14,.52,.09,.76,.72,.65,.67,.88-.87,.3-.93,.54-.83,.31-.88,.54,1.96,.93,1.91,1.17,.13,.53,.08,.76-.39,.41-.44,.64-.31,.43-.36,.66-2.3-.04-2.36,.19,2.47,1.08,2.42,1.31-2.58-.12-2.63,.12,.16,.53,.1,.76,2.14,1.01,2.08,1.25-2.18-.04-2.24,.2,1.56,.88,1.51,1.12-2.06-.02-2.12,.21,.66,.66,.6,.89-1.2,.19-1.26,.42,1.04,.77,.98,1,.73,.69,.67,.92-.16,.46-.22,.69-.13,.47-.19,.7-.02,.49-.09,.73-1.02,.22-1.09,.45,.71,.7,.65,.93-1.56,.07-1.62,.3,1.38,.89,1.32,1.12,.54,.66,.47,.89-2.14-.11-2.2,.12,1.66,.98,1.6,1.21-.81,.27-.88,.5-.4,.38-.47,.61-.77,.27-.84,.5,1.48,.95,1.41,1.18-.5,.35-.57,.58-1.86-.07-1.94,.16,1.49,.97,1.42,1.2-1.58,0-1.65,.24,.1,.54,.03,.76,1.47,.98,1.4,1.21-.02,.5-.09,.73-1.54,0-1.61,.23-1.47,.02-1.55,.24,2.37,1.3,2.3,1.52-.62,.3-.69,.53,.46,.67,.39,.89-2.07-.21-2.15,.02,1.7,1.1,1.62,1.33-2.1-.23-2.18,0-.69,.26-.77,.49,.5,.68,.42,.91-.46,.34-.54,.56,.2,.58,.12,.81,1.31,.99,1.22,1.22-1.66-.11-1.75,.11-.73,.9-.82,1.12c.19,.16,1.19,.29,1.38,.44s.97-.39,1.15-.23-.07,.84,.11,.99-.26,1.05-.08,1.21,1.88-1.43,2.06-1.27-.33,1.13-.15,1.29,1.07-.49,1.25-.33,.44,.24,.62,.4,.41,.28,.59,.44-.97,1.84-.79,2,.26,.44,.44,.6,.47,.2,.65,.37,.69-.04,.87,.12,.65,0,.83,.16,1.07-.46,1.25-.3,.27,.42,.45,.59,.04,.68,.22,.84-1.09,1.91-.91,2.07,.29,.4,.47,.56,1.14-.52,1.32-.36,.54,.13,.72,.3,1.02-.39,1.2-.22-.67,1.42-.49,1.59,1.48-.86,1.65-.7,.38,.3,.56,.47-.05,.76,.12,.93-.92,1.66-.75,1.83,.48,.19,.66,.36,1.41-.77,1.58-.6,.44,.24,.61,.41,.77-.1,.94,.07-.99,1.7-.82,1.87,1.35-.69,1.52-.52-1.09,1.78-.92,1.95,1.41-.73,1.58-.56c.16,.18-.86,1.34-.71,1.52s2.32-1.23,2.46-1.05,.51,.27,.65,.46-1.18,1.42-1.05,1.62,.93-.02,1.05,.18-.09,.62,.03,.82,.74,.16,.85,.37-1.64,1.29-1.54,1.51,1.72-.24,1.81-.02-.26,.61-.19,.83,.2,.43,.27,.65,.84,.28,.89,.51-.84,.67-.8,.9,.19,.43,.22,.67,.95,.39,.96,.62-.22,.51-.21,.75-1.06,.47-1.07,.71-.8,.38-.82,.62,1.68,.61,1.65,.84,.66,.6,.62,.84-2.14,.07-2.19,.3,.26,.51,.2,.74,.37,.58,.3,.8,1.03,.85,.96,1.07,.07,.57-.02,.79-2.46-.49-2.55-.27,1.15,1.01,1.05,1.23-.27,.4-.38,.62,.73,.94,.62,1.15-2.61-.93-2.73-.72,1.27,1.29,1.14,1.49,.69,1.02,.56,1.22-2.32-.97-2.45-.77,.87,1.18,.73,1.37-.65,.12-.79,.31c-.15,.2,.25,.8,.1,.99s-1.87-.85-2.02-.67,1.49,1.82,1.34,2-1.07-.25-1.23-.07-.9-.15-1.06,.03,1.08,1.63,.92,1.81-1.74-.97-1.91-.8-.36,.3-.53,.46,1.06,1.8,.89,1.96-2.02-1.49-2.19-1.33,.48,1.26,.3,1.41,.63,1.56,.44,1.71-1.81-1.56-2-1.42,.64,1.74,.45,1.88-1.45-1.33-1.65-1.21,.81,2.31,.61,2.43-1.74-2.21-1.95-2.1-.26,.42-.48,.52,.45,2.31,.22,2.39-1.11-1.64-1.33-1.56-.22,.86-.45,.92-.4,.44-.63,.49-.67-1.23-.91-1.2-.28,2.01-.52,2.02-.54-.3-.78-.3-.46-.92-.7-.93-.66,1.56-.9,1.53-.56-.06-.8-.11-.11-1.82-.34-1.88-.53,.17-.76,.1-.28-.58-.51-.67-.06-.97-.28-1.06-1.08,1.24-1.29,1.13-.2-.63-.41-.74-1.24,1.13-1.45,1,.98-2.4,.78-2.54-.92,.54-1.12,.4-.13-.59-.33-.74,.03-.75-.16-.9-1.87,1.47-2.05,1.31-.26-.46-.44-.63,.08-.79-.1-.96-.67-.02-.84-.19,0-.68-.17-.85-.52-.17-.69-.35-.47-.24-.63-.43-.13-.53-.28-.72c-.15-.17,.34-.92,.17-1.11-.15-.17-.01-.63-.18-.8-.15-.17-.21-.45-.37-.62-.16-.17-1.3,.59-1.46,.41-.16-.17,.36-.99,.19-1.16s-.78,.1-.95-.08-.7,.03-.87-.15,.87-1.5,.7-1.67-.82,.15-.99-.02-1.24,.56-1.4,.39-.62-.05-.78-.22,.35-1,.18-1.17-1.14,.47-1.31,.3-.36-.3-.53-.47,.64-1.36,.46-1.53c-.13,.2-1.16-.12-1.28,.08s.53,.9,.4,1.1,.68,1.01,.55,1.21-2.05-.75-2.18-.55,.63,.98,.49,1.18-.58,.19-.72,.39,1.16,1.35,1.02,1.55-.93-.04-1.07,.16-1.08-.16-1.22,.04-.23,.43-.36,.62-.99-.11-1.13,.09,1.47,1.62,1.33,1.82-.86-.02-1,.18-.41,.3-.55,.49,0,.59-.15,.79-.96-.11-1.1,.08-.92-.09-1.07,.1,1.83,1.98,1.68,2.17-.59,.16-.73,.36-.74,.04-.89,.23-.18,.47-.33,.66-1.83-.83-1.98-.65,1.97,2.18,1.82,2.37-2.22-1.16-2.37-.98-.26,.4-.42,.58,1.46,1.82,1.31,2.01-1.61-.71-1.77-.53,.41,.97,.25,1.16-.91-.14-1.06,.05,.52,1.08,.36,1.26-.41,.29-.57,.47-1.3-.5-1.46-.32-.52,.18-.68,.36,.08,.71-.08,.89,.16,.79,0,.97-.28,.39-.45,.57-.77-.06-.94,.12-.36,.32-.53,.49,.44,1.08,.27,1.25-1.26-.53-1.43-.36-.69,0-.86,.17,.1,.76-.07,.93-.3,.38-.47,.55-.28,.39-.45,.57,0,.69-.16,.86-1.49-.84-1.67-.67,.21,.9,.04,1.07-.06,.63-.23,.8,.73,1.46,.56,1.63-.78-.12-.95,.05-.85-.21-1.03-.04,.6,1.36,.42,1.52-.73-.07-.9,.09-1.54-.99-1.72-.82,.81,1.62,.63,1.78-.55,.11-.73,.27-.71-.08-.89,.08-.98-.4-1.17-.24-.08,.64-.26,.8-.85-.27-1.04-.11,.23,1.01,.04,1.16,.6,1.47,.41,1.62-1.51-1.09-1.7-.94c-.19,.14,.01,.8-.18,.94s-.39,.28-.58,.42-.88-.45-1.08-.32-.58-.04-.78,.09,.05,.93-.15,1.06-.71-.27-.91-.14,.33,1.5,.13,1.62-.55,0-.76,.12-.98-.83-1.18-.73,.28,1.61,.07,1.71-.84-.64-1.05-.55-.09,.98-.31,1.07-.8-.7-1.02-.62,.2,1.97-.02,2.05-.65-.33-.88-.26-.59-.22-.81-.16-.65-.61-.88-.56-.27,1.16-.5,1.2-.6-.62-.83-.59-.59-1.43-.82-1.41-.37,1.8-.6,1.8-.42-1.47-.65-1.48Zm30.82-95.07c.08-.22-.81-1.7-.74-1.92s1.78,.11,1.86-.12-.26-.6-.18-.82,.5-.34,.57-.57-1.41-.97-1.34-1.2,.7-.28,.77-.5-.54-.67-.47-.9,.44-.36,.51-.59,1.08-.17,1.15-.4,.97-.21,1.04-.44-.34-.61-.27-.84-.44-.63-.38-.86,.91-.24,.98-.47-.19-.55-.12-.79,.07-.48,.13-.71-1.68-.96-1.62-1.19-.06-.51,0-.74,2.1,.07,2.16-.16-1.22-.82-1.16-1.05-.32-.57-.26-.81,.98-.24,1.04-.47,.48-.37,.54-.61,1.02-.24,1.08-.47-2.12-1.02-2.06-1.25,.72-.32,.77-.55-.14-.52-.08-.76,1.01-.25,1.07-.49-.25-.55-.2-.79,.81-.31,.86-.54,.04-.48,.1-.72-.34-.57-.28-.8,.45-.39,.5-.63,1.42-.18,1.47-.42-2.58-1.05-2.53-1.29,1.96-.07,2.01-.31-1.64-.84-1.59-1.07,2.08-.06,2.13-.29,.75-.34,.8-.58-1.58-.82-1.53-1.06-.02-.5,.03-.74,.08-.48,.13-.72-.33-.57-.28-.81c.05-.24,0-.51,.05-.75s.55-.38,.6-.62,.07-.48,.12-.72,.69-.35,.74-.59-.79-.67-.74-.9,2.12-.05,2.17-.29-1.65-.84-1.61-1.08,1.88-.12,1.93-.36,.22-.46,.27-.7-.59-.62-.54-.86-.37-.57-.32-.81,.78-.35,.82-.59-.78-.65-.73-.89,.86-.34,.9-.58,.57-.39,.61-.63-2.66-.98-2.61-1.22,2.27-.08,2.32-.32,.47-.41,.51-.65,.41-.43,.45-.67-1.41-.74-1.37-.98,.01-.49,.05-.73,.55-.4,.59-.64-.2-.53-.17-.77,1.44-.27,1.47-.51-1.74-.77-1.71-1.01,.36-.44,.4-.68,1.1-.33,1.13-.57-1.66-.73-1.63-.97,.33-.44,.37-.68,1.32-.31,1.36-.55,.34-.45,.37-.69,.47-.43,.5-.67-1.21-.64-1.18-.88-.63-.56-.6-.8-.75-.57-.72-.81,1.72-.28,1.75-.51c.03-.25-.69-.56-.68-.79,.02-.25,.51-.47,.51-.7,0-.25,.69-.57,.67-.8-.02-.25-.86-.41-.9-.64-.05-.25-1.49,0-1.57-.22-.08-.24,.59-.6,.48-.81s1.04-1.28,.89-1.47-.36-.55-.55-.71-1.45,1.22-1.67,1.1,.33-1.74,.1-1.83c-.22-.09-.84,1.01-1.09,.95-.23-.06-.51,.54-.76,.5-.23-.03-.21-2.6-.46-2.62-.23-.02-.57,.11-.83,.11-.37,0-.37-.04-.74-.04s-.37,1.93-.75,1.93-.37-.53-.75-.53-.37-1.25-.75-1.25-.37,1.97-.75,1.97-.37,.31-.75,.31-.37-.01-.75-.01-.37-.9-.74-.9-.37,.02-.75,.02-.38,.42-.75,.42-.38,.84-.75,.84-.09-.51-.45-.4c-.04,.23-.37-.57-.41-.33s-1.16,.27-1.2,.5,.02,.48-.03,.72-.2,.44-.25,.68,.87,.65,.83,.89,1.11,.7,1.07,.93-.15,.46-.19,.69-.68,.35-.73,.59-1.06,.28-1.1,.51-1.01,.28-1.06,.52,.91,.66,.86,.9-.05,.47-.1,.71-.6,.37-.65,.6,.85,.66,.81,.89-.43,.4-.48,.63-1.09,.26-1.14,.5,1.3,.75,1.25,.99-1.14,.25-1.19,.48,.61,.61,.57,.84-.99,.28-1.04,.51,1.51,.8,1.47,1.03-.8,.32-.85,.55-.51,.38-.56,.61,.29,.55,.24,.78,0,.49-.04,.72,.72,.64,.67,.87-.13,.46-.18,.69-.85,.31-.9,.54,.59,.61,.54,.84,.57,.61,.52,.84-2.78-.1-2.83,.13,.49,.59,.44,.83-.5,.38-.55,.62,.23,.54,.18,.77-.29,.42-.34,.66,1.41,.79,1.36,1.03-1.95,.07-2,.3,2.73,1.08,2.68,1.31-.13,.46-.18,.7-1.09,.25-1.14,.49-.65,.35-.71,.58,.66,.63,.61,.87,.45,.58,.4,.82-2.31-.02-2.37,.22,2.05,.93,2,1.17-1.38,.19-1.44,.42-1.06,.26-1.11,.49,.21,.53,.16,.77,.94,.69,.88,.93-.69,.34-.74,.57-.67,.34-.73,.58,2.08,.95,2.02,1.18-1.68,.12-1.74,.35,.03,.5-.02,.73-.66,.35-.71,.58,1.06,.73,1,.96-1.85,.08-1.9,.31,1.73,.87,1.68,1.11-1.71,.11-1.76,.35,1.87,.91,1.82,1.14-1.41,.18-1.47,.41,1.41,.81,1.35,1.04,.17,.53,.12,.77-1.09,.25-1.15,.49-1.33,.19-1.38,.43,2.28,1.01,2.23,1.24-1.36,.19-1.41,.43,.65,.64,.6,.88-.22,.45-.28,.68-2.31-.02-2.36,.22,.32,.6,.27,.84c-.05,.29,2.17,.99,2.13,1.24-.06,.29,0,.64-.06,.88-.07,.3-1.63,.23-1.71,.45,.2,.12,.53,.09,.73,.22s-.38,1.49-.18,1.62,.58-.03,.78,.1,.86-.46,1.06-.33,.31,.39,.51,.52,.95-.57,1.15-.43,0,.87,.2,1,.65-.1,.84,.03-.5,1.57-.3,1.71,.37,.3,.56,.43,.33,.35,.53,.48,1.37-1.12,1.57-.98-.07,.92,.13,1.06,.66-.1,.85,.04,.93-.46,1.13-.32-.37,1.31-.18,1.46-.33,1.23-.13,1.37,.4,.25,.6,.39,1.4-1.04,1.59-.9-.46,1.38-.27,1.52,1.24-.81,1.43-.66,.86-.32,1.05-.17-.05,2.19,.14,2.34Zm72.21,85.99c-.08-.22-1.83,.15-1.91-.07s1.47-1,1.39-1.23-.56-.3-.63-.53,.21-.55,.14-.77-1.71,0-1.77-.24,.43-.62,.37-.85-.81-.31-.87-.54,.19-.55,.15-.78,.87-.65,.83-.88,.78-.58,.75-.81-.55-.38-.58-.61-.65-.4-.66-.63,.77-.5,.76-.73-.34-.43-.35-.67-.06-.45-.05-.68-1.84-.62-1.81-.85-.13-.57-.1-.8,2.08-.14,2.13-.37-1.24-.79-1.18-1.02-.28-.66-.2-.88,1.01-.18,1.1-.4,.53-.29,.64-.49,1.01,.07,1.14-.13-1.63-1.69-1.49-1.88,.82-.05,.97-.23,.17-.57,.34-.74c.16-.17,.99,.32,1.17,.16s.14-.6,.33-.75,.8,.3,1,.16,.35-.3,.55-.43,.18-.63,.39-.74,.58,.1,.79,0,.95,1.04,1.17,.95-.59-2.71-.36-2.8,1.09,1.61,1.32,1.53-.09-1.83,.14-1.9,1.01,1.8,1.24,1.74,.59,.53,.82,.47,.06-1.77,.29-1.82,.44-.21,.67-.26,.46-.1,.7-.14,.41-.5,.64-.54,.46-.18,.7-.21,.53,.39,.77,.36,.47-.08,.71-.1,.52,.55,.76,.53,.41-.94,.64-.95,.58,2.03,.82,2.02,.39-1.8,.63-1.81,.52,1.8,.76,1.79,.46,.11,.69,.11,.46-.7,.69-.7,.47-.47,.71-.47,.47,.7,.72,.7c.24,0,.47-.88,.67-.88,.24,0,.46,.77,.66,.77,.26,0,.58,.47,.82,.46,.26-.02,.23-2.8,.47-2.84,.26-.03,.87,2.1,1.1,2.05,.25-.06,.71,.21,.93,.13,.24-.09,.79,.02,1-.1,.22-.12-.31-1.58-.13-1.73s.3-.38,.45-.57,.69-.18,.8-.41-.06-.58,0-.83c.06-.23,1.47-.33,1.5-.58,.03-.24-1.78-.65-1.78-.91,0-.36,.29-.36,.29-.72s1.03-.36,1.03-.72-1.75-.36-1.75-.72,.26-.36,.26-.72,1.26-.36,1.26-.72,.28-.36,.28-.72,.41-.36,.41-.72-1.28-.36-1.28-.72-.69-.36-.69-.72-.81-.36-.81-.72,1.67-.36,1.67-.72-.75-.36-.75-.72,.49-.36,.49-.72,.71-.36,.71-.72-.8-.36-.8-.72-1.45-.36-1.45-.72,.76-.36,.76-.72,1.55-.36,1.55-.72,.1-.36,.1-.72-1.86-.36-1.86-.72,1.69-.36,1.69-.72-1.23-.36-1.23-.72-.64-.36-.64-.72,2.55-.36,2.55-.72-.13-.36-.13-.72,.04-.36,.04-.72-1.92-.36-1.92-.72,.53-.36,.53-.72,1.25-.36,1.25-.72-1.96-.36-1.96-.72-.3-.36-.3-.72,.01-.36,.01-.71,.9-.36,.9-.71-.02-.36-.02-.71-.41-.36-.41-.71-.84-.36-.84-.71,.36-.36,.36-.72,1.06-.36,1.06-.72,1.08-.36,1.08-.72-.11-.36-.11-.72,.12-.36,.12-.72-.97-.36-.97-.72-1.22-.36-1.22-.72,.06-.36,.06-.71,.6-.36,.6-.71,.98-.36,.98-.71,.94-.36,.94-.71-1.02-.36-1.02-.71-.04-.36-.04-.71,.52-.36,.52-.71-.96-.36-.96-.71,.34-.36,.34-.72,1.01-.36,1.01-.72-1.42-.36-1.42-.72,1.07-.36,1.07-.72-.72-.36-.72-.72,.91-.36,.91-.72-1.64-.36-1.64-.72,.72-.36,.72-.72,.42-.36,.42-.72-.39-.36-.39-.72-.1-.36-.1-.72-.83-.36-.83-.72,.03-.36,.03-.72,.77-.36,.77-.72-.7-.36-.7-.72-.68-.36-.68-.72,2.73-.36,2.73-.72-.6-.36-.6-.72,.41-.36,.41-.72-.34-.36-.34-.72,.2-.36,.2-.72-1.54-.36-1.54-.72,1.89-.36,1.89-.72-2.89-.36-2.89-.72,.03-.36,.03-.72,1.01-.36,1.01-.72,.56-.36,.56-.71-.78-.36-.78-.71-.56-.36-.56-.72,2.26-.36,2.26-.72-2.19-.36-2.19-.72,1.31-.36,1.31-.72,.98-.36,.98-.72-.32-.36-.32-.72-1.06-.36-1.06-.72,.59-.36,.59-.72,.58-.36,.58-.72-2.22-.36-2.22-.72,1.61-.36,1.61-.72-.13-.36-.13-.72,.57-.36,.57-.72-1.18-.36-1.18-.72,1.78-.36,1.78-.73-1.87-.36-1.87-.73,1.55-1.31,1.3-1.57-1.21,1.66-1.57,1.66-.36-1.34-.71-1.34-.36,1.54-.71,1.54-.36,.28-.72,.28-.36-1.01-.72-1.01-.36-1.25-.72-1.25-.36,2.44-.72,2.44-.36-1.28-.72-1.28-.36,.77-.72,.77-.36-.12-.72-.12-.36-2.25-.72-2.25-.36,.45-.72,.45-.36,2.3-.72,2.3-.36,.13-.72,.13-.36-1.53-.72-1.53-.36,.2-.72,.2-.36-1.46-.72-1.46-.36,.34-.72,.34-.36,.85-.72,.85-.36-.16-.72-.16-.36,.99-.72,.99-.36-.72-.72-.72-.36,.44-.72,.44-.36-1.58-.72-1.58-.36-.03-.72-.03-.36-.09-.72-.09-.36,1.7-.72,1.7-.36-.78-.72-.78-.36,.47-.71,.47-.36,.92-.71,.92-.36-1.27-.72-1.27-.36-1.17-.72-1.17-.36,.05-.72,.05-.36,1.67-.72,1.67-.36-1.36-.72-1.36-.36,1.39-.72,1.39-.36,.78-.72,.78-.36-2.41-.72-2.41-.36,.43-.72,.43-.36,2.3-.72,2.3-.36-1.73-.72-1.73-.36,.13-.72,.13-.36,.75-.72,.75-.36-.89-.72-.89-.36,1.03-.73,1.03-.36-1.17-.73-1.17-.36-.81-.73-.81c-.24,0-.48,1.19-.72,1.19s-.45-.7-.69-.71-.51,.7-.75,.69-.47-.14-.71-.16-.49,.1-.73,.07-.38-.72-.61-.76-.33-.76-.56-.8-.44-.01-.67-.06-.61,.64-.84,.58-.53,.16-.75,.09-.17-.97-.4-1.05-.7,.63-.92,.55-.52,.03-.74-.07-.52-.01-.73-.12,.03-1.05-.18-1.17-1.04,.85-1.24,.73-.53-.11-.73-.25-.69,.05-.88-.09,1.09-2.07,.91-2.23-1.8,1.26-1.97,1.1,.23-.92,.07-1.1-.03-.59-.18-.78-1.4,.45-1.54,.26,1.27-1.47,1.14-1.67-2.11,.73-2.23,.52,2.09-1.7,1.98-1.91,0-.45-.11-.67-2.56,.61-2.65,.38,1.85-1.22,1.77-1.45-1.49,.02-1.57-.21-.47-.38-.53-.61-.79-.32-.84-.56-.05-.52-.1-.76,.37-.59,.33-.82,.54-.58,.51-.82,.06-.49,.04-.73,.87-.56,.85-.8-2.26-.31-2.28-.55,.46-.52,.45-.77,1.08-.51,1.07-.75-1.6-.48-1.6-.72,1.15-.5,1.16-.74,.99-.45,1-.69,.06-.47,.08-.71-1.82-.64-1.79-.88,1.06-.39,1.09-.63,.6-.41,.64-.64-.95-.65-.91-.89,.68-.37,.73-.61-.87-.72-.82-.96,.4-.43,.47-.66,2.04,.14,2.12-.08-2.01-1.24-1.93-1.46,2.24,.4,2.34,.18-1.25-1.1-1.15-1.32,1.18,.08,1.3-.13,.17-.43,.3-.63-.51-.92-.37-1.11-.45-1-.3-1.19,.69-.13,.86-.31,.68-.07,.85-.24,.11-.64,.29-.8,1.23,.71,1.43,.56,.18-.52,.38-.66,.44-.17,.65-.3-.24-1.37-.03-1.49,.75,.34,.97,.23,1.06,1.2,1.28,1.1,.43-.06,.65-.15-.02-1.37,.21-1.45,.62,.44,.86,.37,.39-.3,.63-.36,.4-.33,.64-.38,.48,.01,.72-.03,.35-.8,.59-.84,.34-1.24,.59-1.27,.64,1.21,.88,1.19,.42-1.04,.67-1.05,.59,1.78,.83,1.77,.45-1.25,.69-1.25,.5-.52,.75-.52c.36,0,.36,.81,.71,.81s.36-.94,.71-.94,.36,1.35,.71,1.35,.36,.34,.72,.34,.36-.04,.72-.04,.36,.2,.72,.2,.36,.1,.72,.1,.36-1.78,.72-1.78,.36,.35,.72,.35,.36,2.18,.72,2.18,.36-2.46,.72-2.46,.36,.57,.72,.57,.36-.45,.72-.45,.36,2.16,.72,2.16,.36-1,.72-1,.36,.29,.72,.29,.36-.37,.72-.37,.36,1.11,.72,1.11,.36-1.93,.72-1.93,.36,2,.72,2,.36-2.68,.72-2.68,.36,.44,.72,.44,.36,2.17,.72,2.17,.36-.05,.72-.05,.36-1.31,.72-1.31,.36-.54,.72-.54,.36-.21,.72-.21,.36,1.57,.72,1.57,.36-1.13,.71-1.13,.36,1.61,.71,1.61,.36-1.61,.72-1.61,.36,.27,.72,.27,.36-.99,.72-.99,.36,1.35,.72,1.35,.36-1.19,.72-1.19,.36,.85,.72,.85,.36,1.01,.72,1.01,.36-1.63,.72-1.63,.36,2.19,.72,2.19,.36-2.32,.72-2.32,.36,1.32,.72,1.32,.36-.67,.72-.67,.36-.91,.72-.91,.36,.33,.72,.33,.36,2.22,.73,2.22,.36-.1,.73-.1-.26-1.84,0-2.1,.55,.38,.55,.02-1.08-.36-1.08-.72,2.64-.36,2.64-.72-1.25-.36-1.25-.72,1.11-.36,1.11-.72-.22-.36-.22-.72-1.76-.36-1.76-.71-.29-.36-.29-.71,.41-.36,.41-.71-.64-.36-.64-.72,1.18-.36,1.18-.72-1.35-.36-1.35-.72,2.19-.36,2.19-.72,.17-.36,.17-.72-1.31-.36-1.31-.72,1.4-.36,1.4-.72-.34-.36-.34-.72-.11-.36-.11-.72-.24-.36-.24-.72,.58-.36,.58-.72-.86-.36-.86-.72,1.28-.36,1.28-.72-1.93-.36-1.93-.72-.88-.36-.88-.72,2.2-.36,2.2-.72c0-.25,.18-.46,.19-.71s.04-.45,.07-.7-1.93-.77-1.89-1.01,2.37-.05,2.43-.29,0-.44,.06-.67,.31-.33,.4-.56-.5-.68-.4-.9-1.55-1.44-1.43-1.65,1.61,.38,1.75,.18-.63-1.17-.47-1.36,1.12,.29,1.29,.11,.23-.51,.42-.67,.79,.22,1,.07,.44-.17,.66-.29,.08-.89,.3-1,1.01,1.17,1.24,1.08,.09-1.09,.33-1.16,.44-.19,.69-.25,.53,.29,.78,.25,.38-.82,.63-.85,.49-.22,.75-.23,.51-.41,.77-.41c.4,0,.22-.12,.61-.19,.15-.18,1.44,1.37,1.59,1.18s-1.08-1.53-.92-1.71,.86,.1,1.01-.09,1.34,.47,1.49,.29,.3-.38,.45-.57-1.99-2.22-1.84-2.41,.59-.14,.74-.32,.97,.16,1.12-.03,0-.6,.15-.79,1.42,.49,1.57,.3-1.54-1.79-1.39-1.98,2.23,1.1,2.37,.9-.39-.9-.25-1.09,.37-.32,.52-.51-.83-1.21-.68-1.4,2.04,.91,2.18,.71-.88-1.24-.73-1.43,1.09,.2,1.23,0,.22-.44,.36-.63,.09-.53,.23-.72-.33-.82-.19-1.02,1.04,.15,1.18-.05-.46-.91-.32-1.11-.48-.92-.35-1.11,2.25,.97,2.39,.77-1.48-1.6-1.35-1.8,1.98,.77,2.11,.57-.98-1.25-.85-1.45-.03-.6,.1-.8,1.18,.21,1.31,0,.98,.07,1.11-.13-1.5-1.57-1.36-1.77,2.2,.87,2.34,.67-1.45-1.52-1.32-1.72,.76-.08,.89-.28-.5-.89-.37-1.1,1.17,.18,1.3-.02,.17-.46,.3-.67-.37-.81-.24-1.01,.18-.46,.31-.66,.74-.1,.87-.31,1.12,.13,1.25-.07-.07-.62,.06-.82,.33-.37,.46-.57,.34-.36,.47-.57-.71-1.01-.58-1.21,1.15-.8,1.27-1.01c-.34-.12-.63,1.08-.99,1.08s-.36,.45-.72,.45-.36,.03-.72,.03-.36-.33-.72-.33-.36,.87-.72,.87-.36-2.6-.72-2.6-.36,1.11-.72,1.11-.36,.93-.72,.93-.36-.78-.72-.78-.36-1.26-.72-1.26-.36,.47-.72,.47-.36,2.13-.72,2.13-.36-1.67-.72-1.67-.36-.23-.71-.23-.36,1.33-.72,1.33-.36-.8-.72-.8-.36-.37-.72-.37-.36,.62-.72,.62-.36-.64-.72-.64-.36-.57-.72-.57-.36,1.78-.72,1.78-.36-1.96-.72-1.96-.36,2.14-.72,2.14-.36,.49-.72,.49-.36-1.03-.72-1.03-.36,.42-.72,.42-.36-1.26-.72-1.26-.36,0-.72,0-.36,.11-.72,.11-.36,1.49-.72,1.49-.36-1.49-.72-1.49-.36,.71-.72,.71-.36-.21-.72-.21-.36,.32-.72,.32-.36-1.61-.72-1.61-.36,.84-.72,.84-.36-.7-.72-.7-.36,.14-.72,.14-.36,.8-.72,.8-.36,.23-.72,.23-.36-.37-.72-.37-.36-1.01-.72-1.01-.36,.99-.72,.99-.36-.38-.72-.38-.36,1.83-.72,1.83-.36-2.7-.72-2.7-.36,.44-.72,.44-.36,.35-.72,.35-.36-.38-.72-.38-.36-.5-.72-.5-.36,.88-.72,.88-.36-.75-.72-.75-.36,2.51-.72,2.51-.36-1.05-.72-1.05-.36-.29-.72-.29-.36,1.17-.72,1.17-.36-.43-.72-.43-.36-2.03-.72-2.03-.36,1.18-.72,1.18-.36-.9-.72-.9-.36,.8-.72,.8-.36,1.52-.72,1.52-.36-1.73-.72-1.73-.36,.98-.72,.98-.36,.5-.72,.5-.36,.43-.72,.43-.36-.45-.72-.45-.36-.42-.73-.42-.36-.43-.72-.43-.36-.85-.72-.85-.36,2.04-.73,2.04-.36,.14-.73,.14-.36-.22-.72-.22-.36-.51-.72-.51-.36-.64-.73-.64-.36-.64-.73-.64-.37-.47-.73-.47-.37,1.32-.73,1.32c-.24,0-.5,.82-.74,.81s-.52,.47-.76,.46-.49-.38-.73-.39-.53,.18-.76,.16-.32-1.58-.56-1.61-.46-.14-.69-.18-.64,.9-.88,.85-.14-1.69-.37-1.74-.69,.9-.92,.84-.52,.07-.75,0-.25-.77-.47-.85-.35-.38-.57-.46-.53,.07-.74-.02-.31-.41-.52-.52-1.02,.87-1.22,.76-.43-.29-.62-.41-.61-.03-.8-.17,.05-.9-.13-1.05-.79,.15-.97-.02,.85-1.55,.68-1.72,0-.56-.15-.74-1.82,.89-1.96,.7,.22-.77,.09-.97-.83-.05-.95-.25,.25-.71,.13-.92-.39-.35-.49-.56-.14-.47-.23-.69,.25-.61,.16-.83,.02-.49-.05-.72,.35-.57,.28-.8,.4-.55,.34-.78-.53-.32-.58-.56-.76-.31-.8-.55-1.69-.22-1.73-.45,.06-.52,.04-.76,2.07-.69,2.05-.93-1.48-.35-1.5-.59-.62-.46-.63-.7,2.29-.55,2.28-.79-.1-.45-.1-.69-1.98-.51-1.97-.75,.85-.47,.86-.71-1.31-.58-1.29-.82,.38-.49,.4-.73,1.47-.34,1.5-.58,.88-.35,.91-.58-.28-.51-.24-.74-.82-.65-.77-.88-1.04-.78-.98-1.01,.54-.39,.61-.62,.03-.54,.11-.77,1.57,.06,1.66-.16-.11-.56,0-.78-.03-.55,.08-.76,1.12,.09,1.24-.12,.14-.43,.27-.63-1.42-1.61-1.28-1.8,1.89,.86,2.05,.68,.31-.31,.48-.48,.62,.03,.8-.14,.14-.46,.33-.62-1.02-2.08-.83-2.23,1.88,1.86,2.09,1.73-.82-2.21-.61-2.33,1.43,1.62,1.64,1.5-.02-1.06,.2-1.16,.4-.25,.63-.34,.25-.72,.48-.8,.2-1.06,.43-1.13,.87,1.22,1.1,1.16,.74,1.15,.98,1.09,.4-.2,.64-.25,.27-1.15,.51-1.18,.38-.76,.63-.79,.56,.66,.8,.63,.36-1.66,.61-1.68,.59,1.69,.83,1.68,.44-1.68,.69-1.68,.51,.34,.76,.34c.36,0,.36,2.33,.72,2.33s.36-.06,.72-.06,.36-1.19,.72-1.19,.36,1.37,.72,1.37,.36-.82,.72-.82,.36-.02,.72-.02,.36,.21,.72,.21,.36-1.32,.72-1.32,.36,.02,.72,.02,.36-.88,.72-.88,.36,1.77,.72,1.77,.36,.62,.72,.62,.36-1,.72-1,.36-1.17,.72-1.17,.36,.9,.72,.9,.36-.57,.72-.57,.36,2.25,.72,2.25,.36-1.85,.72-1.85,.36,.29,.72,.29,.36,.35,.72,.35,.36,.26,.73,.26,.36,.39,.72,.39,.36-1.27,.72-1.27,.36-.78,.72-.78,.36,1.5,.72,1.5,.36,.56,.72,.56,.36,.36,.72,.36,.36-1.45,.72-1.45,.36,1.22,.73,1.22,.36-1.2,.72-1.2,.36-.69,.72-.69,.36-.25,.72-.25,.36,.5,.73,.5,.36,1.31,.73,1.31,.36-1.43,.73-1.43,.36,1.67,.73,1.67,.36-.15,.73-.15,.36,.3,.73,.3,.36-1.03,.73-1.03,.36,.01,.73,.01,.37-.91,.73-.91,.37,1.76,.73,1.76,.37-.83,.73-.83,.36-.31,.72-.31,.36-.62,.72-.62,.36,.25,.72,.25,.36-.46,.72-.46,.36,1.96,.72,1.96,.36,.38,.72,.38,.36-.72,.72-.72,.36-.3,.72-.3,.36-.66,.72-.66,.36,.26,.72,.26,.36,.29,.72,.29,.36,.77,.72,.77,.36-.31,.72-.31,.36,.56,.72,.56,.36-.78,.72-.78,.36-.91,.72-.91,.36-.82,.72-.82,.36,2.68,.72,2.68,.36,.16,.72,.16,.36-2.79,.71-2.79,.36,.04,.71,.04,.36,1.05,.71,1.05,.36,1.53,.72,1.53,.36-1.75,.72-1.75,.36,1.92,.72,1.92,.36-1.46,.72-1.46,.36,.04,.72,.04,.36,.39,.72,.39,.36-.12,.72-.12,.36-1.69,.72-1.69,.36,.82,.72,.82,.36-.78,.72-.78,.36,1.48,.72,1.48,.36,.84,.72,.84,.36-1.7,.72-1.7,.36,0,.72,0,.36,.67,.72,.67,.36-1.02,.72-1.02,.36-.18,.72-.18,.36,2.73,.72,2.73,.36-1.75,.72-1.75,.36-.15,.72-.15,.36-.19,.72-.19,.36,.9,.72,.9,.36,.73,.72,.73,.36-2.26,.72-2.26,.36,.49,.72,.49,.36,1.41,.72,1.41,.36-1.94,.72-1.94,.36,1.42,.72,1.42,.36-1.22,.72-1.22,.36,2.26,.72,2.26,.36-2.13,.72-2.13,.36,1.39,.72,1.39,.36-.43,.72-.43,.36,1.24,.72,1.24,.36-2.33,.72-2.33,.36,1.09,.72,1.09,.36-1.04,.72-1.04,.36,1.77,.72,1.77,.36-.54,.72-.54,.36,.79,.72,.79,.36-2.41,.72-2.41,.36,2.78,.72,2.78,.36-1.35,.72-1.35,.36-1.51,.72-1.51,.36,2.53,.72,2.53,.36-1.49,.72-1.49,.36,1.33,.72,1.33,.36-2.11,.72-2.11,.36,.42,.72,.42,.36,1.78,.72,1.78,.36-1.23,.72-1.23,.36,1.32,.72,1.32,.36,.41,.72,.41,.36-2.66,.72-2.66,.36,.75,.73,.75,.36,1.53,.72,1.53,.36-1.6,.72-1.6,.36,.19,.72,.19,.36-.03,.73-.03,.36,.96,.73,.96,.36-.08,.73-.08,.36-.25,.73-.25c.25,0,.51-.84,.75-.83s.47,.8,.71,.81,.43,.77,.67,.79,.7-2.06,.94-2.03,.56-.17,.8-.14,.48,.37,.72,.41,.48,.3,.72,.35-.08,2.29,.15,2.35,1.23-2.39,1.46-2.32-.38,2.54-.16,2.62,.5-.09,.72,0,1.47-1.85,1.69-1.74-.61,2.08-.41,2.21,1.37-1.16,1.57-1.02-.84,1.86-.65,2.02,.87-.3,1.04-.13-.51,1.07-.34,1.25,1.2-.43,1.35-.23,1.02-.09,1.15,.11,.25,.48,.36,.69c.12,.21,.24,.48,.34,.7s.31,.45,.39,.68-.72,.76-.65,1,.97,.27,1.03,.51-1.35,.75-1.32,.99,1.62,.27,1.64,.52,.74,.48,.75,.73-2.06,.56-2.06,.81,1.86,.52,1.85,.77-.72,.48-.74,.72-.31,.47-.34,.71-.71,.39-.74,.63,1.59,.75,1.55,.99-.46,.44-.51,.68-1.86,.1-1.91,.34,1.55,.87,1.49,1.11-1.57,.09-1.64,.32,.12,.52,.05,.76,1.48,.97,1.4,1.2-.02,.53-.1,.76-1.54,0-1.62,.23-1.46-.03-1.55,.2,2.31,1.4,2.22,1.63-.64,.31-.74,.54c-.1,.22,.37,.74,.27,.96s-2.03-.44-2.13-.23,1.55,1.29,1.45,1.5-2.05-.47-2.16-.25-.71,.18-.82,.4,.41,.74,.3,.95-.49,.29-.6,.5,.13,.6,.02,.82,1.18,1.14,1.07,1.35-1.64-.3-1.75-.08-.73,.16-.84,.38,.44,.77,.33,.98,.59,.85,.48,1.06-.83,.11-.94,.32-1.08-.03-1.19,.18,1.8,1.51,1.69,1.72-1.17-.08-1.29,.13,.71,.93,.59,1.14-.14,.47-.26,.68-.18,.45-.3,.66-1.99-.56-2.11-.35-.37,.34-.49,.55-.1,.49-.22,.7,.19,.66,.07,.87,.14,.63,.02,.84,.67,.94,.55,1.15-.35,.35-.48,.56-.65,.18-.78,.38-2.09-.67-2.21-.47-.33,.36-.45,.57,.74,1,.62,1.21-.02,.55-.14,.75,.59,.92,.46,1.12-1.52-.37-1.65-.16,1.14,1.27,1.01,1.47-.22,.43-.35,.64-.75,.1-.88,.3-1.81-.57-1.94-.37-.09,.51-.22,.71,1.03,1.22,.9,1.43-.15,.48-.28,.68,.25,.74,.12,.94-1.86-.64-1.99-.44,.93,1.19,.8,1.39-1.95-.72-2.08-.52,.99,1.23,.85,1.43-1.53-.45-1.66-.25,1.86,1.84,1.72,2.04-.07,.54-.2,.74-1.74-.61-1.87-.41,.37,.84,.24,1.04-.59,.17-.73,.37,.19,.72,.05,.92-1.94-.78-2.07-.59,1.08,1.36,.94,1.55-.65,.12-.8,.31-.23,.42-.38,.62,.31,.82,.16,1.01-1.06-.19-1.21,0-.19,.45-.34,.64,.43,.92,.28,1.11-.49,.23-.63,.43-1.14-.26-1.28-.07-.91-.1-1.06,.1,1.07,1.43,.93,1.62,.29,.83,.14,1.02-1.94-.9-2.09-.71,0,.6-.15,.79,.1,.69-.04,.88,.67,1.14,.52,1.33-.1,.54-.25,.72-2.21-1.17-2.36-.98,.83,1.29,.68,1.47-.36,.33-.51,.51,.52,1.06,.37,1.24-2.4-1.37-2.55-1.19,1.03,1.48,.87,1.67,.55,1.09,.4,1.28-2.19-1.23-2.34-1.04,.74,1.26,.58,1.44-.66,.07-.81,.25,.2,.81,.04,.99-1.82-.95-1.97-.77,1.41,1.87,1.25,2.05-1.05-.29-1.21-.11-.9-.16-1.06,.01,1.08,1.62,.92,1.79-1.75-.94-1.91-.76-.36,.32-.52,.49,1.16,1.72,1,1.89-2.12-1.31-2.29-1.14,.6,1.2,.43,1.38,.84,1.44,.67,1.62-2.02-1.25-2.19-1.08,.96,1.58,.8,1.75-1.71-.97-1.87-.8,1.74,1.32,1.57,1.49c-.07,.36-2.75,.13-2.75,.5s.25,.37,.25,.74,2.29,.37,2.29,.73-1.91,.37-1.91,.74,.76,.37,.76,.74,.33,.37,.33,.74-1.33,.37-1.33,.74,1.96,.37,1.96,.74-.32,.37-.32,.74-.91,.37-.91,.74,1.61,.37,1.61,.74,.02,.37,.02,.74-1.75,.37-1.75,.74,.31,.37,.31,.74-.55,.9-.29,1.17,.8,1.06,1.16,1.06,.36-1.57,.72-1.57,.36,.46,.72,.46,.36-1.59,.72-1.59,.36,2.55,.72,2.55,.36-.97,.72-.97,.36,.39,.72,.39,.36,.6,.72,.6,.36-2.32,.72-2.32,.36,.17,.72,.17,.36,.63,.72,.63,.36-.45,.72-.45,.36,.47,.72,.47,.36-.26,.72-.26,.36-.18,.72-.18,.36,.25,.72,.25,.36,.87,.72,.87,.36,.41,.72,.41,.36,.15,.72,.15,.36-1.34,.72-1.34,.36,.94,.72,.94,.36-.63,.73-.63,.36-.52,.72-.52,.36,1.66,.72,1.66,.36-.69,.72-.69,.36-1.27,.72-1.27,.36-.4,.72-.4,.36,.95,.73,.95,.36-1.14,.73-1.14,.36-.05,.73-.05,.36,1.42,.72,1.42,.36,1.03,.73,1.03,.36-.92,.72-.92,.36-1.11,.72-1.11,.36,2.12,.72,2.12,.36-1.06,.73-1.06,.36,.38,.73,.38,.36-1.71,.72-1.71,.36,.79,.72,.79,.36,.98,.73,.98,.36-.06,.73-.06,.36,.87,.73,.87,.36-2.13,.73-2.13,.36,.71,.73,.71,.36,.15,.73,.15,.36-.35,.73-.35,.36,.83,.73,.83,.37,.79,.73,.79,.37-2.64,.73-2.64,.37,.37,.73,.37,.37,.56,.73,.56c.25,0,.5-.14,.74-.14s.42,1.96,.66,1.97,.65-2.86,.89-2.84,.3,2.48,.54,2.5,.46,0,.7,.03,.79-2.19,1.03-2.16,.22,1.74,.46,1.79,.66-.82,.9-.77,.3,.87,.54,.93,.77-.93,1-.86,.46,.27,.69,.34,.02,1.39,.25,1.48,.32,.42,.54,.52,.64-.29,.86-.18,.74-.35,.95-.23,.47,.21,.67,.33,.07,.77,.27,.91,.35,.32,.54,.47,1.07-.49,1.25-.33-.51,1.26-.34,1.43-.05,.66,.11,.84,.75-.05,.9,.15,.32,.34,.46,.54,.33,.34,.46,.55,.67,.16,.79,.38-1.23,1.16-1.13,1.38,.9,.06,1,.28,.56,.27,.65,.5,1.64-.05,1.72,.18-.43,.68-.36,.92-.57,.67-.51,.91,1.48,.18,1.53,.42-.43,.61-.38,.86-1.65,.76-1.62,1,1.79,.24,1.82,.49-.23,.53-.2,.77-.48,.53-.46,.78-.92,.52-.9,.77,.45,.46,.46,.7-.74,.48-.74,.72,.91,.48,.9,.71,1.49,.54,1.48,.77-1.82,.39-1.83,.63,.61,.52,.59,.76-.04,.48-.07,.72-.92,.36-.95,.59-.42,.39-.46,.62,.71,.6,.67,.83-.68,.32-.73,.55,1.29,.82,1.23,1.05-.39,.4-.46,.62-1.27,.06-1.35,.28,1.28,1,1.19,1.22-1.05,.07-1.15,.28,.55,.81,.44,1.02-1.06-.04-1.18,.16,1.36,1.44,1.23,1.64-.73,.15-.87,.34-.61,.18-.76,.36-.88-.12-1.04,.05,.43,1.11,.25,1.27-.84-.17-1.02-.02-1.28-.86-1.46-.71,.68,1.69,.48,1.83-1.38-1.29-1.58-1.16,.83,2.36,.62,2.47-1.13-1.12-1.35-1.02-.4,.21-.62,.31-.64-.4-.86-.32-.13,.98-.35,1.06-.3,.62-.54,.69-.59-.37-.83-.31-.23,1.14-.47,1.19-.38,.71-.62,.75-.57-.34-.81-.31-.72-1.82-.96-1.79-.26,2.12-.5,2.14-.67-2.42-.91-2.4-.37,1.7-.61,1.71-.48,.47-.72,.48-.5-.95-.74-.95c-.36,0-.36,.78-.72,.78s-.36-.4-.72-.4-.36-.27-.72-.27-.36,1.03-.72,1.03-.36-.85-.72-.85-.36,.91-.72,.91-.36-1.48-.72-1.48-.36-.45-.72-.45-.36,1.27-.72,1.27-.36-1.03-.72-1.03-.36-.41-.72-.41-.36,2.09-.72,2.09-.36,.03-.72,.03-.36-1.46-.72-1.46-.36-.81-.72-.81-.36,2.24-.72,2.24-.36-1.79-.72-1.79-.36,1.47-.72,1.47-.36,.05-.72,.05-.36-2.32-.72-2.32-.36,2.31-.72,2.31-.36-1.56-.73-1.56-.36-.54-.72-.54-.36,.69-.72,.69-.36-.72-.72-.72-.36,.69-.72,.69-.36-.76-.72-.76-.36,.43-.73,.43-.36,2.15-.73,2.15-.36-.49-.73-.49-.36-1.05-.72-1.05-.36,.38-.73,.38-.36,.2-.72,.2-.36,.64-.72,.64-.36-1.58-.72-1.58-.36,.88-.73,.88-.36,1.22-.73,1.22-.36-2.26-.72-2.26-.36,.58-.72,.58-.36-.52-.73-.52-.36,1.42-.73,1.42-.36-.9-.73-.9-.36-.98-.73-.98-.36,1.14-.73,1.14-.36-1.14-.73-1.14-.36,1.6-.73,1.6-.36,.88-.73,.88-.37-2.1-.73-2.1-.37-.48-.73-.48-.37,2.32-.73,2.32-1.16-1.94-1.43-1.68,2.04,1.06,2.04,1.42-2.45,.36-2.45,.72,1.28,.36,1.28,.72-.42,.36-.42,.72-1.02,.36-1.02,.72,.98,.36,.98,.72-.57,.36-.57,.72-.03,.36-.03,.72-.42,.36-.42,.72,1.12,.36,1.12,.72-1.05,.36-1.05,.72,1.83,.36,1.83,.72,.62,.36,.62,.72-1.39,.36-1.39,.72,.97,.36,.97,.72,.38,.36,.38,.72-.79,.36-.79,.72-.72,.36-.72,.72-1.08,.36-1.08,.72,1,.36,1,.72-.07,.36-.07,.72,.22,.36,.22,.72,1.4,.36,1.4,.72-2.29,.36-2.29,.72,1.81,.36,1.81,.72-1.37,.36-1.37,.72,2.14,.36,2.14,.72-1.22,.36-1.22,.72-.68,.36-.68,.72-.87,.36-.87,.72,2.69,.36,2.69,.72-2.22,.36-2.22,.72,1.59,.36,1.59,.72-1.68,.36-1.68,.72,2.24,.36,2.24,.72-.11,.36-.11,.72-.8,.36-.8,.72-.14,.36-.14,.72,.7,.36,.7,.72-1.19,.36-1.19,.72-.79,.36-.79,.72,.09,.36,.09,.72,.97,.36,.97,.72-.65,.36-.65,.72,1.08,.36,1.08,.72,.5,.36,.5,.72-.16,.36-.16,.72-1.22,.36-1.22,.72,1.19,.36,1.19,.72-1.12,.36-1.12,.72,1.24,.36,1.24,.72-1.86,.36-1.86,.72,.27,.36,.27,.72,.59,.36,.59,.72-.58,.36-.58,.72,1.44,.36,1.44,.72-.14,.36-.14,.72-1.13,.36-1.13,.72,1.68,.36,1.68,.72-.63,.36-.63,.72,.92,.36,.92,.72-1.63,.36-1.63,.72-.61,.36-.61,.72-.24,.36-.24,.72-.33,.36-.33,.72,1.04,.36,1.04,.72,1.64,.36,1.64,.73,.06,.36,.06,.72-.22,.36-.22,.72-1.37,.36-1.37,.72,1.59,.36,1.59,.72-.17,.36-.17,.72,.13,.36,.13,.73-1.61,.36-1.61,.73,1.67,.36,1.67,.72-.7,.36-.7,.72-1.77,.36-1.77,.72,1.05,.36,1.05,.72,.57,.36,.57,.72-1.61,.36-1.61,.72,1.19,.36,1.19,.73-.73,.36-.73,.73-.42,.36-.42,.72,1.92,.36,1.92,.72-2.02,.36-2.02,.73,2.08,.36,2.08,.73-.24,.36-.24,.73,.7,.36,.7,.73-1.84,.36-1.84,.73,1.68,.36,1.68,.73-.12,.36-.12,.73-.21,.36-.21,.73-1.77,.37-1.77,.73,1.17,.37,1.17,.73-.69,.37-.69,.73,1.08,.37,1.08,.73c0,.25-1.03,.49-1.03,.73s1.78,.51,1.78,.75-2.07,.46-2.08,.7-.61,.47-.62,.71,.23,.49,.22,.73-.36,.47-.37,.71,.31,.49,.3,.73,.79,.52,.78,.76,1.24,.57,1.22,.81-2.08,.35-2.1,.59,1.25,.58,1.23,.82,.1,.5,.08,.74-1.45,.35-1.47,.58,.97,.59,.95,.83-1.35,.32-1.38,.56,.54,.55,.51,.78,.6,.57,.56,.81-.78,.37-.82,.61,1.8,.8,1.76,1.04-2.02,.13-2.07,.36,.52,.59,.48,.83,.77,.67,.72,.9-1.84,.06-1.9,.29,.39,.58,.33,.81,.51,.64,.44,.87-.26,.43-.33,.66,.33,.62,.26,.85-.33,.41-.42,.63-.33,.4-.41,.62-.95,.13-1.04,.35c-.09,.23,1.21,1.03,1.11,1.25s-1.59-.16-1.69,.06-.18,.43-.28,.65-.91,.04-1.02,.26,2.05,1.68,1.94,1.89-.43,.35-.56,.55-1.7-.5-1.83-.3,1.32,1.49,1.18,1.68-.92-.04-1.07,.15-.97-.14-1.12,.05-.52,.17-.68,.35-.06,.57-.22,.75,.51,1.15,.34,1.32-.39,.32-.56,.49-1.79-1.2-1.97-1.04,.21,.92,.03,1.08-.5,.13-.68,.28-.07,.66-.26,.81-.84-.35-1.03-.2-.14,.59-.34,.73-.71-.24-.91-.11,.47,1.62,.26,1.75-.93-.62-1.14-.5,.45,1.82,.24,1.94c-.21,.11-1.49-1.86-1.7-1.76s.68,2.52,.47,2.63-1.46-2.02-1.68-1.92-.12,.89-.34,.99-.64-.29-.86-.2,.24,1.86,.02,1.95-.27,.67-.5,.75-.97-1.2-1.2-1.12-.4,.32-.62,.4-.38,.38-.61,.46-.93-1.29-1.16-1.22-.28,.68-.51,.75-.05,1.51-.28,1.58-.52-.03-.75,.03-.81-1.15-1.05-1.09-.19,1.16-.42,1.22-.77-1.11-1.01-1.06-.28,.87-.51,.92-.56-.3-.79-.25-.31,.83-.54,.88-.32,.82-.56,.87-.59-.47-.83-.43-.67-.95-.91-.9-.39,.53-.63,.58-.21,1.63-.45,1.67-.7-1.26-.94-1.22-.4,.59-.64,.63-.38,.79-.62,.82-.59-.66-.83-.63-.41,.67-.65,.7-.5-.06-.74-.03-.46,.31-.7,.34-.58-.83-.83-.8-.56-.73-.8-.71-.39,1.04-.63,1.06-.54-.54-.79-.52c-.24,0-.49-.17-.73-.17s-.48-1.15-.72-1.15-.5,2.16-.74,2.16-.46-.92-.7-.93-.46-.43-.7-.45-.43-.66-.67-.68-.47,.06-.71,.04-.54,.73-.78,.71-.37-.85-.61-.88-.55,.57-.78,.53-.69,1.21-.92,1.17-.17-1.71-.41-1.75-.54,.31-.78,.26-.31-.71-.54-.77-.5,.1-.73,.04-.45-.12-.68-.19-.64,.46-.87,.38-.06-1.2-.29-1.29-1.43,2.32-1.65,2.23-.31-.59-.53-.69-.45-.25-.66-.36,.3-1.66,.09-1.77-.62,.16-.83,.04-.92,.58-1.13,.46,.75-2.01,.56-2.15-.62,.12-.81-.02-1.78,1.52-1.96,1.37,1.34-2.38,1.16-2.53-1.49,.97-1.66,.8-.59-.11-.76-.28-.67-.07-.83-.25,.1-.77-.06-.95-.08-.57-.23-.76,.92-1.27,.77-1.47-1.74,.65-1.87,.46-.54-.25-.67-.45,.45-.84,.33-1.05-.62-.21-.73-.42-.05-.52-.16-.74-.58-.27-.68-.49,.88-.91,.79-1.13-.21-.42-.29-.64,.4-.64,.32-.87Z"/><path class="cls-1" d="M292.62,356.41c-.24,0-.49-1.04-.72-1.04s-.45-.55-.69-.57-.45-.18-.69-.2-.37-.7-.61-.73-.43-.04-.67-.08-.87,2.04-1.1,2-.47-.27-.7-.33-.02-1.74-.25-1.81-.45-.04-.68-.12-.42-.14-.65-.23-.96,1.06-1.18,.97-.07-.99-.28-1.1-.3-.41-.51-.53-.77,.38-.98,.26-.68,.13-.88,0,.6-1.63,.41-1.78-.2-.43-.39-.58-1.87,1.41-2.05,1.25,1.24-1.98,1.07-2.15c-.17-.17-.79,.15-.95-.03s-1.57,.72-1.72,.53,1.33-1.68,1.18-1.87-1.75,.68-1.88,.48,.18-.72,.05-.92-.58-.24-.7-.45-.74-.2-.85-.41,.65-.87,.56-1.09,1.26-1.01,1.17-1.24-2.66,.46-2.73,.24,1.13-.89,1.06-1.12-1.1-.22-1.15-.45-.34-.46-.39-.69,.96-.69,.92-.93-.48-.42-.51-.66,1.68-.66,1.66-.9-.7-.39-.71-.63-.47-.45-.47-.69-.46-.47-.46-.72c0-.36,.09-.36,.09-.72s.04-.36,.04-.72-.09-.36-.09-.72,.3-.36,.3-.72,.27-.36,.27-.72-.44-.36-.44-.72-.18-.36-.18-.71-.39-.36-.39-.71,1.83-.36,1.83-.71-1.46-.36-1.46-.71-.86-.36-.86-.71,2.51-.36,2.51-.71-.99-.36-.99-.72,.82-.36,.82-.72-1.23-.36-1.23-.72-.79-.36-.79-.72,1.69-.36,1.69-.72-1.55-.36-1.55-.72,2.02-.36,2.02-.72-1.77-.36-1.77-.72,.18-.36,.18-.72,.81-.36,.81-.72-1.32-.36-1.32-.72-.1-.36-.1-.72,1.13-.36,1.13-.72,.9-.36,.9-.72-2.25-.36-2.25-.72,1.79-.36,1.79-.72-.15-.36-.15-.72-.25-.36-.25-.72,.65-.36,.65-.72-1.28-.36-1.28-.72,.43-.36,.43-.72,.98-.36,.98-.72-.37-.36-.37-.72-.73-.36-.73-.72-.41-.36-.41-.72-.28-.36-.28-.72,.48-.36,.48-.72,.04-.36,.04-.72,.31-.36,.31-.72,1.24-.36,1.24-.72-1.34-.36-1.34-.72,1.16-.36,1.16-.72-2.06-.36-2.06-.72,0-.36,0-.72,1.92-.36,1.92-.72-.9-.36-.9-.71-.62-.36-.62-.71-.39-.36-.39-.71,1.6-.36,1.6-.71-.18-.36-.18-.71-.66-.36-.66-.71-.78-.36-.78-.71,1.82-.36,1.82-.71-.79-.36-.79-.71,1.09-.36,1.09-.71-2.48-.36-2.48-.71,.73-.36,.73-.71,.7-.36,.7-.71,.27-.36,.27-.71-1.39-.36-1.39-.71,.74-.36,.74-.71,.7-.36,.7-.71,.53-.36,.53-.71-1.43-.36-1.43-.71,1.14-.36,1.14-.71-1.4-.36-1.4-.71,.87-.36,.87-.71-1.21-.36-1.21-.71,1.44-.36,1.44-.71-.7-.36-.7-.71-.6-.36-.6-.71,.58-.36,.58-.72,1.23-.36,1.23-.72-1.86-.36-1.86-.72,1.73-.36,1.73-.72,.46-.36,.46-.72-1.93-.36-1.93-.72,1.91-.36,1.91-.72-1.87-.36-1.87-.72-.4-.36-.4-.72,1.26-.36,1.26-.72,.73-.36,.73-.72-.48-.36-.48-.72-1.59-.36-1.59-.72,1.5-.36,1.5-.72,.87-.36,.87-.72-2.52-.36-2.52-.72,.7-.36,.7-.72-.1-.36-.1-.72,.96-.36,.96-.72-.19-.36-.19-.72,.96-.36,.96-.72-1.02-.36-1.02-.72,.45-.36,.45-.72-1.27-.36-1.27-.72,.6-.36,.6-.72,.09-.36,.09-.72,.31-.36,.31-.72-.71-.36-.71-.72-.08-.36-.08-.72,.93-.36,.93-.72-.86-.36-.86-.72-.14-.36-.14-.72,1.07-.36,1.07-.72,.26-.36,.26-.72-1.77-.36-1.77-.72,1.32-.36,1.32-.72,.71-.36,.71-.72-2.06-.36-2.06-.72,.09-.36,.09-.72,1.13-.36,1.13-.72-.34-.36-.34-.72,.19-.36,.19-.72,.49-.36,.49-.72,.77-.36,.77-.72-2.33-.36-2.33-.72,2.13-.36,2.13-.72-1.26-.36-1.26-.72,1.28-.36,1.28-.72-2.28-.36-2.28-.72,.24-.36,.24-.72,2.17-.36,2.17-.72-.39-.36-.39-.72-1.17-.36-1.17-.72,1.56-.36,1.56-.72-1.4-.36-1.4-.72,.4-.36,.4-.72-.9-.36-.9-.72,1.89-.36,1.89-.72-1.25-.36-1.25-.72-.22-.36-.22-.72,1.24-.36,1.24-.72-1.12-.36-1.12-.72-1.06-.36-1.06-.72,1.46-.36,1.46-.72-.45-.36-.45-.72,1.57-.36,1.57-.72-1.46-.36-1.46-.72,.02-.36,.02-.72-.36-.36-.36-.72,.51-.36,.51-.72-.19-.36-.19-.72-.13-.36-.13-.72,1.4-.36,1.4-.72-.74-.36-.74-.72-1.06-.36-1.06-.72-.55-.36-.55-.72,1.99-.36,1.99-.72-.88-.36-.88-.72,.41-.36,.41-.72,1.04-.36,1.04-.72-2.39-.36-2.39-.72,.37-.36,.37-.72,1.59-.36,1.59-.72-.2-.36-.2-.72,.63-.36,.63-.72-2.41-.36-2.41-.72,1.52-.36,1.52-.72-.82-.36-.82-.72-.13-.36-.13-.72,.21-.36,.21-.72-.72-.36-.72-.72,.87-.36,.87-.72,1.18-.36,1.18-.72-.47-.36-.47-.72-1.55-.36-1.55-.72,.28-.36,.28-.72,1.2-.36,1.2-.72-.75-.36-.75-.72-.85-.36-.85-.72,.14-.36,.14-.72,1.81-.36,1.81-.72-1.59-.36-1.59-.72-.45-.36-.45-.72,.89-.36,.89-.72,1.39-.36,1.39-.72-1.66-.36-1.66-.72,1.65-.36,1.65-.72-1.01-.36-1.01-.72,.61-.36,.61-.72,.23-.36,.23-.72,.44-.36,.44-.72-2.31-.36-2.31-.72,1.72-.36,1.72-.72,.57-.36,.57-.72-.5-.36-.5-.72-.48-.36-.48-.72-.97-.36-.97-.72,1.97-.36,1.97-.72-.21-.36-.21-.72-1.55-.36-1.55-.72,.98-.36,.98-.72-1.58-.36-1.58-.72,2.27-.36,2.27-.72-2.56-.36-2.56-.72,1.23-.36,1.23-.72,.79-.36,.79-.72,.4-.36,.4-.72-.57-.36-.57-.72,.83-.36,.83-.72-.23-.36-.23-.72-2.15-.36-2.15-.72,.33-.36,.33-.72,1.39-.36,1.39-.72-.67-.36-.67-.72,.8-.36,.8-.72-1-.36-1-.72-.8-.36-.8-.72,1.64-.36,1.64-.72-1.6-.36-1.6-.72,1.77-.36,1.77-.72-.82-.36-.82-.72-1.15-.36-1.15-.72,1.73-.36,1.73-.72-.81-.36-.81-.72,1.02-.36,1.02-.72,.12-.36,.12-.72-.82-.36-.82-.72-.42-.36-.42-.72,.44-.36,.44-.72-.9-.36-.9-.72,.45-.36,.45-.72,.55-.36,.55-.72,.83-.36,.83-.72-1.08-.36-1.08-.72,.38-.36,.38-.72-.59-.36-.59-.72,.5-.36,.5-.72-.45-.36-.45-.72-.17-.36-.17-.72,1.01-.36,1.01-.72-1.05-.36-1.05-.72,.59-.36,.59-.72,.77-.36,.77-.73-1.8-.36-1.8-.72,.96-.36,.96-.72-.75-.36-.75-.72,.02-.36,.02-.73,1.42-.36,1.42-.73,.12-.36,.12-.73-1-.36-1-.73,.79-.36,.79-.73-1.53-.36-1.53-.73,1.02-.36,1.02-.72,.75-.36,.75-.73-.51-.36-.51-.73-.88-.37-.88-.73,.18-.37,.18-.73c0-.24-.03-.49-.02-.73s1.6-.39,1.62-.63-.19-.46-.17-.69-1.73-.67-1.69-.91,1.93-.19,1.97-.42,.19-.41,.23-.64-1.06-.71-1-.94,.95-.22,1.02-.44-2.05-1.16-1.97-1.39,.16-.51,.25-.74,2.33,.44,2.42,.23-1.2-1.09-1.09-1.3,0-.57,.12-.78,.39-.36,.52-.57,.9,0,1.04-.19-.46-.94-.31-1.13,.93,.11,1.09-.07,1.03,.29,1.19,.12-.82-1.43-.65-1.6c.17-.17,.85,.17,1.02,.01s1.11,.59,1.29,.43-.06-.77,.13-.92-.62-1.68-.42-1.82,1.35,1.16,1.55,1.03,.7,.33,.91,.22,.05-.83,.27-.94,.49-.01,.71-.11,.06-1.05,.29-1.14,.44-.2,.67-.28,.46-.17,.69-.24,.65,.59,.88,.53,.22-1.19,.45-1.24,.5-.03,.74-.07,.48-.13,.72-.16,.64,1.53,.88,1.51,.4-.61,.64-.63,.49,.75,.73,.74,.44-1.58,.68-1.58c.36,0,.36,1.61,.72,1.61s.36-2.52,.72-2.52,.36,.51,.72,.51,.36-.22,.72-.22,.36,.71,.72,.71,.36,.24,.72,.24,.36-1.07,.72-1.07,.36-.22,.72-.22,.36,1.47,.72,1.47,.36-.29,.72-.29,.36,1.21,.72,1.21,.36-.09,.72-.09,.36-.71,.72-.71,.36-1.47,.72-1.47,.36,1.75,.72,1.75,.36-1.34,.72-1.34,.36,.15,.72,.15,.36,1.9,.72,1.9,.36-.24,.72-.24,.36-1.88,.72-1.88,.36,.99,.72,.99,.36-.05,.72-.05,.36,.27,.72,.27,.36-.91,.72-.91,.36,.98,.72,.98,.36-.18,.72-.18,.36-.62,.72-.62,.36,1.25,.72,1.25,.36,.16,.72,.16,.36-1.92,.72-1.92,.36,1.27,.72,1.27,.36,.75,.72,.75,.36-2.42,.72-2.42,.36,.8,.72,.8,.36,1.34,.72,1.34,.36-1.23,.72-1.23,.36,1.48,.72,1.48,.36-2.04,.72-2.04,.36,1.7,.72,1.7,.36,.1,.72,.1,.36-.45,.72-.45,.36-.32,.72-.32,.36-1.1,.72-1.1,.36,2.05,.72,2.05,.36-1.91,.72-1.91,.36,.65,.72,.65,.36-.72,.72-.72,.36,.73,.72,.73,.36,.51,.72,.51,.36-1.08,.72-1.08,.36,1.9,.72,1.9,.36-.86,.72-.86,.36-.79,.72-.79,.36-.04,.72-.04,.36,1.72,.72,1.72,.36-1.63,.72-1.63,.36,1.1,.72,1.1,.36,.63,.72,.63,.36-1.5,.72-1.5,.36-.61,.72-.61,.36,.28,.72,.28,.36-.74,.72-.74,.36,2.53,.72,2.53,.36-.65,.72-.65,.36-1.56,.72-1.56,.36-.13,.72-.13,.36,1.24,.72,1.24,.36-1,.72-1,.36-.15,.72-.15,.36,.1,.72,.1,.36,.94,.72,.94,.36,.18,.72,.18,.36-1.56,.72-1.56,.36,.83,.72,.83,.36,.7,.72,.7,.36-1.22,.72-1.22,.36,1.82,.72,1.82,.36,.24,.72,.24,.36-.88,.72-.88,.36,.7,.72,.7,.36-.12,.72-.12,.36-.6,.72-.6,.36,.91,.72,.91,.36-.82,.72-.82,.36,.28,.72,.28,.36-1.6,.72-1.6,.36,.73,.72,.73,.36-.25,.72-.25,.36,1.37,.72,1.37,.36-.69,.72-.69,.36-.26,.72-.26,.36-.65,.72-.65,.36,.43,.72,.43,.36,.33,.72,.33,.36,.04,.72,.04,.36,.23,.72,.23,.36-1.14,.72-1.14,.36,.14,.72,.14,.36,.23,.72,.23,.36,.16,.72,.16,.36,.71,.72,.71,.36-.57,.72-.57,.36-.77,.72-.77,.36,2.08,.72,2.08,.36-2.1,.72-2.1,.36-.02,.72-.02,.36,1.7,.72,1.7,.36,.6,.72,.6,.36-2.25,.73-2.25,.36,1.53,.72,1.53,.36,.27,.72,.27,.36-.61,.72-.61,.36,.44,.72,.44,.36-.44,.72-.44,.36,.32,.72,.32,.36,.79,.72,.79,.36-2.1,.73-2.1,.36,.24,.72,.24,.36,.71,.72,.71,.36,.11,.72,.11,.36,1.05,.73,1.05,.36-.45,.73-.45,.36-.97,.73-.97,.36,1.05,.73,1.05,.36-1.94,.73-1.94,.36,1.66,.73,1.66,.36-1.04,.73-1.04,.36,1.7,.73,1.7,.37-2.15,.73-2.15,.37,2.01,.73,2.01,.37,.04,.73,.04,.36-.41,.72-.41,.36-.06,.72-.06,.36-.25,.72-.25,.36-1.84,.72-1.84,.36,.19,.72,.19,.36,2.05,.72,2.05,.36-.36,.72-.36,.36-1.32,.72-1.32,.36-.42,.72-.42,.36,1.56,.72,1.56,.36-1.61,.72-1.61,.36,.7,.72,.7,.36,.63,.72,.63,.36,.7,.72,.7,.36-1.35,.72-1.35,.36,.02,.72,.02,.36,1.48,.72,1.48,.36-1.86,.72-1.86,.36,.08,.72,.08,.36,1.41,.72,1.41,.36-.66,.72-.66,.36,1.07,.72,1.07,.36,.02,.72,.02,.36-.67,.72-.67,.36-.58,.72-.58,.36,.35,.72,.35,.36-1.38,.72-1.38,.36,.81,.72,.81,.36-.27,.72-.27,.36,1.44,.72,1.44,.36-1.78,.72-1.78,.36,1.35,.72,1.35,.36,.33,.72,.33,.36,.45,.72,.45,.36-.14,.72-.14,.36-1.69,.72-1.69,.36-.07,.72-.07,.36,.6,.72,.6,.36-.01,.72-.01,.36,.78,.72,.78,.36-1.17,.72-1.17,.36,1.19,.72,1.19,.36-1.62,.72-1.62,.36,.08,.72,.08,.36,.55,.72,.55,.36,.84,.72,.84,.36-1.06,.72-1.06,.36,1.54,.72,1.54,.36-.91,.72-.91,.36,.72,.72,.72,.36-1.77,.72-1.77,.36,1.56,.72,1.56,.36,.35,.72,.35,.36-1.31,.72-1.31,.36-.29,.72-.29,.36-.08,.72-.08,.36,.42,.72,.42,.36,.07,.72,.07,.36,.28,.72,.28,.36,.72,.72,.72,.36-1.35,.72-1.35,.36,1.27,.72,1.27,.36,.56,.72,.56,.36-1.48,.72-1.48,.36,.39,.72,.39,.36-1.24,.72-1.24,.36,1.56,.72,1.56,.36-.76,.72-.76,.36,1.69,.72,1.69,.36-1.65,.72-1.65,.36,1.53,.72,1.53,.36,.09,.72,.09,.36-.86,.72-.86,.36-.38,.72-.38,.36-1.29,.72-1.29,.36,2.4,.72,2.4,.36-1.7,.72-1.7,.36,.03,.72,.03,.36,.35,.72,.35,.36,.05,.72,.05,.36-.16,.72-.16,.36-1,.72-1,.36,.67,.72,.67,.36,1.58,.72,1.58,.36-1.64,.72-1.64,.36,.86,.72,.86,.36,.62,.72,.62,.36-.93,.72-.93,.36-.35,.72-.35,.36-.29,.72-.29,.36,0,.72,0,.36,.86,.72,.86,.36,.45,.72,.45,.36-1.3,.72-1.3,.36-.24,.72-.24,.36,.95,.72,.95,.36,.79,.72,.79,.36-1.55,.72-1.55,.36,1.63,.72,1.63,.36-.48,.72-.48,.36,.86,.72,.86,.36-.94,.72-.94,.36-.27,.72-.27,.36,1.09,.72,1.09,.36-1.07,.72-1.07,.36-1.18,.72-1.18,.36,2.26,.72,2.26,.36-.03,.72-.03,.36-1.29,.73-1.29,.36-.86,.72-.86,.36,.45,.72,.45,.36,.46,.72,.46,.36-.43,.72-.43,.36,1.42,.72,1.42,.36,.33,.72,.33,.36-1.82,.72-1.82,.36-.37,.73-.37,.36,.14,.72,.14,.36-.24,.72-.24,.36,2.1,.72,2.1,.36-1.63,.73-1.63,.36,.73,.73,.73,.36-.52,.73-.52,.36-.29,.73-.29,.36,2.1,.73,2.1,.36-.56,.73-.56,.36,.24,.73,.24,.36-1.71,.73-1.71,.37,.24,.73,.24,.37-.59,.73-.59,.37-.13,.73-.13c.24,0,.46,2.1,.69,2.1s.55-1.48,.78-1.46,.49,.2,.72,.22,.35,1.19,.58,1.22,.58-.73,.82-.69,.55-.25,.78-.2,.54-.11,.77-.06,.06,1.61,.28,1.68,.38,.26,.61,.34,.81-.86,1.03-.78,.17,.8,.39,.89,.49,.04,.7,.14,1.09-1.01,1.3-.89,.55,.11,.75,.23-.68,1.92-.48,2.06,1.26-.93,1.45-.79,.08,.69,.27,.85,.35,.34,.53,.5,1.19-.51,1.36-.34c.17,.17-1.46,2.07-1.3,2.24s.35,.27,.5,.45,1.7-.76,1.85-.57-.47,.94-.33,1.14-.41,.81-.29,1.01,.13,.42,.25,.63,1.79-.42,1.9-.21,.09,.52,.18,.74-1.13,.98-1.05,1.2,2.09-.25,2.17-.03-.23,.61-.16,.85-.37,.61-.31,.85,1.03,.28,1.07,.52-.71,.64-.67,.88-1.3,.66-1.27,.9,1.98,.25,2,.49-1.87,.62-1.85,.86,.47,.43,.48,.67-.42,.46-.42,.7c0,.36,.23,.36,.23,.72s-.13,.36-.13,.72,1.45,.36,1.45,.72-1.75,.36-1.75,.72,1.88,.36,1.88,.72,.59,.36,.59,.72-.04,.36-.04,.71-2.44,.36-2.44,.71,.91,.36,.91,.71,.48,.36,.48,.71-.55,.36-.55,.71,1.55,.36,1.55,.71-.83,.36-.83,.72-1.09,.36-1.09,.72,1.5,.36,1.5,.72-1.1,.36-1.1,.72,.2,.36,.2,.72-.97,.36-.97,.72,1.47,.36,1.47,.72,.14,.36,.14,.72,.84,.36,.84,.72-.4,.36-.4,.72-.97,.36-.97,.72-.67,.36-.67,.72,.34,.36,.34,.72,.3,.36,.3,.72,.7,.36,.7,.72-.53,.36-.53,.72,1.11,.36,1.11,.72-1.2,.36-1.2,.72-.94,.36-.94,.72,2.01,.36,2.01,.72-.46,.36-.46,.72-1.9,.36-1.9,.72,2.13,.36,2.13,.72,.34,.36,.34,.72-.04,.36-.04,.72-.46,.36-.46,.72-1.29,.36-1.29,.72,1.08,.36,1.08,.72-.82,.36-.82,.72,.02,.36,.02,.72-.11,.36-.11,.72,.5,.36,.5,.72-1.08,.36-1.08,.72,1.07,.36,1.07,.72-.13,.36-.13,.72,1.38,.36,1.38,.71-1.14,.36-1.14,.71-.04,.36-.04,.71-1.17,.36-1.17,.71,.39,.36,.39,.71,.83,.36,.83,.71,.1,.36,.1,.71,.66,.36,.66,.71-.7,.36-.7,.71,.93,.36,.93,.71,.11,.36,.11,.71-.12,.36-.12,.71-.68,.36-.68,.71,.27,.36,.27,.71-1.19,.36-1.19,.71,1.55,.36,1.55,.71-.16,.36-.16,.71,.2,.36,.2,.71-.38,.36-.38,.71,.23,.36,.23,.71-1.51,.36-1.51,.71-.58,.36-.58,.71,.8,.36,.8,.71-.56,.36-.56,.71,.17,.36,.17,.71,1.8,.36,1.8,.71-2.18,.36-2.18,.72,.09,.36,.09,.72-.04,.36-.04,.72,1.16,.36,1.16,.72,.31,.36,.31,.72-.75,.36-.75,.72,1.24,.36,1.24,.72,.27,.36,.27,.72-1.08,.36-1.08,.72,.18,.36,.18,.72-1.15,.36-1.15,.72,.81,.36,.81,.72-.38,.36-.38,.72-.13,.36-.13,.72-.53,.36-.53,.72,.05,.36,.05,.72,1.92,.36,1.92,.72-2.18,.36-2.18,.72,1.1,.36,1.1,.72,.67,.36,.67,.72-1.72,.36-1.72,.72,.42,.36,.42,.72,1,.36,1,.72-.11,.36-.11,.72-.13,.36-.13,.72,.45,.36,.45,.72-.39,.36-.39,.72-.92,.36-.92,.72-.25,.36-.25,.72,2.31,.36,2.31,.72-.01,.36-.01,.72,.02,.36,.02,.72-.74,.36-.74,.72,.31,.36,.31,.72,.02,.36,.02,.72-.4,.36-.4,.72,.65,.36,.65,.72-.65,.36-.65,.72,.91,.36,.91,.72-.07,.36-.07,.72-2.11,.36-2.11,.72,1.36,.36,1.36,.72-.44,.36-.44,.72,.1,.36,.1,.72,.11,.36,.11,.72-1.36,.36-1.36,.72,2.16,.36,2.16,.72,.13,.36,.13,.72-1.1,.36-1.1,.72-.7,.36-.7,.72,2.06,.36,2.06,.72-.81,.36-.81,.72-.27,.36-.27,.72-.07,.36-.07,.72-.31,.36-.31,.72-.02,.36-.02,.72-.7,.36-.7,.72,.45,.36,.45,.72-.49,.36-.49,.72,1.43,.36,1.43,.72-.51,.36-.51,.72,.41,.36,.41,.72,.02,.36,.02,.72-.52,.36-.52,.72,1.37,.36,1.37,.72-.87,.36-.87,.72,.46,.36,.46,.72-.32,.36-.32,.72,.4,.36,.4,.72-1.78,.36-1.78,.72-.24,.36-.24,.72,2.39,.36,2.39,.72-1.51,.36-1.51,.72-.82,.36-.82,.72,.87,.36,.87,.72-.98,.36-.98,.72,.47,.36,.47,.72-.05,.36-.05,.72,1.32,.36,1.32,.72-.72,.36-.72,.72-.04,.36-.04,.72-.62,.36-.62,.72,1.82,.36,1.82,.72-.92,.36-.92,.72-.03,.36-.03,.72-.06,.36-.06,.72,.48,.36,.48,.72,.17,.36,.17,.72-1.95,.36-1.95,.72,1.58,.36,1.58,.72-.95,.36-.95,.72,1.94,.36,1.94,.72-2.58,.36-2.58,.72,1.23,.36,1.23,.72-.61,.36-.61,.72,1.45,.36,1.45,.72-1.84,.36-1.84,.72,1.5,.36,1.5,.72,.69,.36,.69,.72-.21,.36-.21,.72,.24,.36,.24,.72-2.41,.36-2.41,.72,2.21,.36,2.21,.72-.2,.36-.2,.72-.65,.36-.65,.72-.48,.36-.48,.72,.78,.36,.78,.72-1.1,.36-1.1,.72,1.94,.36,1.94,.72-.26,.36-.26,.72-1.4,.36-1.4,.72-.71,.36-.71,.72,.28,.36,.28,.72-.51,.36-.51,.72,2.31,.36,2.31,.72-.75,.36-.75,.72,.84,.36,.84,.72-1.34,.36-1.34,.72-.41,.36-.41,.72,1.15,.36,1.15,.72-1.43,.36-1.43,.72,.83,.36,.83,.72,1.43,.36,1.43,.72-.24,.36-.24,.72-1.35,.36-1.35,.72-.11,.36-.11,.72-.4,.36-.4,.72,.2,.36,.2,.72-.61,.36-.61,.72-.03,.36-.03,.72,2.5,.36,2.5,.72-.67,.36-.67,.72,.5,.36,.5,.72,.17,.36,.17,.72-1.05,.36-1.05,.72-1.26,.36-1.26,.72,1.41,.36,1.41,.72-1.47,.36-1.47,.72,2.33,.36,2.33,.72-.61,.36-.61,.72,.1,.36,.1,.72,.32,.36,.32,.72-1.99,.36-1.99,.72,.27,.36,.27,.72,.08,.36,.08,.72-.6,.36-.6,.72,2.46,.36,2.46,.72-.4,.36-.4,.72-1.52,.36-1.52,.72,.68,.36,.68,.72,.92,.36,.92,.72-.74,.36-.74,.72,.32,.36,.32,.72-1.11,.36-1.11,.72,1.48,.36,1.48,.72,.4,.36,.4,.72-.09,.36-.09,.72-2.13,.36-2.13,.72,1.79,.36,1.79,.72-.99,.36-.99,.72,1.08,.36,1.08,.72-1.17,.36-1.17,.72-.7,.36-.7,.73,1.39,.36,1.39,.72-1.5,.36-1.5,.72,1.67,.36,1.67,.72-.93,.36-.93,.73,1.41,.36,1.41,.73-.05,.36-.05,.73-1.27,.36-1.27,.73,.17,.36,.17,.73,1.14,.36,1.14,.73-1.8,.36-1.8,.72-.35,.36-.35,.73,.51,.36,.51,.73,.67,.37,.67,.73-.77,.37-.77,.73c0,.24-.14,.46-.14,.7s.85,.51,.83,.75,1,.58,.97,.82-.63,.44-.66,.68-1.89,.19-1.93,.43-.06,.43-.11,.66,2.42,1.05,2.36,1.28-.38,.45-.45,.67-.06,.54-.13,.76-1.07,.15-1.15,.37-.49,.32-.59,.54,.05,.55-.06,.77,.05,.58-.07,.79-1.32-.24-1.45-.03-.64,.09-.78,.29,1.02,1.3,.87,1.49,.21,.82,.06,1-.17,.55-.33,.73-.84-.09-1.01,.08c-.17,.17-.87-.2-1.04-.04s.59,1.43,.41,1.59-1.66-1.29-1.85-1.15-.19,.5-.39,.64-.05,.78-.25,.91,.06,1.09-.15,1.21-.75-.32-.97-.22-.26,.64-.48,.74-.78-.56-1-.48-.65-.42-.88-.34-.04,1.48-.27,1.54-.51,.06-.75,.11-.51,.05-.74,.1-.5,.07-.73,.11-.69-1.43-.93-1.4-.43,.16-.67,.18-.34,1.86-.58,1.87-.58-2.29-.82-2.28-.44,.13-.68,.13c-.36,0-.36,1.43-.72,1.43s-.36,.98-.72,.98-.36-.87-.72-.87-.36-.99-.72-.99-.36-.29-.72-.29-.36,1.16-.72,1.16-.36-.02-.72-.02-.36-1.05-.72-1.05-.36,1.63-.72,1.63-.36-1.06-.72-1.06-.36,1.07-.72,1.07-.36-1.98-.72-1.98-.36,.93-.72,.93-.36-.59-.72-.59-.36-.06-.72-.06-.36,1.35-.72,1.35-.36-.4-.72-.4-.36,.69-.72,.69-.36-.96-.72-.96-.36-.78-.72-.78-.36,.02-.72,.02-.36,.25-.72,.25-.36-.54-.72-.54-.36,.98-.72,.98-.36,1.14-.72,1.14-.36-1.28-.72-1.28-.36-.19-.72-.19-.36,1.24-.72,1.24-.36-.26-.72-.26-.36,.82-.72,.82-.36-1.2-.72-1.2-.36-1.22-.72-1.22-.36,.51-.72,.51-.36-.21-.72-.21-.36-.34-.72-.34-.36,.54-.72,.54-.36,1.04-.72,1.04-.36-1.69-.72-1.69-.36,1.38-.72,1.38-.36-.09-.72-.09-.36,.98-.72,.98-.36-1.13-.72-1.13-.36-.72-.72-.72-.36,1.14-.72,1.14-.36-1.1-.72-1.1-.36,.64-.72,.64-.36,1.16-.72,1.16-.36-1.4-.72-1.4-.36-.79-.72-.79-.36,2.47-.72,2.47-.36-1.49-.72-1.49-.36,1.47-.72,1.47-.36-1.87-.72-1.87-.36,1.02-.72,1.02-.36,.87-.72,.87-.36-.77-.72-.77-.36,.44-.72,.44-.36-.19-.72-.19-.36,.48-.72,.48-.36-1.28-.72-1.28-.36,1.17-.72,1.17-.36-.73-.72-.73-.36-.61-.72-.61-.36,1.25-.72,1.25-.36,.19-.72,.19-.36-.34-.72-.34-.36-1.65-.72-1.65-.36-.18-.72-.18-.36-.22-.72-.22-.36,.49-.72,.49-.36,1.96-.72,1.96-.36-1.27-.72-1.27-.36-.5-.72-.5-.36,1.43-.72,1.43-.36-1.76-.72-1.76-.36,1.66-.72,1.66-.36,.33-.72,.33-.36-1.07-.72-1.07-.36-.51-.72-.51-.36,.14-.72,.14-.36-.02-.72-.02-.36-.13-.72-.13-.36,.53-.72,.53-.36-.58-.72-.58-.36-.54-.72-.54-.36,.71-.72,.71-.36,.22-.72,.22-.36,1.17-.72,1.17-.36,.26-.72,.26-.36-.93-.72-.93-.36-1.29-.72-1.29-.36,1.56-.72,1.56-.36-1.4-.72-1.4-.36-.33-.72-.33-.36,1-.72,1-.36-.96-.72-.96-.36,1.85-.72,1.85-.36-1.64-.72-1.64-.36,.91-.72,.91-.36,.71-.72,.71-.36-1.58-.72-1.58-.36,.1-.72,.1-.36,.17-.72,.17-.36,.25-.72,.25-.36,.16-.72,.16-.36,.95-.72,.95-.36-.79-.72-.79-.36-.64-.72-.64-.36-.06-.72-.06-.36,.64-.72,.64-.36,1.01-.72,1.01-.36,.02-.72,.02-.36-1.58-.72-1.58-.36-.11-.72-.11-.36,1.95-.72,1.95-.36-.55-.72-.55-.36-1.02-.72-1.02-.36,.92-.72,.92-.36,.5-.72,.5-.36-1.96-.72-1.96-.36,1.4-.72,1.4-.36,.04-.72,.04-.36,.31-.72,.31-.36-1.35-.72-1.35-.36,.66-.72,.66-.36-1.17-.72-1.17-.36,.84-.72,.84-.36-.57-.72-.57-.36-.19-.72-.19-.36,1.36-.72,1.36-.36,.64-.72,.64-.36-1.29-.72-1.29-.36,.48-.72,.48-.36-.11-.72-.11-.36,.83-.72,.83-.36-1.75-.72-1.75-.36,1.56-.72,1.56-.36-.5-.72-.5-.36-.89-.72-.89-.36,1.69-.72,1.69-.36-1.19-.72-1.19-.36,1.08-.72,1.08-.36-.61-.72-.61-.36-.04-.72-.04-.36,.09-.72,.09-.36-1.53-.72-1.53-.36,.58-.72,.58-.36-.44-.72-.44-.36,.69-.72,.69-.36,.22-.72,.22-.36,.33-.72,.33-.36-.45-.72-.45-.36,.28-.72,.28-.36,.6-.72,.6-.36-1.35-.72-1.35-.36-.03-.72-.03-.36,.88-.72,.88-.36-1.39-.72-1.39-.36-.21-.72-.21-.36,1.28-.72,1.28-.36,.13-.72,.13-.36,.44-.72,.44-.36-.11-.72-.11-.36-.3-.72-.3-.36-.25-.72-.25-.36-.4-.72-.4-.36,1.74-.72,1.74-.36-.43-.72-.43-.36-2.05-.72-2.05-.36,1.45-.72,1.45-.36-1.48-.72-1.48-.36,2.4-.72,2.4-.36-.98-.72-.98-.36,.57-.72,.57-.36,.05-.72,.05-.36-1.31-.72-1.31-.36,.84-.72,.84-.36-.76-.72-.76-.36,.63-.72,.63-.36,.13-.72,.13-.36-1.11-.72-1.11-.36-.47-.72-.47-.36,2.02-.72,2.02-.36-1.03-.72-1.03-.36-.31-.72-.31-.36,.94-.72,.94-.36-1.14-.72-1.14-.36,1.77-.72,1.77-.36-.84-.72-.84-.36,.49-.72,.49-.36-.25-.72-.25-.36,.49-.72,.49-.36-.84-.72-.84-.36,.38-.72,.38-.36-.65-.72-.65-.36,1.18-.72,1.18-.36-.95-.72-.95-.36,1.33-.72,1.33-.36-.99-.72-.99-.36,.01-.72,.01-.36,.66-.72,.66-.36,.15-.72,.15-.36-.95-.72-.95-.36,.24-.72,.24-.36-1.72-.72-1.72-.36,1.79-.72,1.79-.36-1.31-.72-1.31-.36-.06-.72-.06-.36,.17-.72,.17-.36,.15-.72,.15-.36-.75-.72-.75-.36,1.15-.72,1.15-.36-.42-.72-.42-.36-.57-.72-.57-.36,.85-.72,.85-.36-.05-.72-.05-.36,.75-.72,.75-.36-1.74-.72-1.74-.36,1.7-.72,1.7-.36-.04-.72-.04-.36-.91-.72-.91-.36,.3-.73,.3-.36,.92-.73,.92-.36,.63-.72,.63-.36-.39-.72-.39-.36,.32-.72,.32-.36-1.98-.72-1.98-.36,.32-.72,.32-.36-.45-.72-.45-.36,1.48-.72,1.48-.36,.48-.72,.48-.36-2.31-.73-2.31-.36,.6-.73,.6-.36-.68-.73-.68-.36,.62-.73,.62-.36,1.69-.72,1.69-.36-1.98-.72-1.98-.36,1.73-.73,1.73-.36,.03-.73,.03-.36-.91-.73-.91-.36,1.32-.73,1.32-.36-1.19-.73-1.19-.36-.03-.73-.03-.36-.36-.72-.36-.36-.91-.72-.91-.36,.18-.72,.18-.36,1.14-.73,1.14-.36,.48-.73,.48-.36,.23-.73,.23-.36,.14-.73,.14-.36-1.79-.73-1.79-.36,.84-.73,.84-.36-.09-.73-.09-.36-1.13-.73-1.13-.37,1.87-.73,1.87-.36-.43-.73-.43-.36-.17-.73-.17-.36-.96-.73-.96-.37,1.25-.73,1.25-.37-.67-.73-.67-.27,.37-.53,.64c-.49,.52-.58,.97-.94,.97Zm21.68-129.18c.25,.26-.48,.68-.12,.68s.36,.54,.71,.54,.36,.14,.72,.14,.36,.66,.72,.66,.36-.02,.72-.02,.36-2.17,.72-2.17,.36,.17,.72,.17,.36,1.68,.72,1.68,.36-.09,.72-.09,.36,0,.72,0,.36-1.35,.72-1.35,.36,.87,.72,.87,.36,.23,.72,.23,.36-.72,.72-.72,.36-.48,.72-.48,.36,1.68,.72,1.68,.36,.21,.72,.21,.36-2.29,.71-2.29,.36,2.29,.71,2.29,.36-.67,.72-.67,.36-1.65,.72-1.65,.36,2.09,.72,2.09,.36-1.81,.72-1.81,.36,.55,.72,.55,.36-.37,.72-.37,.36-.55,.72-.55,.36,.97,.72,.97,.36,1.56,.72,1.56,.36-2.65,.72-2.65,.36,1.35,.72,1.35,.36-1,.72-1,.36-.22,.72-.22,.36,1.08,.72,1.08,.36-.41,.72-.41,.36,1.75,.73,1.75,.36-.66,.73-.66,.36-.44,.72-.44,.36-.45,.72-.45,.36,.09,.72,.09,.36,.04,.72,.04,.36-.09,.72-.09,.36,.3,.72,.3,.36,.27,.73,.27,.36-.44,.72-.44,.36-.18,.72-.18,.36-.39,.72-.39,.36,1.83,.72,1.83,.36-1.46,.72-1.46,.36-.86,.73-.86,.36,2.51,.73,2.51,.36-.99,.73-.99,.36,.82,.72,.82,.36-1.23,.73-1.23,.36-.79,.72-.79,.36,1.69,.72,1.69,.36-1.55,.72-1.55,.36,2.02,.73,2.02,.36-1.77,.73-1.77,.36,.18,.73,.18,.36,.81,.72,.81,.36-1.32,.73-1.32,.36-.1,.73-.1,.36,1.13,.73,1.13,.36,.9,.73,.9,.36-2.25,.73-2.25,.36,1.79,.73,1.79,.36-.15,.73-.15,.36-.25,.73-.25,.37,.65,.73,.65,.37-1.28,.73-1.28,.37,.43,.73,.43,1.19,.95,1.45,.69-.06-1.09-.06-1.45-.73-.36-.73-.72-.41-.36-.41-.72-.28-.36-.28-.72,.48-.36,.48-.72,.04-.36,.04-.72,.31-.36,.31-.72,1.24-.36,1.24-.72-1.34-.36-1.34-.72,1.16-.36,1.16-.72-2.06-.36-2.06-.72,0-.36,0-.72,1.92-.36,1.92-.72-.9-.36-.9-.72-.62-.36-.62-.72-.39-.36-.39-.72,1.6-.36,1.6-.72-.18-.36-.18-.72-.66-.36-.66-.72-.78-.36-.78-.72,1.82-.36,1.82-.72-.79-.36-.79-.72,1.09-.36,1.09-.72-2.48-.36-2.48-.72,.73-.36,.73-.72,.7-.36,.7-.72,.27-.36,.27-.72-1.39-.36-1.39-.72,.74-.36,.74-.72,.7-.36,.7-.72,.53-.36,.53-.72-1.43-.36-1.43-.72,1.14-.36,1.14-.72-1.4-.36-1.4-.72,.87-.36,.87-.72-1.21-.36-1.21-.72,1.44-.36,1.44-.72-.7-.36-.7-.72-.6-.36-.6-.72,.58-.36,.58-.73,1.23-.36,1.23-.72-1.86-.36-1.86-.72,1.73-.36,1.73-.72,.46-.36,.46-.72-1.93-.36-1.93-.72,1.91-.36,1.91-.72-1.87-.36-1.87-.73-.4-.36-.4-.72,1.26-.36,1.26-.72,.73-.36,.73-.72-.48-.36-.48-.72-1.59-.36-1.59-.72,1.5-.36,1.5-.72,.87-.36,.87-.72-2.52-.36-2.52-.73,.7-.36,.7-.72-.1-.36-.1-.72,.96-.36,.96-.72-.19-.36-.19-.73,.96-.36,.96-.73-1.02-.36-1.02-.73,.45-.36,.45-.73-1.27-.36-1.27-.73,.6-.36,.6-.73,.09-.36,.09-.73,.31-.36,.31-.73-.71-.37-.71-.73-.08-.37-.08-.73,1.09-.71,.84-.98-.61,.76-.97,.76-.36,.14-.72,.14-.36-1.07-.72-1.07-.36-.26-.72-.26-.36,1.77-.72,1.77-.36-1.32-.72-1.32-.36-.71-.72-.71-.36,2.06-.72,2.06-.36-.09-.72-.09-.36-1.13-.72-1.13-.36,.34-.72,.34-.36-.19-.72-.19-.36-.49-.72-.49-.36-.77-.72-.77-.36,2.33-.72,2.33-.36-2.13-.72-2.13-.36,1.26-.72,1.26-.36-1.28-.72-1.28-.36,2.28-.72,2.28-.36-.24-.72-.24-.36-2.17-.72-2.17-.36,.39-.72,.39-.36,1.17-.73,1.17-.36-1.56-.73-1.56-.36,1.4-.72,1.4-.36-.4-.72-.4-.36,.9-.72,.9-.36-1.89-.72-1.89-.36,1.25-.72,1.25-.36,.22-.72,.22-.36-1.24-.72-1.24-.36,1.12-.72,1.12-.36,1.06-.73,1.06-.36-1.46-.73-1.46-.36,.45-.73,.45-.36-1.57-.72-1.57-.36,1.46-.72,1.46-.36-.02-.72-.02-.36,.36-.73,.36-.36-.51-.73-.51-.36,.19-.73,.19-.36,.13-.73,.13-.36-1.4-.73-1.4-.36,.74-.73,.74-.36,1.06-.72,1.06-.36,.55-.72,.55-.36-1.99-.72-1.99-.36,.88-.73,.88-.36-.41-.73-.41-.36-1.04-.73-1.04-.36,2.39-.72,2.39-.36-.37-.73-.37-.36-1.59-.73-1.59-.36,.2-.73,.2-.36-.63-.73-.63-.37,2.41-.73,2.41-.36-1.52-.73-1.52-.36,.82-.73,.82-.36,.13-.73,.13-.37-.21-.73-.21-.37,.72-.73,.72-.37-.87-.73-.87-.37-1.18-.73-1.18c-.25,0-.53,.48-.77,.49-.25,.02-.32,1.58-.56,1.61-.25,.04-.47-.21-.7-.15-.25,.06-.81-1.02-1.03-.94-.24,.08-.18,.88-.39,.99s.1,.91-.1,1.05-.35,.08-.52,.26-1.7-.82-1.84-.61,1.08,1.23,.97,1.46,.26,.5,.17,.73c-.08,.22-.97,.13-1.03,.37-.05,.23-1.47,.25-1.5,.5-.03,.24,1.59,.67,1.58,.92-.02,.24-1.67,.45-1.67,.7,0,.36,1.01,.36,1.01,.72s-.61,.36-.61,.72-.23,.36-.23,.73-.44,.36-.44,.73,2.31,.36,2.31,.72-1.72,.36-1.72,.72-.57,.36-.57,.72,.5,.36,.5,.72,.48,.36,.48,.72,.97,.36,.97,.72-1.97,.36-1.97,.72,.21,.36,.21,.72,1.55,.36,1.55,.72-.98,.36-.98,.72,1.58,.36,1.58,.72-2.27,.36-2.27,.72,2.56,.36,2.56,.72-1.23,.36-1.23,.72-.79,.36-.79,.72-.4,.36-.4,.73,.57,.36,.57,.73-.83,.36-.83,.73,.23,.36,.23,.72,2.15,.36,2.15,.72-.33,.36-.33,.72-1.39,.36-1.39,.72,.67,.36,.67,.72-.8,.36-.8,.72,1,.36,1,.73,.8,.36,.8,.73-1.64,.36-1.64,.73,1.6,.36,1.6,.73-1.77,.36-1.77,.73,.82,.36,.82,.73,1.15,.36,1.15,.73-1.73,.36-1.73,.73,.81,.36,.81,.73-1.02,.36-1.02,.73-.12,.36-.12,.73,.82,.36,.82,.73,.42,.36,.42,.73-.44,.36-.44,.72,.9,.36,.9,.72-.45,.36-.45,.72-.55,.36-.55,.73-.83,.36-.83,.73,1.08,.36,1.08,.73-.38,.36-.38,.73,.59,.36,.59,.73-.5,.37-.5,.73,.45,.36,.45,.73,.17,.36,.17,.73-1.01,.37-1.01,.73,1.05,.36,1.05,.73-.59,.36-.59,.73-.77,.36-.77,.73,1.8,.37,1.8,.73-.96,.37-.96,.73,.17,.01,.47,.22c.37,.25,.23,.17,.49,.44Zm0,88.4c.25,.26-.47,.68-.11,.68s.36,.54,.72,.54,.36,.14,.72,.14,.36,.66,.72,.66,.36-.02,.72-.02,.36-2.17,.72-2.17,.36,.17,.72,.17,.36,1.68,.72,1.68,.36-.09,.72-.09,.36,0,.72,0,.36-1.35,.72-1.35,.36,.87,.72,.87,.36,.23,.72,.23,.36-.72,.72-.72,.36-.48,.72-.48,.36,1.68,.72,1.68,.36,.21,.72,.21,.36-2.29,.72-2.29,.36,2.29,.72,2.29,.36-.67,.72-.67,.36-1.65,.72-1.65,.36,2.09,.72,2.09,.36-1.81,.72-1.81,.36,.55,.72,.55,.36-.37,.72-.37,.36-.55,.72-.55,.36,.97,.72,.97,.36,1.56,.72,1.56,.36-2.65,.72-2.65,.36,1.35,.72,1.35,.36-1,.72-1,.36-.22,.72-.22,.36,1.08,.72,1.08,.36-.41,.72-.41,.36,1.75,.72,1.75,.36-.66,.72-.66,.36-.44,.72-.44,.36-.45,.72-.45,.36,.09,.72,.09,.36,.04,.72,.04,.36-.09,.72-.09,.36,.3,.72,.3,.36,.27,.72,.27,.36-.44,.72-.44,.36-.18,.72-.18,.36-.39,.72-.39,.36,1.83,.72,1.83,.36-1.46,.72-1.46,.36-.86,.72-.86,.36,2.51,.72,2.51,.36-.99,.72-.99,.36,.82,.72,.82,.36-1.23,.72-1.23,.36-.79,.72-.79,.36,1.69,.72,1.69,.36-1.55,.72-1.55,.36,2.02,.72,2.02,.36-1.77,.73-1.77,.36,.18,.72,.18,.36,.81,.72,.81,.36-1.32,.72-1.32,.36-.1,.73-.1,.36,1.13,.73,1.13,.36,.9,.73,.9,.36-2.25,.73-2.25,.36,1.79,.73,1.79,.36-.15,.73-.15,.36-.25,.72-.25,.36,.65,.73,.65,.36-1.28,.73-1.28,.37,.43,.73,.43,1.19,.95,1.45,.69-.06-1.09-.06-1.45-.73-.36-.73-.72-.41-.36-.41-.72-.28-.36-.28-.72,.48-.36,.48-.72,.04-.36,.04-.72,.31-.36,.31-.72,1.24-.36,1.24-.72-1.34-.36-1.34-.72,1.16-.36,1.16-.72-2.06-.36-2.06-.72,0-.36,0-.72,1.92-.36,1.92-.72-.9-.36-.9-.72-.62-.36-.62-.72-.39-.36-.39-.72,1.6-.36,1.6-.72-.18-.36-.18-.72-.66-.36-.66-.72-.78-.36-.78-.72,1.82-.36,1.82-.72-.79-.36-.79-.72,1.09-.36,1.09-.72-2.48-.36-2.48-.72,.73-.36,.73-.72,.7-.36,.7-.72,.27-.36,.27-.72-1.39-.36-1.39-.72,.74-.36,.74-.72,.7-.36,.7-.72,.53-.36,.53-.72-1.43-.36-1.43-.72,1.14-.36,1.14-.72-1.4-.36-1.4-.72,.87-.36,.87-.72-1.21-.36-1.21-.72,1.44-.36,1.44-.72-.7-.36-.7-.72-.6-.36-.6-.72,.58-.36,.58-.73,1.23-.36,1.23-.72-1.86-.36-1.86-.72,1.73-.36,1.73-.72,.46-.36,.46-.72-1.93-.36-1.93-.72,1.91-.36,1.91-.72-1.87-.36-1.87-.73-.4-.36-.4-.72,1.26-.36,1.26-.72,.73-.36,.73-.72-.48-.36-.48-.72-1.59-.36-1.59-.72,1.5-.36,1.5-.72,.87-.36,.87-.72-2.52-.36-2.52-.73,.7-.36,.7-.72-.1-.36-.1-.72,.96-.36,.96-.72-.19-.36-.19-.73,.96-.36,.96-.73-1.02-.36-1.02-.73,.45-.36,.45-.73-1.27-.36-1.27-.73,.6-.36,.6-.73,.09-.36,.09-.73,.31-.36,.31-.73-.71-.37-.71-.73-.08-.37-.08-.73,1.09-.71,.83-.98-.61,.76-.97,.76-.36,.14-.72,.14-.36-1.07-.72-1.07-.36-.26-.72-.26-.36,1.77-.72,1.77-.36-1.32-.72-1.32-.36-.71-.73-.71-.36,2.06-.72,2.06-.36-.09-.72-.09-.36-1.13-.72-1.13-.36,.34-.72,.34-.36-.19-.72-.19-.36-.49-.73-.49-.36-.77-.73-.77-.36,2.33-.73,2.33-.36-2.13-.72-2.13-.36,1.26-.73,1.26-.36-1.28-.72-1.28-.36,2.28-.72,2.28-.36-.24-.72-.24-.36-2.17-.73-2.17-.36,.39-.73,.39-.36,1.17-.73,1.17-.36-1.56-.72-1.56-.36,1.4-.73,1.4-.36-.4-.73-.4-.36,.9-.73,.9-.36-1.89-.73-1.89-.36,1.25-.73,1.25-.36,.22-.73,.22-.36-1.24-.73-1.24-.36,1.12-.73,1.12-.37,1.06-.73,1.06-.37-1.46-.73-1.46-.37,.45-.73,.45-.37-1.57-.73-1.57-.36,1.46-.71,1.46-.36-.02-.71-.02-.36,.36-.72,.36-.36-.51-.72-.51-.36,.19-.72,.19-.36,.13-.72,.13-.36-1.4-.72-1.4-.36,.74-.72,.74-.36,1.06-.72,1.06-.36,.55-.72,.55-.36-1.99-.72-1.99-.36,.88-.72,.88-.36-.41-.72-.41-.36-1.04-.72-1.04-.36,2.39-.72,2.39-.36-.37-.72-.37-.36-1.59-.72-1.59-.36,.2-.71,.2-.36-.63-.71-.63-.36,2.41-.72,2.41-.36-1.52-.72-1.52-.36,.82-.72,.82-.36,.13-.72,.13-.36-.21-.72-.21-.36,.72-.72,.72-.36-.87-.72-.87-.36-1.18-.72-1.18-.36,.47-.72,.47-.36,1.55-.72,1.55-.36-.28-.72-.28-.36-1.2-.72-1.2-.36,.75-.72,.75-.36,.85-.72,.85-.36-.14-.72-.14-.36-1.81-.73-1.81,.06,1.11-.19,1.37,.67-.17,.67,.19-.89,.36-.89,.72-1.39,.36-1.39,.72,1.66,.36,1.66,.72-1.65,.36-1.65,.72,1.01,.36,1.01,.72-.61,.36-.61,.72-.23,.36-.23,.72-.44,.36-.44,.72,2.31,.36,2.31,.72-1.72,.36-1.72,.72-.57,.36-.57,.72,.5,.36,.5,.72,.48,.36,.48,.72,.97,.36,.97,.72-1.97,.36-1.97,.72,.21,.36,.21,.72,1.55,.36,1.55,.72-.98,.36-.98,.72,1.58,.36,1.58,.72-2.27,.36-2.27,.72,2.56,.36,2.56,.72-1.23,.36-1.23,.72-.79,.36-.79,.72-.4,.36-.4,.72,.57,.36,.57,.72-.83,.36-.83,.72,.23,.36,.23,.72,2.15,.36,2.15,.72-.33,.36-.33,.72-1.39,.36-1.39,.72,.67,.36,.67,.72-.8,.36-.8,.72,1,.36,1,.72,.8,.36,.8,.72-1.64,.36-1.64,.72,1.6,.36,1.6,.72-1.77,.36-1.77,.72,.82,.36,.82,.72,1.15,.36,1.15,.73-1.73,.36-1.73,.72,.81,.36,.81,.72-1.02,.36-1.02,.72-.12,.36-.12,.72,.82,.36,.82,.72,.42,.36,.42,.72-.44,.36-.44,.73,.9,.36,.9,.72-.45,.36-.45,.72-.55,.36-.55,.72-.83,.36-.83,.72,1.08,.36,1.08,.72-.38,.36-.38,.72,.59,.36,.59,.72-.5,.36-.5,.73,.45,.36,.45,.72,.17,.36,.17,.72-1.01,.36-1.01,.72,1.05,.36,1.05,.73-.59,.36-.59,.73-.77,.36-.77,.73,1.8,.36,1.8,.73-.96,.36-.96,.73,.75,.36,.75,.73-.02,.36-.02,.73-1.42,.36-1.42,.73-.12,.37-.12,.73,.67,.47,.97,.67c.37,.25,.54-.29,.79-.03Zm90.52-88.4c.25,.26-.47,.68-.11,.68s.36,.54,.72,.54,.36,.14,.72,.14,.36,.66,.72,.66,.36-.02,.72-.02,.36-2.17,.72-2.17,.36,.17,.72,.17,.36,1.68,.72,1.68,.36-.09,.72-.09,.36,0,.72,0,.36-1.35,.72-1.35,.36,.87,.72,.87,.36,.23,.72,.23,.36-.72,.72-.72,.36-.48,.72-.48,.36,1.68,.72,1.68,.36,.21,.72,.21,.36-2.29,.72-2.29,.36,2.29,.72,2.29,.36-.67,.72-.67,.36-1.65,.72-1.65,.36,2.09,.72,2.09,.36-1.81,.72-1.81,.36,.55,.72,.55,.36-.37,.72-.37,.36-.55,.72-.55,.36,.97,.72,.97,.36,1.56,.73,1.56,.36-2.65,.72-2.65,.36,1.35,.72,1.35,.36-1,.73-1,.36-.22,.72-.22,.36,1.08,.72,1.08,.36-.41,.72-.41,.36,1.75,.73,1.75,.36-.66,.73-.66,.37-.44,.73-.44,.37-.45,.73-.45,.36,.09,.72,.09,.36,.04,.72,.04,.36-.09,.72-.09,.36,.3,.72,.3,.36,.27,.72,.27,.36-.44,.72-.44,.36-.18,.72-.18,.36-.39,.72-.39,.36,1.83,.72,1.83,.36-1.46,.72-1.46,.36-.86,.72-.86,.36,2.51,.72,2.51,.36-.99,.72-.99,.36,.82,.72,.82,.36-1.23,.72-1.23,.36-.79,.72-.79,.36,1.69,.72,1.69,.36-1.55,.72-1.55,.36,2.02,.72,2.02,.36-1.77,.72-1.77,.36,.18,.72,.18,.36,.81,.72,.81,.36-1.32,.72-1.32,.36-.1,.72-.1,.36,1.13,.72,1.13,.36,.9,.72,.9,.36-2.25,.72-2.25,.36,1.79,.73,1.79,.36-.15,.72-.15,.36-.25,.72-.25,.36,.65,.73,.65,.36-1.28,.72-1.28,.36,.43,.72,.43,.36,.98,.72,.98,.36-.37,.73-.37,.36-.73,.73-.73,.37-.41,.73-.41-.07,.19,.19-.06,.25,.18,.25-.18,.04-.36,.04-.72,.31-.36,.31-.72,1.24-.36,1.24-.72-1.34-.36-1.34-.72,1.16-.36,1.16-.72-2.06-.36-2.06-.72,0-.36,0-.72,1.92-.36,1.92-.72-.9-.36-.9-.72-.62-.36-.62-.72-.39-.36-.39-.72,1.6-.36,1.6-.72-.18-.36-.18-.72-.66-.36-.66-.72-.78-.36-.78-.72,1.82-.36,1.82-.72-.79-.36-.79-.72,1.09-.36,1.09-.72-2.48-.36-2.48-.72,.73-.36,.73-.72,.7-.36,.7-.72,.27-.36,.27-.72-1.39-.36-1.39-.72,.74-.36,.74-.72,.7-.36,.7-.72,.53-.36,.53-.72-1.43-.36-1.43-.72,1.14-.36,1.14-.72-1.4-.36-1.4-.72,.87-.36,.87-.72-1.21-.36-1.21-.72,1.44-.36,1.44-.72-.7-.36-.7-.72-.6-.36-.6-.72,.58-.36,.58-.72,1.23-.36,1.23-.72-1.86-.36-1.86-.72,1.73-.36,1.73-.72,.46-.36,.46-.73-1.93-.36-1.93-.72,1.91-.36,1.91-.72-1.87-.36-1.87-.72-.4-.36-.4-.72,1.26-.36,1.26-.72,.73-.36,.73-.72-.48-.36-.48-.73-1.59-.36-1.59-.72,1.5-.36,1.5-.72,.87-.36,.87-.72-2.52-.36-2.52-.72,.7-.36,.7-.72-.1-.36-.1-.72,.96-.36,.96-.72-.19-.36-.19-.73,.96-.36,.96-.72-1.02-.36-1.02-.72,.45-.36,.45-.72-1.27-.36-1.27-.73,.6-.36,.6-.73,.09-.36,.09-.73,.31-.36,.31-.73-.71-.36-.71-.73-.08-.36-.08-.73,.93-.36,.93-.73-.86-.36-.86-.73-.14-.37-.14-.73,1.07-.37,1.07-.73,.32-.95,.06-1.21-.84,1.56-1.2,1.56-.36-1.32-.72-1.32-.36-.71-.72-.71-.36,2.06-.72,2.06-.36-.09-.72-.09-.36-1.13-.72-1.13-.36,.34-.72,.34-.36-.19-.72-.19-.36-.49-.72-.49-.36-.77-.72-.77-.36,2.33-.72,2.33-.36-2.13-.72-2.13-.36,1.26-.72,1.26-.36-1.28-.72-1.28-.36,2.28-.72,2.28-.36-.24-.72-.24-.36-2.17-.72-2.17-.36,.39-.72,.39-.36,1.17-.72,1.17-.36-1.56-.72-1.56-.36,1.4-.72,1.4-.36-.4-.72-.4-.36,.9-.72,.9-.36-1.89-.72-1.89-.36,1.25-.72,1.25-.36,.22-.72,.22-.36-1.24-.72-1.24-.36,1.12-.72,1.12-.36,1.06-.72,1.06-.36-1.46-.72-1.46-.36,.45-.72,.45-.36-1.57-.72-1.57-.36,1.46-.72,1.46-.36-.02-.72-.02-.36,.36-.72,.36-.36-.51-.72-.51-.36,.19-.72,.19-.36,.13-.72,.13-.36-1.4-.72-1.4-.36,.74-.72,.74-.36,1.06-.72,1.06-.36,.55-.72,.55-.36-1.99-.72-1.99-.36,.88-.72,.88-.36-.41-.72-.41-.36-1.04-.72-1.04-.36,2.39-.72,2.39-.36-.37-.72-.37-.36-1.59-.72-1.59-.36,.2-.72,.2-.36-.63-.72-.63-.36,2.41-.72,2.41-.36-1.52-.72-1.52-.36,.82-.72,.82-.36,.13-.72,.13-.36-.21-.72-.21-.36,.72-.72,.72-.36-.87-.72-.87-.36-1.18-.72-1.18-.36,.47-.72,.47-.36,1.55-.72,1.55-.36-.28-.73-.28-.36-1.2-.72-1.2-.36,.75-.72,.75-.36,.85-.72,.85-.36-.14-.73-.14-.36-1.81-.73-1.81-.36,1.59-.73,1.59-.36,.45-.73,.45-.36-.89-.73-.89-.36-1.39-.73-1.39-.36,1.66-.73,1.66-.36-1.65-.73-1.65-.37,1.01-.73,1.01-.37-.61-.73-.61-1.09-.24-1.35,.02-.7,.99-.7,1.35,2.31,.36,2.31,.72-1.72,.36-1.72,.72-.57,.36-.57,.72,.5,.36,.5,.72,.48,.36,.48,.72,.97,.36,.97,.72-1.97,.36-1.97,.72,.21,.36,.21,.72,1.55,.36,1.55,.72-.98,.36-.98,.72,1.58,.36,1.58,.72-2.27,.36-2.27,.72,2.56,.36,2.56,.72-1.23,.36-1.23,.72-.79,.36-.79,.72-.4,.36-.4,.72,.57,.36,.57,.72-.83,.36-.83,.72,.23,.36,.23,.72,2.15,.36,2.15,.72-.33,.36-.33,.72-1.39,.36-1.39,.72,.67,.36,.67,.72-.8,.36-.8,.72,1,.36,1,.72,.8,.36,.8,.72-1.64,.36-1.64,.72,1.6,.36,1.6,.72-1.77,.36-1.77,.72,.82,.36,.82,.72,1.15,.36,1.15,.72-1.73,.36-1.73,.72,.81,.36,.81,.72-1.02,.36-1.02,.72-.12,.36-.12,.72,.82,.36,.82,.72,.42,.36,.42,.72-.44,.36-.44,.72,.9,.36,.9,.73-.45,.36-.45,.72-.55,.36-.55,.72-.83,.36-.83,.72,1.08,.36,1.08,.72-.38,.36-.38,.72,.59,.36,.59,.72-.5,.36-.5,.73,.45,.36,.45,.72,.17,.36,.17,.72-1.01,.36-1.01,.72,1.05,.36,1.05,.72-.59,.36-.59,.72-.77,.36-.77,.72,1.8,.36,1.8,.72-.96,.36-.96,.73,.75,.36,.75,.72-.02,.36-.02,.72-1.42,.36-1.42,.72-.12,.36-.12,.73,1,.36,1,.73-.79,.36-.79,.73,1.53,.36,1.53,.73-1.02,.36-1.02,.73-.75,.36-.75,.73,.51,.36,.51,.73,.88,.36,.88,.73-.18,.37-.18,.73-.39,.3-.09,.5c.37,.25,.42-.11,.68,.15Zm0,88.4c.25,.26-.47,.68-.11,.68s.36,.54,.72,.54,.36,.14,.72,.14,.36,.66,.72,.66,.36-.02,.72-.02,.36-2.17,.72-2.17,.36,.17,.72,.17,.36,1.68,.72,1.68,.36-.09,.72-.09,.36,0,.72,0,.36-1.35,.72-1.35,.36,.87,.72,.87,.36,.23,.72,.23,.36-.72,.72-.72,.36-.48,.72-.48,.36,1.68,.72,1.68,.36,.21,.72,.21,.36-2.29,.72-2.29,.36,2.29,.72,2.29,.36-.67,.72-.67,.36-1.65,.72-1.65,.36,2.09,.72,2.09,.36-1.81,.72-1.81,.36,.55,.72,.55,.36-.37,.72-.37,.36-.55,.72-.55,.36,.97,.72,.97,.36,1.56,.72,1.56,.36-2.65,.72-2.65,.36,1.35,.72,1.35,.36-1,.72-1,.36-.22,.72-.22,.36,1.08,.72,1.08,.36-.41,.72-.41,.36,1.75,.72,1.75,.36-.66,.72-.66,.36-.44,.72-.44,.36-.45,.72-.45,.36,.09,.72,.09,.36,.04,.72,.04,.36-.09,.72-.09,.36,.3,.72,.3,.36,.27,.72,.27,.36-.44,.72-.44,.36-.18,.72-.18,.36-.39,.72-.39,.36,1.83,.72,1.83,.36-1.46,.72-1.46,.36-.86,.72-.86,.36,2.51,.72,2.51,.36-.99,.72-.99,.36,.82,.72,.82,.36-1.23,.72-1.23,.36-.79,.72-.79,.36,1.69,.72,1.69,.36-1.55,.72-1.55,.36,2.02,.72,2.02,.36-1.77,.72-1.77,.36,.18,.72,.18,.36,.81,.72,.81,.36-1.32,.72-1.32,.36-.1,.73-.1,.36,1.13,.72,1.13,.36,.9,.72,.9,.36-2.25,.72-2.25,.36,1.79,.73,1.79,.36-.15,.73-.15,.36-.25,.73-.25,.36,.65,.73,.65,.36-1.28,.73-1.28,.36,.43,.73,.43,.36,.98,.73,.98,.36-.37,.73-.37,.37-.73,.73-.73,.37-.41,.73-.41-.07,.19,.2-.06,.25,.18,.25-.18,.04-.36,.04-.72,.31-.36,.31-.72,1.24-.36,1.24-.72-1.34-.36-1.34-.72,1.16-.36,1.16-.72-2.06-.36-2.06-.72,0-.36,0-.72,1.92-.36,1.92-.72-.9-.36-.9-.72-.62-.36-.62-.72-.39-.36-.39-.72,1.6-.36,1.6-.72-.18-.36-.18-.72-.66-.36-.66-.72-.78-.36-.78-.72,1.82-.36,1.82-.72-.79-.36-.79-.72,1.09-.36,1.09-.72-2.48-.36-2.48-.72,.73-.36,.73-.72,.7-.36,.7-.72,.27-.36,.27-.72-1.39-.36-1.39-.72,.74-.36,.74-.72,.7-.36,.7-.72,.53-.36,.53-.72-1.43-.36-1.43-.72,1.14-.36,1.14-.72-1.4-.36-1.4-.72,.87-.36,.87-.72-1.21-.36-1.21-.72,1.44-.36,1.44-.72-.7-.36-.7-.72-.6-.36-.6-.72,.58-.36,.58-.72,1.23-.36,1.23-.72-1.86-.36-1.86-.72,1.73-.36,1.73-.72,.46-.36,.46-.73-1.93-.36-1.93-.72,1.91-.36,1.91-.72-1.87-.36-1.87-.72-.4-.36-.4-.72,1.26-.36,1.26-.72,.73-.36,.73-.72-.48-.36-.48-.73-1.59-.36-1.59-.72,1.5-.36,1.5-.72,.87-.36,.87-.72-2.52-.36-2.52-.72,.7-.36,.7-.72-.1-.36-.1-.72,.96-.36,.96-.72-.19-.36-.19-.73,.96-.36,.96-.72-1.02-.36-1.02-.72,.45-.36,.45-.72-1.27-.36-1.27-.73,.6-.36,.6-.73,.09-.36,.09-.73,.31-.36,.31-.73-.71-.36-.71-.73-.08-.36-.08-.73,.93-.36,.93-.73-.86-.36-.86-.73-.14-.37-.14-.73,1.07-.37,1.07-.73,.32-.95,.06-1.21-.84,1.56-1.2,1.56-.36-1.32-.72-1.32-.36-.71-.72-.71-.36,2.06-.72,2.06-.36-.09-.72-.09-.36-1.13-.72-1.13-.36,.34-.72,.34-.36-.19-.72-.19-.36-.49-.72-.49-.36-.77-.72-.77-.36,2.33-.72,2.33-.36-2.13-.72-2.13-.36,1.26-.72,1.26-.36-1.28-.72-1.28-.36,2.28-.72,2.28-.36-.24-.72-.24-.36-2.17-.72-2.17-.36,.39-.72,.39-.36,1.17-.72,1.17-.36-1.56-.72-1.56-.36,1.4-.72,1.4-.36-.4-.72-.4-.36,.9-.72,.9-.36-1.89-.72-1.89-.36,1.25-.72,1.25-.36,.22-.72,.22-.36-1.24-.72-1.24-.36,1.12-.73,1.12-.36,1.06-.72,1.06-.36-1.46-.72-1.46-.36,.45-.73,.45-.36-1.57-.72-1.57-.36,1.46-.72,1.46-.36-.02-.72-.02-.36,.36-.73,.36-.36-.51-.73-.51-.37,.19-.73,.19-.37,.13-.73,.13-.36-1.4-.72-1.4-.36,.74-.72,.74-.36,1.06-.72,1.06-.36,.55-.72,.55-.36-1.99-.72-1.99-.36,.88-.72,.88-.36-.41-.72-.41-.36-1.04-.72-1.04-.36,2.39-.72,2.39-.36-.37-.72-.37-.36-1.59-.72-1.59-.36,.2-.72,.2-.36-.63-.72-.63-.36,2.41-.72,2.41-.36-1.52-.72-1.52-.36,.82-.72,.82-.36,.13-.72,.13-.36-.21-.72-.21-.36,.72-.72,.72-.36-.87-.72-.87-.36-1.18-.72-1.18-.36,.47-.72,.47-.36,1.55-.72,1.55-.36-.28-.72-.28-.36-1.2-.72-1.2-.36,.75-.72,.75-.36,.85-.72,.85-.36-.14-.73-.14-.36-1.81-.72-1.81-.36,1.59-.72,1.59-.36,.45-.73,.45-.36-.89-.72-.89-.36-1.39-.72-1.39-.36,1.66-.72,1.66-.36-1.65-.73-1.65-.36,1.01-.73,1.01-.37-.61-.73-.61-1.09-.24-1.35,.02-.7,.99-.7,1.35,2.31,.36,2.31,.72-1.72,.36-1.72,.72-.57,.36-.57,.72,.5,.36,.5,.72,.48,.36,.48,.72,.97,.36,.97,.72-1.97,.36-1.97,.72,.21,.36,.21,.72,1.55,.36,1.55,.72-.98,.36-.98,.72,1.58,.36,1.58,.72-2.27,.36-2.27,.72,2.56,.36,2.56,.72-1.23,.36-1.23,.72-.79,.36-.79,.72-.4,.36-.4,.72,.57,.36,.57,.72-.83,.36-.83,.72,.23,.36,.23,.72,2.15,.36,2.15,.72-.33,.36-.33,.72-1.39,.36-1.39,.72,.67,.36,.67,.72-.8,.36-.8,.72,1,.36,1,.72,.8,.36,.8,.72-1.64,.36-1.64,.72,1.6,.36,1.6,.72-1.77,.36-1.77,.72,.82,.36,.82,.72,1.15,.36,1.15,.72-1.73,.36-1.73,.72,.81,.36,.81,.72-1.02,.36-1.02,.72-.12,.36-.12,.72,.82,.36,.82,.72,.42,.36,.42,.72-.44,.36-.44,.72,.9,.36,.9,.73-.45,.36-.45,.72-.55,.36-.55,.72-.83,.36-.83,.72,1.08,.36,1.08,.72-.38,.36-.38,.72,.59,.36,.59,.72-.5,.36-.5,.73,.45,.36,.45,.72,.17,.36,.17,.72-1.01,.36-1.01,.72,1.05,.36,1.05,.72-.59,.36-.59,.72-.77,.36-.77,.72,1.8,.36,1.8,.72-.96,.36-.96,.73,.75,.36,.75,.72-.02,.36-.02,.72-1.42,.36-1.42,.72-.12,.36-.12,.73,1,.36,1,.73-.79,.36-.79,.73,1.53,.36,1.53,.73-1.02,.36-1.02,.73-.75,.36-.75,.73,.51,.36,.51,.73,.88,.36,.88,.73-.18,.37-.18,.73-.39,.3-.09,.5c.37,.25,.42-.12,.68,.15Z"/></svg>